<svg width="16" height="16" viewBox="0 0 16 16" fill="none" xmlns="http://www.w3.org/2000/svg">
<g clip-path="url(#clip0)">
<path d="M6.82535 2.57347L1.17868 12.0001C1.06226 12.2018 1.00066 12.4303 1.00001 12.6631C0.999353 12.896 1.05967 13.1249 1.17496 13.3272C1.29025 13.5294 1.4565 13.698 1.65715 13.816C1.85781 13.9341 2.08588 13.9976 2.31868 14.0001H13.612C13.8448 13.9976 14.0729 13.9341 14.2735 13.816C14.4742 13.698 14.6404 13.5294 14.7557 13.3272C14.871 13.1249 14.9313 12.896 14.9307 12.6631C14.93 12.4303 14.8684 12.2018 14.752 12.0001L9.10535 2.57347C8.9865 2.37754 8.81916 2.21555 8.61948 2.10313C8.41979 1.9907 8.1945 1.93164 7.96535 1.93164C7.73619 1.93164 7.5109 1.9907 7.31122 2.10313C7.11153 2.21555 6.94419 2.37754 6.82535 2.57347V2.57347Z" stroke="#F06450" stroke-linecap="round" stroke-linejoin="round"/>
<path d="M8 6V8.66667" stroke="#F06450" stroke-linecap="round" stroke-linejoin="round"/>
<path d="M7 11C7 11.5523 7.44772 12 8 12C8.55228 12 9 11.5523 9 11C9 10.4477 8.55228 10 8 10C7.44772 10 7 10.4477 7 11Z" fill="#F06450"/>
</g>
<defs>
<clipPath id="clip0">
<rect width="16" height="16" fill="white"/>
</clipPath>
</defs>
</svg>
