<svg width="65" height="65" viewBox="0 0 65 65" fill="none" xmlns="http://www.w3.org/2000/svg">
<path d="M32.5 65C50.4493 65 65 50.4493 65 32.5C65 14.5507 50.4493 0 32.5 0C14.5507 0 0 14.5507 0 32.5C0 50.4493 14.5507 65 32.5 65Z" fill="#DE5A46"/>
<path d="M32.5 39.1602C22.4293 39.1602 14.2695 47.3242 14.2695 57.3905C14.2695 58.1012 14.3129 58.8031 14.3952 59.4921C19.5692 62.9718 25.8006 64.9998 32.5042 64.9998C39.2079 64.9998 45.4349 62.9675 50.6133 59.4921C50.6912 58.8031 50.7389 58.1012 50.7389 57.3905C50.7303 47.3198 42.5707 39.1602 32.5 39.1602Z" fill="#E8C0FC"/>
<path d="M36.2227 36.0424C36.9203 34.3914 38.5542 33.2344 40.4565 33.2344C42.3589 33.2344 43.9923 34.3914 44.69 36.0424" stroke="black" stroke-width="1.4" stroke-miterlimit="10" stroke-linecap="round" stroke-linejoin="round"/>
<path d="M19.9727 36.0424C20.6703 34.3914 22.3042 33.2344 24.2065 33.2344C26.1089 33.2344 27.7423 34.3914 28.44 36.0424" stroke="black" stroke-width="1.4" stroke-miterlimit="10" stroke-linecap="round" stroke-linejoin="round"/>
<path d="M37.0195 42.7617L32.5 46.3801L27.9805 42.7617C27.9805 42.7617 37.0629 42.8051 37.0195 42.7617Z" fill="#DE5A46" stroke="black" stroke-width="1.4" stroke-miterlimit="10" stroke-linecap="round" stroke-linejoin="round"/>
<path d="M32.6484 46.5391V51.0241" stroke="black" stroke-width="1.4" stroke-miterlimit="10" stroke-linecap="round" stroke-linejoin="round"/>
<path d="M32.3613 18.8281V27.6335" stroke="black" stroke-width="1.4" stroke-miterlimit="10" stroke-linecap="round" stroke-linejoin="round"/>
<path d="M36.6934 18.8281V25.5014" stroke="black" stroke-width="1.4" stroke-miterlimit="10" stroke-linecap="round" stroke-linejoin="round"/>
<path d="M28.0273 18.8281V25.5014" stroke="black" stroke-width="1.4" stroke-miterlimit="10" stroke-linecap="round" stroke-linejoin="round"/>
<path d="M56.1816 53.0992L50.7912 9.36719L41.2058 18.9525H41.1711H23.7988L14.2134 9.36719L8.81836 53.0992" stroke="black" stroke-width="1.4" stroke-miterlimit="10" stroke-linecap="round" stroke-linejoin="round"/>
<path d="M55.3621 46.9844H46.5566" stroke="black" stroke-width="1.4" stroke-miterlimit="10" stroke-linecap="round" stroke-linejoin="round"/>
<path d="M55.7961 51.3164H49.123" stroke="black" stroke-width="1.4" stroke-miterlimit="10" stroke-linecap="round" stroke-linejoin="round"/>
<path d="M54.9289 42.6523H48.2559" stroke="black" stroke-width="1.4" stroke-miterlimit="10" stroke-linecap="round" stroke-linejoin="round"/>
<path d="M9.72266 46.9844H18.5281" stroke="black" stroke-width="1.4" stroke-miterlimit="10" stroke-linecap="round" stroke-linejoin="round"/>
<path d="M10.1562 42.6523H16.8255" stroke="black" stroke-width="1.4" stroke-miterlimit="10" stroke-linecap="round" stroke-linejoin="round"/>
<path d="M9.29102 51.3164H15.9603" stroke="black" stroke-width="1.4" stroke-miterlimit="10" stroke-linecap="round" stroke-linejoin="round"/>
</svg>
