<svg width="9" height="9" fill="none" xmlns="http://www.w3.org/2000/svg">
<rect x="9" width="2" height="2" fill="#262626"/>
<rect x="9" y="18" width="2" height="2" fill="#262626"/>
<rect x="27" width="2" height="2" fill="#262626"/>
<rect x="27" y="18" width="2" height="2" fill="#262626"/>
<rect x="45" width="2" height="2" fill="#262626"/>
<rect x="45" y="18" width="2" height="2" fill="#262626"/>
<rect x="9" y="9" width="2" height="2" fill="#262626"/>
<rect x="9" y="27" width="2" height="2" fill="#262626"/>
<rect x="27" y="9" width="2" height="2" fill="#262626"/>
<rect x="27" y="27" width="2" height="2" fill="#262626"/>
<rect x="45" y="9" width="2" height="2" fill="#262626"/>
<rect x="45" y="27" width="2" height="2" fill="#262626"/>
<rect width="2" height="2" fill="#262626"/>
<rect y="18" width="2" height="2" fill="#262626"/>
<rect x="18" width="2" height="2" fill="#262626"/>
<rect x="18" y="18" width="2" height="2" fill="#262626"/>
<rect x="36" width="2" height="2" fill="#262626"/>
<rect x="36" y="18" width="2" height="2" fill="#262626"/>
<rect y="9" width="2" height="2" fill="#262626"/>
<rect y="27" width="2" height="2" fill="#262626"/>
<rect x="18" y="9" width="2" height="2" fill="#262626"/>
<rect x="18" y="27" width="2" height="2" fill="#262626"/>
<rect x="36" y="9" width="2" height="2" fill="#262626"/>
<rect x="36" y="27" width="2" height="2" fill="#262626"/>
</svg>
