<svg width="24" height="24" viewBox="0 0 24 24" fill="none" xmlns="http://www.w3.org/2000/svg">
<path d="M17.0021 8.80085C17.0021 7.52759 16.4963 6.30647 15.596 5.40614C14.6957 4.5058 13.4745 4 12.2013 4C10.928 4 9.7069 4.5058 8.80656 5.40614C7.90623 6.30647 7.40043 7.52759 7.40043 8.80085C7.40043 14.4018 5 16.0021 5 16.0021H19.4026C19.4026 16.0021 17.0021 14.4018 17.0021 8.80085Z" stroke="black" stroke-width="1.2" stroke-linecap="round" stroke-linejoin="round"/>
<path d="M13.5855 19.2026C13.4448 19.4451 13.2429 19.6464 13 19.7864C12.757 19.9263 12.4816 19.9999 12.2013 19.9999C11.9209 19.9999 11.6455 19.9263 11.4025 19.7864C11.1596 19.6464 10.9577 19.4451 10.817 19.2026" stroke="black" stroke-width="1.2" stroke-linecap="round" stroke-linejoin="round"/>
</svg>
