<svg width="480" height="524" viewBox="0 0 480 524" fill="none" xmlns="http://www.w3.org/2000/svg">
<g clip-path="url(#clip0_8279_10341)">
<path d="M-277 254.5V524H202H681V254.5V-15H202H-277V254.5ZM-51.6704 4.88806C-50.7723 5.71155 -51.3461 7.2088 -52.5935 7.2088C-52.9178 7.2088 -53.3669 7.03412 -53.5665 6.80951C-54.0405 6.36035 -54.0904 5.1875 -53.6662 4.76331C-53.2421 4.33911 -52.2193 4.38898 -51.6704 4.88806ZM266.84 6.98419C267.413 7.18384 267.613 7.40845 267.613 7.83264C267.613 9.10529 266.241 9.52948 265.443 8.50635C265.018 7.9823 265.043 7.58307 265.517 7.10895C265.966 6.63483 265.867 6.63483 266.84 6.98419ZM452.452 7.08398C454.523 8.13202 453.749 11.7004 451.454 11.7004C448.959 11.7004 447.887 8.9306 449.783 7.33356C450.631 6.63483 451.429 6.53497 452.452 7.08398ZM131.173 17.1903C132.096 17.6894 131.522 19.4361 130.424 19.4361C129.551 19.4361 129.027 18.2383 129.551 17.4648C129.975 16.8908 130.424 16.816 131.173 17.1903ZM647.021 17.6893C647.719 18.1136 647.819 18.3132 647.819 19.1866C647.819 20.5341 647.245 21.3575 646.048 21.7069C645.25 21.9564 645 21.9315 644.451 21.5821C643.553 20.9832 643.079 19.8104 643.354 18.8372C643.803 17.2651 645.474 16.7411 647.021 17.6893ZM-163.786 30.2161C-163.312 30.6902 -163.437 31.7882 -163.986 32.2873C-165.134 33.3104 -166.88 31.5636 -165.857 30.4157C-165.358 29.8668 -164.26 29.742 -163.786 30.2161ZM559.853 31.5137C561.524 32.2124 562.398 34.3584 561.649 35.9554C560.152 39.0746 555.861 38.6754 555.263 35.3566C555.013 34.0839 555.387 33.0858 556.41 32.1126C557.483 31.1394 558.531 30.9647 559.853 31.5137ZM377.134 39.6486C380.078 39.998 382.024 40.4721 383.771 41.3205C385.143 41.9693 385.392 42.3436 384.768 42.8676C384.569 43.0173 384.045 43.7909 383.596 44.5395C383.122 45.3131 382.299 46.6356 381.725 47.4591C380.203 49.7549 378.432 52.6994 377.858 53.9221C377.583 54.521 377.01 55.6689 376.61 56.4923C375.937 57.8149 374.914 60.1356 373.417 63.8537C372.045 67.1975 371.696 73.6855 372.793 75.1078C372.943 75.3074 373.193 75.8065 373.367 76.2307C373.866 77.4784 375.837 79.2002 377.633 79.9488C379.904 80.8971 381.825 81.1216 384.12 80.7224C386.789 80.2233 387.737 79.8241 390.756 77.9026C395.047 75.1827 401.558 68.4452 405.45 62.7308L405.8 62.2317L405.949 62.7308C406.049 63.0053 406.274 63.5542 406.448 63.9785C407.022 65.2511 408.02 68.6448 408.294 70.2169C408.419 71.0404 408.619 73.2363 408.718 75.1078C408.893 78.5265 408.843 78.776 407.92 82.7935C407.571 84.2658 406.174 87.5597 405.899 87.5597C405.825 87.5597 405.176 87.0107 404.427 86.337C403.28 85.2889 402.856 85.0644 401.284 84.715C396.294 83.617 393.226 84.6152 388.062 88.9821C386.515 90.2797 382.398 95.3702 381.126 97.5412C380.852 98.0153 380.178 99.0883 379.654 99.9118C379.105 100.735 378.132 102.407 377.509 103.655C376.86 104.878 376.261 105.976 376.161 106.1C376.062 106.2 374.864 106.175 373.492 106.025C372.145 105.876 370.623 105.726 370.149 105.676C368.777 105.526 366.332 105.002 365.808 104.728C365.534 104.578 364.76 104.329 364.062 104.154C363.363 103.954 362.29 103.63 361.717 103.43C359.82 102.732 355.505 100.511 355.055 100.037C354.831 99.787 354.307 99.4377 353.908 99.288C352.985 98.8887 352.985 98.5393 354.058 96.7926C354.532 95.994 354.931 95.2704 354.931 95.1956C354.931 95.0957 355.38 94.0477 355.954 92.8499C357.001 90.6041 359.421 83.617 359.87 81.446C360.893 76.5801 360.07 73.0866 357.301 70.6411C356.677 70.0921 355.529 69.4184 354.731 69.1189C352.161 68.1707 347.995 68.4452 346.074 69.6679C345.6 69.9673 344.677 70.5413 344.029 70.9655C343.38 71.3647 342.606 71.9636 342.357 72.313L341.858 72.9119L341.658 72.313C341.359 71.5145 341.633 68.0459 342.257 64.9766C342.532 63.6042 342.781 62.4563 342.806 62.4313C342.831 62.4064 343.455 62.606 344.203 62.8555C350.016 64.8768 356.003 60.7594 361.517 51.0025C363.513 47.4841 366.132 41.6698 366.232 40.5968C366.282 40.0479 366.681 39.973 370.423 39.6486C372.12 39.4989 373.642 39.3242 373.766 39.2743C373.916 39.2244 374.191 39.2244 374.39 39.2993C374.59 39.3492 375.837 39.4989 377.134 39.6486ZM365.159 40.8214C365.159 40.9961 364.136 43.5414 363.388 45.2632C362.615 46.985 359.546 52.6495 358.947 53.3731C358.573 53.8473 358.074 54.5959 357.85 55.045C357.176 56.3177 353.209 60.0607 351.438 61.1088C349.367 62.3315 347.047 62.631 344.877 62.0071C344.103 61.7825 343.405 61.4831 343.33 61.3583C343.105 61.0089 344.827 56.9415 345.7 55.6938C346.124 55.1199 346.448 54.546 346.448 54.4212C346.448 54.2715 346.972 53.473 347.646 52.6495C348.295 51.826 349.093 50.753 349.442 50.2789C350.44 48.8815 354.033 45.8621 356.378 44.4397C360.519 41.9443 365.159 40.0229 365.159 40.8214ZM387.912 43.192C391.38 45.0386 391.18 44.8889 394.548 47.6088C396.394 49.0811 399.538 52.2752 400.461 53.6227C400.785 54.0968 401.484 55.045 401.958 55.7437C403.405 57.7401 404.477 59.412 404.951 60.4101L405.375 61.3583L404.677 62.2068C404.278 62.6809 403.629 63.5543 403.205 64.1032C402.806 64.6772 401.933 65.7502 401.284 66.4489C400.61 67.1725 400.086 67.8712 400.086 67.996C400.086 68.3703 394.822 73.6355 392.852 75.2326C390.956 76.7797 387.588 78.801 386.066 79.3C383.346 80.1984 379.879 80.0985 377.858 79.0754C376.261 78.252 374.64 76.605 373.941 75.0829C372.694 72.3629 372.993 67.5968 374.64 63.4794C375.039 62.5062 375.463 61.3334 375.613 60.8343C375.937 59.8112 378.731 54.1966 379.205 53.6726C379.38 53.4979 379.904 52.5497 380.378 51.6264C381.126 50.1541 386.091 42.4185 386.315 42.3935C386.34 42.3935 387.064 42.7678 387.912 43.192ZM87.9132 54.521C88.7115 54.7456 89.7094 54.9951 90.1335 55.0949C90.9568 55.3195 93.6512 57.0164 94.7988 58.0894C95.8466 59.0376 96.9693 60.7345 97.4932 62.2068C98.0919 63.8287 98.541 67.3223 98.3414 68.8195C97.8923 72.0135 96.3955 75.008 94.4246 76.5801C91.356 79.0505 86.6658 80.1485 83.198 79.2252C80.6534 78.5265 80.2791 78.3518 79.0816 77.4535C76.5869 75.5819 74.7157 72.6624 73.8675 69.3185C73.2687 67.0228 73.4683 62.8306 74.2168 61.3833C74.5161 60.8093 74.7656 60.2354 74.7656 60.0857C74.7656 59.936 75.2147 59.3121 75.7635 58.6883C76.3124 58.0644 76.7615 57.4655 76.7615 57.3657C76.7615 57.0164 79.4059 55.4693 81.1273 54.8205C83.223 54.0469 85.7427 53.9221 87.9132 54.521ZM330.182 58.0894C330.382 58.1892 330.482 58.5635 330.432 58.8879C330.382 59.362 330.207 59.4868 329.609 59.4868C329.01 59.4868 328.835 59.362 328.785 58.8879C328.686 58.314 329.06 57.8648 329.609 57.8648C329.758 57.8648 330.008 57.9646 330.182 58.0894ZM57.851 59.4868C58.2252 60.2853 57.7761 61.3583 57.0775 61.3583C55.9798 61.3583 55.3312 59.6615 56.2543 59.1375C56.9778 58.7132 57.5516 58.838 57.851 59.4868ZM209.484 68.5949C210.857 69.9674 208.886 71.9637 207.439 70.666C206.89 70.167 206.865 69.3934 207.389 68.6448C207.863 67.9461 208.811 67.9212 209.484 68.5949ZM354.507 70.0921C357.076 71.0653 358.448 72.7372 359.072 75.7566C359.421 77.3786 359.272 79.6743 358.673 82.0948C358.523 82.6937 358.299 83.5921 358.199 84.0662C357.974 84.9396 357.301 87.0107 356.552 89.0569C356.328 89.6808 355.405 91.6771 354.532 93.4737C353.658 95.2953 352.81 97.067 352.685 97.4164C352.561 97.7658 352.336 98.0403 352.211 98.0403C351.363 98.0403 346.274 91.8767 345.7 90.1798C345.525 89.6558 345.176 88.8573 344.902 88.4081C343.754 86.4618 342.407 81.7705 341.958 78.2021C341.833 77.2289 341.658 75.8564 341.559 75.1328C341.434 74.1845 341.459 73.8352 341.708 73.8352C341.858 73.8352 342.532 73.386 343.155 72.8121C344.453 71.6891 347.197 70.192 348.943 69.6929C350.365 69.2936 352.81 69.4683 354.507 70.0921ZM-262.555 80.7473C-262.106 81.2714 -262.006 81.5958 -262.131 82.2945C-262.306 83.3925 -262.705 83.7917 -263.852 83.9913C-264.9 84.1411 -265.349 83.8666 -265.923 82.7437C-266.397 81.8453 -266.073 80.8721 -265.075 80.2483C-264.227 79.7243 -263.329 79.8989 -262.555 80.7473ZM400.062 85.4387C401.758 85.6632 403.604 86.6364 404.502 87.7593L405.301 88.7575L403.779 91.0283C402.955 92.276 402.182 93.2991 402.057 93.2991C401.958 93.2991 401.533 93.7732 401.134 94.3721L400.411 95.4451L400.86 96.6678C401.484 98.4645 402.706 100.86 403.205 101.284C403.43 101.484 403.978 102.133 404.402 102.757C404.827 103.38 405.949 104.628 406.872 105.501C407.82 106.375 408.544 107.123 408.519 107.148C408.419 107.248 406.249 106.674 404.702 106.15C402.357 105.377 398.315 103.281 396.419 101.858C394.698 100.586 394.473 100.486 393.999 100.785C391.829 102.158 388.635 103.655 385.716 104.678C383.097 105.576 377.159 106.425 377.434 105.826C378.507 103.48 382.673 96.7676 384.22 94.9211C384.793 94.2224 385.592 93.2242 385.966 92.6752C388.311 89.4562 393.301 85.9377 396.344 85.3388C397.442 85.1143 397.816 85.1392 400.062 85.4387ZM519.462 86.1873C519.462 86.7362 518.689 87.0107 518.265 86.5865C518.09 86.4118 518.115 86.2122 518.34 85.9377C518.764 85.4137 519.462 85.5634 519.462 86.1873ZM615.736 90.5292C616.11 90.9285 616.11 91.0782 615.836 91.5273C615.287 92.4257 614.14 92.1013 614.14 91.0532C614.14 90.0301 615.013 89.7307 615.736 90.5292ZM483.363 102.956C483.462 103.655 482.514 104.004 481.99 103.455C481.417 102.881 481.766 102.232 482.589 102.332C483.088 102.382 483.313 102.557 483.363 102.956ZM566.863 120.424C568.011 121.372 569.308 122.47 572.227 124.99C574.547 126.987 582.181 134.797 582.755 135.77C583.03 136.219 583.628 136.993 584.077 137.467C584.526 137.941 585.375 139.039 585.973 139.913C588.693 143.805 589.691 145.328 589.691 145.577C589.691 145.702 590.09 146.326 590.564 146.925C591.038 147.523 591.437 148.147 591.437 148.297C591.437 148.447 591.711 148.971 592.011 149.445C592.635 150.368 594.431 154.186 595.229 156.307C597.25 161.672 599.196 168.984 598.722 169.458C598.223 169.957 598.248 170.057 597.075 164.791C596.601 162.67 596.277 161.647 595.703 160.175C595.454 159.551 595.104 158.653 594.93 158.179C594.181 156.058 593.383 154.011 592.759 152.714C591.113 149.17 586.647 141.859 585.599 140.986C585.375 140.811 585.2 140.536 585.2 140.412C585.2 140.087 584.102 138.64 582.206 136.469C581.283 135.446 580.385 134.348 580.161 134.048C578.913 132.202 570.057 123.917 566.689 121.447C565.092 120.274 564.543 119.5 565.341 119.5C565.541 119.5 566.215 119.925 566.863 120.424ZM46.9238 132.626C47.7221 133.425 47.1982 134.722 46.0755 134.722C44.7533 134.722 44.2793 133.624 45.1275 132.526C45.4768 132.102 46.4498 132.152 46.9238 132.626ZM290.69 134.847C290.69 135.596 289.717 135.521 289.617 134.772C289.542 134.273 289.617 134.198 290.116 134.273C290.49 134.323 290.69 134.523 290.69 134.847ZM549.949 141.959C550.098 141.959 550.572 142.233 550.971 142.583C552.294 143.681 552.319 145.577 551.021 146.95C550.473 147.548 550.123 147.698 549.275 147.698C546.631 147.698 545.208 145.452 546.506 143.306C547.03 142.433 548.427 141.659 549.15 141.834C549.425 141.909 549.774 141.959 549.949 141.959ZM-11.13 149.744C-10.5063 150.268 -10.0573 151.591 -10.207 152.414C-10.4066 153.413 -11.4045 154.386 -12.4273 154.585C-13.3504 154.76 -14.6477 154.211 -15.0469 153.462C-15.6706 152.265 -15.0469 150.044 -13.9242 149.47C-13.3005 149.145 -11.6539 149.295 -11.13 149.744ZM441.899 149.794C442.448 150.668 442.248 151.491 441.4 151.89C440.003 152.589 439.005 151.491 439.654 149.969C439.903 149.345 440.128 149.195 440.727 149.195C441.251 149.195 441.6 149.37 441.899 149.794ZM198.857 152.34C199.405 152.539 199.356 153.512 198.782 154.036C198.158 154.61 197.31 154.361 197.11 153.537C196.836 152.514 197.734 151.915 198.857 152.34ZM-224.859 161.872C-223.736 162.795 -224.959 164.442 -226.281 163.843C-227.354 163.369 -226.905 161.473 -225.707 161.423C-225.532 161.423 -225.158 161.622 -224.859 161.872ZM357.9 169.133C358.149 169.283 358.174 169.632 358.049 170.381C357.924 171.205 357.725 171.479 357.251 171.679C355.854 172.203 354.532 170.281 355.679 169.358C356.253 168.884 357.326 168.759 357.9 169.133ZM-117.957 172.901C-117.957 173.351 -118.107 173.55 -118.481 173.6C-119.13 173.7 -119.479 173.001 -119.055 172.477C-118.606 171.953 -117.957 172.203 -117.957 172.901ZM629.857 180.387C630.356 180.887 630.456 181.186 630.356 181.885C630.181 183.132 628.21 183.607 627.512 182.583C626.988 181.835 627.013 181.336 627.636 180.537C628.26 179.764 629.158 179.689 629.857 180.387ZM83.0483 190.643C83.697 190.993 84.4953 192.465 84.4953 193.338C84.4953 195.11 83.223 196.358 81.4267 196.358C78.3332 196.358 77.1107 192.191 79.7303 190.519C80.4038 190.094 82.1253 190.144 83.0483 190.643ZM582.032 191.617C582.78 192.465 582.88 193.289 582.331 194.362C581.882 195.235 581.258 195.609 580.285 195.609C579.387 195.609 578.065 194.786 577.84 194.112C577.441 192.889 578.24 191.267 579.462 190.793C580.185 190.494 581.333 190.868 582.032 191.617ZM542.414 195.085C546.032 195.509 549.899 197.156 553.267 199.702C556.41 202.072 558.156 203.869 559.878 206.564C560.028 206.789 560.452 207.437 560.826 208.036C563.096 211.48 564.094 217.918 563.096 222.709C562.348 226.377 560.052 230.619 557.333 233.414C555.088 235.735 550.697 238.28 548.252 238.654C547.653 238.729 546.406 239.004 545.483 239.228C544.061 239.578 543.362 239.578 540.369 239.353C538.048 239.178 536.402 238.929 535.304 238.53C532.934 237.731 529.816 236.184 528.593 235.236C524.826 232.266 523.878 231.193 522.481 228.324C521.982 227.325 521.583 226.377 521.583 226.252C521.583 226.128 521.433 225.654 521.234 225.229C520.335 223.233 519.986 220.912 520.036 217.144C520.086 213.077 520.784 210.132 522.78 205.84C523.728 203.769 524.626 202.472 526.498 200.475C527.471 199.452 530.04 197.356 530.365 197.356C530.464 197.356 531.038 197.032 531.637 196.607C532.335 196.133 533.433 195.734 534.705 195.484C535.778 195.26 536.726 195.01 536.776 194.96C536.976 194.786 540.369 194.861 542.414 195.085ZM-251.503 208.261C-250.63 209.034 -251.254 210.581 -252.451 210.581C-253.649 210.581 -254.198 209.209 -253.374 208.286C-252.875 207.737 -252.102 207.712 -251.503 208.261ZM659.295 215.323C659.844 215.872 659.969 217.044 659.495 217.519C659.071 217.943 657.798 217.893 657.25 217.394C656.326 216.57 656.975 214.824 658.223 214.824C658.522 214.824 659.021 215.048 659.295 215.323ZM264.445 229.596C264.944 230.27 264.944 230.32 264.544 231.168C264.195 231.892 263.996 232.042 263.322 232.042C262.374 232.042 261.376 231.193 261.376 230.395C261.376 229.671 262.549 228.748 263.322 228.848C263.671 228.897 264.17 229.222 264.445 229.596ZM-163.637 233.19C-162.714 234.088 -163.537 236.034 -164.809 236.034C-165.583 236.034 -166.481 235.161 -166.481 234.412C-166.481 233.09 -164.56 232.266 -163.637 233.19ZM454.672 233.589C455.421 234.337 454.747 235.66 453.7 235.485C452.901 235.361 452.577 234.712 452.926 233.938C453.25 233.239 454.149 233.065 454.672 233.589ZM339.338 234.288C339.338 234.737 339.189 234.936 338.764 234.986C338.091 235.086 337.767 234.437 338.216 233.888C338.69 233.339 339.338 233.564 339.338 234.288ZM-83.953 238.779C-82.4062 239.054 -80.5352 239.453 -79.7867 239.653C-77.5663 240.226 -72.6766 242.273 -71.3044 243.171C-70.6308 243.645 -69.9822 244.019 -69.8574 244.019C-69.5082 244.019 -66.8138 245.891 -64.4437 247.787C-62.1735 249.634 -57.6579 254.176 -57.134 255.149C-57.0093 255.398 -56.6351 255.897 -56.3107 256.247C-54.9386 257.744 -51.396 263.533 -50.8471 265.155C-50.6226 265.779 -50.2983 266.603 -50.0737 267.002C-49.5748 268 -48.5519 270.944 -47.9781 273.14C-46.8056 277.632 -46.6309 283.297 -47.5041 288.312C-47.8284 290.034 -48.8762 293.303 -49.3503 294.077C-49.5249 294.351 -50.1486 295.474 -50.7224 296.572C-51.2962 297.645 -52.1943 299.092 -52.6933 299.791C-53.2172 300.465 -54.0904 301.662 -54.6642 302.461C-56.161 304.507 -61.0009 309.174 -63.0716 310.546C-66.8637 313.091 -68.635 314.139 -69.2088 314.139C-69.3834 314.139 -69.7077 314.289 -69.9073 314.464C-71.2046 315.512 -77.5913 317.308 -82.1568 317.882C-85.8241 318.332 -93.3085 317.882 -96.2773 317.009C-98.0985 316.485 -98.323 316.535 -98.7222 317.508C-98.9218 317.982 -99.271 318.456 -99.4706 318.531C-99.6702 318.606 -99.8947 318.906 -99.9696 319.205C-100.144 319.929 -103.637 323.397 -105.234 324.42C-105.907 324.869 -106.98 325.618 -107.604 326.067C-109.674 327.614 -114.739 330.06 -116.71 330.484C-117.533 330.659 -118.531 330.933 -118.905 331.083C-120.277 331.632 -120.177 331.332 -118.182 329.286C-116.385 327.465 -115.362 326.192 -113.691 323.747C-112.743 322.374 -111.022 317.583 -110.697 315.387C-110.148 311.869 -110.198 311.544 -111.271 310.895C-111.795 310.596 -112.543 310.072 -112.967 309.747C-116.735 306.703 -117.708 305.805 -118.905 304.258C-119.653 303.309 -120.651 301.837 -121.076 301.014C-121.525 300.215 -122.024 299.367 -122.223 299.167C-123.196 298.044 -126.015 290.358 -126.115 288.462C-126.14 288.113 -126.364 286.99 -126.614 285.967C-127.238 283.421 -127.487 279.578 -127.063 279.079C-126.789 278.755 -126.789 278.58 -127.063 278.081C-127.512 277.233 -127.088 270.745 -126.439 268.898C-126.24 268.324 -126.065 267.651 -126.065 267.376C-126.065 265.629 -122.398 257.32 -120.626 254.999C-120.252 254.525 -119.678 253.751 -119.354 253.277C-117.782 250.932 -113.192 246.515 -111.271 245.442C-110.822 245.217 -109.475 244.394 -108.252 243.645C-107.03 242.897 -105.907 242.273 -105.757 242.273C-105.608 242.273 -105.259 242.123 -104.984 241.948C-104.061 241.299 -99.1712 239.653 -96.3771 239.004C-95.0548 238.704 -91.3376 238.405 -88.2441 238.33C-87.4208 238.305 -85.4748 238.505 -83.953 238.779ZM486.157 257.744C487.404 258.418 487.379 260.239 486.157 260.863C485.134 261.387 484.585 261.337 483.911 260.614C482.39 258.992 484.186 256.696 486.157 257.744ZM149.011 261.188C149.759 262.685 148.212 264.032 146.89 263.059C146.067 262.435 145.967 261.886 146.491 261.088C147.04 260.239 148.587 260.314 149.011 261.188ZM407.521 281.325C407.82 281.7 407.97 282.174 407.895 282.448C407.745 282.997 406.897 283.696 406.373 283.696C405.874 283.696 404.827 282.523 404.827 281.974C404.827 280.676 406.673 280.252 407.521 281.325ZM494.639 282.997C494.639 283.322 494.514 284.245 494.365 285.068C494.24 285.892 494.015 287.114 493.891 287.813C493.616 289.435 492.344 294.151 491.521 296.622C490.872 298.493 490.498 299.467 488.876 303.534C488.452 304.632 487.878 306.079 487.604 306.778C487.329 307.452 487.005 308.15 486.88 308.3C486.755 308.45 486.232 309.398 485.708 310.421C484.186 313.391 481.891 317.159 481.516 317.308C480.893 317.558 480.818 317.159 481.342 316.435C481.616 316.036 482.215 315.038 482.639 314.214C483.038 313.366 483.487 312.642 483.587 312.592C483.961 312.443 487.853 304.283 488.602 302.112C489.026 300.939 489.475 299.741 489.625 299.442C490.198 298.394 492.793 289.56 493.017 287.888C493.067 287.539 493.292 286.391 493.491 285.343C493.716 284.32 493.891 283.247 493.891 282.947C493.891 282.673 494.065 282.448 494.265 282.448C494.489 282.448 494.639 282.673 494.639 282.997ZM-177.158 287.114C-176.46 287.738 -176.585 288.612 -177.458 289.061C-178.456 289.585 -178.88 289.535 -179.329 288.836C-180.252 287.414 -178.431 285.942 -177.158 287.114ZM30.3084 288.487C30.7325 288.911 30.6827 290.159 30.2336 290.334C29.6349 290.583 28.6868 290.234 28.5621 289.735C28.3625 288.961 28.7866 288.188 29.4353 288.188C29.7596 288.188 30.1338 288.312 30.3084 288.487ZM312.145 306.004C313.193 306.454 313.517 307.377 312.918 308.275C312.12 309.498 310.274 308.824 310.274 307.327C310.274 306.903 310.449 306.354 310.698 306.104C311.172 305.555 311.097 305.58 312.145 306.004ZM575.171 327.265C575.545 327.539 575.72 327.889 575.72 328.513C575.72 329.211 575.595 329.411 575.071 329.636C573.574 330.185 572.477 328.163 573.774 327.265C574.073 327.04 574.398 326.866 574.472 326.866C574.547 326.866 574.872 327.04 575.171 327.265ZM516.144 329.261C516.568 330.21 516.144 330.734 514.947 330.734C514.123 330.734 513.949 330.634 513.749 330.06C513.425 329.161 513.899 328.612 514.997 328.612C515.67 328.612 515.92 328.737 516.144 329.261ZM209.135 340.615C209.983 341.139 210.233 341.688 210.233 343.111C210.233 344.807 208.636 346.005 206.715 345.756C205.468 345.581 204.919 345.107 204.495 343.859C204.096 342.587 204.295 341.838 205.368 340.69C206.191 339.842 206.316 339.792 207.289 339.941C207.863 340.041 208.686 340.341 209.135 340.615ZM-256.468 341.713C-255.62 342.512 -255.62 342.836 -256.443 343.809C-257.166 344.658 -257.89 344.783 -258.738 344.184C-259.561 343.61 -259.437 341.863 -258.539 341.414C-257.64 340.965 -257.241 341.014 -256.468 341.713ZM-12.4273 345.456C-12.4273 346.155 -13.1508 346.08 -13.2506 345.381C-13.3254 344.907 -13.2506 344.807 -12.8764 344.882C-12.6269 344.932 -12.4273 345.182 -12.4273 345.456ZM649.641 345.406C652.659 346.479 653.408 350.073 651.087 352.393C650.139 353.367 649.99 353.441 648.368 353.516C646.821 353.616 646.597 353.566 645.873 352.942C644.826 352.069 644.002 350.472 644.002 349.324C644.002 347.727 645.324 345.831 646.821 345.257C647.47 345.007 648.668 345.082 649.641 345.406ZM-140.26 358.033C-139.213 359.081 -139.063 359.805 -139.562 361.252C-139.861 362.15 -141.159 363.049 -142.132 363.049C-143.229 363.049 -144.477 362.375 -145.026 361.501C-146.248 359.58 -144.751 357.06 -142.381 357.06C-141.358 357.06 -141.109 357.184 -140.26 358.033ZM265.143 361.551C266.166 362.125 265.492 364.047 264.27 364.047C263.522 364.047 263.122 363.598 263.122 362.774C263.122 361.576 264.07 361.002 265.143 361.551ZM130.1 361.851C130.599 362.35 130.449 363.248 129.776 363.697C129.202 364.072 129.102 364.072 128.528 363.697C127.431 362.974 127.83 361.551 129.152 361.551C129.501 361.551 129.925 361.676 130.1 361.851ZM41.8344 368.588C42.483 369.287 42.483 370.435 41.8593 370.784C40.088 371.732 38.5911 369.836 39.9882 368.414C40.5371 367.89 41.2356 367.94 41.8344 368.588ZM35.3479 370.959C37.0943 371.383 39.9882 372.481 41.8593 373.429C44.5287 374.777 48.3458 378.395 49.194 380.391C51.3894 385.532 51.4643 392.17 49.3687 396.786C47.9716 399.88 45.7013 402.55 43.1067 404.147C39.3895 406.443 33.1775 407.89 29.9841 407.217C29.2856 407.067 28.2877 406.842 27.7388 406.743C26.4914 406.518 23.7971 405.27 22.2004 404.197C20.4291 403.024 17.1859 399.756 16.5871 398.533C16.2877 397.959 15.8387 397.285 15.5892 397.061C15.3397 396.836 15.1401 396.512 15.1401 396.362C15.1401 396.187 14.8158 395.289 14.4416 394.341C13.4686 391.945 13.0195 389.35 13.0195 386.006C13.0195 382.138 13.8179 379.568 15.8885 376.798C17.111 375.151 17.61 374.702 19.7555 373.454C21.1027 372.631 23.0486 371.708 24.0964 371.358C27.4145 370.285 31.8303 370.111 35.3479 370.959ZM563.745 378.171C564.718 378.769 565.267 379.842 565.292 381.265C565.317 382.338 565.217 382.637 564.593 383.286C563.171 384.783 561.5 385.108 559.978 384.184C558.705 383.411 558.057 380.516 558.905 379.293C559.903 377.871 562.273 377.322 563.745 378.171ZM466.897 382.912C467.695 383.461 467.596 384.833 466.747 384.958C465.525 385.133 464.627 383.361 465.65 382.787C466.223 382.438 466.248 382.438 466.897 382.912ZM325.367 408.34C328.162 408.963 329.609 409.363 330.133 409.662C330.407 409.812 331.105 410.86 331.679 412.008C332.602 413.829 332.752 414.378 332.977 416.699C333.276 419.993 334.099 423.337 335.446 426.631C335.995 428.028 336.469 429.351 336.469 429.55C336.469 429.75 336.619 429.999 336.819 430.099C336.993 430.199 337.567 431.097 338.041 432.071C339.263 434.466 340.86 436.737 342.981 439.008L344.752 440.904L343.604 442.601C340.586 446.968 338.565 448.914 334.947 450.911C329.234 454.08 322.873 454.529 315.763 452.308C313.343 451.559 310.723 450.237 309.501 449.164C308.902 448.64 308.079 448.041 307.654 447.816C306.182 447.043 305.459 446.169 303.713 443.05C301.916 439.856 300.918 436.188 300.669 431.846C300.395 427.055 301.567 422.039 303.763 418.695C304.237 417.947 304.76 417.098 304.91 416.824C305.234 416.15 308.602 412.956 308.977 412.956C309.126 412.956 309.376 412.731 309.526 412.457C309.75 412.033 313.318 410.136 315.937 409.088C318.157 408.165 322.972 407.791 325.367 408.34ZM-104.66 409.512C-104.261 409.912 -104.286 410.835 -104.71 411.184C-105.333 411.708 -106.456 411.434 -106.556 410.76C-106.73 409.662 -105.383 408.789 -104.66 409.512ZM-206.298 424.21C-205 425.233 -204.526 427.055 -205.225 428.427C-205.624 429.201 -207.296 430.174 -208.268 430.174C-210.464 430.174 -212.061 427.454 -211.013 425.458C-210.14 423.736 -207.72 423.087 -206.298 424.21ZM211.555 426.905C212.653 427.329 212.728 429.251 211.655 429.65C211.056 429.875 209.983 429.575 209.684 429.101C209.335 428.552 209.484 427.679 209.983 427.18C210.557 426.606 210.707 426.581 211.555 426.905ZM584.452 439.781C584.452 439.981 584.352 440.156 584.202 440.156C584.077 440.156 583.953 439.981 583.953 439.781C583.953 439.582 584.077 439.407 584.202 439.407C584.352 439.407 584.452 439.582 584.452 439.781ZM447.138 442.152C447.937 442.302 448.835 442.526 449.109 442.651C449.384 442.776 450.107 443.1 450.731 443.375C452.203 443.998 454.174 446.119 455.122 448.016C455.795 449.413 455.845 449.713 455.845 452.383C455.845 455.078 455.795 455.352 455.097 456.75C454.348 458.222 452.527 460.393 451.554 460.942C448.56 462.689 447.587 462.963 444.693 462.913C441.75 462.863 440.302 462.215 438.082 459.894C435.862 457.598 434.864 455.702 434.515 453.082C434.14 450.112 434.814 447.267 436.311 445.62C438.781 442.851 443.122 441.453 447.138 442.152ZM176.678 447.991C177.227 448.814 176.803 449.638 175.855 449.638C174.981 449.638 174.557 449.239 174.557 448.39C174.557 447.542 174.732 447.392 175.58 447.392C176.054 447.392 176.428 447.592 176.678 447.991ZM668.776 448.49C668.776 448.565 668.676 448.69 668.526 448.765C668.401 448.839 668.277 448.79 668.277 448.665C668.277 448.515 668.401 448.39 668.526 448.39C668.676 448.39 668.776 448.44 668.776 448.49ZM544.56 465.509C544.984 466.033 544.56 466.731 543.786 466.731C543.013 466.731 542.589 466.033 543.013 465.509C543.213 465.284 543.537 465.109 543.786 465.109C544.036 465.109 544.36 465.284 544.56 465.509ZM27.5642 465.933C27.664 466.432 26.9405 466.781 26.5663 466.407C26.192 466.033 26.5413 465.309 27.0403 465.409C27.2897 465.459 27.5143 465.683 27.5642 465.933ZM-67.2379 481.204C-66.4895 482.103 -66.4895 483.7 -67.2878 484.673C-67.7119 485.197 -68.161 485.397 -68.9593 485.496C-70.3065 485.646 -71.2545 485.022 -71.6786 483.7C-71.9281 482.951 -71.9032 482.677 -71.504 481.878C-70.6308 480.081 -68.5352 479.732 -67.2379 481.204ZM330.357 481.579C330.357 482.302 329.509 482.577 329.01 482.003C328.561 481.429 328.96 480.78 329.708 480.88C330.207 480.93 330.357 481.08 330.357 481.579ZM426.232 489.215C427.03 489.764 426.98 491.111 426.132 491.785C424.91 492.758 423.737 492.334 423.413 490.812C423.064 489.165 424.785 488.191 426.232 489.215ZM485.209 496.476C485.807 497 485.783 498.073 485.159 498.747C483.662 500.344 481.367 498.497 482.415 496.526C482.764 495.902 484.535 495.877 485.209 496.476ZM628.061 498.971C628.135 499.446 628.036 499.545 627.512 499.545C626.788 499.545 626.539 499.271 626.763 498.672C627.013 498.073 627.961 498.298 628.061 498.971ZM-253.574 500.269C-253.05 500.668 -253 500.868 -253.125 501.816C-253.324 503.413 -254.497 504.162 -255.919 503.638C-256.393 503.438 -257.042 502.265 -257.042 501.542C-257.042 500.119 -254.821 499.296 -253.574 500.269ZM248.902 501.666C249.8 502.141 250.149 502.739 250.149 503.912C250.149 505.584 248.578 506.458 246.781 505.784C245.509 505.31 245.359 503.064 246.532 501.891C247.231 501.192 247.879 501.142 248.902 501.666ZM-169.599 504.386C-169.075 505.185 -169.524 506.283 -170.398 506.283C-171.72 506.283 -172.294 505.434 -171.82 504.187C-171.57 503.538 -170.073 503.663 -169.599 504.386Z" fill="#1F1F65"/>
<path d="M327.637 410.835C327.563 411.059 327.637 411.209 327.862 411.209C328.261 411.209 328.361 410.81 328.012 410.61C327.887 410.535 327.737 410.635 327.637 410.835Z" fill="#0A0A41"/>
<path d="M317.26 411.334C317.26 411.559 317.385 411.708 317.534 411.658C317.684 411.608 317.809 411.459 317.809 411.334C317.809 411.209 317.684 411.059 317.534 411.01C317.385 410.96 317.26 411.109 317.26 411.334Z" fill="#0A0A41"/>
<path d="M325.117 413.704C325.192 413.829 325.318 413.954 325.393 413.954C325.443 413.954 325.493 413.829 325.493 413.704C325.493 413.553 325.368 413.453 325.217 413.453C325.092 413.453 325.042 413.553 325.117 413.704Z" fill="#0A0A41"/>
<path d="M331.23 413.705C331.23 413.829 331.355 413.954 331.48 413.954C331.63 413.954 331.729 413.829 331.729 413.705C331.729 413.555 331.63 413.455 331.48 413.455C331.355 413.455 331.23 413.555 331.23 413.705Z" fill="#0A0A41"/>
<path d="M321.75 416.199C321.75 416.324 321.875 416.449 322.025 416.449C322.15 416.449 322.2 416.324 322.125 416.199C322.05 416.048 321.925 415.948 321.85 415.948C321.8 415.948 321.75 416.048 321.75 416.199Z" fill="#0A0A41"/>
<path d="M309.901 416.698C309.976 416.823 310.101 416.948 310.176 416.948C310.226 416.948 310.276 416.823 310.276 416.698C310.276 416.547 310.151 416.447 310.001 416.447C309.875 416.447 309.825 416.547 309.901 416.698Z" fill="#0A0A41"/>
<path d="M315.938 416.624C315.638 416.899 315.738 417.198 316.137 417.198C316.337 417.198 316.512 417.024 316.512 416.824C316.512 416.425 316.212 416.325 315.938 416.624Z" fill="#0A0A41"/>
<path d="M320.254 418.346C320.254 418.546 320.379 418.646 320.503 418.571C320.653 418.471 320.703 418.296 320.628 418.172C320.404 417.822 320.254 417.897 320.254 418.346Z" fill="#0A0A41"/>
<path d="M331.155 418.121C330.855 418.396 330.955 418.695 331.354 418.695C331.554 418.695 331.728 418.521 331.728 418.321C331.728 417.922 331.429 417.822 331.155 418.121Z" fill="#0A0A41"/>
<path d="M316.262 421.565C316.262 421.765 316.436 421.939 316.661 421.939C317.01 421.939 317.01 421.865 316.761 421.565C316.586 421.366 316.411 421.191 316.362 421.191C316.312 421.191 316.262 421.366 316.262 421.565Z" fill="#0A0A41"/>
<path d="M326.74 421.69C326.74 421.815 326.84 421.939 326.965 421.939C327.114 421.939 327.289 421.815 327.364 421.69C327.439 421.54 327.339 421.44 327.139 421.44C326.915 421.44 326.74 421.54 326.74 421.69Z" fill="#0A0A41"/>
<path d="M312.57 421.989C312.719 422.439 313.268 422.513 313.268 422.089C313.268 421.865 313.093 421.69 312.869 421.69C312.644 421.69 312.52 421.815 312.57 421.989Z" fill="#0A0A41"/>
<path d="M320.752 422.189C320.752 422.314 320.877 422.438 321.001 422.438C321.151 422.438 321.251 422.314 321.251 422.189C321.251 422.039 321.151 421.939 321.001 421.939C320.877 421.939 320.752 422.039 320.752 422.189Z" fill="#0A0A41"/>
<path d="M306.283 424.684C306.283 424.809 306.408 424.934 306.533 424.934C306.682 424.934 306.782 424.809 306.782 424.684C306.782 424.534 306.682 424.434 306.533 424.434C306.408 424.434 306.283 424.534 306.283 424.684Z" fill="#0A0A41"/>
<path d="M314.516 425.433C314.516 425.558 314.69 425.683 314.89 425.683C315.089 425.683 315.264 425.558 315.264 425.433C315.264 425.283 315.089 425.184 314.89 425.184C314.69 425.184 314.516 425.283 314.516 425.433Z" fill="#0A0A41"/>
<path d="M302.091 428.228C302.241 428.677 302.79 428.752 302.79 428.328C302.79 428.103 302.615 427.928 302.39 427.928C302.166 427.928 302.041 428.053 302.091 428.228Z" fill="#0A0A41"/>
<path d="M316.012 428.677C316.012 428.951 316.186 429.176 316.386 429.176C316.586 429.176 316.76 428.951 316.76 428.677C316.76 428.402 316.586 428.178 316.386 428.178C316.186 428.178 316.012 428.402 316.012 428.677Z" fill="#0A0A41"/>
<path d="M327.238 429.176C327.238 429.301 327.363 429.426 327.488 429.426C327.637 429.426 327.737 429.301 327.737 429.176C327.737 429.026 327.637 428.927 327.488 428.927C327.363 428.927 327.238 429.026 327.238 429.176Z" fill="#0A0A41"/>
<path d="M310.198 433.568C309.999 433.768 310.223 434.167 310.548 434.167C310.672 434.167 310.772 433.992 310.772 433.793C310.772 433.418 310.473 433.294 310.198 433.568Z" fill="#0A0A41"/>
<path d="M311.771 434.166C311.771 434.291 311.896 434.416 312.021 434.416C312.171 434.416 312.27 434.291 312.27 434.166C312.27 434.017 312.171 433.917 312.021 433.917C311.896 433.917 311.771 434.017 311.771 434.166Z" fill="#0A0A41"/>
<path d="M330.232 434.94C330.232 435.065 330.357 435.115 330.482 435.04C330.632 434.965 330.731 434.84 330.731 434.766C330.731 434.716 330.632 434.666 330.482 434.666C330.357 434.666 330.232 434.79 330.232 434.94Z" fill="#0A0A41"/>
<path d="M337.591 435.664C337.691 435.814 337.866 435.864 337.99 435.789C338.34 435.564 338.265 435.415 337.816 435.415C337.616 435.415 337.516 435.539 337.591 435.664Z" fill="#0A0A41"/>
<path d="M322.623 438.409C322.698 438.533 322.897 438.658 323.022 438.658C323.172 438.658 323.197 438.533 323.122 438.409C323.047 438.259 322.847 438.159 322.723 438.159C322.573 438.159 322.548 438.259 322.623 438.409Z" fill="#0A0A41"/>
<path d="M307.031 440.156C307.031 440.28 307.156 440.405 307.281 440.405C307.43 440.405 307.53 440.28 307.53 440.156C307.53 440.006 307.43 439.906 307.281 439.906C307.156 439.906 307.031 440.006 307.031 440.156Z" fill="#0A0A41"/>
<path d="M340.736 440.13C340.536 440.28 340.511 440.405 340.661 440.505C340.81 440.58 341.01 440.53 341.085 440.38C341.309 440.031 341.135 439.881 340.736 440.13Z" fill="#0A0A41"/>
<path d="M324.494 441.154C324.494 441.279 324.619 441.403 324.744 441.403C324.893 441.403 324.993 441.279 324.993 441.154C324.993 441.004 324.893 440.904 324.744 440.904C324.619 440.904 324.494 441.004 324.494 441.154Z" fill="#0A0A41"/>
<path d="M310.523 442.402C310.523 442.527 310.623 442.651 310.748 442.651C310.898 442.651 311.072 442.527 311.147 442.402C311.222 442.252 311.122 442.152 310.923 442.152C310.698 442.152 310.523 442.252 310.523 442.402Z" fill="#0A0A41"/>
<path d="M326.24 443.524C326.24 443.724 326.365 443.898 326.49 443.898C326.639 443.898 326.739 443.724 326.739 443.524C326.739 443.325 326.639 443.15 326.49 443.15C326.365 443.15 326.24 443.325 326.24 443.524Z" fill="#0A0A41"/>
<path d="M309.95 444.049C309.751 444.248 309.975 444.647 310.3 444.647C310.424 444.647 310.524 444.473 310.524 444.273C310.524 443.899 310.225 443.774 309.95 444.049Z" fill="#0A0A41"/>
<path d="M335.846 444.672C335.597 445.046 335.871 445.246 336.345 445.046C336.569 444.971 336.669 444.797 336.594 444.647C336.395 444.323 336.046 444.323 335.846 444.672Z" fill="#0A0A41"/>
<path d="M338.864 444.572C338.565 444.871 338.715 445.396 339.089 445.396C339.288 445.396 339.463 445.246 339.463 445.046C339.463 444.622 339.114 444.347 338.864 444.572Z" fill="#0A0A41"/>
<path d="M316.262 448.016C316.262 448.266 316.436 448.391 316.711 448.341C317.235 448.241 317.185 447.792 316.661 447.692C316.411 447.642 316.262 447.767 316.262 448.016Z" fill="#0A0A41"/>
<path d="M335.596 447.89C335.671 448.015 335.796 448.141 335.871 448.141C335.921 448.141 335.971 448.015 335.971 447.89C335.971 447.74 335.846 447.64 335.696 447.64C335.571 447.64 335.521 447.74 335.596 447.89Z" fill="#0A0A41"/>
<path d="M322.248 449.264C322.248 449.488 322.373 449.638 322.522 449.588C322.672 449.538 322.797 449.388 322.797 449.264C322.797 449.139 322.672 448.989 322.522 448.939C322.373 448.889 322.248 449.039 322.248 449.264Z" fill="#0A0A41"/>
<path d="M330.73 451.384C330.73 451.509 330.855 451.634 330.98 451.634C331.13 451.634 331.229 451.509 331.229 451.384C331.229 451.235 331.13 451.135 330.98 451.135C330.855 451.135 330.73 451.235 330.73 451.384Z" fill="#0A0A41"/>
<path d="M202.792 242.416L203.898 237.901L201.722 238.944L201.419 240.38L201.975 241.625L202.792 242.416Z" fill="#862525"/>
<path d="M206.623 237.22L234.335 231.086L236.595 234.212L243.309 236.315L261.675 237.069L245.747 247.48L202.8 244.431L204.148 238.09L206.623 237.22Z" fill="#DDDDF5"/>
<path d="M261.998 221.493L267.701 209.311C277.597 186.819 268.093 179.166 268.093 179.166C267.887 178.958 267.677 178.756 267.466 178.554C263.245 174.488 258.142 172.035 252.844 171.095C239.614 168.755 226.608 176.332 221.725 188.851L201.504 239.825" stroke="black" stroke-miterlimit="10" stroke-linecap="round" stroke-linejoin="round"/>
<path d="M307.648 219.625C308.146 219.511 310.176 219.815 315.91 220.236C316.381 220.269 316.852 220.332 317.316 220.421C317.355 220.43 317.394 220.44 317.437 220.442C325.289 222.006 329.467 230.655 325.847 237.795L323.781 241.871C323.227 242.965 322.218 243.798 321.011 244.031C320.253 244.18 319.435 244.092 318.794 243.417C318.136 242.72 317.973 241.686 318.29 240.779L321.282 232.224L319.684 230.956" stroke="black" stroke-miterlimit="10" stroke-linecap="round" stroke-linejoin="round"/>
<path d="M304.703 230.047C305.338 230.401 312.48 231.226 312.48 231.226C312.48 231.226 314.03 233.99 316.383 232.375" stroke="black" stroke-miterlimit="10" stroke-linecap="round" stroke-linejoin="round"/>
<path d="M272.969 280.865L249.07 283.029L251.804 262.026" stroke="black" stroke-miterlimit="10" stroke-linecap="round" stroke-linejoin="round"/>
<path d="M250.363 298.518L251.141 293.603L251.28 292.719L272.335 290.954L271.024 297.433L250.363 298.518Z" fill="white"/>
<path d="M308.14 217.887L257.17 217.783L234.276 228.005L234.333 231.085L236.593 234.211L240.258 235.597L244.397 236.473L302.62 237.407L308.14 217.887Z" fill="#8CAFFF"/>
<path d="M253.158 282.664L251.281 292.719L271.676 291.104L273.477 280.287L253.158 282.664Z" fill="#2542E5"/>
<path d="M252.759 283.419L250.365 298.518L270.912 297.197" stroke="black" stroke-miterlimit="10" stroke-linecap="round" stroke-linejoin="round"/>
<path d="M251.283 292.72L271.678 291.105" stroke="black" stroke-miterlimit="10" stroke-linecap="round" stroke-linejoin="round"/>
<path d="M231.756 266.601L274.086 327.872" stroke="#8CAFFF" stroke-width="2" stroke-miterlimit="10"/>
<path d="M257.816 294.971L267.306 294.261" stroke="black" stroke-miterlimit="10" stroke-linecap="round" stroke-linejoin="round"/>
<path d="M208.26 260.976L208.253 262.147C208.971 266.684 213.092 269.878 217.663 269.444L240.121 266.359C243.192 265.939 245.992 264.387 247.975 262.004L218.633 255.096C214.176 254.055 209.656 256.609 208.26 260.976Z" fill="black"/>
<path d="M314.845 260.673L242.705 280.75L226.615 338.704L274.086 327.873L318.868 268.804" stroke="#8CAFFF" stroke-width="2" stroke-miterlimit="10"/>
<path d="M345.64 311.383L311.342 254.197C310.525 252.831 310.433 251.147 311.101 249.698L317.423 236.071" stroke="#8CAFFF" stroke-width="2" stroke-miterlimit="10"/>
<path d="M270.595 169.766L268.075 176.789L267.922 177.213C266.716 180.576 262.879 182.279 259.357 181.012C255.835 179.746 253.963 175.996 255.168 172.634L255.503 171.699L259.227 162.373" fill="#ECB6B4"/>
<path d="M270.595 169.766L268.075 176.789L267.922 177.213C266.716 180.576 262.879 182.279 259.357 181.012C255.835 179.746 253.963 175.996 255.168 172.634L255.503 171.699L259.227 162.373" stroke="black" stroke-miterlimit="10" stroke-linecap="round" stroke-linejoin="round"/>
<path d="M279.875 158.613C281.092 158.451 282.297 158.237 281.463 156.046L281.206 155.295C281.206 155.295 279.93 152.024 279.905 151.914C279.231 148.932 278.048 147.643 277.175 145.821L256.892 156.757L258.166 162.342C259.444 167.944 269.56 170.41 275.157 169.133C280.296 167.961 280.077 164.302 279.332 159.278C279.284 158.961 279.508 158.66 279.826 158.612C279.851 158.618 279.863 158.615 279.875 158.613Z" fill="#ECB6B4" stroke="black" stroke-miterlimit="10" stroke-linecap="round" stroke-linejoin="round"/>
<path d="M270.941 155.195C270.941 155.195 271.684 153.917 273.093 153.473" stroke="black" stroke-miterlimit="10" stroke-linecap="round" stroke-linejoin="round"/>
<path d="M273.67 157.013C273.955 156.948 274.133 156.665 274.068 156.381C274.003 156.096 273.72 155.918 273.435 155.983C273.151 156.048 272.973 156.331 273.037 156.616C273.102 156.9 273.386 157.078 273.67 157.013Z" fill="black"/>
<path d="M279.514 161.405C278.345 162.287 276.738 162.319 275.543 161.483" stroke="black" stroke-miterlimit="10" stroke-linecap="round" stroke-linejoin="round"/>
<path d="M257.437 157.326L285.932 142.026" stroke="black" stroke-miterlimit="10" stroke-linecap="round" stroke-linejoin="round"/>
<path d="M280.022 150.375C277.221 151.015 274.275 150.031 272.924 149.474L277.997 146.46C278.096 146.894 278.311 147.277 278.627 147.594C279.4 148.368 280.75 148.736 282.655 148.679C282.795 148.677 282.848 148.775 282.864 148.82C282.882 148.87 282.9 148.976 282.802 149.053C281.992 149.695 281.058 150.139 280.022 150.375Z" fill="#462116"/>
<path d="M277.757 147.117C277.891 147.409 278.078 147.671 278.308 147.905C279.059 148.659 280.273 149.07 281.922 149.12C281.314 149.496 280.646 149.77 279.917 149.937C277.723 150.437 275.419 149.892 273.945 149.382L277.757 147.117ZM278.375 145.716L271.967 149.522C271.967 149.522 276.144 151.711 280.12 150.804C281.145 150.57 282.154 150.133 283.076 149.399C283.565 149.007 283.268 148.21 282.645 148.231C280.837 148.284 278.303 147.961 278.375 145.716Z" fill="black"/>
<path d="M259.152 164.029C258.769 163.179 258.479 162.283 258.283 161.371L257.335 156.948L264.937 152.851L259.152 164.029Z" fill="#462116"/>
<path d="M263.879 153.921L259.201 162.959C259.002 162.408 258.838 161.848 258.719 161.273L257.844 157.174L263.879 153.921ZM265.994 151.77L256.831 156.711L257.848 161.459C258.112 162.696 258.549 163.893 259.14 165.013L265.994 151.77Z" fill="black"/>
<path d="M257.001 157.194C256.909 157.215 256.81 157.207 256.721 157.167C256.593 157.111 256.5 156.998 256.468 156.859L256.463 156.836C253.151 146.589 258.893 142.24 262.616 140.569C263.482 140.177 264.381 139.874 265.296 139.665C266.881 139.304 268.477 139.226 270.041 139.435C273.389 139.883 275.786 141.85 277.587 145.635C277.691 145.849 277.603 146.106 277.398 146.22L257.115 157.156C257.076 157.171 257.042 157.185 257.001 157.194Z" fill="#8CAFFF"/>
<path d="M265.393 140.099C266.892 139.757 268.443 139.671 269.976 139.876C272.852 140.26 275.252 141.783 277.179 145.825L256.895 156.761L256.89 156.738C253.719 146.922 258.96 142.7 262.786 140.974C263.63 140.593 264.502 140.303 265.393 140.099ZM265.195 139.231C264.252 139.446 263.319 139.763 262.429 140.16C258.575 141.892 252.622 146.386 256.049 157.003C256.123 157.248 256.303 157.45 256.534 157.556C256.718 157.642 256.924 157.662 257.115 157.618C257.185 157.602 257.257 157.574 257.322 157.54L277.606 146.604C278.024 146.381 278.193 145.868 277.986 145.44C276.109 141.509 273.602 139.462 270.096 138.99C268.478 138.781 266.833 138.857 265.195 139.231Z" fill="black"/>
<path d="M265.42 156.991C264.586 155.763 262.916 155.437 261.681 156.267C260.452 157.101 260.127 158.771 260.957 160.006C261.791 161.235 263.461 161.56 264.696 160.73" fill="#ECB6B4"/>
<path d="M265.42 156.991C264.586 155.763 262.916 155.437 261.681 156.267C260.452 157.101 260.127 158.771 260.957 160.006C261.791 161.235 263.461 161.56 264.696 160.73" stroke="black" stroke-miterlimit="10" stroke-linecap="round" stroke-linejoin="round"/>
<path d="M202.185 239.212L221.77 189.028C226.659 176.508 239.658 168.927 252.889 171.272C258.187 172.207 263.284 174.667 267.512 178.732C267.722 178.933 267.927 179.136 268.139 179.344C268.139 179.344 277.643 187.003 267.746 209.488L262.044 221.67L247.273 227.653L202.185 239.212Z" fill="#8CAFFF"/>
<path d="M244.497 198.182C244.497 198.182 243.163 195.753 243.977 193.503" stroke="black" stroke-miterlimit="10" stroke-linecap="round" stroke-linejoin="round"/>
<path d="M203.494 238.725C202.501 242.008 202.376 245.489 203.14 248.834L203.373 249.858C204.624 255.339 208.16 260.031 213.084 262.743C216.531 264.642 220.463 265.462 224.377 265.111L234.913 264.156L275.673 259.466L275.398 261.647L266.96 328.45L295.656 326.792L305.663 263.181C305.663 263.181 308.782 241.493 291.024 237.289L257.229 236.858L203.494 238.725Z" fill="#DDDDF5" stroke="black" stroke-miterlimit="10"/>
<path d="M319.683 230.956L321.28 232.217L321.282 232.223L317.956 241.744C317.956 241.744 317.956 241.744 317.957 241.75C319.123 246.111 323.168 243.051 323.194 243.033L325.848 237.8C329.472 230.653 325.295 222.004 317.437 220.442C317.398 220.432 317.361 220.428 317.322 220.419C316.857 220.33 316.386 220.267 315.916 220.234C310.193 219.811 308.157 219.508 307.66 219.622C307.66 219.622 307.654 219.623 307.655 219.629L305.272 230.213L305.047 230.161C305.712 230.515 312.026 230.194 316.257 234.301C316.28 234.345 317.824 237.055 320.161 235.45" fill="#ECB6B4"/>
<path d="M251.803 262.026L249.069 283.029L254.319 282.556L277.771 280.274L283.303 251.252L250.179 256.989L251.803 262.026Z" fill="#DDDDF5"/>
<path d="M258.9 299.717C260.025 299.576 270.032 298.998 270.032 298.998" stroke="#8CAFFF" stroke-miterlimit="10" stroke-linecap="round" stroke-linejoin="round"/>
<path d="M231.746 239.312L228.059 235.909C227.041 234.972 225.454 235.036 224.517 236.053L222.13 238.638C221.193 239.655 221.256 241.242 222.274 242.179L226.416 246.002C228.24 244.654 230.532 242.451 231.746 239.312Z" fill="black" stroke="black" stroke-miterlimit="10" stroke-linecap="round" stroke-linejoin="round"/>
<path d="M226.709 237.172C227.013 237.103 227.202 236.801 227.133 236.497C227.064 236.193 226.762 236.003 226.458 236.073C226.154 236.142 225.964 236.444 226.034 236.748C226.103 237.052 226.405 237.242 226.709 237.172Z" fill="white"/>
<path d="M225.919 237.791C226.034 237.765 226.106 237.65 226.079 237.535C226.053 237.42 225.939 237.348 225.824 237.374C225.708 237.401 225.637 237.515 225.663 237.63C225.689 237.745 225.804 237.817 225.919 237.791Z" fill="white"/>
<path d="M221.861 239.35C221.385 240.251 221.789 241.224 222.388 241.927L223.862 243.29" stroke="white" stroke-miterlimit="10" stroke-linecap="round" stroke-linejoin="round"/>
<path d="M225.071 247.868C225.239 247.781 232.222 242.035 232.647 236.159" stroke="black" stroke-miterlimit="10" stroke-linecap="round" stroke-linejoin="round"/>
<path d="M212.413 173.377L207.162 171.528C206.843 171.414 206.669 171.06 206.783 170.74L212.178 155.425C212.292 155.105 212.646 154.931 212.965 155.045L218.215 156.895C218.535 157.009 218.709 157.363 218.595 157.682L213.2 172.998C213.086 173.317 212.732 173.491 212.413 173.377Z" fill="black"/>
<path d="M246.488 193.44C245.248 194.088 235.045 227.829 235.045 227.829C235.045 227.829 230.524 236.624 249.601 237.027L302.666 237.585L308.186 218.064L263.771 217.975" stroke="black" stroke-miterlimit="10" stroke-linecap="round" stroke-linejoin="round"/>
<path d="M320.154 237.34C322.219 236.869 323.511 234.813 323.04 232.749C322.569 230.684 320.513 229.392 318.448 229.863C316.383 230.334 315.091 232.39 315.562 234.455C316.033 236.52 318.089 237.811 320.154 237.34Z" fill="black" stroke="black" stroke-miterlimit="10"/>
<path d="M203.494 238.725C202.501 242.008 202.376 245.489 203.14 248.834L203.373 249.858C204.624 255.339 208.16 260.031 213.084 262.743C216.531 264.642 220.463 265.462 224.377 265.111L234.913 264.156L278.764 258.493" stroke="black" stroke-miterlimit="10" stroke-linecap="round" stroke-linejoin="round"/>
<path d="M234.686 231.007L203.008 238.332C201.521 238.671 200.949 240.488 201.974 241.618L202.422 242.113" stroke="black" stroke-miterlimit="10" stroke-linecap="round" stroke-linejoin="round"/>
<path d="M235.368 377.058C256.637 372.205 269.945 351.029 265.092 329.76C260.239 308.491 239.063 295.183 217.794 300.036C196.525 304.888 183.217 326.064 188.07 347.333C192.923 368.602 214.099 381.91 235.368 377.058Z" stroke="black" stroke-width="2" stroke-miterlimit="10" stroke-linecap="round" stroke-linejoin="round"/>
<path d="M227.59 342.969C230.032 342.411 231.56 339.98 231.003 337.538C230.446 335.096 228.014 333.568 225.572 334.125C223.13 334.682 221.602 337.114 222.159 339.556C222.716 341.998 225.148 343.526 227.59 342.969Z" fill="black"/>
<path d="M346.647 315.805C349.089 315.247 350.617 312.816 350.06 310.374C349.502 307.932 347.071 306.404 344.629 306.961C342.187 307.518 340.659 309.949 341.216 312.392C341.773 314.834 344.205 316.362 346.647 315.805Z" fill="black"/>
<path d="M224.374 206.84L230.479 191.193C235.363 178.68 246.632 168.638 263.438 175.526C262.308 172.575 260.072 170.169 257.19 168.878C255.475 168.112 253.655 167.584 252.126 167.47C252.126 167.47 238.372 165.877 226.342 180.16C214.313 194.449 224.374 206.84 224.374 206.84Z" fill="#8CAFFF" stroke="black" stroke-miterlimit="10" stroke-linecap="round" stroke-linejoin="round"/>
<path d="M219.075 226.049L170.323 208.871C168.793 208.331 167.998 206.661 168.532 205.133L185.71 156.381C186.25 154.851 187.92 154.056 189.448 154.59L238.2 171.768C239.73 172.308 240.525 173.978 239.991 175.506L222.813 224.258C222.273 225.788 220.604 226.589 219.075 226.049Z" fill="#8CAFFF" stroke="black" stroke-miterlimit="10"/>
<path d="M217.53 222.321L173.863 206.936C172.499 206.455 171.78 204.957 172.259 203.587L187.644 159.921C188.125 158.557 189.623 157.837 190.993 158.316L234.66 173.702C236.024 174.182 236.743 175.68 236.264 177.05L220.879 220.717C220.393 222.082 218.894 222.801 217.53 222.321Z" stroke="black" stroke-miterlimit="10"/>
<path d="M212.859 155.995L217.834 157.758" stroke="white" stroke-miterlimit="10" stroke-linecap="round"/>
<path d="M212.283 157.552L217.258 159.315" stroke="white" stroke-miterlimit="10" stroke-linecap="round"/>
<path d="M211.717 159.154L216.692 160.918" stroke="white" stroke-miterlimit="10" stroke-linecap="round"/>
<path d="M211.174 160.831L216.149 162.594" stroke="white" stroke-miterlimit="10" stroke-linecap="round"/>
<path d="M209.031 233.533C209.379 233.454 214.761 232.226 214.761 232.226" stroke="black" stroke-miterlimit="10" stroke-linecap="round" stroke-linejoin="round"/>
<path d="M275.561 344.499C276.685 344.358 297.04 342.807 297.04 342.807" stroke="#8CAFFF" stroke-width="2" stroke-miterlimit="10" stroke-linecap="round" stroke-linejoin="round"/>
<path d="M303.369 328.893C299.265 327.023 295.655 326.787 295.655 326.787L269.165 328.319L267.688 337.619L298.711 336.069C300.375 332.341 302.027 330.162 303.369 328.893Z" fill="#2542E5" stroke="black" stroke-miterlimit="10"/>
<path d="M311.452 335.439L300.08 336.006L298.707 336.076L267.685 337.625L266.766 343.419L313.898 340.392C313.286 338.485 312.444 336.851 311.452 335.439Z" fill="white" stroke="black" stroke-miterlimit="10"/>
<path d="M304.701 329.553C304.256 329.313 303.81 329.092 303.375 328.893C302.027 330.163 300.38 332.341 298.712 336.077L300.084 336.007L311.457 335.44C309.543 332.71 307.095 330.839 304.701 329.553Z" fill="white" stroke="black" stroke-miterlimit="10"/>
<path d="M298.21 327.232C298.21 327.232 296.544 327.32 294.605 330.593L298.21 327.232Z" fill="#2542E5"/>
<path d="M298.21 327.232C298.21 327.232 296.544 327.32 294.605 330.593" stroke="black" stroke-miterlimit="10"/>
<path d="M292.903 326.946C292.377 327.444 291.776 328.171 291.142 329.235L292.903 326.946Z" fill="#2542E5"/>
<path d="M292.903 326.946C292.377 327.444 291.776 328.171 291.142 329.235" stroke="black" stroke-miterlimit="10"/>
<path d="M219.582 307.871C236.522 304.006 253.39 314.606 257.255 331.547" stroke="black" stroke-width="2" stroke-miterlimit="10" stroke-linecap="round" stroke-linejoin="round"/>
<path d="M195.814 345.682C197.748 354.155 202.929 361.04 209.746 365.324C216.563 369.608 225.015 371.291 233.488 369.357" stroke="black" stroke-width="2" stroke-miterlimit="10" stroke-linecap="round" stroke-linejoin="round"/>
<path d="M354.309 349.92C375.578 345.067 388.886 323.891 384.033 302.622C379.181 281.353 358.005 268.045 336.736 272.898C315.467 277.751 302.159 298.927 307.011 320.196C311.864 341.465 333.04 354.773 354.309 349.92Z" stroke="black" stroke-width="2" stroke-miterlimit="10" stroke-linecap="round" stroke-linejoin="round"/>
<path d="M338.523 280.733C355.464 276.868 372.332 287.469 376.197 304.409" stroke="black" stroke-width="2" stroke-miterlimit="10" stroke-linecap="round" stroke-linejoin="round"/>
<path d="M314.756 318.544C316.689 327.017 321.871 333.903 328.688 338.187C335.504 342.471 343.956 344.153 352.429 342.22" stroke="black" stroke-width="2" stroke-miterlimit="10" stroke-linecap="round" stroke-linejoin="round"/>
<path d="M275.859 259.551L267.125 328.211L295.756 326.544L305.776 263.231C305.776 263.231 308.901 241.645 291.186 237.471" stroke="black" stroke-miterlimit="10" stroke-linecap="round" stroke-linejoin="round"/>
<circle cx="354.436" cy="309.367" r="4.5" transform="rotate(2.14731 354.436 309.367)" fill="#1F1F65"/>
<circle cx="354.436" cy="309.367" r="4.5" transform="rotate(2.14731 354.436 309.367)" fill="#1F1F65"/>
<circle cx="246.162" cy="341.332" r="4.5" transform="rotate(2.14731 246.162 341.332)" fill="#1F1F65"/>
<circle cx="246.162" cy="341.332" r="4.5" transform="rotate(2.14731 246.162 341.332)" fill="#1F1F65"/>
<rect x="188.988" y="157.325" width="51.128" height="51.7993" rx="2" transform="rotate(19.9181 188.988 157.325)" fill="#1A1A1A"/>
<path d="M215.42 194.083C214.679 194.083 213.986 194.416 213.532 194.914L207.105 191.378C207.081 191.354 207.057 191.354 207.033 191.33C206.675 191.14 206.244 191.021 205.814 191.021C205.599 191.021 205.384 191.045 205.169 191.093C204.954 191.14 204.739 191.235 204.524 191.354C203.759 191.805 203.234 192.612 203.234 193.561V200.492C202.541 200.658 201.967 201.109 201.633 201.726C201.418 202.082 201.322 202.509 201.322 202.96C201.322 204.361 202.469 205.5 203.879 205.5C205.289 205.5 206.436 204.361 206.436 202.96C206.436 202.509 206.316 202.082 206.101 201.726C205.767 201.133 205.193 200.682 204.5 200.492V193.514C204.5 192.802 205.074 192.232 205.79 192.232C206.005 192.232 206.221 192.279 206.412 192.374L208.371 193.442L212.935 195.982C212.887 196.196 212.863 196.409 212.863 196.623C212.863 197.074 212.983 197.501 213.198 197.857C213.628 198.64 214.464 199.163 215.444 199.163C216.853 199.163 218 198.023 218 196.623C217.976 195.223 216.829 194.083 215.42 194.083ZM205.002 202.367C205.098 202.557 205.169 202.77 205.169 202.984C205.169 203.696 204.596 204.266 203.879 204.266C203.162 204.266 202.589 203.696 202.589 202.984C202.589 202.77 202.636 202.557 202.756 202.367C202.971 201.987 203.401 201.702 203.879 201.702C204.381 201.702 204.787 201.987 205.002 202.367ZM215.42 197.905C214.942 197.905 214.536 197.644 214.297 197.264C214.201 197.074 214.129 196.86 214.129 196.647C214.129 196.623 214.129 196.599 214.129 196.575C214.153 196.172 214.368 195.84 214.655 195.626C214.87 195.484 215.133 195.389 215.396 195.389C216.113 195.389 216.686 195.958 216.686 196.67C216.686 197.335 216.113 197.905 215.42 197.905Z" fill="#FAFAFA"/>
<path d="M217.976 183.901C217.976 182.5 216.829 181.361 215.419 181.361C214.464 181.361 213.627 181.883 213.173 182.666C212.958 183.022 212.839 183.45 212.839 183.901C212.839 184.114 212.863 184.328 212.91 184.541L208.371 187.057L206.411 188.125C206.244 188.22 206.029 188.292 205.814 188.292C205.097 188.292 204.524 187.722 204.524 187.01V180.008C205.217 179.842 205.79 179.391 206.125 178.774C206.34 178.418 206.459 177.991 206.459 177.54C206.459 176.139 205.312 175 203.902 175C202.493 175 201.346 176.139 201.346 177.54C201.346 177.991 201.465 178.418 201.656 178.774C201.991 179.367 202.564 179.818 203.257 180.008V186.939C203.257 187.888 203.783 188.695 204.548 189.146C204.739 189.265 204.954 189.336 205.193 189.407C205.408 189.455 205.623 189.478 205.838 189.478C206.268 189.478 206.698 189.36 207.056 189.17C207.08 189.146 207.104 189.146 207.128 189.122L213.532 185.586C214.01 186.108 214.679 186.417 215.419 186.417C216.829 186.464 217.976 185.301 217.976 183.901ZM203.902 178.821C203.424 178.821 202.994 178.56 202.779 178.157C202.684 177.967 202.612 177.753 202.612 177.54C202.612 176.828 203.186 176.258 203.902 176.258C204.619 176.258 205.193 176.828 205.193 177.54C205.193 177.753 205.145 177.967 205.025 178.157C204.786 178.56 204.38 178.821 203.902 178.821ZM216.686 183.901C216.686 184.613 216.112 185.182 215.395 185.182C215.109 185.182 214.87 185.087 214.655 184.945C214.344 184.731 214.153 184.375 214.129 183.996C214.129 183.972 214.129 183.948 214.129 183.924C214.129 183.687 214.177 183.473 214.296 183.307C214.511 182.927 214.941 182.666 215.419 182.666C216.112 182.643 216.686 183.212 216.686 183.901Z" fill="#FAFAFA"/>
<path d="M191.287 181.266C190.068 181.954 189.638 183.52 190.331 184.731C190.809 185.562 191.693 186.013 192.577 186.013C193.007 186.013 193.437 185.894 193.82 185.68C194.011 185.562 194.178 185.443 194.345 185.301L198.814 187.983L200.725 189.122C200.892 189.241 201.06 189.383 201.155 189.573C201.514 190.19 201.299 190.973 200.677 191.305L194.56 194.794C194.059 194.296 193.39 194.011 192.697 194.035C192.267 194.035 191.86 194.154 191.454 194.367C190.236 195.056 189.806 196.622 190.498 197.833C191.191 199.043 192.768 199.47 193.987 198.782C194.369 198.568 194.68 198.26 194.919 197.88C195.277 197.287 195.397 196.575 195.206 195.886L201.275 192.445C202.087 191.97 202.565 191.116 202.565 190.237C202.565 190 202.541 189.786 202.469 189.573C202.422 189.359 202.326 189.169 202.23 188.979C202.015 188.6 201.705 188.291 201.346 188.077C201.322 188.054 201.299 188.054 201.275 188.03L194.991 184.256C195.206 183.592 195.158 182.856 194.776 182.215C194.083 180.981 192.529 180.554 191.287 181.266ZM193.844 195.934C194.083 196.361 194.059 196.836 193.82 197.215C193.7 197.405 193.557 197.548 193.366 197.666C192.745 198.022 191.98 197.809 191.622 197.192C191.263 196.575 191.478 195.815 192.099 195.459C192.291 195.34 192.506 195.293 192.721 195.293C193.151 195.293 193.605 195.507 193.844 195.934ZM191.932 182.357C192.553 182.001 193.318 182.215 193.676 182.832C193.82 183.069 193.868 183.331 193.844 183.592C193.796 183.971 193.605 184.304 193.27 184.517C193.246 184.541 193.222 184.541 193.199 184.565C193.007 184.683 192.792 184.731 192.577 184.731C192.123 184.731 191.693 184.494 191.454 184.09C191.096 183.497 191.311 182.713 191.932 182.357Z" fill="#FAFAFA"/>
<path d="M318.155 303.705C320.521 307.805 326.506 311.799 322.615 314.046C318.724 316.292 313.652 314.79 311.285 310.691C308.919 306.592 310.154 301.448 314.045 299.201C317.935 296.955 315.788 299.606 318.155 303.705Z" fill="#1F1F65"/>
<path d="M209.155 337.705C211.521 341.805 217.506 345.799 213.615 348.046C209.724 350.292 204.652 348.79 202.285 344.691C199.919 340.592 201.154 335.448 205.045 333.201C208.935 330.955 206.788 333.606 209.155 337.705Z" fill="#1F1F65"/>
<path d="M201.155 144.705C203.521 148.805 209.506 152.799 205.615 155.046C201.724 157.292 196.652 155.79 194.285 151.691C191.919 147.592 193.154 142.448 197.045 140.201C200.935 137.955 198.788 140.606 201.155 144.705Z" fill="#1F1F65"/>
<ellipse cx="450.5" cy="10.5" rx="6.5" ry="4.5" fill="#1F1F65"/>
<path d="M65 43C66.6568 43 68 41.433 68 39.5C68 37.567 66.6568 36 65 36C63.3431 36 62 37.567 62 39.5C62 41.433 63.3431 43 65 43Z" fill="#F2D14B"/>
<path d="M190 0.500102C190 0.776255 190 1 190 1C190 1 190 0.776255 190 0.500102C190 0.223948 190 0 190 0C190 0 190 0.223948 190 0.500102Z" stroke="#223977" stroke-miterlimit="10"/>
<path d="M130 199C131.105 199 132 198.328 132 197.5C132 196.672 131.105 196 130 196C128.895 196 128 196.672 128 197.5C128 198.328 128.895 199 130 199Z" fill="#F2D14B"/>
<path d="M17 72C17.5523 72 18 71.3285 18 70.5002C18 69.6718 17.5523 69 17 69C16.4477 69 16 69.6718 16 70.5002C16 71.3285 16.4477 72 17 72Z" fill="#F2D14B"/>
<path d="M18 24C18 24 17.7761 24 17.5 24C17.2239 24 17 24 17 24C17 24 17.2239 24 17.5 24C17.7761 24 18 24 18 24Z" stroke="white" stroke-width="3" stroke-miterlimit="10"/>
<path d="M447 148.496C443.686 148.496 440.989 152.305 440.989 157C440.989 152.313 438.314 148.496 435 148.496C438.314 148.496 440.989 144.687 440.989 140C440.989 144.687 443.686 148.496 447 148.496Z" fill="#F1CB3D" stroke="#F1CB3D" stroke-width="2" stroke-miterlimit="10" stroke-linecap="round" stroke-linejoin="round"/>
<path d="M310 98.4999C310 98.2237 310 98 310 98C310 98 310 98.2237 310 98.4999C310 98.7761 310 99 310 99C310 99 310 98.7761 310 98.4999Z" stroke="#223977" stroke-miterlimit="10"/>
<path d="M385 15C383.895 15 383 15.6715 383 16.5C383 17.3285 383.895 18 385 18C386.105 18 387 17.3285 387 16.5C387 15.6715 386.105 15 385 15Z" fill="#F2D14B"/>
<path d="M463 22C462.448 22 462 22.6715 462 23.4998C462 24.3282 462.448 25 463 25C463.552 25 464 24.3282 464 23.4998C464 22.6715 463.552 22 463 22Z" fill="#F2D14B"/>
<path d="M427 178C427 178 427.224 178 427.5 178C427.776 178 428 178 428 178C428 178 427.776 178 427.5 178C427.224 178 427 178 427 178Z" stroke="white" stroke-width="3" stroke-miterlimit="10"/>
<path d="M302.5 46C301.672 46 301 46.2237 301 46.4999C301 46.7761 301.672 47 302.5 47C303.328 47 304 46.7761 304 46.4999C304 46.2237 303.328 46 302.5 46Z" fill="white" stroke="white" stroke-width="3" stroke-miterlimit="10"/>
<path d="M409.673 396.18C407.112 394.076 402.611 395.306 399.63 398.934C402.606 395.312 402.962 390.665 400.401 388.561C402.962 390.665 407.447 389.421 410.423 385.8C407.447 389.421 407.112 394.076 409.673 396.18Z" fill="#F1CB3D" stroke="#F1CB3D" stroke-width="2" stroke-miterlimit="10" stroke-linecap="round" stroke-linejoin="round"/>
<path d="M411.002 226.997C411.002 226.445 410.33 225.997 409.502 225.997C408.674 225.997 408.002 226.445 408.002 226.997C408.002 227.549 408.674 227.997 409.502 227.997C410.33 227.997 411.002 227.549 411.002 226.997Z" fill="#F2D14B"/>
<path d="M267 363C267 361.895 265.657 361 264 361C262.344 361 261 361.895 261 363C261 364.105 262.344 365 264 365C265.657 365 267 364.105 267 363Z" fill="#1F1F65"/>
<path d="M89 475C90.1046 475 91 474.328 91 473.5C91 472.672 90.1046 472 89 472C87.8955 472 87 472.672 87 473.5C87 474.328 87.8955 475 89 475Z" fill="#F2D14B"/>
<path d="M11 320C11.5523 320 12 319.329 12 318.5C12 317.672 11.5523 317 11 317C10.4477 317 10 317.672 10 318.5C10 319.329 10.4477 320 11 320Z" fill="#F2D14B"/>
<path d="M41 372C42.1046 372 43 370.881 43 369.5C43 368.12 42.1046 367 41 367C39.8955 367 39 368.12 39 369.5C39 370.881 39.8955 372 41 372Z" fill="#1F1F65"/>
</g>
<defs>
<clipPath id="clip0_8279_10341">
<rect width="480" height="524" fill="white"/>
</clipPath>
</defs>
</svg>
