<svg width="228" height="228" viewBox="0 0 228 228" fill="none" xmlns="http://www.w3.org/2000/svg">
<circle cx="114" cy="114" r="80" fill="white"/>
<rect x="148.134" y="175.123" width="2" height="10" transform="rotate(-30 148.134 175.123)" fill="black"/>
<rect x="73.134" y="45.2188" width="2" height="10" transform="rotate(-30 73.134 45.2188)" fill="black"/>
<rect x="174.122" y="149.865" width="2" height="10" transform="rotate(-60 174.122 149.865)" fill="black"/>
<rect x="44.218" y="74.8652" width="2" height="10" transform="rotate(-60 44.218 74.8652)" fill="black"/>
<rect x="175.122" y="79.8652" width="2" height="10" transform="rotate(-120 175.122 79.8652)" fill="black"/>
<rect x="45.218" y="154.865" width="2" height="10" transform="rotate(-120 45.218 154.865)" fill="black"/>
<rect x="149.866" y="53.877" width="2" height="10" transform="rotate(-150 149.866 53.877)" fill="black"/>
<rect x="74.866" y="183.781" width="2" height="10" transform="rotate(-150 74.866 183.781)" fill="black"/>
<rect x="113" y="34" width="2" height="16" fill="black"/>
<rect x="113" y="178" width="2" height="16" fill="black"/>
<rect x="34" y="115" width="2" height="16" transform="rotate(-90 34 115)" fill="black"/>
<rect x="178" y="115" width="2" height="16" transform="rotate(-90 178 115)" fill="black"/>
<circle cx="114" cy="114" r="4" fill="black"/>
<rect x="139.768" y="65.3691" width="4" height="56" rx="2" transform="rotate(30 139.768 65.3691)" fill="black"/>
<circle cx="114" cy="114" r="82" stroke="black" stroke-width="4"/>
</svg>
