<svg width="92" height="92" viewBox="0 0 92 92" fill="none" xmlns="http://www.w3.org/2000/svg">
<circle cx="46" cy="46" r="45" fill="#333335" stroke="white" stroke-width="2" stroke-dasharray="5 5"/>
<path d="M41.1428 32L39.119 36.1177H31.8333C30.2634 36.1177 29 37.4033 29 39V57.1177C29 58.7147 30.2637 60 31.8333 60H60.1667C61.7366 60 63 58.7144 63 57.1177V39C63 37.403 61.7363 36.1177 60.1667 36.1177H52.881L50.8572 32H41.1428ZM45.9999 40.6471C50.0239 40.6471 53.2857 43.9654 53.2857 48.0589C53.2857 52.1524 50.0238 55.4707 45.9999 55.4707C41.9763 55.4707 38.7142 52.1524 38.7142 48.0589C38.7142 43.9654 41.9761 40.6471 45.9999 40.6471Z" fill="#F5F5F5"/>
</svg>
