<svg width="16" height="16" viewBox="0 0 16 16" fill="none" xmlns="http://www.w3.org/2000/svg">
<path d="M10.6666 2.6665H12C12.3536 2.6665 12.6927 2.80698 12.9428 3.05703C13.1928 3.30708 13.3333 3.64622 13.3333 3.99984V13.3332C13.3333 13.6868 13.1928 14.0259 12.9428 14.276C12.6927 14.526 12.3536 14.6665 12 14.6665H3.99996C3.64634 14.6665 3.3072 14.526 3.05715 14.276C2.8071 14.0259 2.66663 13.6868 2.66663 13.3332V3.99984C2.66663 3.64622 2.8071 3.30708 3.05715 3.05703C3.3072 2.80698 3.64634 2.6665 3.99996 2.6665H5.33329" stroke="black" stroke-linecap="round" stroke-linejoin="round"/>
<path d="M10 1.3335H6.00004C5.63185 1.3335 5.33337 1.63197 5.33337 2.00016V3.3335C5.33337 3.70169 5.63185 4.00016 6.00004 4.00016H10C10.3682 4.00016 10.6667 3.70169 10.6667 3.3335V2.00016C10.6667 1.63197 10.3682 1.3335 10 1.3335Z" stroke="black" stroke-linecap="round" stroke-linejoin="round"/>
</svg>
