<svg width="201" height="193" viewBox="0 0 201 193" fill="none" xmlns="http://www.w3.org/2000/svg">
<ellipse rx="90.3166" ry="93.1824" transform="matrix(-1 0 0 1 108.835 98.2762)" fill="#E8EBF0" stroke="black" stroke-width="2" stroke-linejoin="round"/>
<path fill-rule="evenodd" clip-rule="evenodd" d="M68.4616 182.104C80.391 188.097 93.7906 191.46 107.951 191.46C141.235 191.46 170.314 172.884 185.979 145.234L83.2857 120.516L68.4616 182.104Z" fill="#FBFBFF"/>
<path d="M68.4616 182.104L68.0127 182.998C67.5974 182.789 67.3806 182.322 67.4894 181.87L68.4616 182.104ZM185.979 145.234L186.214 144.261C186.519 144.335 186.772 144.547 186.897 144.835C187.022 145.123 187.004 145.453 186.85 145.727L185.979 145.234ZM83.2857 120.516L82.3134 120.282C82.3755 120.024 82.5375 119.801 82.7637 119.663C82.9899 119.524 83.2618 119.481 83.5197 119.543L83.2857 120.516ZM68.9105 181.21C80.7045 187.136 93.9509 190.46 107.951 190.46V192.46C93.6304 192.46 80.0774 189.059 68.0127 182.998L68.9105 181.21ZM107.951 190.46C140.85 190.46 169.608 172.1 185.109 144.741L186.85 145.727C171.019 173.668 141.62 192.46 107.951 192.46V190.46ZM83.5197 119.543L186.214 144.261L185.745 146.206L83.0517 121.488L83.5197 119.543ZM67.4894 181.87L82.3134 120.282L84.2579 120.75L69.4338 182.338L67.4894 181.87Z" fill="black"/>
<ellipse rx="87.9192" ry="93.1824" transform="matrix(-1 0 0 1 88.9197 94.1824)" fill="white" stroke="black" stroke-width="2" stroke-linejoin="round"/>
<path d="M175.631 109.574C179.278 86.4926 174.598 62.802 162.519 43.2109C150.441 23.6199 131.849 9.56312 110.44 3.83468L88.9197 94.1824L175.631 109.574Z" fill="#B2B2B2" stroke="black" stroke-width="2" stroke-linejoin="round"/>
<ellipse rx="60.8594" ry="65.3202" transform="matrix(-1 0 0 1 88.124 94.1777)" fill="white" stroke="black" stroke-width="2" stroke-linejoin="round"/>
<ellipse rx="10.3801" ry="11.1409" transform="matrix(-1 0 0 1 88.119 94.18)" fill="#B2B2B2" stroke="black" stroke-width="2" stroke-linejoin="round"/>
</svg>
