<svg width="209" height="178" viewBox="0 0 209 178" fill="none" xmlns="http://www.w3.org/2000/svg">
<path d="M203.75 57.0996H127.26C125.598 57.0996 124.25 58.4472 124.25 60.1096V152.53C124.25 154.192 125.598 155.54 127.26 155.54H203.75C205.412 155.54 206.76 154.192 206.76 152.53V60.1096C206.76 58.4472 205.412 57.0996 203.75 57.0996Z" fill="#96C3C3" stroke="black" stroke-width="2.5" stroke-miterlimit="10"/>
<path d="M146.55 81.9102H186.35C186.88 81.9102 187.389 82.1209 187.764 82.496C188.139 82.871 188.35 83.3797 188.35 83.9102V98.1802H144.54V83.9102C144.54 83.6467 144.592 83.3858 144.693 83.1425C144.794 82.8992 144.943 82.6783 145.129 82.4924C145.316 82.3066 145.538 82.1595 145.782 82.0595C146.025 81.9596 146.287 81.9089 146.55 81.9102Z" fill="#87CD9B"/>
<path d="M188.35 98.1797H144.54V114.46H188.35V98.1797Z" fill="#5AB978"/>
<path d="M144.54 114.46H188.35V128.74C188.35 129.27 188.139 129.779 187.764 130.154C187.389 130.529 186.88 130.74 186.35 130.74H146.55C146.02 130.74 145.511 130.529 145.136 130.154C144.761 129.779 144.55 129.27 144.55 128.74V114.46H144.54Z" fill="#3C8C55"/>
<path d="M188.35 98.1802V128.91C188.35 129.396 188.157 129.861 187.814 130.204C187.471 130.547 187.005 130.74 186.52 130.74H146.38C146.139 130.742 145.9 130.695 145.677 130.604C145.453 130.512 145.251 130.378 145.08 130.208C144.909 130.038 144.773 129.835 144.68 129.613C144.588 129.39 144.54 129.151 144.54 128.91V83.7402C144.54 83.499 144.588 83.2602 144.68 83.0375C144.773 82.8149 144.909 82.6127 145.08 82.4426C145.251 82.2726 145.453 82.138 145.677 82.0466C145.9 81.9552 146.139 81.9089 146.38 81.9102H186.52C187.005 81.9102 187.471 82.103 187.814 82.4462C188.157 82.7894 188.35 83.2548 188.35 83.7402V98.1802Z" stroke="black" stroke-width="2.5" stroke-miterlimit="10"/>
<path d="M188.35 98.1802V128.91C188.35 129.396 188.157 129.861 187.814 130.204C187.471 130.547 187.005 130.74 186.52 130.74H146.38C146.139 130.742 145.9 130.695 145.677 130.604C145.453 130.512 145.251 130.378 145.08 130.208C144.909 130.038 144.773 129.835 144.68 129.613C144.588 129.39 144.54 129.151 144.54 128.91V83.7402C144.54 83.499 144.588 83.2602 144.68 83.0375C144.773 82.8149 144.909 82.6127 145.08 82.4426C145.251 82.2726 145.453 82.138 145.677 82.0466C145.9 81.9552 146.139 81.9089 146.38 81.9102H186.52C187.005 81.9102 187.471 82.103 187.814 82.4462C188.157 82.7894 188.35 83.2548 188.35 83.7402V98.1802Z" stroke="black" stroke-width="2.5" stroke-miterlimit="10"/>
<path d="M163.71 102.14V117.93C163.704 118.064 163.67 118.195 163.612 118.316C163.554 118.437 163.472 118.545 163.371 118.634C163.271 118.723 163.153 118.79 163.026 118.832C162.898 118.875 162.764 118.891 162.63 118.88H139C138.866 118.891 138.732 118.875 138.604 118.832C138.477 118.79 138.359 118.723 138.258 118.634C138.158 118.545 138.076 118.437 138.018 118.316C137.959 118.195 137.926 118.064 137.92 117.93V94.7099C137.927 94.5767 137.962 94.4464 138.02 94.3266C138.079 94.2067 138.161 94.0999 138.262 94.0123C138.362 93.9247 138.48 93.8581 138.606 93.8165C138.733 93.7749 138.867 93.759 139 93.7699H162.66C162.793 93.759 162.927 93.7749 163.053 93.8165C163.18 93.8581 163.297 93.9247 163.398 94.0123C163.499 94.0999 163.581 94.2067 163.64 94.3266C163.698 94.4464 163.732 94.5767 163.74 94.7099L163.71 102.14Z" fill="#5AB978" stroke="black" stroke-width="2.5" stroke-miterlimit="10"/>
<path d="M143.65 114.34H147.51L150.87 108.41L154.28 114.02L157.95 113.96L153.06 105.9L157.95 98.2998H153.89L150.8 103.78L147.97 98.2998H143.65L148.54 106.32L143.65 114.34Z" fill="white"/>
<path d="M77.7426 69.4055L5.16089 77.7521C3.48745 77.9446 2.28686 79.4572 2.4793 81.1306L13.0286 172.866C13.221 174.539 14.7336 175.74 16.407 175.548L88.9887 167.201C90.6621 167.009 91.8627 165.496 91.6703 163.823L81.121 72.0871C80.9286 70.4136 79.416 69.2131 77.7426 69.4055Z" fill="#FFCB50" stroke="black" stroke-width="2.5" stroke-linecap="round" stroke-linejoin="round"/>
<path d="M134.2 41.5003V141.94H38.0801V9.03027H107.88L134.2 41.5003Z" fill="#FEBED6" stroke="black" stroke-width="2.5" stroke-linecap="round" stroke-linejoin="round"/>
<path d="M90.92 86.1895H21.73C19.7859 86.1895 18.21 87.7654 18.21 89.7094V117.659C18.21 119.603 19.7859 121.179 21.73 121.179H90.92C92.864 121.179 94.44 119.603 94.44 117.659V89.7094C94.44 87.7654 92.864 86.1895 90.92 86.1895Z" fill="white" stroke="black" stroke-width="2.5" stroke-linecap="round" stroke-linejoin="round"/>
<path d="M107.88 9.03027V41.5003H134.2L107.88 9.03027Z" fill="#F06450" stroke="black" stroke-width="2.5" stroke-linecap="round" stroke-linejoin="round"/>
<path d="M156.41 19.7295L166.58 41.4295L170.17 32.9595L178.39 29.6095L156.41 19.7295Z" fill="black"/>
<path d="M167.72 30.2295L177.87 39.6395" stroke="black" stroke-width="2.5" stroke-linecap="round" stroke-linejoin="round"/>
<path d="M160.09 10.7798V2.0498" stroke="black" stroke-width="2.5" stroke-linecap="round" stroke-linejoin="round"/>
<path d="M167.4 13.2499L172.84 6.41992" stroke="black" stroke-width="2.5" stroke-linecap="round" stroke-linejoin="round"/>
<path d="M151.19 29.96L144.41 35.45" stroke="black" stroke-width="2.5" stroke-linecap="round" stroke-linejoin="round"/>
<path d="M148.51 22.7197L139.78 22.7997" stroke="black" stroke-width="2.5" stroke-linecap="round" stroke-linejoin="round"/>
<path d="M150.96 14.8601L144.65 8.83008" stroke="black" stroke-width="2.5" stroke-linecap="round" stroke-linejoin="round"/>
<path d="M37.0003 107.34C37.3959 107.34 37.7826 107.457 38.1115 107.677C38.4404 107.897 38.6967 108.209 38.8481 108.575C38.9995 108.94 39.0391 109.342 38.9619 109.73C38.8847 110.118 38.6943 110.475 38.4146 110.754C38.1349 111.034 37.7785 111.225 37.3905 111.302C37.0026 111.379 36.6004 111.339 36.235 111.188C35.8695 111.037 35.5572 110.78 35.3374 110.451C35.1176 110.122 35.0003 109.736 35.0003 109.34C34.9905 109.075 35.0356 108.81 35.1326 108.563C35.2296 108.316 35.3766 108.092 35.5643 107.904C35.752 107.716 35.9764 107.569 36.2235 107.472C36.4706 107.375 36.7351 107.33 37.0003 107.34Z" fill="black"/>
<path d="M46.1101 96C49.8201 96 51.9001 98.06 51.9001 101.33V101.84H49.1301V101.29C49.1301 99.61 48.1301 98.48 46.1301 98.48C45.6861 98.4628 45.2434 98.5382 44.8301 98.7015C44.4168 98.8648 44.0421 99.1123 43.7298 99.4284C43.4174 99.7445 43.1744 100.122 43.016 100.537C42.8577 100.953 42.7876 101.396 42.8101 101.84V105.45C42.7659 105.899 42.821 106.352 42.9716 106.777C43.1222 107.202 43.3646 107.588 43.6815 107.909C43.9985 108.23 44.3822 108.477 44.8054 108.633C45.2286 108.788 45.6809 108.849 46.1301 108.81C48.3301 108.81 49.1301 107.65 49.1301 106V105.45H51.9001V105.95C51.9001 109.21 49.9901 111.29 46.1101 111.29C42.5001 111.29 40.0201 109.23 40.0201 105.29V102C40.0001 98.35 42.3901 96 46.1101 96Z" fill="black"/>
<path d="M64.13 100.7V101.33H61.44V100.89C61.44 99.2097 60.37 98.4797 58.69 98.4797C57.22 98.4797 56.31 99.2097 56.31 100.22C56.31 101.61 57.62 101.86 59.38 102.22H59.57C62.57 102.89 64.38 103.96 64.38 106.63C64.38 109.63 62.07 111.25 58.94 111.25C55.35 111.25 53.04 109.32 53.04 105.87V105.41H55.77V105.79C55.77 107.59 56.77 108.79 59.02 108.79C60.81 108.79 61.65 107.85 61.65 106.79C61.65 105.51 60.56 105.09 58.65 104.67H58.47C55.47 104 53.62 102.95 53.62 100.28C53.62 97.6097 55.86 96.0197 58.72 96.0197C61.84 95.9997 64.13 97.7597 64.13 100.7Z" fill="black"/>
<path d="M68.0002 96.3396L71.2802 108.58H71.5302L74.8102 96.3396H77.6602L73.6002 111H69.2702L65.1802 96.3096L68.0002 96.3396Z" fill="black"/>
<path d="M56.6602 52.9297H115.51V129.66H56.6602" stroke="white" stroke-width="2" stroke-linecap="round" stroke-linejoin="round"/>
<path d="M115.51 70.25H56.6602" stroke="white" stroke-width="2" stroke-linecap="round" stroke-linejoin="round"/>
<path d="M115.51 91.6494H100.49" stroke="white" stroke-width="2" stroke-linecap="round" stroke-linejoin="round"/>
<path d="M115.51 113.04H100.49" stroke="white" stroke-width="2" stroke-linecap="round" stroke-linejoin="round"/>
</svg>
