<svg width="16" height="16" viewBox="0 0 16 16" fill="none" xmlns="http://www.w3.org/2000/svg">
<path fill-rule="evenodd" clip-rule="evenodd" d="M13.4053 3.6584C13.5336 3.95371 13.6373 4.26133 13.7129 4.57598C14.9803 4.9627 15.8574 6.15977 15.8592 7.5168C15.8592 8.33418 15.5393 9.10586 14.9574 9.68769C14.6428 10.0041 14.2754 10.2432 13.8676 10.3961C13.8289 11.0711 13.6742 11.725 13.407 12.342C13.1082 13.0328 12.6793 13.6516 12.1344 14.1824C11.5895 14.7133 10.9566 15.1299 10.2518 15.4199C9.55215 15.71 8.80684 15.8629 8.03867 15.8734H8.03691H8.03164H8.01934H7.9877H7.97539H7.95078H7.94727C7.40938 15.8629 6.90664 15.6467 6.52871 15.2617C6.14902 14.8768 5.9416 14.367 5.9416 13.8291C5.9416 13.2842 6.1543 12.7709 6.54102 12.3842C6.92773 11.9975 7.44102 11.7848 7.98594 11.7848H8.03867C8.56426 11.7988 9.0582 12.0133 9.43086 12.3877C9.80352 12.7621 10.0145 13.2578 10.0268 13.7834C10.0285 13.9135 10.0197 14.0418 9.99863 14.1684C10.4645 13.9486 10.8881 13.6533 11.2607 13.2895C12.1396 12.4316 12.6248 11.2926 12.6248 10.0814V5.91895C12.6248 4.70781 12.1396 3.56875 11.2607 2.71094C10.3748 1.84961 9.19707 1.375 7.94551 1.375C6.69394 1.375 5.51621 1.84961 4.63027 2.7127C3.75137 3.57051 3.26621 4.70957 3.26621 5.9207L3.29258 9.91269C3.29434 10.0797 3.23105 10.2379 3.11328 10.3557C2.99727 10.4752 2.83555 10.542 2.67031 10.542C2.62637 10.542 2.58242 10.5367 2.54023 10.5279C1.96719 10.4084 1.43633 10.1184 1.00918 9.69121C0.427344 9.10762 0.107422 8.33594 0.107422 7.51855C0.107422 6.84531 0.318359 6.20547 0.717383 5.66934C0.907227 5.41094 1.13574 5.18594 1.3959 4.99961C1.63672 4.82734 1.89863 4.69199 2.17637 4.59883C2.25547 4.27363 2.36094 3.95723 2.49102 3.6584C2.78984 2.96758 3.21875 2.34883 3.76367 1.81797C4.30859 1.28711 4.94141 0.870508 5.64629 0.580469C6.37754 0.279883 7.15273 0.126953 7.94727 0.126953C8.74356 0.126953 9.51875 0.279883 10.25 0.580469C10.9549 0.872266 11.5895 1.28887 12.1326 1.81797C12.6793 2.35059 13.1064 2.96934 13.4053 3.6584ZM0.418701 8.50464C0.441977 8.54858 0.467839 8.59429 0.493701 8.63823C0.467839 8.59429 0.441977 8.55034 0.418701 8.50464ZM0.592651 8.89465C0.622534 8.94915 0.654175 9.00364 0.685815 9.05637C0.654175 9.00364 0.622534 8.9509 0.592651 8.89465ZM2.01992 8.92278C1.97598 8.88586 1.93379 8.84719 1.89336 8.80676C1.54707 8.46047 1.35547 8.00168 1.35547 7.51829C1.35547 7.19309 1.43984 6.87317 1.59805 6.59368C1.70703 6.40032 1.85117 6.22981 2.01992 6.09094V8.92278ZM2.14883 9.20315C2.16155 9.21565 2.17427 9.22815 2.18633 9.24065C2.16222 9.21982 2.13544 9.19482 2.11133 9.16565C2.12336 9.17813 2.13607 9.19061 2.14877 9.2031L2.14883 9.20315ZM2.29407 4.70784C2.3175 4.63225 2.34329 4.55666 2.36907 4.48108C2.34094 4.55666 2.31516 4.63225 2.29407 4.70784ZM2.39441 10.3467C2.45242 10.3717 2.51042 10.3939 2.57019 10.4133C2.5288 10.3999 2.48826 10.3838 2.44797 10.3677C2.43008 10.3606 2.41225 10.3535 2.39441 10.3467ZM3.19716 9.93901V9.91265C3.20192 9.92144 3.20192 9.93022 3.19716 9.93901ZM4.38257 1.46621C4.41635 1.44062 4.45013 1.41503 4.48425 1.39013C4.45022 1.41454 4.4161 1.43979 4.38257 1.46621ZM4.48425 1.39013C4.50873 1.37228 4.53339 1.35478 4.55835 1.33789C4.53388 1.35495 4.50909 1.37232 4.48425 1.39013ZM5.73931 0.694531C5.72568 0.699804 5.71206 0.705078 5.69888 0.710352C5.72524 0.698047 5.75161 0.6875 5.77974 0.678711C5.76655 0.683984 5.75293 0.689257 5.73931 0.694531ZM6.74316 1.42351C6.7584 1.41518 6.77363 1.40638 6.78887 1.39759C6.81933 1.37999 6.8498 1.3624 6.88027 1.34851C6.85098 1.36518 6.82012 1.38184 6.78927 1.39851L6.74316 1.42351ZM12.034 1.91797C11.5032 1.39941 10.8827 0.993359 10.1954 0.710352C10.8827 0.993359 11.5014 1.39941 12.034 1.91797ZM12.1325 2.01641L12.034 1.91797C12.0674 1.94961 12.1008 1.98301 12.1325 2.01641ZM12.426 2.34167C12.4735 2.39792 12.5192 2.45593 12.5649 2.51394C12.5209 2.45593 12.4735 2.39792 12.426 2.34167ZM8.55356 14.3861C8.40942 14.5337 8.21782 14.6198 8.01216 14.6269H7.97349C7.54106 14.6216 7.18774 14.2648 7.18774 13.8306C7.18774 13.3911 7.54458 13.0343 7.98403 13.0343C8.42349 13.0343 8.78032 13.3911 8.78032 13.8306C8.77856 14.038 8.69946 14.2366 8.55356 14.3861ZM8.9479 13.7832C8.9554 13.799 8.9554 13.8148 8.9554 13.8307C8.9554 13.8228 8.95353 13.8148 8.95165 13.8069C8.94978 13.799 8.9479 13.7911 8.9479 13.7832ZM9.7948 14.4332C9.80798 14.4257 9.82161 14.4175 9.83523 14.4094C9.84885 14.4013 9.86248 14.3932 9.87566 14.3857C9.84929 14.4032 9.82292 14.4182 9.7948 14.4332ZM11.9617 14.1512C11.9859 14.1286 12.0104 14.1057 12.0341 14.082C12.0675 14.0503 12.1009 14.0169 12.1325 13.9835L12.0341 14.082L11.9269 14.1839L11.9617 14.1512ZM12.7825 5.91897C12.7825 5.88557 12.7825 5.85042 12.775 5.81702C12.775 5.83372 12.7769 5.85085 12.7788 5.86799C12.7806 5.88513 12.7825 5.90227 12.7825 5.91897ZM13.2752 12.2857C13.2383 12.3701 13.1996 12.4527 13.1592 12.5353C13.2014 12.4527 13.24 12.3701 13.2752 12.2857ZM13.2752 12.2857C13.2888 12.2568 13.3008 12.2278 13.3127 12.1989C13.3069 12.2129 13.3007 12.2269 13.2945 12.2409C13.2879 12.2558 13.2813 12.2708 13.2752 12.2857ZM13.1592 3.46484C13.1996 3.54746 13.2383 3.63008 13.2752 3.71445C13.24 3.63008 13.2014 3.54746 13.1592 3.46484ZM13.3244 3.83398C13.3104 3.79355 13.2928 3.75312 13.2752 3.71445C13.2928 3.75312 13.3086 3.79355 13.3244 3.83398ZM13.5687 4.5793C13.5936 4.61443 13.6186 4.64956 13.6436 4.68645C13.6311 4.66889 13.6186 4.65089 13.6061 4.6329L13.6061 4.63284L13.6059 4.63261C13.5935 4.61467 13.5811 4.59673 13.5686 4.57922L13.5687 4.5793ZM14.1718 8.90718C14.0382 9.04077 13.8906 9.15151 13.7341 9.2394C13.8906 9.15151 14.0382 9.03901 14.1718 8.90718ZM14.0716 8.80698C14.0083 8.87026 13.9432 8.92651 13.8729 8.97925V6.03491C14.061 6.17554 14.2227 6.35308 14.3458 6.5605C14.518 6.84878 14.6077 7.17925 14.6077 7.51851C14.6094 8.00366 14.4178 8.46069 14.0716 8.80698ZM15.6098 6.63084L15.6098 6.63089C15.617 6.64253 15.6242 6.65421 15.6318 6.66589C15.6068 6.62722 15.5818 6.58855 15.5568 6.55164C15.5767 6.57738 15.5931 6.60398 15.6098 6.63084ZM15.4216 6.22131C15.44 6.2454 15.4571 6.27031 15.4738 6.29491L15.4519 6.26413C15.4416 6.24978 15.4314 6.23555 15.4216 6.22131ZM15.4738 6.29491C15.4815 6.30599 15.4892 6.31718 15.4966 6.32854L15.4796 6.30347L15.4738 6.29491ZM15.6128 8.38994C15.5934 8.42157 15.5736 8.4539 15.5516 8.48508C15.5789 8.44641 15.6062 8.40774 15.6266 8.36731C15.622 8.37479 15.6174 8.38235 15.6128 8.38994Z" fill="white"/>
</svg>
