<svg width="184" height="185" viewBox="0 0 184 185" fill="none" xmlns="http://www.w3.org/2000/svg">
<path d="M91.9999 183.58C142.578 183.58 183.58 142.578 183.58 91.9999C183.58 41.4217 142.578 0.419922 91.9999 0.419922C41.4217 0.419922 0.419922 41.4217 0.419922 91.9999C0.419922 142.578 41.4217 183.58 91.9999 183.58Z" fill="#F5968C"/>
<path d="M92.03 157.22C127.691 157.22 156.6 128.311 156.6 92.6498C156.6 56.9888 127.691 28.0798 92.03 28.0798C56.3689 28.0798 27.46 56.9888 27.46 92.6498C27.46 128.311 56.3689 157.22 92.03 157.22Z" fill="#F4A6A2" stroke="black" stroke-width="2.5" stroke-linecap="round" stroke-linejoin="round"/>
<path d="M60.78 133.14C62.3623 130.987 64.4677 129.273 66.8971 128.16C69.3264 127.047 71.9994 126.573 74.6633 126.781C77.3272 126.989 79.894 127.873 82.1209 129.35C84.3479 130.827 86.1614 132.847 87.39 135.22C89.0521 134.18 91.0026 133.698 92.9577 133.844C94.9127 133.99 96.7702 134.756 98.26 136.03C101.44 132.17 106.1 129.26 111.09 129.28C116.08 129.3 121.16 132.84 121.9 137.78C126.557 135.031 132.039 134.021 137.37 134.93C137.9 137.4 135.37 139.41 133.11 140.44C126.38 143.44 118.8 143.78 111.42 144.04C104.04 144.3 96.36 144.59 88.91 143.61C81.46 142.63 74.42 140.51 67.04 140.43C62.58 140.38 58.13 141.09 53.67 141.14C50.07 141.14 44.98 138.14 47.78 134.05C50.32 130.41 60.27 133.82 60.78 133.14Z" fill="white"/>
<path d="M159.3 90.3398C158.239 90.3398 157.222 90.7613 156.471 91.5114C155.721 92.2616 155.3 93.279 155.3 94.3398C155.3 93.279 154.878 92.2616 154.128 91.5114C153.378 90.7613 152.361 90.3398 151.3 90.3398C152.361 90.3398 153.378 89.9184 154.128 89.1683C154.878 88.4181 155.3 87.4007 155.3 86.3398C155.3 87.4007 155.721 88.4181 156.471 89.1683C157.222 89.9184 158.239 90.3398 159.3 90.3398Z" fill="black" stroke="black" stroke-width="2" stroke-linecap="round" stroke-linejoin="round"/>
<path d="M146.53 111.46C145.469 111.46 144.452 111.881 143.702 112.632C142.952 113.382 142.53 114.399 142.53 115.46C142.53 114.399 142.109 113.382 141.359 112.632C140.609 111.881 139.591 111.46 138.53 111.46C139.591 111.46 140.609 111.039 141.359 110.288C142.109 109.538 142.53 108.521 142.53 107.46C142.53 108.521 142.952 109.538 143.702 110.288C144.452 111.039 145.469 111.46 146.53 111.46Z" fill="white" stroke="white" stroke-width="2" stroke-linecap="round" stroke-linejoin="round"/>
<path d="M68.4902 57.41C65.3602 57.41 62.8202 60.6 62.8202 64.53C62.8202 60.6 60.2902 57.41 57.1602 57.41C60.2902 57.41 62.8202 54.22 62.8202 50.29C62.8202 54.22 65.3602 57.41 68.4902 57.41Z" fill="white" stroke="white" stroke-width="2" stroke-linecap="round" stroke-linejoin="round"/>
<path d="M33.1299 50.1099C32.069 50.1099 31.0516 50.5313 30.3015 51.2814C29.5513 52.0316 29.1299 53.049 29.1299 54.1099C29.1299 53.049 28.7085 52.0316 27.9583 51.2814C27.2082 50.5313 26.1907 50.1099 25.1299 50.1099C26.1907 50.1099 27.2082 49.6884 27.9583 48.9383C28.7085 48.1881 29.1299 47.1707 29.1299 46.1099C29.1299 47.1707 29.5513 48.1881 30.3015 48.9383C31.0516 49.6884 32.069 50.1099 33.1299 50.1099Z" fill="white" stroke="white" stroke-width="2" stroke-linecap="round" stroke-linejoin="round"/>
<path d="M175.479 70.22C174.419 70.22 173.401 70.6414 172.651 71.3915C171.901 72.1417 171.479 73.1591 171.479 74.22C171.479 73.1591 171.058 72.1417 170.308 71.3915C169.558 70.6414 168.54 70.22 167.479 70.22C168.54 70.22 169.558 69.7985 170.308 69.0484C171.058 68.2982 171.479 67.2808 171.479 66.22C171.479 67.2808 171.901 68.2982 172.651 69.0484C173.401 69.7985 174.419 70.22 175.479 70.22Z" fill="black" stroke="black" stroke-width="2" stroke-linecap="round" stroke-linejoin="round"/>
<path d="M152.78 39.2C151.719 39.2 150.702 39.6214 149.952 40.3715C149.202 41.1217 148.78 42.1391 148.78 43.2C148.78 42.1391 148.359 41.1217 147.609 40.3715C146.859 39.6214 145.841 39.2 144.78 39.2C145.841 39.2 146.859 38.7785 147.609 38.0284C148.359 37.2782 148.78 36.2608 148.78 35.2C148.78 36.2608 149.202 37.2782 149.952 38.0284C150.702 38.7785 151.719 39.2 152.78 39.2Z" fill="#F06450" stroke="#F06450" stroke-width="2" stroke-linecap="round" stroke-linejoin="round"/>
<path d="M91.5498 19.0498C90.4889 19.0498 89.4715 19.4712 88.7214 20.2214C87.9712 20.9715 87.5498 21.9889 87.5498 23.0498C87.5498 21.9889 87.1284 20.9715 86.3782 20.2214C85.6281 19.4712 84.6107 19.0498 83.5498 19.0498C84.6107 19.0498 85.6281 18.6284 86.3782 17.8782C87.1284 17.1281 87.5498 16.1107 87.5498 15.0498C87.5498 16.1107 87.9712 17.1281 88.7214 17.8782C89.4715 18.6284 90.4889 19.0498 91.5498 19.0498Z" fill="black" stroke="black" stroke-width="2" stroke-linecap="round" stroke-linejoin="round"/>
<path d="M41.3398 96.48C40.279 96.48 39.2616 96.9014 38.5114 97.6516C37.7613 98.4017 37.3398 99.4191 37.3398 100.48C37.3398 99.4191 36.9184 98.4017 36.1683 97.6516C35.4181 96.9014 34.4007 96.48 33.3398 96.48C34.4007 96.48 35.4181 96.0585 36.1683 95.3084C36.9184 94.5583 37.3398 93.5408 37.3398 92.48C37.3398 93.5408 37.7613 94.5583 38.5114 95.3084C39.2616 96.0585 40.279 96.48 41.3398 96.48Z" fill="#F06450" stroke="#F06450" stroke-width="2" stroke-linecap="round" stroke-linejoin="round"/>
<path d="M122.9 96.25C119.566 100.951 115.154 104.785 110.034 107.431C104.913 110.077 99.2336 111.458 93.47 111.458C87.7065 111.458 82.0268 110.077 76.9065 107.431C71.7862 104.785 67.3742 100.951 64.04 96.25C67.3631 91.5331 71.7712 87.684 76.893 85.0272C82.0148 82.3703 87.7001 80.9834 93.47 80.9834C99.2399 80.9834 104.925 82.3703 110.047 85.0272C115.169 87.684 119.577 91.5331 122.9 96.25Z" fill="white" stroke="black" stroke-width="2.5" stroke-linecap="round" stroke-linejoin="round"/>
<path d="M93.4701 111.34C101.81 111.34 108.57 104.579 108.57 96.2399C108.57 87.9004 101.81 81.1399 93.4701 81.1399C85.1306 81.1399 78.3701 87.9004 78.3701 96.2399C78.3701 104.579 85.1306 111.34 93.4701 111.34Z" fill="#FFCD50" stroke="black" stroke-width="2.5" stroke-linecap="round" stroke-linejoin="round"/>
<path d="M93.4697 62.5798V74.2398" stroke="black" stroke-width="2.5" stroke-linecap="round" stroke-linejoin="round"/>
<path d="M109.62 65.02L106.17 76.16" stroke="black" stroke-width="2.5" stroke-linecap="round" stroke-linejoin="round"/>
<path d="M124.32 72.1499L117.729 81.7599" stroke="black" stroke-width="2.5" stroke-linecap="round" stroke-linejoin="round"/>
<path d="M136.26 83.2998L127.11 90.5298" stroke="black" stroke-width="2.5" stroke-linecap="round" stroke-linejoin="round"/>
<path d="M51.7998 81.95L60.7098 89.46" stroke="black" stroke-width="2.5" stroke-linecap="round" stroke-linejoin="round"/>
<path d="M64.0801 71.1799L70.3701 80.9999" stroke="black" stroke-width="2.5" stroke-linecap="round" stroke-linejoin="round"/>
<path d="M79 64.53L82.1 75.77" stroke="black" stroke-width="2.5" stroke-linecap="round" stroke-linejoin="round"/>
<path d="M93.47 102.68C99.3684 102.68 104.15 97.8982 104.15 91.9998C104.15 86.1014 99.3684 81.3198 93.47 81.3198C87.5716 81.3198 82.79 86.1014 82.79 91.9998C82.79 97.8982 87.5716 102.68 93.47 102.68Z" fill="black"/>
<path d="M98.2495 104.36C99.9174 104.36 101.269 103.008 101.269 101.34C101.269 99.6719 99.9174 98.3198 98.2495 98.3198C96.5816 98.3198 95.2295 99.6719 95.2295 101.34C95.2295 103.008 96.5816 104.36 98.2495 104.36Z" fill="white"/>
<path d="M64 96.25C64 96.25 73.67 86.92 93.43 86.92C113.19 86.92 122.86 96.25 122.86 96.25C119.537 91.5331 115.129 87.684 110.007 85.0272C104.885 82.3703 99.1999 80.9834 93.43 80.9834C87.6601 80.9834 81.9747 82.3703 76.853 85.0272C71.7312 87.684 67.323 91.5331 64 96.25Z" fill="#F5968C" stroke="black" stroke-width="2.5" stroke-linecap="round" stroke-linejoin="round"/>
<path d="M139.11 149.74V140.99H44.9404V149.74H139.11Z" fill="black" stroke="black" stroke-width="2" stroke-miterlimit="10"/>
<path d="M146.28 183.47V174.72H37.7703V183.47H146.28Z" fill="black" stroke="black" stroke-width="2" stroke-miterlimit="10"/>
<path d="M135.97 149.74L144.04 172.66H40.0195L48.0895 149.74H135.97Z" fill="black" stroke="black" stroke-width="2" stroke-miterlimit="10"/>
<path d="M36.4102 149.74H142.49" stroke="#F5968C" stroke-width="2.5" stroke-miterlimit="10"/>
<path d="M31.1201 173.69H148.71" stroke="white" stroke-width="2.5" stroke-miterlimit="10"/>
<path d="M54.4904 153.67C54.2354 157.779 54.2354 161.901 54.4904 166.01H54.6904C55.4704 161.07 55.9504 158.61 57.1004 153.67H59.1004C57.7904 159.67 57.2604 162.67 56.4504 168.67H52.6104C52.3055 164.56 52.2554 160.436 52.4604 156.32H52.2804C51.0904 161.26 50.5904 163.73 49.8104 168.67H47.6504C48.4545 163.609 49.5564 158.601 50.9504 153.67H54.4904Z" fill="#F5968C"/>
<path d="M64.81 153.38C67.51 153.38 68.81 155.76 68.28 159.59C68.11 160.85 68.03 161.49 67.89 162.75C67.43 166.68 65.45 168.95 62.53 168.95C59.61 168.95 58.09 166.69 58.72 162.75C58.93 161.49 59.03 160.85 59.26 159.58C59.94 155.75 62.11 153.38 64.81 153.38ZM60.81 162.88C60.49 165.04 61.12 166.43 62.81 166.43C64.5 166.43 65.5 164.95 65.81 162.88C65.98 161.51 66.07 160.88 66.27 159.46C66.57 157.34 65.91 155.91 64.41 155.91C62.91 155.91 61.73 157.42 61.41 159.46C61.12 160.83 61 161.51 60.8 162.88H60.81Z" fill="#F5968C"/>
<path d="M79.6496 162.88C80.4096 165.18 80.8196 166.34 81.6496 168.64H79.2696C78.5296 166.43 78.1796 165.32 77.5096 163.11H75.6496C75.4696 165.33 75.3996 166.43 75.2496 168.64H73.0996C73.5296 162.64 73.8096 159.64 74.5096 153.7H79.1696C81.1696 153.7 82.4296 155.55 82.2696 158.39C82.1396 160.68 81.1096 162.3 79.6496 162.88ZM75.8596 160.55H78.4196C79.4196 160.55 80.1296 159.72 80.2196 158.41C80.3096 157.1 79.7196 156.28 78.7496 156.28H76.2496C76.0796 158 75.9996 158.84 75.8596 160.55Z" fill="#F5968C"/>
<path d="M90.7698 153.7C90.7698 154.7 90.7698 155.23 90.7698 156.26H85.7698C85.7098 157.69 85.6898 158.4 85.6298 159.82H90.3398C90.3398 160.82 90.3398 161.36 90.3398 162.39H85.5798C85.5798 163.86 85.5098 164.6 85.4598 166.08H90.8598V168.64H83.2598C83.4698 162.64 83.5998 159.64 83.9298 153.7H90.7698Z" fill="#F5968C"/>
<path d="M99.8902 158.14C99.8902 158.39 99.8902 158.52 99.8902 158.78H97.8902C97.8902 158.6 97.8902 158.51 97.8902 158.33C97.8302 156.62 97.0202 155.87 95.8002 155.87C95.5667 155.859 95.3336 155.898 95.1165 155.985C94.8994 156.071 94.7033 156.203 94.5414 156.372C94.3794 156.541 94.2554 156.742 94.1776 156.962C94.0998 157.183 94.07 157.417 94.0902 157.65C94.0902 159.06 95.0902 159.31 96.4002 159.72H96.5402C98.8102 160.4 100.21 161.49 100.31 164.2C100.42 167.2 98.6702 168.9 96.2302 168.9C93.4402 168.9 91.6502 166.9 91.6602 163.43V163H93.7302V163.39C93.7302 165.22 94.5402 166.46 96.2602 166.46C96.5347 166.483 96.8107 166.444 97.0684 166.347C97.3261 166.25 97.5591 166.097 97.7505 165.899C97.9418 165.701 98.0868 165.462 98.1749 165.202C98.2631 164.941 98.2922 164.663 98.2602 164.39C98.2602 163.09 97.3802 162.66 95.9102 162.24L95.7702 162.19C93.4502 161.51 92.1002 160.44 92.1002 157.73C92.1002 155.02 93.7202 153.4 95.7702 153.4C98.0002 153.4 99.7602 155.15 99.8902 158.14Z" fill="#F5968C"/>
<path d="M103.21 153.69C103.5 157.61 103.62 159.56 103.84 163.47C103.94 165.29 104.84 166.42 106.29 166.42C107.74 166.42 108.51 165.29 108.37 163.47C108.07 159.56 107.9 157.61 107.5 153.69H109.5C109.94 157.55 110.13 159.48 110.5 163.35C110.79 166.77 109.31 168.94 106.5 168.94C103.69 168.94 101.95 166.76 101.8 163.35C101.62 159.49 101.52 157.56 101.29 153.7L103.21 153.69Z" fill="#F5968C"/>
<path d="M113.179 153.69C113.869 158.69 114.179 161.13 114.629 166.08H119.859C119.979 167.08 120.039 167.62 120.149 168.64H112.709C112.239 162.64 111.939 159.64 111.189 153.64L113.179 153.69Z" fill="#F5968C"/>
<path d="M125 153.68C125.23 154.68 125.33 155.22 125.54 156.24H122.29C123.19 161.24 123.57 163.68 124.16 168.65H122C121.44 163.65 121.1 161.2 120.25 156.24H117C116.85 155.24 116.77 154.7 116.6 153.68H125Z" fill="#F5968C"/>
<path d="M134.4 158.12L134.55 158.77H132.55L132.45 158.32C132.06 156.6 131.09 155.85 129.86 155.85C129.638 155.83 129.414 155.866 129.21 155.957C129.006 156.047 128.828 156.188 128.694 156.367C128.56 156.545 128.473 156.755 128.443 156.976C128.412 157.197 128.439 157.422 128.52 157.63C128.81 159.05 129.83 159.3 131.23 159.71H131.38C133.78 160.4 135.38 161.49 135.93 164.22C136.53 167.22 134.99 168.93 132.55 168.93C129.76 168.93 127.73 166.93 127.15 163.44C127.15 163.25 127.15 163.16 127.08 162.97H129.15C129.15 163.13 129.15 163.2 129.21 163.36C129.53 165.2 130.51 166.44 132.21 166.44C132.472 166.468 132.737 166.43 132.981 166.328C133.224 166.226 133.438 166.065 133.602 165.858C133.765 165.651 133.874 165.406 133.918 165.146C133.961 164.886 133.938 164.619 133.85 164.37C133.61 163.06 132.69 162.63 131.15 162.2H131C128.57 161.51 127 160.44 126.5 157.72C126 155 127.2 153.37 129.25 153.37C131.53 153.37 133.67 155.12 134.4 158.12Z" fill="#F5968C"/>
<path d="M107.11 45.1199C114.548 46.6576 121.423 50.2006 126.991 55.3652C132.559 60.5297 136.608 67.1191 138.7 74.4199" stroke="white" stroke-width="2" stroke-linecap="round" stroke-linejoin="round"/>
</svg>
