<svg width="24" height="24" viewBox="0 0 24 24" fill="none" xmlns="http://www.w3.org/2000/svg">
<path d="M20 16.8C20 17.2244 19.8315 17.6313 19.5314 17.9314C19.2314 18.2314 18.8244 18.4 18.4 18.4H5.60005C5.1757 18.4 4.76874 18.2314 4.46868 17.9314C4.16862 17.6313 4.00005 17.2244 4.00005 16.8L4 7.1C4 6.67565 4.16857 6.26869 4.46863 5.96863C4.76869 5.66857 5.17565 5.5 5.6 5.5H9.6L11.2 7.40001H18.4C18.8244 7.40001 19.2314 7.56858 19.5314 7.86864C19.8315 8.16869 20 8.57566 20 9.00001V16.8Z" stroke="#767676" stroke-width="1.2" stroke-linecap="round" stroke-linejoin="round"/>
</svg>
