<svg width="24" height="24" viewBox="0 0 24 24" fill="none" xmlns="http://www.w3.org/2000/svg">
<path d="M20 16.8C20 17.2244 19.8314 17.6313 19.5314 17.9314C19.2313 18.2314 18.8243 18.4 18.4 18.4H5.59999C5.17564 18.4 4.76867 18.2314 4.46862 17.9314C4.16856 17.6313 3.99999 17.2244 3.99999 16.8L3.99994 7.1C3.99994 6.67565 4.16851 6.26869 4.46857 5.96863C4.76863 5.66857 5.17559 5.5 5.59994 5.5H9.59994L11.2 7.40001H18.4C18.8243 7.40001 19.2313 7.56858 19.5314 7.86864C19.8314 8.16869 20 8.57566 20 9.00001V16.8Z" stroke="black" stroke-width="1.2" stroke-linecap="round" stroke-linejoin="round"/>
</svg>
