<svg width="24" height="24" viewBox="0 0 24 24" fill="none" xmlns="http://www.w3.org/2000/svg">
<path d="M12 20C16.4183 20 20 16.4183 20 12C20 7.58172 16.4183 4 12 4C7.58172 4 4 7.58172 4 12C4 16.4183 7.58172 20 12 20Z" stroke="black" stroke-width="1.2" stroke-linecap="round" stroke-linejoin="round"/>
<path d="M9.672 9.59992C9.86008 9.06525 10.2313 8.6144 10.72 8.32722C11.2086 8.04005 11.7831 7.93507 12.3417 8.03089C12.9004 8.12671 13.4071 8.41714 13.7721 8.85074C14.1371 9.28434 14.3368 9.83314 14.336 10.3999C14.336 11.9999 11.936 12.7999 11.936 12.7999" stroke="black" stroke-width="1.2" stroke-linecap="round" stroke-linejoin="round"/>
<path d="M12 16H12.008" stroke="black" stroke-width="1.2" stroke-linecap="round" stroke-linejoin="round"/>
</svg>
