<svg width="299" height="263" viewBox="0 0 299 263" fill="none" xmlns="http://www.w3.org/2000/svg">
<path d="M72.1961 18.7272C73.7091 18.7272 74.9357 17.5006 74.9357 15.9876C74.9357 14.4746 73.7091 13.248 72.1961 13.248C70.6831 13.248 69.4565 14.4746 69.4565 15.9876C69.4565 17.5006 70.6831 18.7272 72.1961 18.7272Z" fill="#9A97FC"/>
<path d="M125.749 179.863H125.164" stroke="black" stroke-width="4.18" stroke-miterlimit="10" stroke-linecap="round" stroke-linejoin="round"/>
<path d="M148.798 258.119C148.643 258.649 148.526 259.203 148.443 259.757H149.149C149.07 259.203 148.953 258.649 148.798 258.119Z" fill="#CCA4FC"/>
<path d="M50.376 252.253C55.4663 245.335 64.2563 241.319 72.8261 241.99C81.3822 242.661 89.4288 247.999 93.3764 255.626C98.4908 252.267 105.773 252.68 110.499 256.545C110.65 256.675 110.805 256.803 110.946 256.933C111.287 256.52 111.631 256.121 111.996 255.732C115.968 253.481 119.409 250.924 122.39 248.061C143.284 227.992 141.55 192.97 144.062 144.869H154.938C157.791 186.761 155.093 236.524 187.827 255.994C192.542 252.659 199.363 252.435 204.219 255.629C208.167 248.006 216.217 242.668 224.783 241.993C233.34 241.322 242.13 245.338 247.22 252.256C248.032 253.364 256.678 250.071 263.571 252.112C269.402 253.836 272.055 258.651 272.244 262.093C289.105 237.891 299 208.475 299 176.742C299 94.1761 232.066 27.2422 149.5 27.2422C66.9339 27.2422 0 94.1761 0 176.742C0 208.588 9.96377 238.104 26.9347 262.354C27.2514 258.83 31.0062 253.282 32.9508 251.998C37.8208 248.777 49.5638 253.361 50.376 252.253Z" fill="#CCA4FC"/>
<path d="M185.958 140.307L158.091 117.809V61.7988C159.929 67.0336 161.853 72.2407 163.828 77.4239C166.458 84.3245 169.163 91.4523 172.68 98.0535C175.953 104.193 180.111 111.283 185.958 115.303V140.307Z" fill="#DE5948" stroke="black" stroke-width="2" stroke-miterlimit="10" stroke-linecap="round" stroke-linejoin="round"/>
<path d="M184.444 131.321C184.492 128.089 184.444 107.449 189.895 107.449C195.347 107.449 195.347 125.47 195.347 131.321C195.347 137.168 194.242 144.767 194.242 144.767H185.549C185.549 144.767 184.375 135.898 184.444 131.321Z" fill="#F3D481" stroke="black" stroke-width="2" stroke-miterlimit="10" stroke-linecap="round" stroke-linejoin="round"/>
<path d="M114.664 140.307L142.531 117.809V61.7988C140.693 67.0336 138.769 72.2407 136.794 77.4239C134.164 84.3245 131.459 91.4523 127.942 98.0535C124.669 104.193 120.511 111.283 114.664 115.303V140.307Z" fill="#DE5948" stroke="black" stroke-width="2" stroke-miterlimit="10" stroke-linecap="round" stroke-linejoin="round"/>
<path d="M149.503 1C140.686 22.5587 135.62 47.6865 135.62 74.5214C135.62 101.356 140.686 126.481 149.503 148.043" fill="white"/>
<path d="M149.503 1C140.686 22.5587 135.62 47.6865 135.62 74.5214C135.62 101.356 140.686 126.481 149.503 148.043" stroke="black" stroke-width="2" stroke-miterlimit="10" stroke-linecap="round" stroke-linejoin="round"/>
<path d="M149.503 148.043C158.321 126.484 163.387 101.356 163.387 74.5214C163.387 47.6865 158.321 22.5622 149.503 1" fill="#C2C0FD"/>
<path d="M149.503 148.043C158.321 126.484 163.387 101.356 163.387 74.5214C163.387 47.6865 158.321 22.5622 149.503 1" stroke="black" stroke-width="2" stroke-miterlimit="10"/>
<path d="M141.859 27.0082C143.869 18.7068 146.43 10.7736 149.476 3.30859C152.549 10.8424 155.127 18.8511 157.147 27.235L141.859 27.0082Z" fill="black"/>
<path d="M149.5 19.6367V148.043" stroke="black" stroke-width="2" stroke-miterlimit="10" stroke-linecap="round" stroke-linejoin="round"/>
<path d="M149.5 54.6618C153.212 54.6618 156.222 51.6524 156.222 47.9401C156.222 44.2279 153.212 41.2188 149.5 41.2188C145.788 41.2188 142.778 44.2279 142.778 47.9401C142.778 51.6524 145.788 54.6618 149.5 54.6618Z" fill="#F3D481" stroke="black" stroke-width="2" stroke-miterlimit="10" stroke-linecap="round" stroke-linejoin="round"/>
<path d="M149.5 79.8786C153.212 79.8786 156.222 76.8695 156.222 73.1573C156.222 69.445 153.212 66.4355 149.5 66.4355C145.788 66.4355 142.778 69.445 142.778 73.1573C142.778 76.8695 145.788 79.8786 149.5 79.8786Z" fill="#F3D481" stroke="black" stroke-width="2" stroke-miterlimit="10" stroke-linecap="round" stroke-linejoin="round"/>
<path d="M161.543 152.16H137.588L144.165 133.045H154.955L161.543 152.16Z" fill="#F3D481" stroke="black" stroke-width="2" stroke-miterlimit="10" stroke-linecap="round" stroke-linejoin="round"/>
<path d="M211.544 195.443C208.546 195.443 206.113 197.88 206.113 200.874C206.113 197.876 203.69 195.443 200.695 195.443C203.693 195.443 206.113 193.006 206.113 190.012C206.113 193.006 208.546 195.443 211.544 195.443Z" fill="white" stroke="white" stroke-width="4.18" stroke-miterlimit="10" stroke-linecap="round" stroke-linejoin="round"/>
<path d="M194.073 241.171C191.027 241.171 188.549 243.645 188.549 246.695C188.549 243.649 186.088 241.171 183.039 241.171C186.085 241.171 188.549 238.692 188.549 235.646C188.549 238.692 191.027 241.171 194.073 241.171Z" fill="white" stroke="white" stroke-width="4.18" stroke-miterlimit="10" stroke-linecap="round" stroke-linejoin="round"/>
<path d="M98.666 176.964C94.3811 176.964 90.8982 181.335 90.8982 186.708C90.8982 181.332 87.4358 176.964 83.1509 176.964C87.4358 176.964 90.8982 172.593 90.8982 167.221C90.9016 172.593 94.3811 176.964 98.666 176.964Z" fill="white" stroke="white" stroke-width="4.18" stroke-miterlimit="10" stroke-linecap="round" stroke-linejoin="round"/>
<path d="M100.146 37.3318C95.5585 37.3318 91.8277 42.0123 91.8277 47.7668C91.8277 42.0088 88.121 37.3318 83.5332 37.3318C88.121 37.3318 91.8277 32.651 91.8277 26.8965C91.8311 32.651 95.5585 37.3318 100.146 37.3318Z" fill="#F1CB3D" stroke="#F1CB3D" stroke-width="4.18" stroke-miterlimit="10" stroke-linecap="round" stroke-linejoin="round"/>
<path d="M60.5873 107.45C57.5414 107.45 55.0635 109.924 55.0635 112.973C55.0635 109.928 52.6026 107.45 49.5532 107.45C52.5991 107.45 55.0635 104.975 55.0635 101.926C55.0669 104.975 57.5414 107.45 60.5873 107.45Z" fill="white" stroke="white" stroke-width="4.18" stroke-miterlimit="10" stroke-linecap="round" stroke-linejoin="round"/>
<path d="M267.454 171.44C264.408 171.44 261.93 173.914 261.93 176.964C261.93 173.918 259.469 171.44 256.419 171.44C259.465 171.44 261.93 168.962 261.93 165.916C261.93 168.965 264.404 171.44 267.454 171.44Z" fill="black" stroke="black" stroke-width="4.18" stroke-miterlimit="10" stroke-linecap="round" stroke-linejoin="round"/>
<path d="M239.132 95.5356C236.086 95.5356 233.608 98.0101 233.608 101.059C233.608 98.0135 231.147 95.5356 228.098 95.5356C231.144 95.5356 233.608 93.0611 233.608 90.0117C233.608 93.0576 236.086 95.5356 239.132 95.5356Z" fill="#EFC33D" stroke="#F1CB3D" stroke-width="4.18" stroke-miterlimit="10" stroke-linecap="round" stroke-linejoin="round"/>
<path d="M50.1557 220.677C47.1098 220.677 44.6318 223.151 44.6318 226.2C44.6318 223.154 42.1709 220.677 39.1216 220.677C42.1675 220.677 44.6318 218.198 44.6318 215.152C44.6318 218.202 47.1098 220.677 50.1557 220.677Z" fill="#EFC33D"/>
<path d="M159.178 145.298L161.543 152.158H137.588L139.984 145.195L159.178 145.298Z" fill="#DE5948" stroke="black" stroke-width="2" stroke-miterlimit="10" stroke-linecap="round" stroke-linejoin="round"/>
<path d="M116.178 131.321C116.13 128.089 116.178 107.449 110.726 107.449C105.275 107.449 105.274 125.47 105.274 131.321C105.274 137.168 106.379 144.767 106.379 144.767H115.073C115.073 144.767 116.247 135.898 116.178 131.321Z" fill="#F3D481" stroke="black" stroke-width="2" stroke-miterlimit="10" stroke-linecap="round" stroke-linejoin="round"/>
<path d="M108.857 81.692C110.37 81.692 111.597 80.4655 111.597 78.9525C111.597 77.4394 110.37 76.2129 108.857 76.2129C107.344 76.2129 106.118 77.4394 106.118 78.9525C106.118 80.4655 107.344 81.692 108.857 81.692Z" fill="#C2C0FD"/>
<path d="M44.639 166.956C46.152 166.956 47.3786 165.729 47.3786 164.216C47.3786 162.703 46.152 161.477 44.639 161.477C43.126 161.477 41.8994 162.703 41.8994 164.216C41.8994 165.729 43.126 166.956 44.639 166.956Z" fill="#C2C0FD"/>
<path d="M241.871 150.118C243.384 150.118 244.611 148.891 244.611 147.378C244.611 145.865 243.384 144.639 241.871 144.639C240.358 144.639 239.132 145.865 239.132 147.378C239.132 148.891 240.358 150.118 241.871 150.118Z" fill="#C2C0FD"/>
<path d="M241.871 221.215C243.384 221.215 244.611 219.989 244.611 218.476C244.611 216.963 243.384 215.736 241.871 215.736C240.358 215.736 239.132 216.963 239.132 218.476C239.132 219.989 240.358 221.215 241.871 221.215Z" fill="#C2C0FD"/>
</svg>
