<svg width="61" height="61" viewBox="0 0 61 61" fill="none" xmlns="http://www.w3.org/2000/svg">
<circle cx="30.5" cy="30.5" r="29" fill="#F5DCFF" stroke="black" stroke-width="3"/>
<path d="M15.9199 21.4399V49.3999H23.1199V22.7999L15.9199 21.4399Z" fill="#F06450"/>
<path d="M23.7203 50.0002H15.3203V20.7202L23.7203 22.3202V50.0002ZM16.5203 48.8002H22.5203V23.2802L16.5203 22.1602V48.8002Z" fill="black"/>
<path d="M34.6805 44.9199C33.7605 45.8799 32.4805 46.4799 31.0405 46.4799C29.6005 46.4799 28.3205 45.8799 27.4005 44.9199C20.9205 45.7199 15.0805 48.5599 10.5605 52.7999C15.9205 57.8399 23.1205 60.9199 31.0805 60.9199C39.0005 60.9199 46.2405 57.8399 51.6005 52.7999C47.0005 48.5599 41.1605 45.6799 34.6805 44.9199Z" fill="black"/>
<path d="M17.5597 14.4802C20.8071 14.4802 23.4397 11.8476 23.4397 8.60021C23.4397 5.35278 20.8071 2.72021 17.5597 2.72021C14.3123 2.72021 11.6797 5.35278 11.6797 8.60021C11.6797 11.8476 14.3123 14.4802 17.5597 14.4802Z" fill="#F06450"/>
<path d="M17.5601 15.1201C14.0001 15.1201 11.0801 12.2001 11.0801 8.64012C11.0801 5.08012 13.9601 2.12012 17.5601 2.12012C21.1601 2.12012 24.0401 5.04012 24.0401 8.60012C24.0401 12.1601 21.1201 15.1201 17.5601 15.1201ZM17.5601 3.32012C14.6401 3.32012 12.2801 5.68012 12.2801 8.60012C12.2801 11.5201 14.6401 13.8801 17.5601 13.8801C20.4801 13.8801 22.8401 11.5201 22.8401 8.60012C22.8401 5.68012 20.4801 3.32012 17.5601 3.32012Z" fill="black"/>
<path d="M36.6801 38.6804V44.8004V45.2804C36.6801 49.0404 33.6401 52.0804 29.8801 52.0804C26.1201 52.0804 23.0801 49.0404 23.0801 45.2804V44.2404V35.4004" fill="#F5DCFF"/>
<path d="M29.9195 52.6403C25.8395 52.6403 22.5195 49.3203 22.5195 45.2403V35.4003C22.5195 35.0803 22.7995 34.8003 23.1195 34.8003C23.4395 34.8003 23.7195 35.0803 23.7195 35.4003V45.2403C23.7195 48.6403 26.4795 51.4403 29.9195 51.4403C33.3595 51.4403 36.1195 48.6803 36.1195 45.2403V38.6803C36.1195 38.3603 36.3995 38.0803 36.7195 38.0803C37.0395 38.0803 37.3195 38.3603 37.3195 38.6803V45.2403C37.2795 49.3203 33.9595 52.6403 29.9195 52.6403Z" fill="black"/>
<path d="M31.5195 37.7201H30.4795C23.8395 37.7201 18.4395 32.3201 18.4395 25.6801V19.6401C18.4395 13.0001 23.8395 7.6001 30.4795 7.6001H31.5195C38.1595 7.6001 43.5595 13.0001 43.5595 19.6401V25.6801C43.5595 32.3201 38.1595 37.7201 31.5195 37.7201Z" fill="#F5DCFF"/>
<path d="M31.5198 38.32H30.4798C23.5198 38.32 17.8398 32.64 17.8398 25.68V19.64C17.8398 12.68 23.5198 7 30.4798 7H31.5198C38.4798 7 44.1598 12.68 44.1598 19.64V25.68C44.1598 32.64 38.4798 38.32 31.5198 38.32ZM30.4798 8.24C24.1998 8.24 19.0398 13.36 19.0398 19.68V25.72C19.0398 32 24.1598 37.16 30.4798 37.16H31.5198C37.7998 37.16 42.9598 32.04 42.9598 25.72V19.64C42.9598 13.36 37.8398 8.2 31.5198 8.2H30.4798V8.24Z" fill="black"/>
<path d="M26.9607 28.5601C24.0807 28.5601 21.7207 26.2001 21.7207 23.3201C21.7207 20.4401 24.0807 18.0801 26.9607 18.0801C29.8407 18.0801 32.2007 20.4401 32.2007 23.3201C32.2007 26.2001 29.8407 28.5601 26.9607 28.5601ZM26.9607 19.2801C24.7207 19.2801 22.9207 21.0801 22.9207 23.3201C22.9207 25.5601 24.7207 27.3601 26.9607 27.3601C29.2007 27.3601 31.0007 25.5601 31.0007 23.3201C31.0007 21.0801 29.1607 19.2801 26.9607 19.2801Z" fill="black"/>
<path d="M26.9613 25.4802C25.4813 25.4802 24.2812 24.2802 24.2812 22.8002C24.2812 22.4802 24.5613 22.2002 24.8813 22.2002C25.2013 22.2002 25.4813 22.4802 25.4813 22.8002C25.4813 23.6002 26.1213 24.2802 26.9613 24.2802C27.8013 24.2802 28.4412 23.6402 28.4412 22.8002C28.4412 22.4802 28.7212 22.2002 29.0412 22.2002C29.3612 22.2002 29.6412 22.4802 29.6412 22.8002C29.6012 24.2802 28.4013 25.4802 26.9613 25.4802Z" fill="black"/>
<path d="M41.1605 25.4802C39.6805 25.4802 38.4805 24.2802 38.4805 22.8002C38.4805 22.4802 38.7605 22.2002 39.0805 22.2002C39.4005 22.2002 39.6805 22.4802 39.6805 22.8002C39.6805 23.6002 40.3205 24.2802 41.1605 24.2802C41.9605 24.2802 42.6405 23.6402 42.6405 22.8002C42.6405 22.4802 42.9205 22.2002 43.2405 22.2002C43.5605 22.2002 43.8405 22.4802 43.8405 22.8002C43.8005 24.2802 42.6405 25.4802 41.1605 25.4802Z" fill="black"/>
<path d="M33.6409 31.8401C32.1609 31.8401 30.9609 30.6401 30.9609 29.1601C30.9609 28.8401 31.2409 28.5601 31.5609 28.5601C31.8809 28.5601 32.1609 28.8401 32.1609 29.1601C32.1609 29.9601 32.8009 30.6401 33.6409 30.6401C34.4409 30.6401 35.1209 30.0001 35.1209 29.1601C35.1209 28.8401 35.4009 28.5601 35.7209 28.5601C36.0409 28.5601 36.3209 28.8401 36.3209 29.1601C36.3209 30.6401 35.1209 31.8401 33.6409 31.8401Z" fill="black"/>
<path d="M41.1599 28.5601C38.2799 28.5601 35.9199 26.2001 35.9199 23.3201C35.9199 20.4401 38.2799 18.0801 41.1599 18.0801C44.0399 18.0801 46.3999 20.4401 46.3999 23.3201C46.3999 26.2001 44.0399 28.5601 41.1599 28.5601ZM41.1599 19.2801C38.9199 19.2801 37.1199 21.0801 37.1199 23.3201C37.1199 25.5601 38.9199 27.3601 41.1599 27.3601C43.3999 27.3601 45.1999 25.5601 45.1999 23.3201C45.1999 21.0801 43.3599 19.2801 41.1599 19.2801Z" fill="black"/>
<path d="M31.4006 25.1602C31.3206 25.1602 31.2406 25.1602 31.1606 25.1202C30.8406 25.0002 30.7206 24.6402 30.8406 24.3202C31.3606 23.0402 32.6406 22.2002 34.0406 22.2002C35.4406 22.2002 36.6806 23.0402 37.2406 24.3202C37.3606 24.6402 37.2406 24.9602 36.9206 25.1202C36.6006 25.2402 36.2806 25.1202 36.1206 24.8002C35.7606 23.9602 34.9606 23.4002 34.0406 23.4002C33.1206 23.4002 32.3206 23.9602 31.9606 24.8002C31.8806 25.0402 31.6406 25.1602 31.4006 25.1602Z" fill="black"/>
<path d="M39.9595 34.2397V46.9997H36.5195L36.6795 36.9597L39.9595 34.2397Z" fill="#F06450"/>
<path d="M40.5599 47.6H35.9199L36.1199 36.68L40.5999 32.96V47.6H40.5599ZM37.1199 46.4H39.3599V35.52L37.2799 37.24L37.1199 46.4Z" fill="black"/>
<path d="M19.8789 22.8001C19.8789 22.8001 34.0389 17.1601 39.0389 10.2801C36.9989 8.6001 34.3589 7.6001 31.4789 7.6001H30.4389C30.1989 7.6001 29.9589 7.6001 29.7189 7.6401H29.6389C22.0389 7.6401 15.8789 13.8001 15.8789 21.4001V23.2001L18.4389 22.1601" fill="#F06450"/>
<path d="M15.3203 24.08V21.4C15.3203 13.48 21.7603 7.04 29.6803 7.04H29.7203C29.9603 7.04 30.2003 7 30.4403 7H31.4803C34.3603 7 37.2003 8 39.4403 9.8L39.8803 10.16L39.5603 10.6C34.4803 17.6 20.6803 23.12 20.1203 23.36L19.6803 22.24C19.8003 22.2 33.0803 16.84 38.2003 10.4C36.2803 9 33.9203 8.2 31.4803 8.2H30.4403C30.2003 8.2 30.0003 8.2 29.7603 8.2H29.6803C22.4003 8.2 16.5203 14.12 16.5203 21.36V22.28L18.2403 21.56L18.6803 22.68L15.3203 24.08Z" fill="black"/>
<path d="M43.4397 17.9198C42.9997 14.8398 41.3997 12.1198 39.0797 10.2798C38.8797 10.5198 37.9197 11.6798 37.6797 11.8798C37.6797 11.8798 41.7197 17.6798 43.4397 17.9198Z" fill="#F06450"/>
<path d="M43.3599 18.5199C41.4799 18.2799 37.8799 13.2399 37.1999 12.1999L36.9199 11.7999L37.2799 11.4399C37.3999 11.3199 37.9199 10.7199 38.2399 10.3599C38.4399 10.1599 38.5999 9.95994 38.6399 9.87994L38.9999 9.43994L39.4399 9.79994C41.9599 11.7999 43.5599 14.6799 44.0399 17.8399L43.4399 17.9199L43.3599 18.5199ZM38.4399 11.9199C39.7999 13.8399 41.4799 15.8399 42.5999 16.7599C42.0399 14.5599 40.8399 12.5999 39.1599 11.0799C38.8399 11.4399 38.6399 11.7199 38.4399 11.9199Z" fill="black"/>
<path d="M18.6905 21.6078L18.1895 22.6982L19.607 23.3495L20.108 22.2591L18.6905 21.6078Z" fill="black"/>
<path d="M20.6406 23.88C20.0806 22.48 18.5206 21.76 17.0806 22.32C15.6806 22.88 14.9606 24.44 15.5206 25.88C16.0806 27.32 17.6406 28 19.0806 27.44" fill="#F5DCFF"/>
<path d="M18.0818 28.2001C17.6418 28.2001 17.1618 28.1201 16.7218 27.9201C15.9218 27.5601 15.2818 26.9201 14.9618 26.0801C14.6418 25.2401 14.6418 24.3601 15.0018 23.5201C15.3618 22.7201 16.0018 22.0801 16.8418 21.7601C17.6818 21.4401 18.5618 21.4401 19.4018 21.8001C20.2018 22.1601 20.8418 22.8001 21.1618 23.6401C21.2818 23.9601 21.1218 24.2801 20.8018 24.4001C20.4818 24.5201 20.1618 24.3601 20.0418 24.0401C19.6018 22.9601 18.3618 22.4001 17.2818 22.8401C16.7618 23.0401 16.3218 23.4401 16.0818 23.9601C15.8418 24.4801 15.8418 25.0801 16.0418 25.6001C16.2418 26.1201 16.6418 26.5601 17.1618 26.8001C17.6818 27.0401 18.2818 27.0401 18.8018 26.8401C19.1218 26.7201 19.4418 26.8801 19.5618 27.2001C19.6818 27.5201 19.5218 27.8401 19.2018 27.9601C18.8818 28.1201 18.4818 28.2001 18.0818 28.2001Z" fill="black"/>
</svg>
