<svg width="24" height="24" viewBox="0 0 24 24" fill="none" xmlns="http://www.w3.org/2000/svg">
<rect x="0.5" y="0.5" width="23" height="23" rx="3.5" fill="#171717" stroke="#E9E9E9"/>
<path d="M6.75952 14.9562L10.6188 12.8213C11.0997 12.5515 11.2756 11.9415 11.0176 11.4606C10.9237 11.2964 10.8064 11.1673 10.6539 11.0852L6.86509 8.82129" stroke="#FAFAFA" stroke-width="0.8" stroke-miterlimit="10"/>
<path d="M6.06744 9.27869C6.58572 9.27869 7.00586 8.85854 7.00586 8.34027C7.00586 7.822 6.58572 7.40186 6.06744 7.40186C5.54917 7.40186 5.12903 7.822 5.12903 8.34027C5.12903 8.85854 5.54917 9.27869 6.06744 9.27869Z" stroke="#FAFAFA" stroke-width="0.8" stroke-miterlimit="10"/>
<path d="M5.93842 16.3285C6.45669 16.3285 6.87683 15.9083 6.87683 15.3901C6.87683 14.8718 6.45669 14.4517 5.93842 14.4517C5.42014 14.4517 5 14.8718 5 15.3901C5 15.9083 5.42014 16.3285 5.93842 16.3285Z" stroke="#FAFAFA" stroke-width="0.8" stroke-miterlimit="10"/>
<path d="M17.434 15.1203L13.6451 12.8681C13.1642 12.5866 12.5542 12.7391 12.2727 13.22C12.1789 13.3725 12.1319 13.5484 12.1319 13.7244L12.085 18.1232" stroke="#FAFAFA" stroke-width="0.8" stroke-miterlimit="10"/>
<path d="M12.0733 20.0001C12.5916 20.0001 13.0117 19.58 13.0117 19.0617C13.0117 18.5434 12.5916 18.1233 12.0733 18.1233C11.555 18.1233 11.1349 18.5434 11.1349 19.0617C11.1349 19.58 11.555 20.0001 12.0733 20.0001Z" stroke="#FAFAFA" stroke-width="0.8" stroke-miterlimit="10"/>
<path d="M18.2199 16.5514C18.7382 16.5514 19.1583 16.1312 19.1583 15.613C19.1583 15.0947 18.7382 14.6746 18.2199 14.6746C17.7016 14.6746 17.2815 15.0947 17.2815 15.613C17.2815 16.1312 17.7016 16.5514 18.2199 16.5514Z" stroke="#FAFAFA" stroke-width="0.8" stroke-miterlimit="10"/>
<path d="M12.1437 5.86499L12.132 10.2755C12.132 10.8269 12.5777 11.2843 13.1408 11.2843C13.3284 11.2843 13.4927 11.2374 13.6452 11.1436L17.4575 8.9383" stroke="#FAFAFA" stroke-width="0.8" stroke-miterlimit="10"/>
<path d="M18.2668 9.40759C18.7851 9.40759 19.2053 8.98745 19.2053 8.46918C19.2053 7.9509 18.7851 7.53076 18.2668 7.53076C17.7486 7.53076 17.3284 7.9509 17.3284 8.46918C17.3284 8.98745 17.7486 9.40759 18.2668 9.40759Z" stroke="#FAFAFA" stroke-width="0.8" stroke-miterlimit="10"/>
<path d="M12.1672 5.87683C12.6854 5.87683 13.1056 5.45669 13.1056 4.93842C13.1056 4.42014 12.6854 4 12.1672 4C11.6489 4 11.2288 4.42014 11.2288 4.93842C11.2288 5.45669 11.6489 5.87683 12.1672 5.87683Z" stroke="#FAFAFA" stroke-width="0.8" stroke-miterlimit="10"/>
</svg>
