<svg width="496" height="75" viewBox="0 0 496 75" fill="none" xmlns="http://www.w3.org/2000/svg">
<path d="M395.868 32.9991C393.873 17.391 382.319 5.35009 367.839 2L323.029 37.5687C323.029 39.1208 323.116 40.6922 323.318 42.2781C325.878 62.316 344.2 76.478 364.233 73.9185C384.266 71.3541 398.433 53.037 395.868 32.9991Z" fill="#F2CFCC" stroke="black" stroke-width="1.3" stroke-miterlimit="10"/>
<path d="M367.357 58.1089L342.233 46.9837L342.238 46.9741L342.229 46.9692L353.344 21.8412C355.662 16.6064 361.774 14.2397 367.009 16.5582C372.23 18.8719 374.592 24.9889 372.283 30.2141L369.535 36.4274L375.739 39.1749C380.969 41.4934 383.331 47.6104 381.022 52.8356C378.703 58.0608 372.591 60.4275 367.357 58.1089Z" fill="#DC2C14" stroke="black" stroke-width="1.3" stroke-miterlimit="10"/>
<path d="M374.316 55.1016C373.308 55.4872 372.262 55.6125 371.26 55.5017" stroke="white" stroke-width="1.3" stroke-miterlimit="10" stroke-linecap="round" stroke-linejoin="round"/>
<path d="M374.129 42.7422C375.888 43.3592 377.378 44.7185 378.101 46.5936C378.993 48.9218 378.481 51.438 376.973 53.2166" stroke="white" stroke-width="1.3" stroke-miterlimit="10" stroke-linecap="round" stroke-linejoin="round"/>
<path d="M335.909 38.2098C354.361 35.8527 367.824 20.1242 367.839 2L323.029 37.5687C327.136 38.5183 331.484 38.7738 335.909 38.2098Z" fill="#FBF5DF" stroke="black" stroke-width="1.3" stroke-miterlimit="10" stroke-linejoin="bevel"/>
<path d="M36.7138 73.4267C56.4378 73.4267 72.4271 57.4373 72.4271 37.7133C72.4271 17.9894 56.4378 2 36.7138 2C16.9898 2 1 17.9894 1 37.7133C1 57.4373 16.9898 73.4267 36.7138 73.4267Z" fill="#91ADFC" stroke="black" stroke-width="1.3" stroke-miterlimit="10"/>
<path d="M18.1287 50.0115C16.7404 50.4164 15.3283 50.3441 14.0606 49.891C14.3691 50.9515 14.6773 52.0071 14.9762 53.0435C17.1501 53.9015 19.6183 54.0749 22.0381 53.3711C26.6366 52.0359 29.6782 47.9485 29.9096 43.4222L45.503 38.8912C48.1252 42.5884 52.888 44.4056 57.4817 43.0704C59.9014 42.3666 61.8922 40.9011 63.266 39.0068C62.9816 38.0186 62.6729 36.963 62.35 35.8543C61.5257 36.9148 60.3687 37.7342 58.9805 38.1343C55.4665 39.1562 51.7938 37.1366 50.7719 33.6226C49.75 30.1086 51.7694 26.4354 55.2834 25.4135C56.6716 25.0086 58.0841 25.0809 59.3519 25.534C59.0434 24.4736 58.7347 23.4181 58.4358 22.3818C56.2619 21.5238 53.7942 21.3502 51.3744 22.0539C46.7759 23.3891 43.7342 27.4768 43.5029 32.003L27.909 36.534C25.2868 32.8369 20.5245 31.0197 15.9308 32.3549C13.511 33.0587 11.5203 34.5239 10.1465 36.4182C10.4309 37.4064 10.7396 38.4621 11.0625 39.5707C11.8868 38.5103 13.0433 37.6908 14.4315 37.2907C17.9455 36.2688 21.6187 38.2885 22.6406 41.8024C23.6625 45.3116 21.6426 48.9896 18.1287 50.0115Z" fill="#ACBECE" stroke="black" stroke-width="1.3" stroke-miterlimit="10" stroke-linecap="round" stroke-linejoin="round"/>
<path d="M43.111 36.4414C42.7929 36.533 31.041 39.9505 31.041 39.9505L43.111 36.4414Z" fill="white"/>
<path d="M43.111 36.4414C42.7929 36.533 31.041 39.9505 31.041 39.9505" stroke="white" stroke-width="1.3" stroke-miterlimit="10" stroke-linecap="round" stroke-linejoin="round"/>
<path d="M50.4395 39.4922C51.7024 40.543 52.8303 41.0346 53.9728 41.2612C54.6283 41.3913 55.3081 41.3623 55.9541 41.2369" stroke="white" stroke-width="1.3" stroke-miterlimit="10" stroke-linecap="round" stroke-linejoin="round"/>
<path d="M46.8325 30.9961C46.4179 34.2209 47.565 36.1489 48.7893 37.7252" stroke="white" stroke-width="1.3" stroke-miterlimit="10" stroke-linecap="round" stroke-linejoin="round"/>
<path d="M26.2166 41.211C26.1154 40.5361 25.9371 39.9336 25.7106 39.3841C25.6141 39.1575 25.5131 38.9408 25.4022 38.7335C25.2914 38.5214 25.1707 38.314 25.0454 38.1164C24.7996 37.7211 24.5297 37.3549 24.2598 37.0078" stroke="white" stroke-width="1.3" stroke-miterlimit="10" stroke-linecap="round" stroke-linejoin="round"/>
<path d="M26.0879 46.048C26.2373 45.6913 26.3623 45.3443 26.4635 45.0117" stroke="white" stroke-width="1.3" stroke-miterlimit="10" stroke-linecap="round" stroke-linejoin="round"/>
<path d="M251.458 74.143C271.656 74.143 288.03 57.7693 288.03 37.5715C288.03 17.3736 271.656 1 251.458 1C231.26 1 214.887 17.3736 214.887 37.5715C214.887 57.7693 231.26 74.143 251.458 74.143Z" fill="#F5DB83" stroke="black" stroke-width="1.3" stroke-miterlimit="10"/>
<path d="M249.912 24.354L245.857 22.4883L243.992 26.5434L248.047 28.4092L249.912 24.354Z" fill="black"/>
<path d="M248.047 28.4087L243.992 26.543L242.126 30.5981L246.181 32.4639L248.047 28.4087Z" fill="black"/>
<path d="M260.536 43.9829L256.48 42.1172L254.615 46.1723L258.67 48.0381L260.536 43.9829Z" fill="black"/>
<path d="M258.67 48.0376L254.615 46.1719L252.749 50.227L256.805 52.0928L258.67 48.0376Z" fill="black"/>
<path d="M254.376 26.3676L256.242 22.3125L252.187 20.4467L250.321 24.5018L254.376 26.3676Z" fill="black"/>
<path d="M258.431 28.2347L260.297 24.1797L256.242 22.3139L254.376 26.369L258.431 28.2347Z" fill="black"/>
<path d="M256.566 32.2894L258.432 28.2344L254.376 26.3686L252.511 30.4237L256.566 32.2894Z" fill="black"/>
<path d="M254.703 36.3441L256.568 32.2891L252.513 30.4233L250.648 34.4784L254.703 36.3441Z" fill="black"/>
<path d="M252.832 40.3988L254.697 36.3438L250.642 34.478L248.776 38.533L252.832 40.3988Z" fill="black"/>
<path d="M250.968 44.4535L252.834 40.3984L248.779 38.5327L246.913 42.5877L250.968 44.4535Z" fill="black"/>
<path d="M249.103 48.5082L250.969 44.4531L246.914 42.5873L245.048 46.6424L249.103 48.5082Z" fill="black"/>
<path d="M247.238 52.5633L249.104 48.5078L245.048 46.642L243.182 50.6975L247.238 52.5633Z" fill="black"/>
<path d="M245.372 56.618L247.238 52.5625L243.183 50.6967L241.317 54.7522L245.372 56.618Z" fill="black"/>
<path d="M243.503 60.6722L245.369 56.6172L241.314 54.7514L239.448 58.8065L243.503 60.6722Z" fill="black"/>
<path d="M260.296 24.1805L262.162 20.125L258.107 18.2592L256.241 22.3147L260.296 24.1805Z" fill="black"/>
<path d="M262.161 20.1258L264.027 16.0703L259.972 14.2045L258.106 18.26L262.161 20.1258Z" fill="black"/>
<path d="M262.484 30.1019L264.35 26.0469L260.294 24.1811L258.429 28.2362L262.484 30.1019Z" fill="black"/>
<path d="M248.777 38.5355L250.643 34.4805L246.587 32.6147L244.722 36.6697L248.777 38.5355Z" fill="black"/>
<path d="M252.832 40.3988L254.697 36.3438L250.642 34.478L248.776 38.533L252.832 40.3988Z" fill="black"/>
<path d="M256.884 42.266L258.75 38.2109L254.695 36.3452L252.829 40.4002L256.884 42.266Z" fill="black"/>
<path d="M266.539 31.9691L268.404 27.9141L264.349 26.0483L262.483 30.1033L266.539 31.9691Z" fill="black"/>
<path d="M239.164 48.7543L241.029 44.6992L236.974 42.8334L235.108 46.8885L239.164 48.7543Z" fill="black"/>
<path d="M243.222 50.6219L245.088 46.5664L241.033 44.7006L239.167 48.7561L243.222 50.6219Z" fill="black"/>
<path d="M247.275 52.4847L249.141 48.4297L245.085 46.5639L243.22 50.619L247.275 52.4847Z" fill="black"/>
<path d="M251.326 54.348L253.191 50.293L249.136 48.4272L247.271 52.4822L251.326 54.348Z" fill="black"/>
<path d="M443.925 65.3297C455.865 75.5776 472.51 76.7681 485.505 69.5521L494.929 13.1212C493.887 11.9692 492.769 10.8605 491.559 9.81931C476.231 -3.33522 453.141 -1.57092 439.987 13.7527C426.832 29.086 428.597 52.1751 443.925 65.3297Z" fill="#C1DFF4" stroke="black" stroke-width="1.3" stroke-miterlimit="10"/>
<path d="M443.51 23.1425L465.158 18.9634C474.726 17.1172 483.966 23.3788 485.812 32.9422C487.659 42.5104 481.407 51.746 471.843 53.5922L450.196 57.7713L448.455 48.7479L470.103 44.5685V44.5589C474.678 43.6767 477.666 39.2614 476.784 34.6869C475.902 30.1125 471.487 27.124 466.912 28.0061V27.9965L445.264 32.1756L443.51 23.1425Z" fill="#31503E" stroke="black" stroke-width="1.3" stroke-miterlimit="10"/>
<path d="M453.203 48.6759L454.691 56.3906L461.588 55.0597L460.099 47.345L453.203 48.6759Z" fill="#F1CB3D"/>
<path d="M448.263 23.0899L449.752 30.8047L456.648 29.4738L455.159 21.7591L448.263 23.0899Z" fill="#F1CB3D"/>
<path d="M482.675 38.957C481.571 44.1581 477.454 48.4528 471.906 49.5277" stroke="white" stroke-width="1.3" stroke-miterlimit="10" stroke-linecap="round" stroke-linejoin="round"/>
<path d="M484.935 21.2817C472.822 35.4002 473.367 56.0938 485.504 69.552L494.928 13.1211C491.241 15.1697 487.847 17.893 484.935 21.2817Z" fill="#FBF5DF" stroke="black" stroke-width="1.3" stroke-miterlimit="10" stroke-linejoin="bevel"/>
<path d="M143.657 73.4583C163.666 73.4583 179.886 57.238 179.886 37.2291C179.886 17.2203 163.666 1 143.657 1C123.648 1 107.428 17.2203 107.428 37.2291C107.428 57.238 123.648 73.4583 143.657 73.4583Z" fill="#E8C0FC" stroke="black" stroke-width="1.3" stroke-miterlimit="10"/>
<path d="M154.357 35.5876C156.566 35.5876 158.357 33.7964 158.357 31.5868C158.357 29.3772 156.566 27.5859 154.357 27.5859C152.147 27.5859 150.355 29.3772 150.355 31.5868C150.355 33.7964 152.147 35.5876 154.357 35.5876Z" fill="black"/>
<path d="M141.947 56.6031C144.156 56.6031 145.947 54.812 145.947 52.6024C145.947 50.3928 144.156 48.6016 141.947 48.6016C139.737 48.6016 137.945 50.3928 137.945 52.6024C137.945 54.812 139.737 56.6031 141.947 56.6031Z" fill="black"/>
<path d="M124.684 50.8564C120.505 43.4283 120.293 34.0384 124.939 26.1766C129.586 18.3099 137.915 13.9669 146.438 14.044" stroke="black" stroke-width="1.3" stroke-miterlimit="10" stroke-linecap="round" stroke-linejoin="round"/>
</svg>
