<svg width="99" height="183" viewBox="0 0 99 183" fill="none" xmlns="http://www.w3.org/2000/svg">
<path d="M42.2338 103.701C42.2095 103.949 42.1973 104.201 42.1973 104.448C42.1973 108.478 45.476 111.752 49.5014 111.752C53.5269 111.752 56.8056 108.474 56.8056 104.448C56.8056 104.201 56.7935 103.949 56.7692 103.706C56.7692 103.685 56.7692 103.665 56.7692 103.645H56.3512C54.1112 103.957 51.8266 104.12 49.5014 104.12C47.1682 104.12 44.8714 103.953 42.6234 103.641H42.2338C42.2338 103.661 42.2338 103.681 42.2338 103.701Z" fill="#435B74"/>
<path d="M56.7697 103.646C56.7697 103.666 56.7697 103.686 56.7697 103.707C56.794 103.95 56.8061 104.198 56.8061 104.449C56.8061 108.479 53.5274 111.753 49.502 111.753C50.6666 111.753 51.7825 111.944 52.8335 112.293C55.8809 110.995 58.0235 107.967 58.0235 104.449C58.0235 104.161 58.0073 103.869 57.9789 103.585C57.9708 103.52 57.9545 103.459 57.9261 103.402C57.5406 103.467 57.1552 103.532 56.7656 103.589C56.7656 103.609 56.7697 103.63 56.7697 103.646Z" fill="black"/>
<path d="M49.502 111.753C45.4725 111.753 42.1978 108.475 42.1978 104.449C42.1978 104.202 42.21 103.95 42.2344 103.703C42.2344 103.682 42.2344 103.662 42.2344 103.642C42.2344 103.625 42.2344 103.605 42.2344 103.589C41.8448 103.532 41.4593 103.467 41.0738 103.402C41.0494 103.459 41.0292 103.52 41.0251 103.581C40.9967 103.869 40.9805 104.161 40.9805 104.449C40.9805 107.967 43.123 110.995 46.1746 112.293C47.2174 111.944 48.3374 111.753 49.502 111.753Z" fill="black"/>
<path d="M58.8342 123.373C58.8342 123.353 58.8342 123.332 58.8382 123.312C58.8707 122.996 58.887 122.675 58.887 122.355C58.887 117.181 54.6748 112.969 49.5011 112.969C44.3273 112.969 40.1152 117.181 40.1152 122.355C40.1152 122.671 40.1314 122.988 40.1639 123.304C40.1639 123.324 40.1679 123.345 40.1679 123.365V126.753H58.8382V123.373H58.8342Z" fill="#EDB52B"/>
<path d="M58.8363 127.977H40.166V131.134H58.8363V127.977Z" fill="#EDB52B"/>
<path d="M58.8363 132.352H40.166V135.509H58.8363V132.352Z" fill="#EDB52B"/>
<path d="M52 137H47C43.134 137 40 140.134 40 144V175C40 178.866 43.134 182 47 182H52C55.866 182 59 178.866 59 175V144C59 140.134 55.866 137 52 137Z" fill="#EDB52B"/>
<path d="M52 129H47C43.134 129 40 132.134 40 136V167C40 170.866 43.134 174 47 174H52C55.866 174 59 170.866 59 167V136C59 132.134 55.866 129 52 129Z" fill="#EDB52B"/>
<path d="M39.5073 131.135H40.1646V127.978H39.5073C39.2557 127.978 39.0447 127.828 38.9473 127.613V131.501C39.0406 131.285 39.2557 131.135 39.5073 131.135Z" fill="black"/>
<path d="M39.5073 135.507H40.1646V132.35H39.5073C39.2557 132.35 39.0447 132.199 38.9473 131.984V135.872C39.0406 135.657 39.2557 135.507 39.5073 135.507Z" fill="black"/>
<path d="M49.5016 111.754C48.337 111.754 47.2211 111.945 46.1701 112.294C41.9499 113.694 38.8984 117.674 38.8984 122.357C38.8984 122.702 38.9146 123.051 38.9471 123.4V127.125C39.0404 126.91 39.2555 126.76 39.5071 126.76H40.1644V123.372C40.1644 123.351 40.1644 123.331 40.1604 123.311C40.1279 122.994 40.1117 122.674 40.1117 122.361C40.1117 117.187 44.3238 112.975 49.4976 112.975C54.6714 112.975 58.8835 117.187 58.8835 122.361C58.8835 122.678 58.8672 123.002 58.8347 123.319C58.8347 123.339 58.8307 123.359 58.8307 123.38V126.764H59.4394C59.7762 126.764 60.048 127.036 60.048 127.373C60.048 127.709 59.7762 127.981 59.4394 127.981H58.8307V131.138H59.4394C59.7762 131.138 60.048 131.41 60.048 131.747C60.048 132.084 59.7762 132.356 59.4394 132.356H58.8307V135.513H59.4394C59.7762 135.513 60.048 135.785 60.048 136.121C60.048 136.458 59.7762 136.73 59.4394 136.73H58.8307V170.695H60.048V123.412C60.0805 123.063 60.1008 122.714 60.1008 122.365C60.1008 117.682 57.0494 113.702 52.8292 112.302C51.7822 111.945 50.6662 111.754 49.5016 111.754Z" fill="black"/>
<path d="M49.4984 182.941C50.663 182.941 51.7789 182.751 52.8299 182.402C57.0501 181.002 60.1016 177.021 60.1016 172.338C60.1016 171.993 60.0854 171.644 60.0529 171.295L60.0529 167.57C59.9596 167.785 59.7445 167.935 59.4929 167.935L58.8356 167.935L58.8356 171.324C58.8356 171.344 58.8356 171.364 58.8396 171.385C58.8721 171.701 58.8883 172.022 58.8883 172.334C58.8883 177.508 54.6762 181.72 49.5024 181.72C44.3286 181.72 40.1165 177.508 40.1165 172.334C40.1165 172.018 40.1328 171.693 40.1653 171.376C40.1653 171.356 40.1693 171.336 40.1693 171.316L40.1693 167.931L39.5606 167.931C39.2238 167.931 38.952 167.66 38.952 167.323C38.952 166.986 39.2238 166.714 39.5606 166.714L40.1693 166.714L40.1693 163.557L39.5606 163.557C39.2238 163.557 38.952 163.285 38.952 162.948C38.952 162.611 39.2238 162.34 39.5606 162.34L40.1693 162.34L40.1693 159.183L39.5606 159.183C39.2238 159.183 38.952 158.911 38.952 158.574C38.952 158.237 39.2238 157.965 39.5606 157.965L40.1693 157.965L40.1693 124.001L38.952 124.001L38.952 171.283C38.9195 171.632 38.8992 171.981 38.8992 172.33C38.8992 177.013 41.9506 180.994 46.1708 182.394C47.2178 182.751 48.3338 182.941 49.4984 182.941Z" fill="black"/>
<path d="M39.5073 136.725C39.2557 136.725 39.0447 136.574 38.9473 136.359V170.689H40.1646V136.725H39.5073Z" fill="black"/>
<path d="M39.5071 127.975H40.1644H58.8347H59.4434C59.7802 127.975 60.0521 127.703 60.0521 127.366C60.0521 127.03 59.7802 126.758 59.4434 126.758H58.8347H40.1644H39.5071C39.2555 126.758 39.0445 126.908 38.9471 127.123C38.9146 127.196 38.8984 127.277 38.8984 127.366C38.8984 127.456 38.9146 127.533 38.9471 127.61C39.0404 127.825 39.2555 127.975 39.5071 127.975Z" fill="black"/>
<path d="M39.5071 132.35H40.1644H58.8347H59.4434C59.7802 132.35 60.0521 132.078 60.0521 131.741C60.0521 131.405 59.7802 131.133 59.4434 131.133H58.8347H40.1644H39.5071C39.2555 131.133 39.0445 131.283 38.9471 131.498C38.9146 131.571 38.8984 131.652 38.8984 131.741C38.8984 131.827 38.9187 131.908 38.9471 131.985C39.0404 132.196 39.2555 132.35 39.5071 132.35Z" fill="black"/>
<path d="M39.5071 136.725H40.1644H58.8347H59.4434C59.7802 136.725 60.0521 136.453 60.0521 136.116C60.0521 135.78 59.7802 135.508 59.4434 135.508H58.8347H40.1644H39.5071C39.2555 135.508 39.0445 135.658 38.9471 135.873C38.9146 135.946 38.8984 136.027 38.8984 136.116C38.8984 136.202 38.9187 136.283 38.9471 136.36C39.0404 136.571 39.2555 136.725 39.5071 136.725Z" fill="black"/>
<path d="M97.7861 54.6246C97.7861 28.0009 76.1252 6.33984 49.5015 6.33984C22.8777 6.33984 1.2168 28.0009 1.2168 54.6246C1.2168 81.2483 22.8777 102.909 49.5015 102.909C76.1252 102.909 97.7861 81.2483 97.7861 54.6246ZM10.3551 73.3111L10.3389 73.3192L10.0752 72.7472C7.91638 68.0562 6.63412 63.0975 6.24862 57.9642C6.24862 57.948 6.24862 57.9317 6.24456 57.9155C6.22021 57.5706 6.1958 57.2256 6.17957 56.8767C6.17551 56.7549 6.17154 56.6333 6.16342 56.5156C6.15125 56.2641 6.14311 56.0165 6.13499 55.7649C6.12687 55.3875 6.11874 55.0061 6.11874 54.6246C6.11874 54.0849 6.13095 53.5492 6.15124 53.0135C6.1553 52.8959 6.15937 52.7783 6.16342 52.6607C6.18777 52.1494 6.21617 51.6421 6.25675 51.139C6.26486 51.0132 6.28103 50.8831 6.28914 50.7573C6.32566 50.3313 6.37033 49.9094 6.41902 49.4914C6.43525 49.3656 6.44747 49.2399 6.4637 49.1181C6.52051 48.6596 6.58949 48.2051 6.66253 47.7506C6.695 47.5477 6.72746 47.3448 6.76398 47.1419C6.83702 46.7239 6.91406 46.306 6.99927 45.8921C7.04797 45.6526 7.10483 45.4091 7.15758 45.1696C7.20628 44.9424 7.26304 44.7153 7.3158 44.488C7.42536 44.0254 7.54715 43.5668 7.67294 43.1124C7.71352 42.9703 7.74996 42.8242 7.79054 42.6822C8.00155 41.9396 8.22887 41.2012 8.48046 40.4708L8.49264 40.4747C10.761 33.9253 14.5551 28.0819 19.4489 23.3748C19.5017 23.2855 19.5787 23.2125 19.6679 23.1638C25.28 17.8398 32.3124 13.9972 40.1319 12.2685C40.1644 12.2604 40.1968 12.2522 40.2293 12.2481C43.2199 11.5948 46.3201 11.246 49.5015 11.246C73.4226 11.246 92.8843 30.7074 92.8843 54.6286C92.8843 78.5498 73.4226 98.0114 49.5015 98.0114C46.316 98.0114 43.2118 97.6623 40.2212 97.009C40.1927 97.005 40.1644 97.0011 40.14 96.993C34.9256 95.8405 30.0643 93.7507 25.7346 90.9062C25.6453 90.8737 25.5682 90.8209 25.5032 90.756C19.0147 86.4221 13.7475 80.3961 10.3551 73.3111Z" fill="#435B74"/>
<path d="M49.502 5.12109C42.77 5.12109 36.3505 6.47251 30.495 8.91941V9.56039C30.495 9.89719 30.2231 10.1691 29.8863 10.1691C29.5495 10.1691 29.2776 9.89719 29.2776 9.56039V9.44289C20.4355 13.4156 12.965 19.9081 7.78308 27.9996C7.99003 28.0969 8.132 28.3037 8.132 28.5472C8.132 28.884 7.86012 29.1559 7.52332 29.1559H7.06483C2.58087 36.6021 0 45.3144 0 54.6191C0 69.4019 6.51693 82.6874 16.8239 91.7649H17.8263C18.1631 91.7649 18.435 92.0368 18.435 92.3736C18.435 92.5927 18.3172 92.7834 18.1427 92.8889C21.5108 95.6564 25.2522 97.9856 29.2776 99.7954V99.5196C29.2776 99.1828 29.5495 98.9109 29.8863 98.9109C30.2231 98.9109 30.495 99.1828 30.495 99.5196V100.319C33.8509 101.719 37.3933 102.762 41.0698 103.395C41.4552 103.46 41.8448 103.525 42.2303 103.581C42.3602 103.602 42.49 103.618 42.6199 103.634C44.868 103.947 47.1647 104.113 49.498 104.113C51.8231 104.113 54.1078 103.947 56.3477 103.638C56.4857 103.618 56.6277 103.602 56.7657 103.581C57.1552 103.525 57.5407 103.464 57.9262 103.395C81.2225 99.3816 99 79.0354 99 54.6151C99.0041 27.3259 76.7953 5.12109 49.502 5.12109ZM1.21736 54.6232C1.21736 27.9995 22.8783 6.33846 49.502 6.33846C76.1258 6.33846 97.7867 27.9995 97.7867 54.6232C97.7867 81.2469 76.1258 102.908 49.502 102.908C22.8783 102.908 1.21736 81.2469 1.21736 54.6232Z" fill="black"/>
<path d="M39.6992 90.9375H28.0977C31.6645 93.0476 35.5642 94.6464 39.6992 95.6366V90.9375Z" fill="#F5D9E8"/>
<path d="M91.6682 54.6225C91.6682 31.3709 72.7544 12.457 49.5027 12.457C46.5608 12.457 43.6919 12.7613 40.9163 13.3376V23.6851C40.9163 24.0219 40.6444 24.2938 40.3076 24.2938H20.2415C15.7656 28.6114 12.2434 33.9069 10.0156 39.8314H40.9163V51.5628L48.8048 42.0268L49.7422 42.8019L40.9163 53.4741V73.1021H11.6063C14.9053 79.8463 19.9573 85.5841 26.1578 89.7231H40.3076C40.6444 89.7231 40.9163 89.995 40.9163 90.3318V95.9114C43.6878 96.4876 46.5608 96.7919 49.5027 96.7919C72.7503 96.7878 91.6682 77.8701 91.6682 54.6225ZM49.5027 20.658V19.4406C68.8994 19.4406 84.6846 35.2218 84.6846 54.6225H83.4673C83.4673 35.8954 68.2298 20.658 49.5027 20.658Z" fill="#F5D9E8"/>
<path d="M39.6994 23.0762V13.6094C32.8578 15.2447 26.6574 18.5517 21.5566 23.0762H39.6994Z" fill="#F5D9E8"/>
<path d="M25.9457 89.7187H26.1607C19.9562 85.5797 14.9083 79.8418 11.6092 73.0977H10.7773L10.3594 73.3087C13.7558 80.3937 19.0189 86.4198 25.5075 90.7455C25.406 90.6359 25.341 90.4897 25.341 90.3274C25.337 89.9906 25.6089 89.7187 25.9457 89.7187Z" fill="black"/>
<path d="M9.05634 40.6658L9.13342 40.4425V39.8338H10.014C12.2418 33.9093 15.764 28.6138 20.2399 24.2962H19.9639C19.6271 24.2962 19.3552 24.0243 19.3552 23.6875C19.3552 23.5698 19.3877 23.4644 19.4445 23.3711C14.5507 28.0782 10.7566 33.9216 8.48828 40.471L9.05634 40.6658Z" fill="black"/>
<path d="M7.67383 43.1059C7.71441 42.9639 7.75084 42.8178 7.79142 42.6758C7.75084 42.8219 7.71441 42.9639 7.67383 43.1059Z" fill="black"/>
<path d="M39.6975 96.401V95.634C35.5625 94.6439 31.6588 93.045 28.096 90.935H25.9454C25.8724 90.935 25.7993 90.9189 25.7344 90.8945C30.0601 93.7391 34.9255 95.833 40.1398 96.9813C39.8842 96.9083 39.6975 96.6769 39.6975 96.401Z" fill="black"/>
<path d="M6.24625 57.9628C6.24625 57.9466 6.24625 57.9303 6.24219 57.9141C6.24625 57.9262 6.24625 57.9466 6.24625 57.9628Z" fill="black"/>
<path d="M6.1763 56.8766C6.17225 56.7549 6.16827 56.6374 6.16016 56.5156C6.16827 56.6333 6.17225 56.7549 6.1763 56.8766Z" fill="black"/>
<path d="M40.9165 12.8412V13.3362C43.6881 12.76 46.561 12.4556 49.503 12.4556C72.7505 12.4556 91.6684 31.3695 91.6684 54.6211C91.6684 77.8687 72.7546 96.7866 49.503 96.7866C46.561 96.7866 43.6921 96.4821 40.9165 95.9058V96.401C40.9165 96.7378 40.6447 97.0097 40.3079 97.0097C40.2795 97.0097 40.2511 97.0056 40.2227 97.0015C43.2133 97.6549 46.3175 98.0039 49.503 98.0039C73.4241 98.0039 92.8858 78.5423 92.8858 54.6211C92.8858 30.6999 73.4241 11.2383 49.503 11.2383C46.3216 11.2383 43.2174 11.5873 40.2308 12.2407C40.2551 12.2366 40.2835 12.2325 40.3119 12.2325C40.6447 12.2325 40.9165 12.5044 40.9165 12.8412Z" fill="black"/>
<path d="M6.11914 54.6211C6.11914 55.0025 6.12321 55.3799 6.13539 55.7614C6.12321 55.3799 6.11914 55.0025 6.11914 54.6211Z" fill="black"/>
<path d="M21.559 23.0759C26.6598 18.5514 32.8561 15.2444 39.7018 13.6091V12.8421C39.7018 12.5702 39.8844 12.3388 40.1319 12.2617C32.3164 13.9904 25.2841 17.8292 19.668 23.1572C19.7572 23.1085 19.8546 23.0759 19.9642 23.0759H21.559Z" fill="black"/>
<path d="M6.16406 52.6584C6.18841 52.1512 6.21681 51.644 6.25739 51.1367C6.22086 51.6399 6.18841 52.1471 6.16406 52.6584Z" fill="black"/>
<path d="M6.76758 47.1366C6.84062 46.7186 6.91765 46.3047 7.00287 45.8867C6.91765 46.3006 6.84062 46.7186 6.76758 47.1366Z" fill="black"/>
<path d="M7.16211 45.166C7.2108 44.9387 7.26757 44.7116 7.32032 44.4844C7.26351 44.7076 7.2108 44.9347 7.16211 45.166Z" fill="black"/>
<path d="M6.46875 49.1097C6.52556 48.6512 6.59454 48.1967 6.66758 47.7422C6.59454 48.1967 6.52556 48.6512 6.46875 49.1097Z" fill="black"/>
<path d="M6.11914 54.6228C6.11914 54.0831 6.13135 53.5474 6.15164 53.0117C6.13135 53.5433 6.11914 54.0831 6.11914 54.6228Z" fill="black"/>
<path d="M6.29297 50.7505C6.32949 50.3285 6.37415 49.9064 6.42285 49.4844C6.37415 49.9023 6.32949 50.3244 6.29297 50.7505Z" fill="black"/>
<path d="M83.4665 54.6233H84.6838C84.6838 35.2226 68.9027 19.4414 49.502 19.4414V20.6588C68.2291 20.6588 83.4665 35.8962 83.4665 54.6233Z" fill="white"/>
<path d="M8.13108 28.5512C8.13108 28.3077 7.98911 28.1007 7.78216 28.0033C7.70506 27.9668 7.61573 27.9425 7.5224 27.9425H2.54744V1.2132H29.2767V9.44269V9.56018C29.2767 9.89699 29.5486 10.1689 29.8854 10.1689C30.2222 10.1689 30.4941 9.89699 30.4941 9.56018V8.9192V0.608681C30.4941 0.271878 30.2222 0 29.8854 0H1.93876C1.60196 0 1.33008 0.271878 1.33008 0.608681V28.5551C1.33008 28.8919 1.60196 29.1638 1.93876 29.1638H7.06391H7.5224C7.85921 29.1597 8.13108 28.888 8.13108 28.5512Z" fill="black"/>
<path d="M30.4941 99.5282C30.4941 99.1914 30.2222 98.9195 29.8854 98.9195C29.5486 98.9195 29.2767 99.1914 29.2767 99.5282V99.804V119.72H2.54744V92.9908H17.8213C17.939 92.9908 18.0485 92.9543 18.1378 92.8975C18.3123 92.792 18.43 92.6012 18.43 92.3821C18.43 92.0453 18.1581 91.7734 17.8213 91.7734H16.819H1.93876C1.60196 91.7734 1.33008 92.0453 1.33008 92.3821V120.329C1.33008 120.666 1.60196 120.937 1.93876 120.937H29.8854C30.2222 120.937 30.4941 120.666 30.4941 120.329V100.332V99.5282Z" fill="black"/>
<path d="M19.9642 24.2943H20.2402H40.3063C40.6431 24.2943 40.915 24.0224 40.915 23.6856V13.338V12.8431C40.915 12.5063 40.6431 12.2344 40.3063 12.2344C40.2779 12.2344 40.2536 12.2384 40.2252 12.2425C40.1927 12.2466 40.1603 12.2546 40.1278 12.2627C39.8803 12.3398 39.6977 12.5671 39.6977 12.8431V13.6101V23.0769H21.5549H19.9602C19.8506 23.0769 19.7531 23.1095 19.6639 23.1581C19.5746 23.2109 19.4976 23.2799 19.4448 23.3692C19.388 23.4625 19.3555 23.5679 19.3555 23.6856C19.3555 24.0224 19.6273 24.2943 19.9642 24.2943Z" fill="black"/>
<path d="M25.7359 90.8957C25.8008 90.9201 25.8738 90.9362 25.9469 90.9362H28.0975H39.699V95.6352V96.4022C39.699 96.6782 39.8857 96.9095 40.1373 96.9826C40.1657 96.9907 40.19 96.9948 40.2184 96.9988C40.2468 97.0029 40.2752 97.0067 40.3036 97.0067C40.6404 97.0067 40.9123 96.7349 40.9123 96.3981V95.9031V90.3235C40.9123 89.9867 40.6404 89.7148 40.3036 89.7148H26.1537H25.9388C25.602 89.7148 25.3301 89.9867 25.3301 90.3235C25.3301 90.4858 25.395 90.6318 25.4964 90.7414C25.5695 90.8104 25.6466 90.8633 25.7359 90.8957Z" fill="black"/>
<path d="M21.5708 57.3349L22.5 56.5475L29.7474 65.0732L39.7014 53.0375V41.0547H9.57168C8.09055 45.4128 7.33984 49.9778 7.33984 54.6282C7.33984 60.646 8.57753 66.4489 11.0244 71.8864H39.7055V54.9488L29.7637 66.9724L21.5708 57.3349Z" fill="#75AAA9"/>
<path d="M9.05664 40.6647L9.13372 40.693V40.4414L9.05664 40.6647Z" fill="#75AAA9"/>
<path d="M11.6056 73.0986H40.9156V53.4708L39.6982 54.9437V71.8812H11.0172C8.57434 66.4436 7.3326 60.6369 7.3326 54.6231C7.3326 49.9728 8.0833 45.4076 9.56443 41.0495H39.6942V53.0325L40.9115 51.5593V39.8281H10.0108H9.13021V40.4368V40.6843L9.05313 40.6559L8.48913 40.4612L8.47695 40.457C8.22536 41.1874 7.99814 41.926 7.78713 42.6686C7.74655 42.8107 7.70595 42.9568 7.66943 43.0988C7.54364 43.5573 7.42591 44.0157 7.31229 44.4743C7.25954 44.7015 7.20683 44.9288 7.15407 45.1561C7.10132 45.3955 7.04446 45.6348 6.99576 45.8783C6.91055 46.2922 6.83351 46.7102 6.76047 47.1281C6.72395 47.331 6.69149 47.5339 6.65903 47.7368C6.58598 48.1913 6.517 48.6458 6.46019 49.1044C6.44396 49.2302 6.43174 49.3559 6.41551 49.4777C6.36682 49.8997 6.32215 50.3218 6.28563 50.7438C6.27346 50.8696 6.26135 50.9994 6.25324 51.1252C6.21266 51.6324 6.1802 52.1397 6.15991 52.6469C6.15586 52.7646 6.15179 52.8823 6.14773 53C6.12744 53.5356 6.11523 54.0752 6.11523 54.6108C6.11523 54.9923 6.11931 55.3697 6.13148 55.7511C6.1396 56.0027 6.14774 56.2503 6.15991 56.5019C6.16397 56.6236 6.16795 56.7454 6.17606 56.8631C6.19229 57.208 6.21671 57.557 6.24105 57.9019C6.24105 57.9182 6.24106 57.9342 6.24511 57.9505C6.63061 63.0837 7.91287 68.0465 10.0717 72.7334L10.3354 73.3056L10.3516 73.2975L10.7696 73.0865H11.6056V73.0986Z" fill="black"/>
<path d="M48.8046 42.0273L40.9161 51.5634L39.6988 53.0363L29.7448 65.072L22.4975 56.5463L21.5723 57.3337L29.757 66.967L39.6988 54.9436L40.9161 53.4746L49.742 42.8025L48.8046 42.0273Z" fill="white"/>
</svg>
