<svg width="216" height="216" viewBox="0 0 216 216" fill="none" xmlns="http://www.w3.org/2000/svg">
<path d="M121.42 200.23C171.998 200.23 213 159.228 213 108.65C213 58.0718 171.998 17.0701 121.42 17.0701C70.8417 17.0701 29.84 58.0718 29.84 108.65C29.84 159.228 70.8417 200.23 121.42 200.23Z" fill="#FFDC8C"/>
<path d="M102 145.39C99.4699 146.076 97.236 147.575 95.6436 149.658C94.0511 151.74 93.1889 154.289 93.19 156.91V159.61V186.07V187.34C93.1874 190.502 91.9293 193.534 89.6923 195.769C87.4552 198.005 84.4223 199.26 81.26 199.26H3.26001C6.42231 199.26 9.45524 198.005 11.6923 195.769C13.9293 193.534 15.1874 190.502 15.19 187.34V182.34V177.78V157.32C15.1927 154.158 16.4507 151.126 18.6878 148.891C20.9248 146.656 23.9577 145.4 27.12 145.4L102 145.39Z" fill="white" stroke="black" stroke-width="2.5" stroke-linecap="round" stroke-linejoin="round"/>
<path d="M110.93 64.8601H109.93V112.2H152.76C155.864 112.195 158.847 113.404 161.07 115.57C161.099 115.62 161.141 115.661 161.19 115.69C162.391 116.807 163.348 118.16 164.002 119.663C164.656 121.167 164.993 122.79 164.99 124.43V157.36C164.987 160.315 166.081 163.166 168.06 165.36C168.11 165.389 168.151 165.431 168.18 165.48C169.849 167.147 171.975 168.281 174.288 168.74C176.602 169.199 179 168.962 181.179 168.059C183.357 167.156 185.22 165.627 186.53 163.666C187.84 161.704 188.54 159.399 188.54 157.04V64.8601H110.93Z" fill="white" stroke="black" stroke-width="2.5" stroke-linecap="round" stroke-linejoin="round"/>
<path d="M11.96 97.79H38.63L38.63 64.85H11.96L11.96 97.79Z" fill="#BEAFFF" stroke="black" stroke-width="2.5" stroke-miterlimit="10"/>
<path d="M109.98 112.33V112.2" stroke="black" stroke-width="2" stroke-linecap="round" stroke-linejoin="round"/>
<path d="M188.59 64.8601H110.93V81.1201H188.59V64.8601Z" fill="black"/>
<path d="M188.56 80.4601V64.8601" stroke="black" stroke-width="2" stroke-linecap="round" stroke-linejoin="round"/>
<path d="M152.81 112.2C149.648 112.2 146.615 113.455 144.378 115.691C142.141 117.926 140.883 120.958 140.88 124.12V174.12C140.88 174.53 140.88 174.94 140.82 175.34C140.824 175.387 140.824 175.433 140.82 175.48C140.486 178.388 139.094 181.072 136.908 183.019C134.723 184.967 131.897 186.042 128.97 186.04H93.15" stroke="black" stroke-width="2" stroke-linecap="round" stroke-linejoin="round"/>
<path d="M117.61 76.3401C119.46 76.3401 120.96 74.8403 120.96 72.9901C120.96 71.14 119.46 69.6401 117.61 69.6401C115.76 69.6401 114.26 71.14 114.26 72.9901C114.26 74.8403 115.76 76.3401 117.61 76.3401Z" fill="#F5968C"/>
<path d="M128.28 76.3401C130.13 76.3401 131.63 74.8403 131.63 72.9901C131.63 71.14 130.13 69.6401 128.28 69.6401C126.43 69.6401 124.93 71.14 124.93 72.9901C124.93 74.8403 126.43 76.3401 128.28 76.3401Z" fill="#87CD9B"/>
<path d="M138.94 76.3401C140.79 76.3401 142.29 74.8403 142.29 72.9901C142.29 71.14 140.79 69.6401 138.94 69.6401C137.09 69.6401 135.59 71.14 135.59 72.9901C135.59 74.8403 137.09 76.3401 138.94 76.3401Z" fill="#FFDC8C"/>
<path d="M188.56 64.8601H110.93" stroke="black" stroke-width="2" stroke-linecap="round" stroke-linejoin="round"/>
<path d="M117.61 88.5901V101.66" stroke="black" stroke-width="2" stroke-linecap="round" stroke-linejoin="round"/>
<path d="M120.134 90.8801V91.8591H122.62V98.5801H123.709V91.8591H126.195V90.8801H120.134ZM130.447 93.1791L128.775 97.3921H128.643L126.971 93.1791H125.86L128.17 98.8001L127.312 100.78H128.423L131.558 93.1791H130.447ZM132.458 100.78H133.492V97.7001H133.624C133.921 98.2171 134.449 98.7341 135.516 98.7341C136.924 98.7341 138.057 97.5681 138.057 95.8851C138.057 94.1911 136.924 93.0251 135.516 93.0251C134.449 93.0251 133.921 93.5421 133.624 94.0591H133.47V93.1791H132.458V100.78ZM135.263 97.8101C134.24 97.8101 133.492 97.0731 133.492 95.8851C133.492 94.6971 134.24 93.9491 135.263 93.9491C136.275 93.9491 137.012 94.6751 137.012 95.8851C137.012 97.0951 136.275 97.8101 135.263 97.8101ZM138.853 95.8411C138.853 97.5021 139.986 98.7341 141.636 98.7341C143.077 98.7341 143.704 97.9641 144.067 97.3151L143.198 96.8421C142.956 97.3591 142.505 97.8321 141.625 97.8321C140.635 97.8321 139.986 97.1611 139.931 96.2041H144.166V95.7091C144.166 94.0701 143.099 93.0251 141.559 93.0251C139.986 93.0251 138.853 94.2241 138.853 95.8411ZM139.931 95.3681C140.03 94.4991 140.624 93.9271 141.559 93.9271C142.45 93.9271 143.044 94.4661 143.099 95.3681H139.931ZM148.507 90.8801V98.5801H149.541V95.8301C149.541 94.6311 150.179 93.9931 151.169 93.9931C152.06 93.9931 152.599 94.4661 152.599 95.4231V98.5801H153.633V95.3241C153.633 93.8721 152.676 93.0801 151.51 93.0801C150.454 93.0801 149.926 93.5861 149.673 94.1141H149.541V90.8801H148.507ZM154.697 95.8411C154.697 97.5021 155.83 98.7341 157.48 98.7341C158.921 98.7341 159.548 97.9641 159.911 97.3151L159.042 96.8421C158.8 97.3591 158.349 97.8321 157.469 97.8321C156.479 97.8321 155.83 97.1611 155.775 96.2041H160.01V95.7091C160.01 94.0701 158.943 93.0251 157.403 93.0251C155.83 93.0251 154.697 94.2241 154.697 95.8411ZM155.775 95.3681C155.874 94.4991 156.468 93.9271 157.403 93.9271C158.294 93.9271 158.888 94.4661 158.943 95.3681H155.775ZM162.109 93.1791H161.097V98.5801H162.131V95.3461C162.131 94.4771 162.637 94.0701 163.396 94.0701H164.243V93.1571H163.616C162.901 93.1571 162.472 93.3661 162.263 93.9161H162.109V93.1791ZM164.569 95.8411C164.569 97.5021 165.702 98.7341 167.352 98.7341C168.793 98.7341 169.42 97.9641 169.783 97.3151L168.914 96.8421C168.672 97.3591 168.221 97.8321 167.341 97.8321C166.351 97.8321 165.702 97.1611 165.647 96.2041H169.882V95.7091C169.882 94.0701 168.815 93.0251 167.275 93.0251C165.702 93.0251 164.569 94.2241 164.569 95.8411ZM165.647 95.3681C165.746 94.4991 166.34 93.9271 167.275 93.9271C168.166 93.9271 168.76 94.4661 168.815 95.3681H165.647ZM170.653 97.8761C170.653 98.3711 171.027 98.7341 171.511 98.7341C172.006 98.7341 172.369 98.3711 172.369 97.8761C172.369 97.3811 172.006 97.0181 171.511 97.0181C171.027 97.0181 170.653 97.3811 170.653 97.8761ZM173.478 97.8761C173.478 98.3711 173.852 98.7341 174.336 98.7341C174.831 98.7341 175.194 98.3711 175.194 97.8761C175.194 97.3811 174.831 97.0181 174.336 97.0181C173.852 97.0181 173.478 97.3811 173.478 97.8761ZM176.303 97.8761C176.303 98.3711 176.677 98.7341 177.161 98.7341C177.656 98.7341 178.019 98.3711 178.019 97.8761C178.019 97.3811 177.656 97.0181 177.161 97.0181C176.677 97.0181 176.303 97.3811 176.303 97.8761Z" fill="#666666"/>
<path d="M141.44 168.98H176.66" stroke="black" stroke-width="2" stroke-linecap="round" stroke-linejoin="round"/>
<path d="M140.91 173.58C140.909 174.179 140.862 174.778 140.77 175.37C140.774 175.417 140.774 175.464 140.77 175.51C140.313 178.3 138.879 180.837 136.725 182.669C134.572 184.5 131.837 185.507 129.01 185.51C127.997 185.513 126.989 185.381 126.01 185.12C123.457 184.454 121.197 182.96 119.585 180.871C117.973 178.783 117.099 176.219 117.1 173.58V157.31C117.097 154.148 115.839 151.116 113.602 148.881C111.365 146.646 108.332 145.39 105.17 145.39" stroke="black" stroke-width="2" stroke-linecap="round" stroke-linejoin="round"/>
<path d="M93.2 157.31C93.2026 154.148 94.4607 151.116 96.6977 148.881C98.9347 146.646 101.968 145.39 105.13 145.39H102" stroke="black" stroke-width="2" stroke-linecap="round" stroke-linejoin="round"/>
<path d="M92.71 64.8601H11.96V97.8001H92.71V64.8601Z" stroke="black" stroke-width="2.5" stroke-linecap="round" stroke-linejoin="round"/>
<path d="M83 76.45C81.6256 76.0327 80.1964 75.8237 78.76 75.83C76.92 75.83 75.14 76.31 75.14 78.29C75.14 79.29 76.37 80.54 77.6 80.95H77.74M83.34 83.48C83.5318 83.7357 83.6274 84.0508 83.61 84.37C83.61 86.37 81.77 86.83 79.38 86.83C77.9433 86.8533 76.512 86.6473 75.14 86.22M73.91 81H84.84" stroke="black" stroke-width="2.5" stroke-linecap="round" stroke-linejoin="round"/>
<path d="M24.85 103.97L26.79 119.82L30.82 115.2L36.72 114.78L24.85 103.97Z" fill="black"/>
<path d="M29.84 112.96L34.32 121.03" stroke="black" stroke-width="2" stroke-linecap="round" stroke-linejoin="round"/>
<path d="M54.19 75.8301L50.06 86.8301M57.42 75.3201H50.66H57.42ZM53.66 87.3201H46.91H53.66Z" stroke="black" stroke-width="2.5" stroke-linecap="round" stroke-linejoin="round"/>
<path d="M19.8101 74.5701H26.5601C27.4565 74.5701 28.3162 74.9262 28.9501 75.5601C29.584 76.1939 29.9401 77.0536 29.9401 77.9501C29.9401 78.8465 29.584 79.7062 28.9501 80.3401C28.3162 80.974 27.4565 81.3301 26.5601 81.3301H19.8101V74.5701Z" stroke="black" stroke-width="2.5" stroke-linecap="round" stroke-linejoin="round"/>
<path d="M19.8101 81.3302H27.4101C27.8687 81.3052 28.3277 81.374 28.7589 81.5323C29.1901 81.6906 29.5845 81.9352 29.918 82.2511C30.2515 82.5669 30.5171 82.9474 30.6987 83.3694C30.8802 83.7913 30.9738 84.2459 30.9738 84.7052C30.9738 85.1645 30.8802 85.6191 30.6987 86.041C30.5171 86.463 30.2515 86.8435 29.918 87.1593C29.5845 87.4752 29.1901 87.7197 28.7589 87.8781C28.3277 88.0364 27.8687 88.1052 27.4101 88.0802H19.8101V81.3302Z" stroke="black" stroke-width="2.5" stroke-linecap="round" stroke-linejoin="round"/>
<path d="M140.91 158.62C140.91 159.23 140.91 175.06 140.77 175.62C140.774 175.667 140.774 175.713 140.77 175.76C140.313 178.55 138.879 181.087 136.725 182.918C134.572 184.75 131.837 185.757 129.01 185.76C127.997 185.762 126.989 185.631 126.01 185.37C123.457 184.704 121.197 183.209 119.585 181.121C117.973 179.033 117.099 176.468 117.1 173.83V157.59C117.097 154.428 115.839 151.396 113.602 149.161C111.365 146.926 108.332 145.67 105.17 145.67H62.8101V124.4C62.8127 121.238 64.0708 118.206 66.3078 115.971C68.5448 113.736 71.5778 112.48 74.7401 112.48H152.79C149.628 112.48 146.595 113.736 144.358 115.971C142.121 118.206 140.863 121.238 140.86 124.4V158.62" fill="white"/>
<path d="M140.91 158.62C140.91 159.23 140.91 175.06 140.77 175.62C140.774 175.667 140.774 175.713 140.77 175.76C140.313 178.55 138.879 181.087 136.725 182.918C134.572 184.75 131.837 185.757 129.01 185.76C127.997 185.762 126.989 185.631 126.01 185.37C123.457 184.704 121.197 183.209 119.585 181.121C117.973 179.033 117.099 176.468 117.1 173.83V157.59C117.097 154.428 115.839 151.396 113.602 149.161C111.365 146.926 108.332 145.67 105.17 145.67H62.8101V124.4C62.8127 121.238 64.0708 118.206 66.3078 115.971C68.5448 113.736 71.5778 112.48 74.7401 112.48H152.79C149.628 112.48 146.595 113.736 144.358 115.971C142.121 118.206 140.863 121.238 140.86 124.4V158.62" stroke="black" stroke-width="2.5" stroke-linecap="round" stroke-linejoin="round"/>
<path d="M129.93 185.77H94.1V160.26V157.56C94.1 154.396 95.3569 151.362 97.5942 149.124C99.8315 146.887 102.866 145.63 106.03 145.63C109.194 145.63 112.228 146.887 114.466 149.124C116.703 151.362 117.96 154.396 117.96 157.56V173.83C117.959 175.401 118.268 176.957 118.869 178.408C119.47 179.859 120.353 181.177 121.465 182.287C122.577 183.396 123.897 184.275 125.35 184.873C126.803 185.47 128.359 185.775 129.93 185.77Z" fill="black"/>
<path d="M177.08 169.27H141.25V124.41C141.25 121.246 142.507 118.211 144.744 115.974C146.982 113.737 150.016 112.48 153.18 112.48C156.344 112.48 159.378 113.737 161.616 115.974C163.853 118.211 165.11 121.246 165.11 124.41V157.34C165.11 158.91 165.42 160.465 166.022 161.915C166.624 163.365 167.506 164.682 168.618 165.79C169.73 166.898 171.05 167.776 172.502 168.373C173.954 168.971 175.51 169.275 177.08 169.27Z" fill="black"/>
</svg>
