<svg width="216" height="216" viewBox="0 0 216 216" fill="none" xmlns="http://www.w3.org/2000/svg">
<path d="M108 199.58C158.578 199.58 199.58 158.578 199.58 108C199.58 57.4217 158.578 16.4199 108 16.4199C57.4217 16.4199 16.4199 57.4217 16.4199 108C16.4199 158.578 57.4217 199.58 108 199.58Z" fill="#F5968C"/>
<path d="M108.03 173.22C143.691 173.22 172.6 144.311 172.6 108.65C172.6 72.9888 143.691 44.0798 108.03 44.0798C72.3689 44.0798 43.46 72.9888 43.46 108.65C43.46 144.311 72.3689 173.22 108.03 173.22Z" fill="#F4A6A2" stroke="black" stroke-width="2.5" stroke-linecap="round" stroke-linejoin="round"/>
<path d="M76.78 149.14C78.3623 146.987 80.4677 145.273 82.8971 144.16C85.3264 143.047 87.9994 142.573 90.6633 142.781C93.3272 142.989 95.894 143.873 98.1209 145.35C100.348 146.827 102.161 148.847 103.39 151.22C105.052 150.18 107.003 149.698 108.958 149.844C110.913 149.99 112.77 150.756 114.26 152.03C117.44 148.17 122.1 145.26 127.09 145.28C132.08 145.3 137.16 148.84 137.9 153.78C142.557 151.031 148.039 150.021 153.37 150.93C153.9 153.4 151.37 155.41 149.11 156.44C142.38 159.44 134.8 159.78 127.42 160.04C120.04 160.3 112.36 160.59 104.91 159.61C97.46 158.63 90.42 156.51 83.04 156.43C78.58 156.38 74.13 157.09 69.67 157.14C66.07 157.14 60.98 154.14 63.78 150.05C66.32 146.41 76.27 149.82 76.78 149.14Z" fill="white"/>
<path d="M175.3 106.34C174.239 106.34 173.222 106.761 172.471 107.511C171.721 108.262 171.3 109.279 171.3 110.34C171.3 109.279 170.878 108.262 170.128 107.511C169.378 106.761 168.361 106.34 167.3 106.34C168.361 106.34 169.378 105.918 170.128 105.168C170.878 104.418 171.3 103.401 171.3 102.34C171.3 103.401 171.721 104.418 172.471 105.168C173.222 105.918 174.239 106.34 175.3 106.34Z" fill="black" stroke="black" stroke-width="2" stroke-linecap="round" stroke-linejoin="round"/>
<path d="M162.53 127.46C161.469 127.46 160.452 127.881 159.702 128.632C158.952 129.382 158.53 130.399 158.53 131.46C158.53 130.399 158.109 129.382 157.359 128.632C156.609 127.881 155.591 127.46 154.53 127.46C155.591 127.46 156.609 127.039 157.359 126.288C158.109 125.538 158.53 124.521 158.53 123.46C158.53 124.521 158.952 125.538 159.702 126.288C160.452 127.039 161.469 127.46 162.53 127.46Z" fill="white" stroke="white" stroke-width="2" stroke-linecap="round" stroke-linejoin="round"/>
<path d="M84.4902 73.41C81.3602 73.41 78.8202 76.6 78.8202 80.53C78.8202 76.6 76.2902 73.41 73.1602 73.41C76.2902 73.41 78.8202 70.22 78.8202 66.29C78.8202 70.22 81.3602 73.41 84.4902 73.41Z" fill="white" stroke="white" stroke-width="2" stroke-linecap="round" stroke-linejoin="round"/>
<path d="M49.1299 66.1099C48.069 66.1099 47.0516 66.5313 46.3015 67.2814C45.5513 68.0316 45.1299 69.049 45.1299 70.1099C45.1299 69.049 44.7085 68.0316 43.9583 67.2814C43.2082 66.5313 42.1907 66.1099 41.1299 66.1099C42.1907 66.1099 43.2082 65.6884 43.9583 64.9383C44.7085 64.1881 45.1299 63.1707 45.1299 62.1099C45.1299 63.1707 45.5513 64.1881 46.3015 64.9383C47.0516 65.6884 48.069 66.1099 49.1299 66.1099Z" fill="white" stroke="white" stroke-width="2" stroke-linecap="round" stroke-linejoin="round"/>
<path d="M191.479 86.22C190.419 86.22 189.401 86.6414 188.651 87.3915C187.901 88.1417 187.479 89.1591 187.479 90.22C187.479 89.1591 187.058 88.1417 186.308 87.3915C185.558 86.6414 184.54 86.22 183.479 86.22C184.54 86.22 185.558 85.7985 186.308 85.0484C187.058 84.2982 187.479 83.2808 187.479 82.22C187.479 83.2808 187.901 84.2982 188.651 85.0484C189.401 85.7985 190.419 86.22 191.479 86.22Z" fill="black" stroke="black" stroke-width="2" stroke-linecap="round" stroke-linejoin="round"/>
<path d="M168.78 55.2C167.719 55.2 166.702 55.6214 165.952 56.3715C165.202 57.1217 164.78 58.1391 164.78 59.2C164.78 58.1391 164.359 57.1217 163.609 56.3715C162.859 55.6214 161.841 55.2 160.78 55.2C161.841 55.2 162.859 54.7785 163.609 54.0284C164.359 53.2782 164.78 52.2608 164.78 51.2C164.78 52.2608 165.202 53.2782 165.952 54.0284C166.702 54.7785 167.719 55.2 168.78 55.2Z" fill="#F06450" stroke="#F06450" stroke-width="2" stroke-linecap="round" stroke-linejoin="round"/>
<path d="M107.55 35.0498C106.489 35.0498 105.472 35.4712 104.721 36.2214C103.971 36.9715 103.55 37.9889 103.55 39.0498C103.55 37.9889 103.128 36.9715 102.378 36.2214C101.628 35.4712 100.611 35.0498 99.5498 35.0498C100.611 35.0498 101.628 34.6284 102.378 33.8782C103.128 33.1281 103.55 32.1107 103.55 31.0498C103.55 32.1107 103.971 33.1281 104.721 33.8782C105.472 34.6284 106.489 35.0498 107.55 35.0498Z" fill="black" stroke="black" stroke-width="2" stroke-linecap="round" stroke-linejoin="round"/>
<path d="M57.3398 112.48C56.279 112.48 55.2616 112.901 54.5114 113.652C53.7613 114.402 53.3398 115.419 53.3398 116.48C53.3398 115.419 52.9184 114.402 52.1683 113.652C51.4181 112.901 50.4007 112.48 49.3398 112.48C50.4007 112.48 51.4181 112.059 52.1683 111.308C52.9184 110.558 53.3398 109.541 53.3398 108.48C53.3398 109.541 53.7613 110.558 54.5114 111.308C55.2616 112.059 56.279 112.48 57.3398 112.48Z" fill="#F06450" stroke="#F06450" stroke-width="2" stroke-linecap="round" stroke-linejoin="round"/>
<path d="M138.9 112.25C135.566 116.951 131.154 120.785 126.034 123.431C120.913 126.077 115.234 127.458 109.47 127.458C103.706 127.458 98.0268 126.077 92.9065 123.431C87.7862 120.785 83.3742 116.951 80.04 112.25C83.3631 107.533 87.7712 103.684 92.893 101.027C98.0148 98.3703 103.7 96.9834 109.47 96.9834C115.24 96.9834 120.925 98.3703 126.047 101.027C131.169 103.684 135.577 107.533 138.9 112.25Z" fill="white" stroke="black" stroke-width="2.5" stroke-linecap="round" stroke-linejoin="round"/>
<path d="M109.47 127.34C117.81 127.34 124.57 120.579 124.57 112.24C124.57 103.9 117.81 97.1399 109.47 97.1399C101.131 97.1399 94.3701 103.9 94.3701 112.24C94.3701 120.579 101.131 127.34 109.47 127.34Z" fill="#FFCD50" stroke="black" stroke-width="2.5" stroke-linecap="round" stroke-linejoin="round"/>
<path d="M109.47 78.5798V90.2398" stroke="black" stroke-width="2.5" stroke-linecap="round" stroke-linejoin="round"/>
<path d="M125.62 81.02L122.17 92.16" stroke="black" stroke-width="2.5" stroke-linecap="round" stroke-linejoin="round"/>
<path d="M140.32 88.1499L133.729 97.7599" stroke="black" stroke-width="2.5" stroke-linecap="round" stroke-linejoin="round"/>
<path d="M152.26 99.2998L143.11 106.53" stroke="black" stroke-width="2.5" stroke-linecap="round" stroke-linejoin="round"/>
<path d="M67.7998 97.95L76.7098 105.46" stroke="black" stroke-width="2.5" stroke-linecap="round" stroke-linejoin="round"/>
<path d="M80.0801 87.1799L86.3701 96.9999" stroke="black" stroke-width="2.5" stroke-linecap="round" stroke-linejoin="round"/>
<path d="M95 80.53L98.1 91.77" stroke="black" stroke-width="2.5" stroke-linecap="round" stroke-linejoin="round"/>
<path d="M109.47 118.68C115.368 118.68 120.15 113.898 120.15 108C120.15 102.101 115.368 97.3198 109.47 97.3198C103.572 97.3198 98.79 102.101 98.79 108C98.79 113.898 103.572 118.68 109.47 118.68Z" fill="black"/>
<path d="M114.249 120.36C115.917 120.36 117.269 119.008 117.269 117.34C117.269 115.672 115.917 114.32 114.249 114.32C112.582 114.32 111.229 115.672 111.229 117.34C111.229 119.008 112.582 120.36 114.249 120.36Z" fill="white"/>
<path d="M80 112.25C80 112.25 89.67 102.92 109.43 102.92C129.19 102.92 138.86 112.25 138.86 112.25C135.537 107.533 131.129 103.684 126.007 101.027C120.885 98.3703 115.2 96.9834 109.43 96.9834C103.66 96.9834 97.9747 98.3703 92.853 101.027C87.7312 103.684 83.323 107.533 80 112.25Z" fill="#F5968C" stroke="black" stroke-width="2.5" stroke-linecap="round" stroke-linejoin="round"/>
<path d="M155.11 165.74V156.99H60.9404V165.74H155.11Z" fill="black" stroke="black" stroke-width="2" stroke-miterlimit="10"/>
<path d="M162.28 199.47V190.72H53.7703V199.47H162.28Z" fill="black" stroke="black" stroke-width="2" stroke-miterlimit="10"/>
<path d="M151.97 165.74L160.04 188.66H56.0195L64.0895 165.74H151.97Z" fill="black" stroke="black" stroke-width="2" stroke-miterlimit="10"/>
<path d="M52.4102 165.74H158.49" stroke="#F5968C" stroke-width="2.5" stroke-miterlimit="10"/>
<path d="M47.1201 189.69H164.71" stroke="white" stroke-width="2.5" stroke-miterlimit="10"/>
<path d="M70.4904 169.67C70.2354 173.779 70.2354 177.901 70.4904 182.01H70.6904C71.4704 177.07 71.9504 174.61 73.1004 169.67H75.1004C73.7904 175.67 73.2604 178.67 72.4504 184.67H68.6104C68.3055 180.56 68.2554 176.436 68.4604 172.32H68.2804C67.0904 177.26 66.5904 179.73 65.8104 184.67H63.6504C64.4545 179.609 65.5564 174.601 66.9504 169.67H70.4904Z" fill="#F5968C"/>
<path d="M80.81 169.38C83.51 169.38 84.81 171.76 84.28 175.59C84.11 176.85 84.03 177.49 83.89 178.75C83.43 182.68 81.45 184.95 78.53 184.95C75.61 184.95 74.09 182.69 74.72 178.75C74.93 177.49 75.03 176.85 75.26 175.58C75.94 171.75 78.11 169.38 80.81 169.38ZM76.81 178.88C76.49 181.04 77.12 182.43 78.81 182.43C80.5 182.43 81.5 180.95 81.81 178.88C81.98 177.51 82.07 176.88 82.27 175.46C82.57 173.34 81.91 171.91 80.41 171.91C78.91 171.91 77.73 173.42 77.41 175.46C77.12 176.83 77 177.51 76.8 178.88H76.81Z" fill="#F5968C"/>
<path d="M95.6496 178.88C96.4096 181.18 96.8196 182.34 97.6496 184.64H95.2696C94.5296 182.43 94.1796 181.32 93.5096 179.11H91.6496C91.4696 181.33 91.3996 182.43 91.2496 184.64H89.0996C89.5296 178.64 89.8096 175.64 90.5096 169.7H95.1696C97.1696 169.7 98.4296 171.55 98.2696 174.39C98.1396 176.68 97.1096 178.3 95.6496 178.88ZM91.8596 176.55H94.4196C95.4196 176.55 96.1296 175.72 96.2196 174.41C96.3096 173.1 95.7196 172.28 94.7496 172.28H92.2496C92.0796 174 91.9996 174.84 91.8596 176.55Z" fill="#F5968C"/>
<path d="M106.77 169.7C106.77 170.7 106.77 171.23 106.77 172.26H101.77C101.71 173.69 101.69 174.4 101.63 175.82H106.34C106.34 176.82 106.34 177.36 106.34 178.39H101.58C101.58 179.86 101.51 180.6 101.46 182.08H106.86V184.64H99.2598C99.4698 178.64 99.5998 175.64 99.9298 169.7H106.77Z" fill="#F5968C"/>
<path d="M115.89 174.14C115.89 174.39 115.89 174.52 115.89 174.78H113.89C113.89 174.6 113.89 174.51 113.89 174.33C113.83 172.62 113.02 171.87 111.8 171.87C111.567 171.859 111.334 171.898 111.116 171.985C110.899 172.071 110.703 172.203 110.541 172.372C110.379 172.541 110.255 172.742 110.178 172.962C110.1 173.183 110.07 173.417 110.09 173.65C110.09 175.06 111.09 175.31 112.4 175.72H112.54C114.81 176.4 116.21 177.49 116.31 180.2C116.42 183.2 114.67 184.9 112.23 184.9C109.44 184.9 107.65 182.9 107.66 179.43V179H109.73V179.39C109.73 181.22 110.54 182.46 112.26 182.46C112.535 182.483 112.811 182.444 113.068 182.347C113.326 182.25 113.559 182.097 113.75 181.899C113.942 181.701 114.087 181.462 114.175 181.202C114.263 180.941 114.292 180.663 114.26 180.39C114.26 179.09 113.38 178.66 111.91 178.24L111.77 178.19C109.45 177.51 108.1 176.44 108.1 173.73C108.1 171.02 109.72 169.4 111.77 169.4C114 169.4 115.76 171.15 115.89 174.14Z" fill="#F5968C"/>
<path d="M119.21 169.69C119.5 173.61 119.62 175.56 119.84 179.47C119.94 181.29 120.84 182.42 122.29 182.42C123.74 182.42 124.51 181.29 124.37 179.47C124.07 175.56 123.9 173.61 123.5 169.69H125.5C125.94 173.55 126.13 175.48 126.5 179.35C126.79 182.77 125.31 184.94 122.5 184.94C119.69 184.94 117.95 182.76 117.8 179.35C117.62 175.49 117.52 173.56 117.29 169.7L119.21 169.69Z" fill="#F5968C"/>
<path d="M129.179 169.69C129.869 174.69 130.179 177.13 130.629 182.08H135.859C135.979 183.08 136.039 183.62 136.149 184.64H128.709C128.239 178.64 127.939 175.64 127.189 169.64L129.179 169.69Z" fill="#F5968C"/>
<path d="M141 169.68C141.23 170.68 141.33 171.22 141.54 172.24H138.29C139.19 177.24 139.57 179.68 140.16 184.65H138C137.44 179.65 137.1 177.2 136.25 172.24H133C132.85 171.24 132.77 170.7 132.6 169.68H141Z" fill="#F5968C"/>
<path d="M150.4 174.12L150.55 174.77H148.55L148.45 174.32C148.06 172.6 147.09 171.85 145.86 171.85C145.638 171.83 145.414 171.866 145.21 171.957C145.006 172.047 144.828 172.188 144.694 172.367C144.56 172.545 144.473 172.755 144.443 172.976C144.412 173.197 144.439 173.422 144.52 173.63C144.81 175.05 145.83 175.3 147.23 175.71H147.38C149.78 176.4 151.38 177.49 151.93 180.22C152.53 183.22 150.99 184.93 148.55 184.93C145.76 184.93 143.73 182.93 143.15 179.44C143.15 179.25 143.15 179.16 143.08 178.97H145.15C145.15 179.13 145.15 179.2 145.21 179.36C145.53 181.2 146.51 182.44 148.21 182.44C148.472 182.468 148.737 182.43 148.981 182.328C149.224 182.226 149.438 182.065 149.602 181.858C149.765 181.651 149.874 181.406 149.918 181.146C149.961 180.886 149.938 180.619 149.85 180.37C149.61 179.06 148.69 178.63 147.15 178.2H147C144.57 177.51 143 176.44 142.5 173.72C142 171 143.2 169.37 145.25 169.37C147.53 169.37 149.67 171.12 150.4 174.12Z" fill="#F5968C"/>
<path d="M123.11 61.1199C130.548 62.6576 137.423 66.2006 142.991 71.3652C148.559 76.5297 152.608 83.1191 154.7 90.4199" stroke="white" stroke-width="2" stroke-linecap="round" stroke-linejoin="round"/>
</svg>
