<svg width="38" height="39" viewBox="0 0 38 39" fill="none" xmlns="http://www.w3.org/2000/svg">
<circle cx="20.5" cy="21.5" r="17.5" fill="black"/>
<circle cx="17.5" cy="17.5" r="16.5" fill="#FFF5CD" stroke="black" stroke-width="2"/>
<path d="M17.7018 25.5751C20.6884 25.5751 23.2576 23.9281 23.2576 20.8977C23.2576 19.053 22.2695 17.5817 20.4907 17.0986C21.7424 16.5057 22.4451 15.3419 22.4451 13.9364C22.4451 11.3452 20.1833 9.82998 17.6799 9.82998C15.0228 9.82998 12.8488 11.477 12.8488 14.2878L15.0667 14.4415C15.0886 12.8824 16.1427 12.004 17.7238 12.004C19.0853 12.004 20.1833 12.7067 20.1833 14.2C20.1833 15.6273 19.1512 16.4179 16.9991 16.4179V18.2405C18.7559 18.2405 20.9958 18.3943 20.9958 20.6781C20.9958 22.5446 19.5025 23.4011 17.7458 23.4011C15.7694 23.4011 14.342 22.369 14.342 20.4804L12.1021 20.6122C12.1021 23.9061 14.6494 25.5751 17.7018 25.5751Z" fill="black"/>
</svg>
