<svg width="24" height="24" viewBox="0 0 24 24" fill="none" xmlns="http://www.w3.org/2000/svg">
<path d="M12.5 13.625C13.6736 13.625 14.625 12.6736 14.625 11.5C14.625 10.3264 13.6736 9.375 12.5 9.375C11.3264 9.375 10.375 10.3264 10.375 11.5C10.375 12.6736 11.3264 13.625 12.5 13.625Z" stroke="black" stroke-width="1.2" stroke-linecap="round" stroke-linejoin="round"/>
<path d="M18.2182 13.8182C18.1153 14.0512 18.0846 14.3098 18.1301 14.5605C18.1755 14.8111 18.295 15.0424 18.4732 15.2245L18.5195 15.2709C18.6632 15.4144 18.7772 15.5849 18.855 15.7725C18.9328 15.9601 18.9728 16.1612 18.9728 16.3643C18.9728 16.5674 18.9328 16.7685 18.855 16.9561C18.7772 17.1437 18.6632 17.3142 18.5195 17.4577C18.376 17.6014 18.2056 17.7154 18.018 17.7932C17.8303 17.871 17.6292 17.911 17.4261 17.911C17.223 17.911 17.0219 17.871 16.8343 17.7932C16.6467 17.7154 16.4763 17.6014 16.3327 17.4577L16.2864 17.4114C16.1042 17.2332 15.8729 17.1137 15.6223 17.0683C15.3716 17.0228 15.1131 17.0535 14.88 17.1564C14.6515 17.2543 14.4565 17.417 14.3192 17.6243C14.1819 17.8316 14.1083 18.0745 14.1073 18.3232V18.4545C14.1073 18.8644 13.9444 19.2575 13.6546 19.5473C13.3648 19.8372 12.9717 20 12.5618 20C12.1519 20 11.7588 19.8372 11.469 19.5473C11.1792 19.2575 11.0164 18.8644 11.0164 18.4545V18.385C11.0104 18.1292 10.9276 17.8812 10.7788 17.6731C10.6299 17.465 10.4219 17.3065 10.1818 17.2182C9.94875 17.1153 9.69021 17.0846 9.43955 17.1301C9.18888 17.1755 8.95757 17.295 8.77545 17.4732L8.72909 17.5195C8.58556 17.6632 8.41511 17.7772 8.2275 17.855C8.03988 17.9328 7.83878 17.9728 7.63568 17.9728C7.43259 17.9728 7.23148 17.9328 7.04386 17.855C6.85625 17.7772 6.6858 17.6632 6.54227 17.5195C6.39858 17.376 6.28459 17.2056 6.20682 17.018C6.12904 16.8303 6.08901 16.6292 6.08901 16.4261C6.08901 16.223 6.12904 16.0219 6.20682 15.8343C6.28459 15.6467 6.39858 15.4763 6.54227 15.3327L6.58864 15.2864C6.76678 15.1042 6.88628 14.8729 6.93173 14.6223C6.97718 14.3716 6.9465 14.1131 6.84364 13.88C6.74568 13.6515 6.58304 13.4565 6.37572 13.3192C6.16841 13.1819 5.92547 13.1083 5.67682 13.1073H5.54545C5.13557 13.1073 4.74248 12.9444 4.45265 12.6546C4.16282 12.3648 4 11.9717 4 11.5618C4 11.1519 4.16282 10.7588 4.45265 10.469C4.74248 10.1792 5.13557 10.0164 5.54545 10.0164H5.615C5.87077 10.0104 6.11882 9.92759 6.32691 9.77876C6.535 9.62992 6.69351 9.42193 6.78182 9.18182C6.88468 8.94875 6.91536 8.69021 6.86991 8.43955C6.82446 8.18888 6.70496 7.95757 6.52682 7.77545L6.48045 7.72909C6.33676 7.58556 6.22277 7.41511 6.145 7.2275C6.06722 7.03988 6.02719 6.83878 6.02719 6.63568C6.02719 6.43259 6.06722 6.23148 6.145 6.04386C6.22277 5.85625 6.33676 5.6858 6.48045 5.54227C6.62399 5.39858 6.79443 5.28459 6.98205 5.20682C7.16966 5.12904 7.37077 5.08901 7.57386 5.08901C7.77696 5.08901 7.97807 5.12904 8.16568 5.20682C8.3533 5.28459 8.52374 5.39858 8.66727 5.54227L8.71364 5.58864C8.89575 5.76678 9.12706 5.88628 9.37773 5.93173C9.6284 5.97718 9.88693 5.9465 10.12 5.84364H10.1818C10.4104 5.74568 10.6053 5.58304 10.7426 5.37572C10.8799 5.16841 10.9536 4.92547 10.9545 4.67682V4.54545C10.9545 4.13557 11.1174 3.74248 11.4072 3.45265C11.697 3.16282 12.0901 3 12.5 3C12.9099 3 13.303 3.16282 13.5928 3.45265C13.8826 3.74248 14.0455 4.13557 14.0455 4.54545V4.615C14.0464 4.86365 14.1201 5.10659 14.2574 5.31391C14.3947 5.52122 14.5896 5.68386 14.8182 5.78182C15.0512 5.88468 15.3098 5.91536 15.5605 5.86991C15.8111 5.82446 16.0424 5.70496 16.2245 5.52682L16.2709 5.48045C16.4144 5.33676 16.5849 5.22277 16.7725 5.145C16.9601 5.06722 17.1612 5.02719 17.3643 5.02719C17.5674 5.02719 17.7685 5.06722 17.9561 5.145C18.1437 5.22277 18.3142 5.33676 18.4577 5.48045C18.6014 5.62399 18.7154 5.79443 18.7932 5.98205C18.871 6.16966 18.911 6.37077 18.911 6.57386C18.911 6.77696 18.871 6.97807 18.7932 7.16568C18.7154 7.3533 18.6014 7.52374 18.4577 7.66727L18.4114 7.71364C18.2332 7.89575 18.1137 8.12706 18.0683 8.37773C18.0228 8.6284 18.0535 8.88693 18.1564 9.12V9.18182C18.2543 9.41037 18.417 9.60529 18.6243 9.74258C18.8316 9.87988 19.0745 9.95355 19.3232 9.95455H19.4545C19.8644 9.95455 20.2575 10.1174 20.5473 10.4072C20.8372 10.697 21 11.0901 21 11.5C21 11.9099 20.8372 12.303 20.5473 12.5928C20.2575 12.8826 19.8644 13.0455 19.4545 13.0455H19.385C19.1363 13.0464 18.8934 13.1201 18.6861 13.2574C18.4788 13.3947 18.3161 13.5896 18.2182 13.8182V13.8182Z" stroke="black" stroke-width="1.2" stroke-linecap="round" stroke-linejoin="round"/>
</svg>
