<svg width="164" height="182" viewBox="0 0 164 182" fill="none" xmlns="http://www.w3.org/2000/svg">
<path d="M162.67 1.98047H2.17993V180.37H162.67V1.98047Z" fill="#FEBED6" stroke="black" stroke-width="2.5" stroke-linecap="round" stroke-linejoin="round"/>
<path d="M147.76 17.0801H16.48V142.98H147.76V17.0801Z" fill="#5AB978" stroke="black" stroke-width="2.5" stroke-miterlimit="10"/>
<path d="M95.4099 120.79H52.8199L47.9198 115.92L44.2499 120.79H21.3199C21.3199 120.79 20.3199 103.93 24.3199 100.09C28.3199 96.2504 33.5499 96.3804 35.6499 92.9704C40.1999 85.5904 36.2199 81.6104 40.1199 75.4704C44.0199 69.3304 47.1199 71.6004 50.5399 68.9904C52.6299 67.3704 55.3799 60.9204 56.9099 56.9004" fill="white"/>
<path d="M95.4099 120.79H52.8199L47.9198 115.92L44.2499 120.79H21.3199C21.3199 120.79 20.3199 103.93 24.3199 100.09C28.3199 96.2504 33.5499 96.3804 35.6499 92.9704C40.1999 85.5904 36.2199 81.6104 40.1199 75.4704C44.0199 69.3304 47.1199 71.6004 50.5399 68.9904C52.6299 67.3704 55.3799 60.9204 56.9099 56.9004" stroke="black" stroke-width="2.5" stroke-linecap="round" stroke-linejoin="round"/>
<path d="M79.1399 37.7109C85.1328 37.7102 90.9818 39.5477 95.8976 42.9757C100.813 46.4037 104.559 51.257 106.63 56.8809H106.56C108.09 60.8809 110.84 67.3509 112.94 68.9709C116.32 71.5809 119.46 69.3109 123.36 75.4509C127.26 81.5909 123.27 85.5709 127.83 92.9509C129.92 96.3609 135.21 96.2109 139.15 100.071C143.09 103.931 142.15 120.771 142.15 120.771H77.8699" fill="white"/>
<path d="M79.1399 37.7109C85.1328 37.7102 90.9818 39.5477 95.8976 42.9757C100.813 46.4037 104.559 51.257 106.63 56.8809H106.56C108.09 60.8809 110.84 67.3509 112.94 68.9709C116.32 71.5809 119.46 69.3109 123.36 75.4509C127.26 81.5909 123.27 85.5709 127.83 92.9509C129.92 96.3609 135.21 96.2109 139.15 100.071C143.09 103.931 142.15 120.771 142.15 120.771H77.8699" stroke="black" stroke-width="2.5" stroke-linecap="round" stroke-linejoin="round"/>
<path d="M49.0999 56.9109C51.1692 51.2799 54.9167 46.4194 59.8363 42.9859C64.7559 39.5524 70.6106 37.7112 76.6099 37.7109H79.1399" fill="#FD674F"/>
<path d="M49.0999 56.9109C51.1692 51.2799 54.9167 46.4194 59.8363 42.9859C64.7559 39.5524 70.6106 37.7112 76.6099 37.7109H79.1399" stroke="black" stroke-width="2.5" stroke-linecap="round" stroke-linejoin="round"/>
<path d="M134.6 141.871C123.318 131.281 108.958 124.556 93.6001 122.671C92.4435 123.861 91.0599 124.807 89.5312 125.453C88.0024 126.099 86.3597 126.432 84.7 126.432C83.0404 126.432 81.3976 126.099 79.8689 125.453C78.3402 124.807 76.9566 123.861 75.8 122.671C60.4417 124.556 46.0819 131.281 34.8 141.871" fill="black"/>
<path d="M101.17 100.69V123.53C101.28 125.765 100.935 128 100.155 130.097C99.3758 132.195 98.1782 134.113 96.6352 135.733C95.0922 137.354 93.2359 138.645 91.1791 139.526C89.1223 140.408 86.9078 140.863 84.6699 140.863C82.432 140.863 80.2175 140.408 78.1607 139.526C76.1039 138.645 74.2476 137.354 72.7046 135.733C71.1616 134.113 69.964 132.195 69.1845 130.097C68.405 128 68.0598 125.765 68.1699 123.53V99.5303" fill="#FFD8D4"/>
<path d="M101.17 100.69V123.53C101.28 125.765 100.935 128 100.155 130.097C99.3758 132.195 98.1782 134.113 96.6352 135.733C95.0922 137.354 93.2359 138.645 91.1791 139.526C89.1223 140.408 86.9078 140.863 84.6699 140.863C82.432 140.863 80.2175 140.408 78.1607 139.526C76.1039 138.645 74.2476 137.354 72.7046 135.733C71.1616 134.113 69.964 132.195 69.1845 130.097C68.405 128 68.0598 125.765 68.1699 123.53V99.5303" stroke="black" stroke-width="2.5" stroke-linecap="round" stroke-linejoin="round"/>
<path d="M78.96 37.7109H76.71C60.4563 37.7109 47.28 50.8872 47.28 67.1409V81.5609C47.28 97.8147 60.4563 110.991 76.71 110.991H78.96C95.2138 110.991 108.39 97.8147 108.39 81.5609V67.1409C108.39 50.8872 95.2138 37.7109 78.96 37.7109Z" fill="#FFD8D4" stroke="black" stroke-width="2.5" stroke-linecap="round" stroke-linejoin="round"/>
<path d="M72.3 77.2803L71.27 89.4203L76.41 89.5403" stroke="black" stroke-width="2.5" stroke-linecap="round" stroke-linejoin="round"/>
<path d="M86.79 78.5307C87.646 78.5307 88.34 77.8367 88.34 76.9807C88.34 76.1246 87.646 75.4307 86.79 75.4307C85.934 75.4307 85.24 76.1246 85.24 76.9807C85.24 77.8367 85.934 78.5307 86.79 78.5307Z" fill="black"/>
<path d="M62.6398 78.5307C63.4959 78.5307 64.1898 77.8367 64.1898 76.9807C64.1898 76.1246 63.4959 75.4307 62.6398 75.4307C61.7838 75.4307 61.0898 76.1246 61.0898 76.9807C61.0898 77.8367 61.7838 78.5307 62.6398 78.5307Z" fill="black"/>
<path d="M92.5699 70.7809C91.4674 69.8287 90.1614 69.1416 88.7521 68.7724C87.3429 68.4032 85.8678 68.3616 84.4399 68.6509" stroke="black" stroke-width="2.5" stroke-linecap="round" stroke-linejoin="round"/>
<path d="M58.1699 70.7801C59.894 69.2792 62.1041 68.4548 64.3899 68.4601C65.0315 68.4569 65.6716 68.5206 66.2999 68.6501" stroke="black" stroke-width="2.5" stroke-linecap="round" stroke-linejoin="round"/>
<path d="M79.48 98.0908C78.306 99.251 76.7623 99.9624 75.1177 100.101C73.473 100.24 71.8318 99.7977 70.48 98.8508" stroke="black" stroke-width="2.5" stroke-linecap="round" stroke-linejoin="round"/>
<path d="M103 76.8403C103.477 75.6103 104.309 74.5496 105.389 73.7922C106.47 73.0349 107.75 72.615 109.07 72.5856C110.389 72.5563 111.687 72.9188 112.8 73.6273C113.913 74.3358 114.791 75.3585 115.322 76.5661C115.854 77.7736 116.016 79.1117 115.787 80.4111C115.558 81.7104 114.949 82.9128 114.037 83.8659C113.124 84.8191 111.95 85.4803 110.662 85.7659C109.374 86.0515 108.03 85.9486 106.8 85.4703" fill="#FFD8D4"/>
<path d="M103 76.8403C103.477 75.6103 104.309 74.5496 105.389 73.7922C106.47 73.0349 107.75 72.615 109.07 72.5856C110.389 72.5563 111.687 72.9188 112.8 73.6273C113.913 74.3358 114.791 75.3585 115.322 76.5661C115.854 77.7736 116.016 79.1117 115.787 80.4111C115.558 81.7104 114.949 82.9128 114.037 83.8659C113.124 84.8191 111.95 85.4803 110.662 85.7659C109.374 86.0515 108.03 85.9486 106.8 85.4703" stroke="black" stroke-width="2.5" stroke-linecap="round" stroke-linejoin="round"/>
<path d="M57.57 46.18C60.51 49.47 62.18 51.18 66.57 51.6C67.6946 51.5984 68.8144 51.7463 69.9 52.04C71.71 52.75 85.21 50.67 86.59 52.04C91.5 56.93 87.73 57.33 93.91 60.47C96.77 61.93 98.71 64.67 101.03 66.89C103.35 69.11 106.32 70.73 109.22 69.98V67C109.221 63.1541 108.465 59.3456 106.994 55.792C105.523 52.2384 103.367 49.0094 100.648 46.2895C97.9286 43.5695 94.7003 41.4119 91.1472 39.9398C87.5942 38.4677 83.7859 37.71 79.94 37.71H77.4C69.876 37.6945 62.6376 40.5899 57.2 45.79L57.57 46.18Z" fill="white" stroke="black" stroke-width="2.5" stroke-linecap="round" stroke-linejoin="round"/>
<path d="M98.92 46.18C95.98 49.47 94.31 51.18 89.92 51.6C88.7955 51.5989 87.6757 51.7469 86.59 52.04C84.78 52.75 83.86 54.71 82.48 56.04C77.57 60.94 68.77 57.29 62.59 60.43C59.72 61.89 57.78 64.63 55.46 66.85C53.14 69.07 50.17 70.73 47.28 70V67C47.2787 63.154 48.0351 59.3455 49.506 55.792C50.9768 52.2384 53.1334 49.0094 55.8524 46.2894C58.5714 43.5695 61.7997 41.4118 65.3528 39.9398C68.9058 38.4677 72.7141 37.71 76.56 37.71H79.1C86.623 37.6997 93.8595 40.5943 99.3 45.79L98.92 46.18Z" fill="white" stroke="black" stroke-width="2.5" stroke-linecap="round" stroke-linejoin="round"/>
</svg>
