<svg width="132" height="36" viewBox="0 0 132 36" fill="none" xmlns="http://www.w3.org/2000/svg">
<path d="M29.397 22.7968C28.5403 22.7968 27.739 23.1811 27.214 23.7575L19.7807 19.6676C19.753 19.6401 19.7254 19.6401 19.6978 19.6127C19.2833 19.3931 18.7859 19.2559 18.2885 19.2559C18.0398 19.2559 17.7911 19.2833 17.5424 19.3382C17.2937 19.3931 17.045 19.5029 16.7963 19.6401C15.912 20.1617 15.3041 21.0949 15.3041 22.1929V30.208C14.5027 30.4002 13.8396 30.9217 13.4527 31.6354C13.204 32.0471 13.0935 32.5412 13.0935 33.0628C13.0935 34.6823 14.4198 35.9998 16.0502 35.9998C17.6805 35.9998 19.0069 34.6823 19.0069 33.0628C19.0069 32.5412 18.8688 32.0471 18.6201 31.6354C18.2332 30.9492 17.57 30.4276 16.7687 30.208V22.138C16.7687 21.3145 17.4318 20.6558 18.2608 20.6558C18.5095 20.6558 18.7582 20.7107 18.9793 20.8205L21.2452 22.0557L26.5231 24.9927C26.4679 25.2398 26.4402 25.4868 26.4402 25.7338C26.4402 26.2554 26.5784 26.7495 26.8271 27.1612C27.3245 28.067 28.2916 28.6709 29.4246 28.6709C31.0549 28.6709 32.3813 27.3533 32.3813 25.7338C32.3537 24.1143 31.0273 22.7968 29.397 22.7968ZM17.3489 32.3765C17.4595 32.5961 17.5424 32.8432 17.5424 33.0902C17.5424 33.9137 16.8792 34.5725 16.0502 34.5725C15.2212 34.5725 14.558 33.9137 14.558 33.0902C14.558 32.8432 14.6133 32.5961 14.7514 32.3765C15.0001 31.9373 15.4975 31.608 16.0502 31.608C16.6305 31.608 17.1003 31.9373 17.3489 32.3765ZM29.397 27.2161C28.8443 27.2161 28.3745 26.9142 28.0982 26.475C27.9877 26.2554 27.9048 26.0083 27.9048 25.7613C27.9048 25.7338 27.9048 25.7064 27.9048 25.6789C27.9324 25.2123 28.1811 24.828 28.5127 24.581C28.7614 24.4163 29.0654 24.3065 29.3693 24.3065C30.1983 24.3065 30.8615 24.9653 30.8615 25.7887C30.8615 26.5573 30.1983 27.2161 29.397 27.2161Z" fill="#FAFAFA"/>
<path d="M32.3546 11.0212C32.3546 9.40171 31.0283 8.08415 29.3979 8.08415C28.2926 8.08415 27.3254 8.68803 26.8004 9.59385C26.5517 10.0056 26.4135 10.4997 26.4135 11.0212C26.4135 11.2682 26.4412 11.5153 26.4964 11.7623L21.2461 14.6719L18.9802 15.9072C18.7868 16.0169 18.5381 16.0993 18.2894 16.0993C17.4604 16.0993 16.7972 15.4405 16.7972 14.617V6.51955C17.5986 6.32741 18.2618 5.80587 18.6486 5.09219C18.8973 4.68046 19.0355 4.18637 19.0355 3.66484C19.0355 2.04534 17.7091 0.727783 16.0788 0.727783C14.4484 0.727783 13.122 2.04534 13.122 3.66484C13.122 4.18637 13.2602 4.68046 13.4813 5.09219C13.8681 5.77842 14.5313 6.29996 15.3327 6.51955V14.5347C15.3327 15.6327 15.9406 16.5659 16.8249 17.0875C17.0459 17.2247 17.2946 17.3071 17.5709 17.3894C17.8196 17.4443 18.0683 17.4718 18.317 17.4718C18.8144 17.4718 19.3118 17.3345 19.7263 17.1149C19.754 17.0875 19.7816 17.0875 19.8092 17.06L27.2149 12.9701C27.7675 13.574 28.5413 13.9308 29.3979 13.9308C31.0283 13.9857 32.3546 12.6407 32.3546 11.0212ZM16.0788 5.14709C15.5261 5.14709 15.0287 4.84515 14.78 4.37852C14.6695 4.15892 14.5866 3.91188 14.5866 3.66484C14.5866 2.84137 15.2498 2.18259 16.0788 2.18259C16.9078 2.18259 17.5709 2.84137 17.5709 3.66484C17.5709 3.91188 17.5157 4.15892 17.3775 4.37852C17.1012 4.84515 16.6314 5.14709 16.0788 5.14709ZM30.8625 11.0212C30.8625 11.8447 30.1993 12.5035 29.3703 12.5035C29.0387 12.5035 28.7623 12.3937 28.5136 12.229C28.1544 11.9819 27.9333 11.5702 27.9057 11.131C27.9057 11.1036 27.9057 11.0761 27.9057 11.0487C27.9057 10.7742 27.961 10.5271 28.0991 10.335C28.3478 9.89579 28.8452 9.59385 29.3979 9.59385C30.1993 9.5664 30.8625 10.2252 30.8625 11.0212Z" fill="#FAFAFA"/>
<path d="M1.48839 7.97332C0.0791012 8.76934 -0.418294 10.581 0.383065 11.9809C0.935726 12.9416 1.95815 13.4631 2.98057 13.4631C3.47797 13.4631 3.97536 13.3259 4.41749 13.0789C4.63856 12.9416 4.83199 12.8044 5.02542 12.6397L10.1928 15.7414L12.4034 17.059C12.5969 17.1962 12.7903 17.3609 12.9008 17.5805C13.3153 18.2942 13.0666 19.2 12.3482 19.5843L5.27412 23.6193C4.69382 23.0429 3.9201 22.7135 3.11874 22.7409C2.62134 22.7409 2.15158 22.8782 1.68182 23.1252C0.272533 23.9212 -0.224862 25.7329 0.576496 27.1328C1.37785 28.5327 3.20164 29.0268 4.61092 28.2307C5.05305 27.9837 5.41228 27.6269 5.68861 27.1877C6.10311 26.5015 6.24127 25.678 6.02021 24.882L13.039 20.9018C13.9785 20.3529 14.5312 19.3647 14.5312 18.3491C14.5312 18.0746 14.5036 17.8275 14.4207 17.5805C14.3654 17.3335 14.2549 17.1139 14.1443 16.8943C13.8956 16.4551 13.5364 16.0983 13.1219 15.8512C13.0943 15.8238 13.0666 15.8238 13.039 15.7963L5.77151 11.4319C6.02021 10.6633 5.96494 9.81241 5.52281 9.07128C4.72145 7.64393 2.92531 7.14985 1.48839 7.97332ZM4.44512 24.9369C4.72145 25.4309 4.69382 25.9799 4.41749 26.4191C4.27933 26.6387 4.11353 26.8034 3.89246 26.9406C3.174 27.3524 2.28975 27.1053 1.87525 26.3917C1.46075 25.678 1.70945 24.7996 2.42791 24.3879C2.64898 24.2506 2.89767 24.1957 3.14637 24.1957C3.64376 24.1957 4.16879 24.4428 4.44512 24.9369ZM2.23448 9.23598C2.95294 8.82424 3.8372 9.07128 4.25169 9.78496C4.41749 10.0595 4.47276 10.3614 4.44512 10.6633C4.38986 11.1025 4.16879 11.4868 3.78193 11.7338C3.7543 11.7613 3.72666 11.7613 3.69903 11.7887C3.47797 11.926 3.22927 11.9809 2.98057 11.9809C2.45554 11.9809 1.95815 11.7064 1.68182 11.2398C1.26732 10.5535 1.51602 9.64772 2.23448 9.23598Z" fill="#FAFAFA"/>
<path d="M45.7623 16.6757V24.6639C45.7623 25.3233 46.2219 25.7544 46.9367 25.7544H49.5407V27.352H46.8346C45.1496 27.352 44.0774 26.2869 44.0774 24.6132V16.6757H41.116V15.2048H44.0774V10.8176H45.7623V15.1795H49.5407V16.6503H45.7623V16.6757Z" fill="#FAFAFA"/>
<path d="M59.0383 15.1785V16.8776H57.1491C55.311 16.8776 54.0856 18.4752 54.0856 20.9351V27.3003H52.4006V15.1785H53.7792L54.0856 17.3087C54.443 16.0407 55.6684 15.1785 57.2512 15.1785H59.0383Z" fill="#FAFAFA"/>
<path d="M72.2367 21.9258H62.2036C62.4589 24.4871 64.1183 26.1355 66.5691 26.1355C68.4328 26.1355 70.0412 24.9943 70.5773 23.3206L71.9303 23.9292C71.1645 26.1355 68.9944 27.6317 66.5436 27.6317C62.8929 27.6317 60.4676 25.0704 60.4676 21.2918C60.4676 17.5132 62.8674 14.9773 66.467 14.9773C69.9135 14.9773 72.2112 17.3864 72.2112 21.0129V21.9258H72.2367ZM62.2036 20.7593H70.5773C70.5007 18.0965 68.9434 16.3974 66.467 16.3974C64.0417 16.3974 62.3823 18.0965 62.2036 20.7593Z" fill="#FAFAFA"/>
<path d="M86.8402 21.265C86.8402 25.0435 84.6191 27.6048 81.2237 27.6048C79.3855 27.6048 77.7006 26.5905 77.0879 25.1196H77.0624L76.756 27.3259H75.3774V9.16846H77.0624V17.4103H77.0879C77.7261 15.9395 79.3855 14.9504 81.2237 14.9504C84.6191 14.9504 86.8402 17.4864 86.8402 21.265ZM85.1041 21.265C85.1041 18.374 83.4703 16.472 81.045 16.472C78.6707 16.472 77.0879 18.374 77.0879 21.265C77.0879 24.1559 78.6707 26.0833 81.045 26.0833C83.4447 26.0833 85.1041 24.1559 85.1041 21.265Z" fill="#FAFAFA"/>
<path d="M92.6348 27.3512C90.9243 27.3512 89.8521 26.2861 89.8521 24.6124V9.16846H91.537V24.6631C91.537 25.2971 91.971 25.7282 92.6348 25.7282H94.7792V27.3512H92.6348Z" fill="#FAFAFA"/>
<path d="M108.206 21.9258H98.173C98.4283 24.4871 100.088 26.1355 102.539 26.1355C104.402 26.1355 106.011 24.9943 106.547 23.3206L107.9 23.9292C107.134 26.1355 104.964 27.6317 102.513 27.6317C98.8623 27.6317 96.437 25.0704 96.437 21.2918C96.437 17.5132 98.8368 14.9773 102.436 14.9773C105.883 14.9773 108.181 17.3864 108.181 21.0129V21.9258H108.206ZM98.173 20.7593H106.572C106.496 18.0965 104.938 16.3974 102.462 16.3974C100.037 16.3974 98.3517 18.0965 98.173 20.7593Z" fill="#FAFAFA"/>
<path d="M127.124 25.7789V27.3258H126.18C124.98 27.3258 124.239 26.5904 124.163 25.4999C123.269 26.7933 121.712 27.6048 119.746 27.6048C117.168 27.6048 115.483 26.2607 115.483 24.1305C115.483 22.4314 116.887 21.1127 119.108 20.7831L123.218 20.1237C123.805 20.0223 124.188 19.5912 124.188 19.0079C124.188 17.461 122.912 16.3198 121.125 16.3198C119.21 16.3198 117.729 17.461 117.525 19.0333L116.019 18.7036C116.402 16.3705 118.393 14.8997 121.125 14.8997C124.061 14.8997 125.899 16.548 125.899 19.084V25.0181C125.899 25.4746 126.18 25.7535 126.614 25.7535H127.124V25.7789ZM124.163 22.2793V21.2649L119.593 21.975C118.138 22.1778 117.193 23.0401 117.193 24.1052C117.193 25.3731 118.317 26.2354 120.002 26.2354C122.503 26.2354 124.163 24.6631 124.163 22.2793Z" fill="#FAFAFA"/>
<path d="M131.567 15.1785H129.882V27.3257H131.567V15.1785Z" fill="#FAFAFA"/>
<path d="M112.981 26.1354C112.981 26.8708 112.47 27.3527 111.704 27.3527C110.938 27.3527 110.428 26.8708 110.428 26.1354C110.428 25.4 110.938 24.8928 111.704 24.8928C112.47 24.8928 112.981 25.4 112.981 26.1354Z" fill="#FAFAFA"/>
<path d="M132 10.6406C132 11.376 131.489 11.8578 130.723 11.8578C129.957 11.8578 129.447 11.376 129.447 10.6406C129.447 9.90514 129.957 9.39795 130.723 9.39795C131.489 9.39795 132 9.90514 132 10.6406Z" fill="#FAFAFA"/>
</svg>
