<svg width="156" height="40" viewBox="0 0 156 40" fill="none" xmlns="http://www.w3.org/2000/svg">
<path d="M33.038 25.0273C32.0752 25.0273 31.1746 25.4631 30.5846 26.1168L22.2307 21.4786C22.1997 21.4475 22.1686 21.4475 22.1375 21.4164C21.6717 21.1674 21.1127 21.0117 20.5537 21.0117C20.2742 21.0117 19.9947 21.0428 19.7152 21.1051C19.4357 21.1674 19.1562 21.2919 18.8767 21.4475C17.883 22.039 17.1998 23.0973 17.1998 24.3425V33.432C16.2992 33.6499 15.5538 34.2413 15.1191 35.0506C14.8396 35.5176 14.7153 36.0779 14.7153 36.6693C14.7153 38.5059 16.206 40 18.0382 40C19.8705 40 21.3612 38.5059 21.3612 36.6693C21.3612 36.0779 21.2059 35.5176 20.9264 35.0506C20.4916 34.2724 19.7463 33.681 18.8457 33.432V24.2802C18.8457 23.3463 19.591 22.5993 20.5227 22.5993C20.8022 22.5993 21.0817 22.6615 21.3301 22.786L23.8766 24.1868L29.8082 27.5176C29.7461 27.7977 29.715 28.0779 29.715 28.358C29.715 28.9495 29.8703 29.5098 30.1498 29.9767C30.7088 31.0039 31.7957 31.6888 33.069 31.6888C34.9013 31.6888 36.3919 30.1946 36.3919 28.358C36.3609 26.5214 34.8702 25.0273 33.038 25.0273ZM19.4978 35.8911C19.6221 36.1401 19.7152 36.4203 19.7152 36.7004C19.7152 37.6343 18.9699 38.3814 18.0382 38.3814C17.1066 38.3814 16.3613 37.6343 16.3613 36.7004C16.3613 36.4203 16.4234 36.1401 16.5786 35.8911C16.8581 35.393 17.4171 35.0195 18.0382 35.0195C18.6904 35.0195 19.2183 35.393 19.4978 35.8911ZM33.038 30.039C32.4168 30.039 31.8889 29.6965 31.5784 29.1985C31.4541 28.9495 31.361 28.6693 31.361 28.3891C31.361 28.358 31.361 28.3269 31.361 28.2958C31.392 27.7666 31.6715 27.3308 32.0442 27.0506C32.3237 26.8639 32.6653 26.7393 33.0069 26.7393C33.9386 26.7393 34.6839 27.4864 34.6839 28.4203C34.6839 29.2919 33.9386 30.039 33.038 30.039Z" fill="#1A1A1A"/>
<path d="M36.3615 11.6732C36.3615 9.83658 34.8709 8.34241 33.0386 8.34241C31.7964 8.34241 30.7095 9.02724 30.1194 10.0545C29.8399 10.5214 29.6847 11.0817 29.6847 11.6732C29.6847 11.9533 29.7157 12.2335 29.7778 12.5136L23.8773 15.8132L21.3308 17.214C21.1134 17.3385 20.8339 17.4319 20.5544 17.4319C19.6227 17.4319 18.8774 16.6848 18.8774 15.751V6.56809C19.778 6.3502 20.5234 5.75876 20.9581 4.94942C21.2376 4.48249 21.3929 3.92218 21.3929 3.33074C21.3929 1.49416 19.9022 0 18.07 0C16.2377 0 14.7471 1.49416 14.7471 3.33074C14.7471 3.92218 14.9023 4.48249 15.1508 4.94942C15.5856 5.72763 16.3309 6.31907 17.2315 6.56809V15.6576C17.2315 16.9027 17.9147 17.9611 18.9085 18.5525C19.1569 18.7082 19.4364 18.8016 19.747 18.8949C20.0265 18.9572 20.306 18.9883 20.5855 18.9883C21.1445 18.9883 21.7035 18.8327 22.1693 18.5837C22.2003 18.5525 22.2314 18.5525 22.2624 18.5214L30.5853 13.8833C31.2064 14.5681 32.0759 14.9728 33.0386 14.9728C34.8709 15.035 36.3615 13.5097 36.3615 11.6732ZM18.07 5.01167C17.4489 5.01167 16.8899 4.66926 16.6104 4.14008C16.4862 3.89105 16.393 3.6109 16.393 3.33074C16.393 2.39689 17.1383 1.64981 18.07 1.64981C19.0016 1.64981 19.747 2.39689 19.747 3.33074C19.747 3.6109 19.6849 3.89105 19.5296 4.14008C19.219 4.66926 18.6911 5.01167 18.07 5.01167ZM34.6846 11.6732C34.6846 12.607 33.9392 13.3541 33.0076 13.3541C32.6349 13.3541 32.3244 13.2296 32.0449 13.0428C31.6411 12.7626 31.3927 12.2957 31.3616 11.7977C31.3616 11.7665 31.3616 11.7354 31.3616 11.7043C31.3616 11.393 31.4238 11.1128 31.579 10.8949C31.8585 10.3969 32.4175 10.0545 33.0386 10.0545C33.9392 10.0233 34.6846 10.7704 34.6846 11.6732Z" fill="#1A1A1A"/>
<path d="M1.67272 8.21767C0.0888976 9.12039 -0.470098 11.1749 0.430506 12.7624C1.05161 13.8519 2.20066 14.4434 3.3497 14.4434C3.9087 14.4434 4.46769 14.2877 4.96458 14.0076C5.21302 13.8519 5.43041 13.6963 5.64779 13.5095L11.4551 17.027L13.9396 18.5212C14.1569 18.6768 14.3743 18.8636 14.4985 19.1126C14.9644 19.922 14.6849 20.9492 13.8774 21.385L5.92729 25.9609C5.27513 25.3072 4.40558 24.9336 3.50498 24.9648C2.94598 24.9648 2.41804 25.1204 1.8901 25.4005C0.306284 26.3033 -0.252711 28.3577 0.647893 29.9453C1.5485 31.5328 3.59814 32.0932 5.18196 31.1904C5.67885 30.9103 6.08257 30.5056 6.39312 30.0076C6.85895 29.2293 7.01423 28.2955 6.76578 27.3928L14.6538 22.8791C15.7097 22.2566 16.3308 21.136 16.3308 19.9842C16.3308 19.6729 16.2998 19.3928 16.2066 19.1126C16.1445 18.8325 16.0203 18.5834 15.896 18.3344C15.6165 17.8363 15.2128 17.4317 14.747 17.1515C14.7159 17.1204 14.6849 17.1204 14.6538 17.0893L6.48629 12.1398C6.76578 11.2683 6.70367 10.3033 6.20679 9.46281C5.30619 7.84413 3.28759 7.28382 1.67272 8.21767ZM4.99563 27.455C5.30619 28.0153 5.27513 28.6379 4.96458 29.136C4.8093 29.385 4.62297 29.5718 4.37453 29.7274C3.56709 30.1943 2.57332 29.9142 2.10749 29.1048C1.64166 28.2955 1.92116 27.2994 2.7286 26.8325C2.97704 26.6768 3.25654 26.6146 3.53603 26.6146C4.09503 26.6146 4.68508 26.8947 4.99563 27.455ZM2.51121 9.64958C3.31865 9.18265 4.31242 9.46281 4.77824 10.2721C4.96458 10.5834 5.02669 10.9258 4.99563 11.2683C4.93352 11.7663 4.68508 12.2021 4.25031 12.4823C4.21925 12.5134 4.18819 12.5134 4.15714 12.5445C3.9087 12.7002 3.6292 12.7624 3.3497 12.7624C2.75965 12.7624 2.20066 12.4511 1.8901 11.9219C1.42427 11.1437 1.70377 10.1165 2.51121 9.64958Z" fill="#1A1A1A"/>
<path d="M50.864 18.2141V28.0196C50.864 28.8289 51.423 29.3581 52.2925 29.3581H55.4602V31.3192H52.1683C50.1186 31.3192 48.8143 30.0118 48.8143 27.9573V18.2141H45.2119V16.4087H48.8143V11.0234H50.864V16.3775H55.4602V18.183H50.864V18.2141Z" fill="#1A1A1A"/>
<path d="M67.0128 16.3779V18.4635H64.7148C62.4788 18.4635 60.9881 20.4246 60.9881 23.4441V31.2573H58.9385V16.3779H60.6155L60.9881 18.9927C61.4229 17.4363 62.9136 16.3779 64.839 16.3779H67.0128Z" fill="#1A1A1A"/>
<path d="M83.0684 24.6581H70.8637C71.1743 27.8021 73.1929 29.8254 76.1742 29.8254C78.4412 29.8254 80.3977 28.4246 81.0498 26.3702L82.6958 27.1172C81.7641 29.8254 79.1244 31.662 76.1431 31.662C71.7022 31.662 68.752 28.518 68.752 23.8799C68.752 19.2417 71.6711 16.1289 76.0499 16.1289C80.2424 16.1289 83.0374 19.0861 83.0374 23.5375V24.6581H83.0684ZM70.8637 23.2262H81.0498C80.9567 19.9577 79.0623 17.8721 76.0499 17.8721C73.0997 17.8721 71.0811 19.9577 70.8637 23.2262Z" fill="#1A1A1A"/>
<path d="M100.833 23.8483C100.833 28.4864 98.1307 31.6304 94.0003 31.6304C91.7644 31.6304 89.7147 30.3852 88.9694 28.5798H88.9383L88.5657 31.2879H86.8887V9H88.9383V19.1167H88.9694C89.7458 17.3113 91.7644 16.0973 94.0003 16.0973C98.1307 16.0973 100.833 19.2101 100.833 23.8483ZM98.7207 23.8483C98.7207 20.2996 96.7332 17.965 93.7829 17.965C90.8948 17.965 88.9694 20.2996 88.9694 23.8483C88.9694 27.3969 90.8948 29.7626 93.7829 29.7626C96.7021 29.7626 98.7207 27.3969 98.7207 23.8483Z" fill="#1A1A1A"/>
<path d="M107.882 31.3191C105.801 31.3191 104.497 30.0117 104.497 27.9572V9H106.547V28.0195C106.547 28.7977 107.075 29.3269 107.882 29.3269H110.491V31.3191H107.882Z" fill="#1A1A1A"/>
<path d="M126.825 24.6581H114.621C114.931 27.8021 116.95 29.8254 119.931 29.8254C122.198 29.8254 124.155 28.4246 124.807 26.3702L126.453 27.1172C125.521 29.8254 122.881 31.662 119.9 31.662C115.459 31.662 112.509 28.518 112.509 23.8799C112.509 19.2417 115.428 16.1289 119.807 16.1289C123.999 16.1289 126.794 19.0861 126.794 23.5375V24.6581H126.825ZM114.621 23.2262H124.838C124.745 19.9577 122.85 17.8721 119.838 17.8721C116.888 17.8721 114.838 19.9577 114.621 23.2262Z" fill="#1A1A1A"/>
<path d="M149.837 29.3892V31.2881H148.688C147.228 31.2881 146.328 30.3853 146.235 29.0468C145.148 30.6344 143.253 31.6305 140.862 31.6305C137.725 31.6305 135.676 29.9807 135.676 27.3659C135.676 25.2803 137.384 23.6616 140.086 23.2569L145.086 22.4476C145.8 22.3231 146.266 21.7939 146.266 21.078C146.266 19.1791 144.713 17.7783 142.539 17.7783C140.21 17.7783 138.409 19.1791 138.16 21.1091L136.328 20.7044C136.794 17.8406 139.216 16.0352 142.539 16.0352C146.11 16.0352 148.346 18.0585 148.346 21.1713V28.4554C148.346 29.0157 148.688 29.3581 149.216 29.3581H149.837V29.3892ZM146.235 25.0935V23.8484L140.676 24.72C138.906 24.969 137.756 26.0274 137.756 27.3348C137.756 28.8912 139.123 29.9496 141.173 29.9496C144.216 29.9496 146.235 28.0196 146.235 25.0935Z" fill="#1A1A1A"/>
<path d="M155.241 16.3779H153.191V31.2884H155.241V16.3779Z" fill="#1A1A1A"/>
<path d="M132.633 29.8251C132.633 30.7278 132.012 31.3193 131.08 31.3193C130.148 31.3193 129.527 30.7278 129.527 29.8251C129.527 28.9224 130.148 28.2998 131.08 28.2998C132.012 28.2998 132.633 28.9224 132.633 29.8251Z" fill="#1A1A1A"/>
<path d="M155.77 10.8056C155.77 11.7083 155.148 12.2997 154.217 12.2997C153.285 12.2997 152.664 11.7083 152.664 10.8056C152.664 9.90284 153.285 9.28027 154.217 9.28027C155.148 9.28027 155.77 9.90284 155.77 10.8056Z" fill="#1A1A1A"/>
</svg>
