<svg width="19" height="20" viewBox="0 0 19 20" fill="none" xmlns="http://www.w3.org/2000/svg">
<path d="M16.6685 12.5117C16.1827 12.5117 15.7283 12.7296 15.4306 13.0565L11.2157 10.7374C11.2 10.7218 11.1844 10.7218 11.1687 10.7062C10.9337 10.5817 10.6516 10.5039 10.3696 10.5039C10.2286 10.5039 10.0875 10.5195 9.94651 10.5506C9.8055 10.5817 9.66448 10.644 9.52346 10.7218C9.02205 11.0175 8.67734 11.5467 8.67734 12.1693V16.7142C8.22294 16.8231 7.84689 17.1188 7.62752 17.5235C7.4865 17.757 7.42383 18.0371 7.42383 18.3329C7.42383 19.2512 8.17593 19.9983 9.1004 19.9983C10.0249 19.9983 10.777 19.2512 10.777 18.3329C10.777 18.0371 10.6986 17.757 10.5576 17.5235C10.3382 17.1344 9.96218 16.8387 9.50779 16.7142V12.1382C9.50779 11.6712 9.88384 11.2977 10.3539 11.2977C10.4949 11.2977 10.6359 11.3288 10.7613 11.3911L12.0461 12.0915L15.0389 13.7569C15.0076 13.897 14.9919 14.0371 14.9919 14.1771C14.9919 14.4729 15.0702 14.753 15.2113 14.9865C15.4933 15.5001 16.0417 15.8425 16.6841 15.8425C17.6086 15.8425 18.3607 15.0954 18.3607 14.1771C18.345 13.2588 17.5929 12.5117 16.6685 12.5117ZM9.83683 17.9438C9.89951 18.0683 9.94651 18.2084 9.94651 18.3484C9.94651 18.8154 9.57046 19.1889 9.1004 19.1889C8.63033 19.1889 8.25428 18.8154 8.25428 18.3484C8.25428 18.2084 8.28562 18.0683 8.36396 17.9438C8.50498 17.6947 8.78702 17.508 9.1004 17.508C9.42944 17.508 9.69581 17.6947 9.83683 17.9438ZM16.6685 15.0176C16.3551 15.0176 16.0887 14.8464 15.932 14.5974C15.8693 14.4729 15.8223 14.3328 15.8223 14.1927C15.8223 14.1771 15.8223 14.1616 15.8223 14.146C15.838 13.8814 15.979 13.6635 16.1671 13.5234C16.3081 13.43 16.4804 13.3678 16.6528 13.3678C17.1229 13.3678 17.4989 13.7413 17.4989 14.2083C17.4989 14.6441 17.1229 15.0176 16.6685 15.0176Z" fill="black"/>
<path d="M18.345 5.83671C18.345 4.9184 17.5929 4.17131 16.6684 4.17131C16.0417 4.17131 15.4933 4.51373 15.1955 5.02736C15.0545 5.26083 14.9762 5.54099 14.9762 5.83671C14.9762 5.9768 14.9918 6.11688 15.0232 6.25696L12.0461 7.9068L10.7613 8.60721C10.6516 8.66947 10.5106 8.71616 10.3695 8.71616C9.89947 8.71616 9.52341 8.34261 9.52341 7.87567V3.28412C9.97781 3.17517 10.3539 2.87945 10.5732 2.47477C10.7142 2.2413 10.7926 1.96114 10.7926 1.66541C10.7926 0.747099 10.0405 0 9.11602 0C8.19156 0 7.43945 0.747099 7.43945 1.66541C7.43945 1.96114 7.5178 2.2413 7.64315 2.47477C7.86251 2.86388 8.23857 3.15961 8.69296 3.28412V7.82898C8.69296 8.45156 9.03768 8.98076 9.53908 9.27648C9.66443 9.35431 9.80545 9.401 9.96214 9.44769C10.1032 9.47882 10.2442 9.49439 10.3852 9.49439C10.6672 9.49439 10.9493 9.41657 11.1843 9.29205C11.2 9.27648 11.2157 9.27648 11.2313 9.26092L15.4306 6.9418C15.744 7.28422 16.1827 7.48656 16.6684 7.48656C17.5929 7.51769 18.345 6.75502 18.345 5.83671ZM9.11602 2.5059C8.80264 2.5059 8.52061 2.33469 8.37959 2.07009C8.31691 1.94557 8.2699 1.80549 8.2699 1.66541C8.2699 1.19847 8.64596 0.824922 9.11602 0.824922C9.58609 0.824922 9.96214 1.19847 9.96214 1.66541C9.96214 1.80549 9.9308 1.94557 9.85246 2.07009C9.69577 2.33469 9.4294 2.5059 9.11602 2.5059ZM17.4989 5.83671C17.4989 6.30365 17.1228 6.6772 16.6527 6.6772C16.4647 6.6772 16.308 6.61494 16.167 6.52156C15.9633 6.38147 15.838 6.14801 15.8223 5.89897C15.8223 5.88341 15.8223 5.86784 15.8223 5.85228C15.8223 5.69663 15.8536 5.55655 15.932 5.4476C16.073 5.19857 16.355 5.02736 16.6684 5.02736C17.1228 5.01179 17.4989 5.38534 17.4989 5.83671Z" fill="black"/>
<path d="M0.843965 4.10884C0.044853 4.56021 -0.237187 5.58747 0.217211 6.38126C0.530588 6.92602 1.11034 7.22175 1.69008 7.22175C1.97212 7.22175 2.25416 7.14393 2.50486 7.00385C2.63022 6.92602 2.7399 6.8482 2.84958 6.75481L5.77966 8.51361L7.03317 9.26071C7.14285 9.33853 7.25253 9.43192 7.31521 9.55643C7.55024 9.96111 7.40922 10.4747 7.00183 10.6926L2.9906 12.9806C2.66155 12.6538 2.22283 12.467 1.76843 12.4826C1.48639 12.4826 1.22002 12.5604 0.953647 12.7005C0.154535 13.1518 -0.127504 14.1791 0.326893 14.9729C0.78129 15.7667 1.81543 16.0468 2.61455 15.5955C2.86525 15.4554 3.06894 15.2531 3.22563 15.004C3.46067 14.6149 3.53901 14.148 3.41366 13.6966L7.39355 11.4397C7.92629 11.1285 8.23967 10.5681 8.23967 9.99224C8.23967 9.83659 8.224 9.69651 8.17699 9.55643C8.14566 9.41635 8.08298 9.29183 8.0203 9.16732C7.87928 8.91829 7.67559 8.71595 7.44056 8.57587C7.42489 8.5603 7.40922 8.5603 7.39355 8.54474L3.27264 6.06997C3.41366 5.63417 3.38232 5.15166 3.13162 4.73142C2.67722 3.92207 1.65875 3.6419 0.843965 4.10884ZM2.52053 13.7277C2.67722 14.0079 2.66155 14.3192 2.50486 14.5682C2.42652 14.6927 2.33251 14.7861 2.20716 14.8639C1.79977 15.0974 1.29836 14.9573 1.06333 14.5527C0.828296 14.148 0.969316 13.6499 1.37671 13.4164C1.50206 13.3386 1.64308 13.3075 1.7841 13.3075C2.06614 13.3075 2.36384 13.4476 2.52053 13.7277ZM1.26702 4.82481C1.67441 4.59134 2.17582 4.73142 2.41085 5.1361C2.50486 5.29175 2.5362 5.46296 2.52053 5.63417C2.4892 5.8832 2.36384 6.1011 2.14448 6.24118C2.12881 6.25675 2.11314 6.25675 2.09747 6.27231C1.97212 6.35013 1.8311 6.38126 1.69008 6.38126C1.39238 6.38126 1.11034 6.22562 0.953647 5.96102C0.718614 5.57191 0.859634 5.05828 1.26702 4.82481Z" fill="black"/>
</svg>
