<svg width="12" height="14" viewBox="0 0 12 14" fill="none" xmlns="http://www.w3.org/2000/svg">
<path d="M2.754 13.736H3.757V12.937H3.128C2.397 12.937 2.023 12.41 2.023 11.577V8.636C2.023 7.905 1.717 7.378 0.952 7.072V6.987C1.785 6.681 2.023 6.069 2.023 5.27V2.108C2.023 1.156 2.448 0.782 3.213 0.782H3.757V0H2.839C1.632 0 1.02 0.748 1.02 2.091V5.253C1.02 6.086 0.646 6.409 0 6.596V7.463C0.629 7.667 1.02 7.973 1.02 8.653V11.611C1.02 12.903 1.632 13.736 2.754 13.736Z" fill="#767676"/>
<path d="M7.61597 13.736H8.61897C9.75797 13.736 10.353 12.886 10.353 11.611V8.653C10.353 7.905 10.829 7.65 11.373 7.463V6.596C10.795 6.426 10.353 6.154 10.353 5.253V2.091C10.353 0.731 9.74097 0 8.53397 0H7.61597V0.782H8.15997C9.12897 0.782 9.34997 1.394 9.34997 2.108V5.27C9.34997 6.205 9.68997 6.715 10.421 6.987V7.072C9.75797 7.344 9.34997 7.803 9.34997 8.636V11.577C9.34997 12.41 8.97597 12.937 8.24497 12.937H7.61597V13.736Z" fill="#767676"/>
</svg>
