<svg width="22" height="22" viewBox="0 0 22 22" fill="none" xmlns="http://www.w3.org/2000/svg">
<path d="M19.8987 5.92113L15.8054 2.48438L14.6576 3.84661L18.7508 7.28337L19.8987 5.92113ZM7.33425 3.84661L6.19527 2.48438L2.10205 5.91223L3.24993 7.27446L7.33425 3.84661ZM11.4453 7.95113H10.1105V13.2932L14.3372 15.8307L15.0046 14.7356L11.4453 12.6255V7.95113ZM11.0004 4.38973C6.5779 4.38973 2.99188 7.97784 2.99188 12.4029C2.99188 16.8279 6.569 20.416 11.0004 20.416C15.4228 20.416 19.0088 16.8279 19.0088 12.4029C19.0088 7.97784 15.4228 4.38973 11.0004 4.38973ZM11.0004 18.6353C7.55671 18.6353 4.77154 15.8485 4.77154 12.4029C4.77154 8.95723 7.55671 6.17043 11.0004 6.17043C14.444 6.17043 17.2292 8.95723 17.2292 12.4029C17.2292 15.8485 14.444 18.6353 11.0004 18.6353Z" fill="#6464FF"/>
</svg>
