<svg width="10" height="8" viewBox="0 0 10 8" fill="none" xmlns="http://www.w3.org/2000/svg">
<path d="M9.76359 3.44076L6.47178 0.243546C6.32209 0.0905737 6.1152 0.00277024 5.89793 6.46977e-05C5.68072 -0.00264518 5.47154 0.0798712 5.31788 0.229047C5.16422 0.378159 5.07898 0.58127 5.08164 0.792233C5.08429 1.0032 5.17448 1.20427 5.33185 1.34973L7.27765 3.23684H0.805979C0.518046 3.23684 0.251951 3.38609 0.107975 3.62828C-0.0359917 3.87048 -0.0359917 4.16883 0.107975 4.41103C0.251942 4.65323 0.518046 4.80247 0.805979 4.80247H7.25962L5.33185 6.67796C5.13675 6.87727 5.06372 7.1614 5.13941 7.42642C5.21509 7.69144 5.4284 7.89842 5.70133 7.97171C5.97419 8.04495 6.26673 7.97374 6.4718 7.78413L9.76361 4.58691C9.91532 4.44044 10.0003 4.24107 9.99958 4.03335C10.0001 4.02684 10.0001 4.02034 9.99958 4.0139C10.0001 4.00747 10.0001 4.00096 9.99958 3.99446C9.99951 3.78688 9.91461 3.58764 9.76359 3.44076Z" fill="white"/>
</svg>
