<svg width="16" height="22" viewBox="0 0 16 22" fill="none" xmlns="http://www.w3.org/2000/svg">
<path d="M8 13.8947C9.89714 13.8947 11.4171 12.3432 11.4171 10.4211L11.4286 3.47368C11.4286 1.55158 9.89714 0 8 0C6.10286 0 4.57143 1.55158 4.57143 3.47368V10.4211C4.57143 12.3432 6.10286 13.8947 8 13.8947ZM14.0571 10.4211C14.0571 13.8947 11.1543 16.3263 8 16.3263C4.84571 16.3263 1.94286 13.8947 1.94286 10.4211H0C0 14.3695 3.10857 17.6347 6.85714 18.2021V22H9.14286V18.2021C12.8914 17.6463 16 14.3811 16 10.4211H14.0571Z" fill="black"/>
</svg>
