<svg width="48" height="48" viewBox="0 0 48 48" fill="none" xmlns="http://www.w3.org/2000/svg">
<path d="M39.4799 0H8.52012C3.81612 0 0 3.8167 0 8.5207V39.4805C0 44.1845 3.81612 48 8.52012 48H39.4799C44.1839 48 48 44.1845 48 39.4805V8.5207C48 3.8167 44.1839 0 39.4799 0Z" fill="#202020"/>
<path d="M33.5205 25.2535C33.5738 24.8535 33.6005 24.4402 33.6005 24.0002C33.6005 23.5735 33.5738 23.1469 33.5071 22.7469L36.2138 20.6402C36.4538 20.4535 36.5205 20.0935 36.3738 19.8269L33.8138 15.4002C33.6538 15.1069 33.3205 15.0135 33.0271 15.1069L29.8405 16.3869C29.1738 15.8802 28.4671 15.4535 27.6805 15.1335L27.2005 11.7469C27.1471 11.4269 26.8805 11.2002 26.5605 11.2002H21.4405C21.1205 11.2002 20.8671 11.4269 20.8138 11.7469L20.3338 15.1335C19.5471 15.4535 18.8271 15.8935 18.1738 16.3869L14.9871 15.1069C14.6938 15.0002 14.3605 15.1069 14.2005 15.4002L11.6538 19.8269C11.4938 20.1069 11.5471 20.4535 11.8138 20.6402L14.5205 22.7469C14.4538 23.1469 14.4005 23.5869 14.4005 24.0002C14.4005 24.4135 14.4271 24.8535 14.4938 25.2535L11.7871 27.3602C11.5471 27.5469 11.4805 27.9069 11.6271 28.1735L14.1871 32.6002C14.3471 32.8935 14.6805 32.9869 14.9738 32.8935L18.1605 31.6135C18.8271 32.1202 19.5338 32.5469 20.3205 32.8669L20.8005 36.2535C20.8671 36.5735 21.1205 36.8002 21.4405 36.8002H26.5605C26.8805 36.8002 27.1471 36.5735 27.1871 36.2535L27.6671 32.8669C28.4538 32.5469 29.1738 32.1202 29.8271 31.6135L33.0138 32.8935C33.3071 33.0002 33.6405 32.8935 33.8005 32.6002L36.3605 28.1735C36.5205 27.8802 36.4538 27.5469 36.2005 27.3602L33.5205 25.2535ZM24.0005 28.8002C21.3605 28.8002 19.2005 26.6402 19.2005 24.0002C19.2005 21.3602 21.3605 19.2002 24.0005 19.2002C26.6405 19.2002 28.8005 21.3602 28.8005 24.0002C28.8005 26.6402 26.6405 28.8002 24.0005 28.8002Z" fill="#B2B2B2"/>
</svg>
