<svg width="20" height="20" viewBox="0 0 20 20" fill="none" xmlns="http://www.w3.org/2000/svg">
<path d="M9.16675 12.4993H10.8334V14.166H9.16675V12.4993ZM9.16675 5.83268H10.8334V10.8327H9.16675V5.83268ZM9.99175 1.66602C5.39175 1.66602 1.66675 5.39935 1.66675 9.99935C1.66675 14.5993 5.39175 18.3327 9.99175 18.3327C14.6001 18.3327 18.3334 14.5993 18.3334 9.99935C18.3334 5.39935 14.6001 1.66602 9.99175 1.66602ZM10.0001 16.666C6.31675 16.666 3.33341 13.6827 3.33341 9.99935C3.33341 6.31602 6.31675 3.33268 10.0001 3.33268C13.6834 3.33268 16.6667 6.31602 16.6667 9.99935C16.6667 13.6827 13.6834 16.666 10.0001 16.666Z" fill="#262626"/>
</svg>
