<svg width="16" height="16" viewBox="0 0 16 16" fill="none" xmlns="http://www.w3.org/2000/svg">
<path fill-rule="evenodd" clip-rule="evenodd" d="M0.25 1C0.25 0.447715 0.697715 0 1.25 0H14.25C14.8023 0 15.25 0.447715 15.25 1V15C15.25 15.5523 14.8023 16 14.25 16H1.25C0.697715 16 0.25 15.5523 0.25 15V1ZM2.25 3C2.25 2.44772 2.69772 2 3.25 2H12.25C12.8023 2 13.25 2.44772 13.25 3V8C13.25 8.55229 12.8023 9 12.25 9H3.25C2.69772 9 2.25 8.55228 2.25 8V3ZM3.25 11C2.69772 11 2.25 11.4477 2.25 12C2.25 12.5523 2.69772 13 3.25 13H12.25C12.8023 13 13.25 12.5523 13.25 12C13.25 11.4477 12.8023 11 12.25 11H3.25Z" fill="#383838"/>
</svg>
