<svg width="15" height="15" viewBox="0 0 15 15" fill="none" xmlns="http://www.w3.org/2000/svg">
<path d="M13.6667 13C13.6667 13.3703 13.3703 13.6667 13 13.6667H2C1.62966 13.6667 1.33333 13.3703 1.33333 13V2C1.33333 1.62966 1.62966 1.33333 2 1.33333H6.33333V0H2C0.888823 0 0 0.888856 0 2V13C0 14.1112 0.888856 15 2 15H13C14.1112 15 15 14.1111 15 13V8.66667H13.6667V13Z" fill="black"/>
<path d="M8.66565 3.30506e-05V1.33337H12.7212L7.48047 6.57411L8.42488 7.51852L13.6656 2.27778V6.33333H14.999V0L8.66565 3.30506e-05Z" fill="black"/>
</svg>
