<svg width="18" height="19" viewBox="0 0 18 19" fill="none" xmlns="http://www.w3.org/2000/svg">
<path fill-rule="evenodd" clip-rule="evenodd" d="M14.3996 1.72727H15.2995C16.7907 1.72727 17.9995 2.88726 17.9995 4.31818V16.4091C17.9995 17.84 16.7907 19 15.2995 19H2.69992C1.2088 19 0 17.84 0 16.4091V4.31818C0 2.88726 1.2088 1.72727 2.69992 1.72727H3.59989V0.863636C3.59989 0.386663 4.00283 0 4.49987 0C4.99691 0 5.39984 0.386663 5.39984 0.863636V1.72727H12.5996V0.863636C12.5996 0.386663 13.0026 0 13.4996 0C13.9966 0 14.3996 0.386663 14.3996 0.863636V1.72727ZM14.3996 11.2256C14.3996 11.7025 13.9966 12.0892 13.4996 12.0892C13.0025 12.0892 12.5996 11.7025 12.5996 11.2256C12.5996 10.7486 13.0025 10.3619 13.4996 10.3619C13.9966 10.3619 14.3996 10.7486 14.3996 11.2256ZM8.99958 15.5451C9.49662 15.5451 9.89956 15.1585 9.89956 14.6815C9.89956 14.2045 9.49662 13.8179 8.99958 13.8179C8.50254 13.8179 8.09961 14.2045 8.09961 14.6815C8.09961 15.1585 8.50254 15.5451 8.99958 15.5451ZM13.4996 15.5451C13.9966 15.5451 14.3996 15.1585 14.3996 14.6815C14.3996 14.2045 13.9966 13.8179 13.4996 13.8179C13.0025 13.8179 12.5996 14.2045 12.5996 14.6815C12.5996 15.1585 13.0025 15.5451 13.4996 15.5451ZM8.99958 12.0892C9.49662 12.0892 9.89956 11.7025 9.89956 11.2256C9.89956 10.7486 9.49662 10.3619 8.99958 10.3619C8.50254 10.3619 8.09961 10.7486 8.09961 11.2256C8.09961 11.7025 8.50254 12.0892 8.99958 12.0892ZM16.2004 16.4106C16.2004 16.8875 15.7974 17.2742 15.3004 17.2742H2.70075C2.20371 17.2742 1.80078 16.8875 1.80078 16.4106V8.63785H16.2004V16.4106ZM1.80078 6.91046H16.2004V4.31955C16.2004 3.84258 15.7974 3.45591 15.3004 3.45591H14.4004V4.31955C14.4004 4.79652 13.9975 5.18319 13.5004 5.18319C13.0034 5.18319 12.6005 4.79652 12.6005 4.31955V3.45591H5.40067V4.31955C5.40067 4.79652 4.99774 5.18319 4.5007 5.18319C4.00366 5.18319 3.60073 4.79652 3.60073 4.31955V3.45591H2.70075C2.20371 3.45591 1.80078 3.84258 1.80078 4.31955V6.91046ZM4.49958 12.0892C4.99662 12.0892 5.39956 11.7025 5.39956 11.2256C5.39956 10.7486 4.99662 10.3619 4.49958 10.3619C4.00254 10.3619 3.59961 10.7486 3.59961 11.2256C3.59961 11.7025 4.00254 12.0892 4.49958 12.0892ZM5.39956 14.6815C5.39956 15.1585 4.99662 15.5451 4.49958 15.5451C4.00254 15.5451 3.59961 15.1585 3.59961 14.6815C3.59961 14.2045 4.00254 13.8179 4.49958 13.8179C4.99662 13.8179 5.39956 14.2045 5.39956 14.6815Z" fill="black"/>
</svg>
