<svg width="18" height="18" viewBox="0 0 18 18" fill="none" xmlns="http://www.w3.org/2000/svg">
<path d="M13.5 8.25V9.75H16.5V8.25H13.5ZM12 13.2075C12.72 13.74 13.6575 14.445 14.4 15C14.7 14.6025 15 14.1975 15.3 13.8C14.5575 13.245 13.62 12.54 12.9 12C12.6 12.405 12.3 12.81 12 13.2075ZM15.3 4.2C15 3.8025 14.7 3.3975 14.4 3C13.6575 3.555 12.72 4.26 12 4.8C12.3 5.1975 12.6 5.6025 12.9 6C13.62 5.46 14.5575 4.7625 15.3 4.2ZM3 6.75C2.175 6.75 1.5 7.425 1.5 8.25V9.75C1.5 10.575 2.175 11.25 3 11.25H3.75V14.25H5.25V11.25H6L9.75 13.5V4.5L6 6.75H3ZM11.625 9C11.625 8.0025 11.19 7.1025 10.5 6.4875V11.505C11.19 10.8975 11.625 9.9975 11.625 9Z" fill="black"/>
</svg>
