<svg width="48" height="48" viewBox="0 0 48 48" fill="none" xmlns="http://www.w3.org/2000/svg">
<path d="M39.4799 0H8.52012C3.81612 0 0 3.8167 0 8.5207V39.4805C0 44.1845 3.81612 48 8.52012 48H39.4799C44.1839 48 48 44.1845 48 39.4805V8.5207C48 3.8167 44.1839 0 39.4799 0Z" fill="#6464FF"/>
<path d="M20.7955 25.3098L16.4273 29.4137C15.4553 30.3257 14.8916 31.5976 14.8916 32.9176V36.4813H33.0955V32.9176C33.0955 31.5976 32.5432 30.3377 31.5592 29.4137L27.1916 25.3098C26.4236 24.5898 26.4236 23.4013 27.1916 22.6813L31.5592 18.5773C32.5432 17.6653 33.0955 16.3934 33.0955 15.0734V11.5098H14.8916V15.0734C14.8916 16.3934 15.4433 17.6533 16.4273 18.5773L20.7955 22.6813C21.5635 23.4013 21.5635 24.5898 20.7955 25.3098Z" fill="white" stroke="#000033" stroke-width="1.5" stroke-miterlimit="10"/>
<path d="M18.6592 32.8191C18.6832 32.5191 18.8156 32.2429 19.0436 32.0269C19.0436 32.0269 22.3313 28.9188 23.5553 27.7308C23.7953 27.4908 24.1916 27.4908 24.4436 27.7308C25.6676 28.9188 28.9553 32.0269 28.9553 32.0269C29.1713 32.2309 29.3151 32.5191 29.3391 32.8191H18.6592Z" fill="#6464FF" stroke="#000033" stroke-width="1.5" stroke-miterlimit="10"/>
<path d="M33.8629 7.53516H14.1232C13.3312 7.53516 12.6953 8.17167 12.6953 8.96367V10.091C12.6953 10.883 13.3312 11.5195 14.1232 11.5195H33.8629C34.6549 11.5195 35.2914 10.883 35.2914 10.091V8.96367C35.2914 8.17167 34.6549 7.53516 33.8629 7.53516Z" fill="white" stroke="#000033" stroke-width="1.5" stroke-miterlimit="10"/>
<path d="M33.8629 36.4785H14.1232C13.3312 36.4785 12.6953 37.115 12.6953 37.907V39.0344C12.6953 39.8264 13.3312 40.4629 14.1232 40.4629H33.8629C34.6549 40.4629 35.2914 39.8264 35.2914 39.0344V37.907C35.2914 37.127 34.6549 36.4785 33.8629 36.4785Z" fill="white" stroke="#000033" stroke-width="1.5" stroke-miterlimit="10"/>
</svg>
