<svg width="24" height="24" viewBox="0 0 24 24" fill="none" xmlns="http://www.w3.org/2000/svg">
<path d="M21.5808 16.09L20.4908 8.43C20.2108 6.46 18.5208 5 16.5308 5H7.4708C5.4808 5 3.7908 6.46 3.5108 8.43L2.4208 16.09C2.2008 17.63 3.3908 19 4.9408 19C5.6208 19 6.2608 18.73 6.7408 18.25L9.0008 16H15.0008L17.2508 18.25C17.7308 18.73 18.3808 19 19.0508 19C20.6108 19 21.8008 17.63 21.5808 16.09ZM11.0008 11H9.0008V13H8.0008V11H6.0008V10H8.0008V8H9.0008V10H11.0008V11ZM15.0008 10C14.4508 10 14.0008 9.55 14.0008 9C14.0008 8.45 14.4508 8 15.0008 8C15.5508 8 16.0008 8.45 16.0008 9C16.0008 9.55 15.5508 10 15.0008 10ZM17.0008 13C16.4508 13 16.0008 12.55 16.0008 12C16.0008 11.45 16.4508 11 17.0008 11C17.5508 11 18.0008 11.45 18.0008 12C18.0008 12.55 17.5508 13 17.0008 13Z" fill="#6464FF"/>
</svg>
