<svg width="24" height="24" viewBox="0 0 24 24" fill="none" xmlns="http://www.w3.org/2000/svg">
<path d="M13 3V9H19" stroke="white" stroke-width="1.2" stroke-linecap="round" stroke-linejoin="round"/>
<path d="M13 3L19 9V21H5V3H13Z" stroke="white" stroke-width="1.2" stroke-linecap="round" stroke-linejoin="round"/>
<path d="M8.49038 16.06C9.38438 16.06 10.0564 15.622 10.3564 14.842L9.65438 14.578C9.47438 15.076 9.06638 15.346 8.49038 15.346C7.68638 15.346 7.21238 14.812 7.21238 13.9C7.21238 12.994 7.68038 12.466 8.49038 12.466C9.06038 12.466 9.46838 12.724 9.65438 13.216L10.3444 12.946C10.0384 12.178 9.37238 11.752 8.49038 11.752C7.25438 11.752 6.46238 12.598 6.46238 13.906C6.46238 15.214 7.25438 16.06 8.49038 16.06ZM12.2163 16.048C13.0743 16.048 13.6683 15.532 13.6683 14.782C13.6683 14.182 13.3743 13.87 12.4743 13.528C11.8503 13.282 11.6463 13.12 11.6463 12.874C11.6463 12.622 11.8743 12.424 12.1743 12.424C12.4563 12.424 12.7023 12.592 12.8463 12.874L13.4703 12.49C13.2063 12.016 12.7623 11.758 12.1983 11.758C11.4183 11.758 10.8963 12.22 10.8963 12.91C10.8963 13.474 11.2083 13.792 12.0843 14.134C12.7023 14.38 12.9183 14.56 12.9183 14.848C12.9183 15.172 12.6483 15.382 12.2283 15.382C11.7423 15.382 11.4123 15.1 11.3583 14.632L10.6143 14.818C10.7343 15.55 11.3823 16.048 12.2163 16.048ZM16.9125 11.818L15.7905 14.776L14.6625 11.818H13.8345L15.5085 16H16.0725L17.7405 11.818H16.9125Z" fill="white"/>
</svg>
