<svg width="11" height="9" viewBox="0 0 11 9" fill="none" xmlns="http://www.w3.org/2000/svg">
<path d="M10.3745 1.19898L3.35297 8.2439C3.35102 8.24585 3.34711 8.24976 3.34516 8.25171C3.29829 8.30249 3.24165 8.34741 3.17915 8.38257C3.06977 8.44507 2.94868 8.47437 2.83149 8.47437C2.58735 8.47437 2.34907 8.34741 2.22016 8.1189L0.0932078 4.40015C-0.100152 4.06226 0.0170359 3.63257 0.354926 3.44116C0.692817 3.2478 1.1225 3.36499 1.31391 3.70288L2.98188 6.6228L9.37836 0.206788C9.6518 -0.0686029 10.0971 -0.0686029 10.3725 0.204835C10.6479 0.480225 10.6479 0.925538 10.3745 1.19898Z" fill="#595959"/>
</svg>
