<svg width="24" height="24" viewBox="0 0 24 24" fill="none" xmlns="http://www.w3.org/2000/svg">
<path d="M13 3V9H19" stroke="white" stroke-width="1.2" stroke-linecap="round" stroke-linejoin="round"/>
<path d="M13 3L19 9V21H5V3H13Z" stroke="white" stroke-width="1.2" stroke-linecap="round" stroke-linejoin="round"/>
<path d="M6.54128 15H7.38548C8.37668 15 8.91428 14.4918 8.91428 13.5594C8.91428 12.6102 8.35988 12.0726 7.38968 12.0726H6.54128V15ZM7.06628 14.517V12.5556H7.38128C8.07428 12.5556 8.38508 12.8622 8.38508 13.5384C8.38508 14.2272 8.07428 14.517 7.33508 14.517H7.06628ZM10.6338 15.042C11.4654 15.042 12.0324 14.433 12.0324 13.5384C12.0324 12.6396 11.4696 12.0306 10.6338 12.0306C9.80219 12.0306 9.23519 12.6396 9.23519 13.5384C9.23519 14.433 9.80219 15.042 10.6338 15.042ZM10.6338 14.5422C10.1004 14.5422 9.76019 14.1516 9.76019 13.5384C9.76019 12.921 10.1004 12.5304 10.6338 12.5304C11.1672 12.5304 11.5074 12.9252 11.5074 13.5384C11.5074 14.1474 11.1672 14.5422 10.6338 14.5422ZM13.772 15.042C14.3978 15.042 14.8682 14.7354 15.0782 14.1894L14.5868 14.0046C14.4608 14.3532 14.1752 14.5422 13.772 14.5422C13.2092 14.5422 12.8774 14.1684 12.8774 13.53C12.8774 12.8958 13.205 12.5262 13.772 12.5262C14.171 12.5262 14.4566 12.7068 14.5868 13.0512L15.0698 12.8622C14.8556 12.3246 14.3894 12.0264 13.772 12.0264C12.9068 12.0264 12.3524 12.6186 12.3524 13.5342C12.3524 14.4498 12.9068 15.042 13.772 15.042ZM15.1019 15H15.7319L16.4375 13.9164L17.1557 15H17.7857L16.8029 13.5384L17.7773 12.0726H17.1515L16.4417 13.173L15.7361 12.0726H15.1061L16.0805 13.5384L15.1019 15Z" fill="white"/>
</svg>
