<svg width="22" height="11" viewBox="0 0 22 11" fill="none" xmlns="http://www.w3.org/2000/svg">
<path d="M0.365086 4.07299C-0.121695 4.57428 -0.121695 5.34895 0.365086 5.82753L5.25525 10.6353C5.5102 10.8859 5.83466 10.9999 6.13599 10.9999C6.46045 10.9999 6.78492 10.8859 7.01672 10.6353L7.92059 9.76939L2.12656 4.07299C1.63977 3.59458 0.851661 3.59458 0.365086 4.07299Z" fill="black"/>
<path d="M12.0922 5.69089L15.7076 2.11347C16.2175 1.63489 16.2175 0.837513 15.7076 0.358934C15.2208 -0.119645 14.4098 -0.119645 13.923 0.358934L10.2844 3.93635L12.0922 5.69089Z" fill="black"/>
<path d="M21.6407 0.359173C21.154 -0.119406 20.366 -0.119406 19.8561 0.359173L12.069 8.01513L8.05936 4.0731C7.57258 3.59452 6.78463 3.59452 6.27475 4.0731C5.76488 4.55168 5.78797 5.32635 6.27475 5.82763L11.1649 10.6354C11.4199 10.886 11.7212 11 12.0457 11C12.3701 11 12.6946 10.886 12.9264 10.6354L21.5943 2.11358C22.1273 1.63517 22.1275 0.860456 21.6407 0.359173Z" fill="black"/>
</svg>
