<svg width="46" height="43" viewBox="0 0 46 43" fill="none" xmlns="http://www.w3.org/2000/svg">
<rect x="1" y="1" width="44" height="41" rx="3" fill="white" stroke="#0A0A41" stroke-width="2"/>
<path d="M21.32 10.25C21.0037 10.25 20.7215 10.4484 20.6143 10.746L16.2943 22.746C16.2116 22.9758 16.246 23.2314 16.3864 23.4313C16.5268 23.6311 16.7558 23.75 17 23.75H19.9605L18.6594 31.8815C18.6044 32.2255 18.7935 32.5622 19.116 32.6941C19.4384 32.8261 19.8093 32.7186 20.0112 32.4346L29.6112 18.9346C29.7739 18.7059 29.7952 18.4055 29.6665 18.1561C29.5378 17.9067 29.2807 17.75 29 17.75H26.2514L28.7402 11.2689C28.8287 11.0382 28.798 10.7788 28.6581 10.5752C28.5182 10.3716 28.287 10.25 28.04 10.25H21.32Z" fill="#FFDC8C" stroke="#0A0A41" stroke-width="1.5" stroke-linejoin="round"/>
</svg>
