<svg width="36" height="36" viewBox="0 0 36 36" fill="none" xmlns="http://www.w3.org/2000/svg">
<path d="M24.9892 1.55469V9.79373L34.2984 5.9792L26.8849 16.2941L34.2984 22.3258H26.1519L30.5959 33.9983L19.0915 24.6355L5.41736 33.9983L12.3062 21.241L1.71484 19.2515L11.6864 15.1704L1.71484 1.55469L14.6487 9.09974L14.449 1.55469L19.7891 8.42157L24.9892 1.55469Z" fill="white"/>
<path d="M24.9892 1.55469L19.7891 8.42157L14.449 1.55469L14.6487 9.09974L1.71484 1.55469L11.6864 15.1704L1.71484 19.2515L12.3062 21.241L5.41736 33.9983L19.0915 24.6355L30.5959 33.9983L26.1519 22.3258H34.2984L26.8849 16.2941L34.2984 5.9792L24.9892 9.79495V1.55469ZM21.5411 11.81V14.9195L24.5071 13.7044L24.0809 14.2962L22.1986 16.9163L24.6288 18.8924H21.1588L22.8074 23.2256L21.2745 21.9764L19.2704 20.3461L17.1385 21.8059L15.1978 23.1355L15.3427 22.8664L17.572 18.7365L13.7818 18.0243L17.0618 16.6825L14.4721 13.1468L14.253 12.8485L18.2587 15.185L18.1734 11.9512L19.8256 14.0746L21.5411 11.81Z" fill="#EBB618"/>
<path d="M24.9892 1.55469L19.7891 8.42157L14.449 1.55469L14.6487 9.09974L1.71484 1.55469L11.6864 15.1704L1.71484 19.2515L12.3062 21.241L5.41736 33.9983L19.0915 24.6355L30.5959 33.9983L26.1519 22.3258H34.2984L26.8849 16.2941L34.2984 5.9792L24.9892 9.79373V1.55469ZM23.2652 6.68172V12.3566L25.6454 11.3814L29.4028 9.84121L25.4835 15.2958L24.5424 16.6046L25.794 17.6237L29.4636 20.6091H23.656L24.5399 22.9333L26.701 28.6119L20.1824 23.3059L19.1816 22.4902L18.115 23.2207L10.3082 28.5669L13.8244 22.0543L14.9397 19.9893L12.6252 19.5547L7.74894 18.6379L12.3427 16.758L14.3747 15.9264L13.0793 14.1586L7.98392 7.2016L13.7769 10.5815L16.4543 12.1424L16.3727 9.05469L16.3106 6.75233L18.4255 9.4723L19.8074 11.2487L21.1661 9.45404L23.2652 6.68172Z" fill="#E02436"/>
<mask id="mask0_13664_15143" style="mask-type:luminance" maskUnits="userSpaceOnUse" x="0" y="0" width="36" height="36">
<path d="M0 0H36V35.5325H0V0Z" fill="white"/>
</mask>
<g mask="url(#mask0_13664_15143)">
<path d="M24.9863 0.0078125C24.5078 0.0078125 24.0464 0.228186 23.7469 0.622666L19.7692 5.8751L15.6722 0.606839C15.3727 0.22088 14.9161 0.0078125 14.4449 0.0078125C14.2708 0.0078125 14.0955 0.0370334 13.9238 0.0979099C13.2919 0.321936 12.8767 0.925832 12.895 1.59304L13.0216 6.35968L2.49606 0.219663C2.25134 0.0772119 1.98105 0.0078125 1.71319 0.0078125C1.28584 0.0078125 0.864569 0.183137 0.561404 0.515524C0.0683033 1.05854 0.0256896 1.87185 0.457914 2.46236L9.26554 14.4879L1.12269 17.8203C0.487135 18.0809 0.0987417 18.7262 0.168141 19.4068C0.238758 20.0861 0.748904 20.6401 1.42463 20.7667L9.93275 22.3654L4.04842 33.2647C3.70873 33.893 3.84631 34.671 4.37959 35.147C4.67179 35.4088 5.04314 35.5415 5.41449 35.5415C5.72131 35.5415 6.02812 35.4514 6.29355 35.27L19.0095 26.5634L29.6105 35.1933C29.8954 35.4246 30.2436 35.5415 30.5931 35.5415C30.9096 35.5415 31.2274 35.4453 31.4989 35.2505C32.0687 34.8414 32.2927 34.1024 32.0431 33.4486L28.3966 23.869H34.2956C34.9518 23.869 35.5362 23.4575 35.7566 22.8426C35.977 22.2266 35.7846 21.5399 35.2769 21.1271L28.9908 16.0135L35.5387 6.90148C35.7323 6.64336 35.8479 6.32315 35.8479 5.97737C35.8479 5.14824 35.1929 4.4725 34.3711 4.43354C34.3455 4.43233 34.3199 4.43233 34.2956 4.43233C34.2384 4.43233 34.1811 4.43476 34.1251 4.44085C33.9656 4.45911 33.8134 4.49929 33.6722 4.56138L26.5375 7.4859V1.55286C26.5375 0.888089 26.1113 0.298803 25.4782 0.0881696C25.3163 0.0333808 25.1507 0.0078125 24.9863 0.0078125ZM24.9863 1.55286V9.7919L34.2956 5.97737L26.882 16.2923L34.2956 22.324H26.1491L30.5931 33.9965L19.0886 24.6336L5.41449 33.9965L12.3033 21.2391L1.71197 19.2497L11.6836 15.1685L1.71197 1.55286L14.6458 9.09791L14.4461 1.55286L19.7862 8.41974L24.9863 1.55286Z" fill="#050606"/>
</g>
</svg>
