<svg width="23" height="23" viewBox="0 0 23 23" fill="none" xmlns="http://www.w3.org/2000/svg">
<path fill-rule="evenodd" clip-rule="evenodd" d="M19.1666 3.25H3.83329C2.77913 3.25 1.91663 4.075 1.91663 5.08333V17.9167C1.91663 18.925 2.77913 19.75 3.83329 19.75H19.1666C20.2208 19.75 21.0833 18.925 21.0833 17.9167V5.08333C21.0833 4.075 20.2208 3.25 19.1666 3.25ZM19.1666 17.9167H3.83329V5.08333H19.1666V17.9167Z" fill="#E6E6E6"/>
<path fill-rule="evenodd" clip-rule="evenodd" d="M18.6012 10.0517L17.2404 8.75L14.2025 11.6558L12.8512 10.3542L11.5 11.6467L14.2025 14.25L18.6012 10.0517Z" fill="#E6E6E6"/>
<path d="M9.58329 6.91667H4.79163V8.75H9.58329V6.91667Z" fill="#E6E6E6"/>
<path d="M9.58329 10.5833H4.79163V12.4167H9.58329V10.5833Z" fill="#E6E6E6"/>
<path d="M9.58329 14.25H4.79163V16.0833H9.58329V14.25Z" fill="#E6E6E6"/>
</svg>
