<svg width="18" height="15" viewBox="0 0 18 15" fill="none" xmlns="http://www.w3.org/2000/svg">
<path d="M17.9401 10.1704C17.7129 8.75692 16.5006 5.36058 15.6293 3.044C15.3262 2.23905 14.7202 1.63049 13.9815 1.33604C13.9436 1.21827 13.8867 1.1005 13.8488 0.982738C13.6026 0.295546 12.9018 -0.0970594 12.2199 0.0207329L11.9547 0.0600356C11.254 0.177807 10.7425 0.806088 10.7236 1.53244C10.7236 1.7091 10.7048 1.90548 10.7048 2.1017C10.2691 2.6121 9.98496 3.25995 9.94718 3.96671C9.66312 3.80963 9.341 3.71145 8.98122 3.71145C8.64035 3.71145 8.29935 3.80964 8.01527 3.96671C7.97735 3.25995 7.71218 2.5925 7.2577 2.1017C7.2577 1.90532 7.2577 1.70909 7.2388 1.53244C7.21991 0.806088 6.70846 0.177793 6.00771 0.0600356L5.78006 0.0207329C5.07928 -0.0970383 4.3974 0.295574 4.15114 0.982738C4.11322 1.10051 4.0564 1.21828 4.01849 1.33604C3.27979 1.65019 2.67361 2.23919 2.37065 3.044C1.51834 5.34095 0.306122 8.73729 0.0598556 10.1704C-0.31893 12.4085 1.13956 14.5484 3.3177 14.941C5.45807 15.3141 7.46578 13.881 7.90142 11.6821C8.2234 11.8784 8.6022 12.0158 9 12.0158C9.39779 12.0158 9.77661 11.898 10.0986 11.6821C10.5342 13.881 12.5609 15.314 14.6823 14.941C16.8604 14.5484 18.319 12.4086 17.9401 10.1704H17.9401ZM3.98061 13.449C2.61686 13.449 1.49938 12.2907 1.49938 10.8772C1.49938 9.46371 2.61686 8.30545 3.98061 8.30545C5.34436 8.30545 6.46185 9.46371 6.46185 10.8772C6.48074 12.2907 5.36327 13.449 3.98061 13.449ZM8.99997 10.7986C8.46962 10.7986 8.03401 10.3471 8.03401 9.79739C8.03401 9.24769 8.46962 8.79619 8.99997 8.79619C9.53032 8.79619 9.96593 9.24769 9.96593 9.79739C9.96593 10.3471 9.53032 10.7986 8.99997 10.7986ZM14.0193 13.449C12.6556 13.449 11.5381 12.2907 11.5381 10.8772C11.5381 9.46371 12.6556 8.30545 14.0193 8.30545C15.3831 8.30545 16.5006 9.46371 16.5006 10.8772C16.5007 12.2907 15.3831 13.449 14.0193 13.449Z" fill="black"/>
</svg>
