<svg width="26" height="26" viewBox="0 0 26 26" fill="none" xmlns="http://www.w3.org/2000/svg">
<rect width="26" height="26" rx="2" fill="#6F737D"/>
<path d="M12.0493 6.91461C12.3493 5.99475 13.6507 5.99475 13.9507 6.91461L15.0176 10.1855C15.1518 10.597 15.5355 10.8754 15.9683 10.8754H19.4126C20.3823 10.8754 20.7844 12.117 19.9989 12.6855L17.2191 14.6973C16.8673 14.9519 16.72 15.4046 16.8547 15.8175L17.9181 19.0775C18.2184 19.9982 17.1655 20.7655 16.3811 20.1977L13.5863 18.1751C13.2364 17.9219 12.7636 17.9219 12.4137 18.1751L9.61893 20.1977C8.83446 20.7655 7.78165 19.9982 8.08194 19.0775L9.14531 15.8175C9.28 15.4046 9.13275 14.9519 8.7809 14.6973L6.00109 12.6855C5.21556 12.117 5.61772 10.8754 6.58738 10.8754H10.0317C10.4645 10.8754 10.8482 10.597 10.9824 10.1855L12.0493 6.91461Z" fill="#FCFCFC"/>
<rect width="26" height="26" rx="2" stroke="#486C7F"/>
</svg>
