<svg width="16" height="16" viewBox="0 0 16 16" fill="none" xmlns="http://www.w3.org/2000/svg">
<path d="M5.66667 4.33333C6.03486 4.33333 6.33333 4.03486 6.33333 3.66667C6.33333 3.29848 6.03486 3 5.66667 3C5.29848 3 5 3.29848 5 3.66667C5 4.03486 5.29848 4.33333 5.66667 4.33333Z" fill="#767676" stroke="#767676" stroke-linecap="round" stroke-linejoin="round"/>
<path d="M9.66667 4.33333C10.0349 4.33333 10.3333 4.03486 10.3333 3.66667C10.3333 3.29848 10.0349 3 9.66667 3C9.29848 3 9 3.29848 9 3.66667C9 4.03486 9.29848 4.33333 9.66667 4.33333Z" fill="#767676" stroke="#767676" stroke-linecap="round" stroke-linejoin="round"/>
<path d="M5.66667 8.33333C6.03486 8.33333 6.33333 8.03486 6.33333 7.66667C6.33333 7.29848 6.03486 7 5.66667 7C5.29848 7 5 7.29848 5 7.66667C5 8.03486 5.29848 8.33333 5.66667 8.33333Z" fill="#767676" stroke="#767676" stroke-linecap="round" stroke-linejoin="round"/>
<path d="M9.66667 8.33333C10.0349 8.33333 10.3333 8.03486 10.3333 7.66667C10.3333 7.29848 10.0349 7 9.66667 7C9.29848 7 9 7.29848 9 7.66667C9 8.03486 9.29848 8.33333 9.66667 8.33333Z" fill="#767676" stroke="#767676" stroke-linecap="round" stroke-linejoin="round"/>
<path d="M5.66667 12.3333C6.03486 12.3333 6.33333 12.0349 6.33333 11.6667C6.33333 11.2985 6.03486 11 5.66667 11C5.29848 11 5 11.2985 5 11.6667C5 12.0349 5.29848 12.3333 5.66667 12.3333Z" fill="#767676" stroke="#767676" stroke-linecap="round" stroke-linejoin="round"/>
<path d="M9.66667 12.3333C10.0349 12.3333 10.3333 12.0349 10.3333 11.6667C10.3333 11.2985 10.0349 11 9.66667 11C9.29848 11 9 11.2985 9 11.6667C9 12.0349 9.29848 12.3333 9.66667 12.3333Z" fill="#767676" stroke="#767676" stroke-linecap="round" stroke-linejoin="round"/>
</svg>
