<svg width="21" height="22" viewBox="0 0 21 22" fill="none" xmlns="http://www.w3.org/2000/svg">
<path d="M21.1877 0H-0.362549V22H21.1877V0Z" fill="#FF7A59"/>
<path fill-rule="evenodd" clip-rule="evenodd" d="M13.2801 13.9514C12.3203 13.9514 11.5422 13.1506 11.5422 12.1629C11.5422 11.175 12.3203 10.3742 13.2801 10.3742C14.24 10.3742 15.018 11.175 15.018 12.1629C15.018 13.1506 14.24 13.9514 13.2801 13.9514ZM13.7917 8.73856V7.16274C14.1963 6.96846 14.4798 6.55237 14.4798 6.06947V6.0331C14.4798 5.36664 13.9433 4.82136 13.2876 4.82136H13.252C12.5964 4.82136 12.0599 5.36664 12.0599 6.0331V6.06947C12.0599 6.55237 12.3433 6.96863 12.748 7.16291V8.73856C12.1455 8.83323 11.595 9.08581 11.141 9.45754L6.88437 6.09191C6.91246 5.98228 6.93219 5.86942 6.93236 5.75077C6.93303 4.9961 6.33203 4.38334 5.58923 4.38233C4.84676 4.38148 4.24376 4.99253 4.24292 5.74738C4.24208 6.50222 4.84308 7.11498 5.58588 7.11583C5.82786 7.11617 6.05193 7.04631 6.24825 6.93277L10.4353 10.2437C10.0793 10.79 9.87063 11.4444 9.87063 12.1489C9.87063 12.8864 10.0999 13.5687 10.4872 14.1297L9.21394 15.4241C9.11327 15.3933 9.00893 15.3719 8.89823 15.3719C8.28803 15.3719 7.79322 15.8747 7.79322 16.4949C7.79322 17.1153 8.28803 17.6181 8.89823 17.6181C9.50859 17.6181 10.0032 17.1153 10.0032 16.4949C10.0032 16.3827 9.98216 16.2765 9.9519 16.1742L11.2114 14.8939C11.7831 15.3374 12.4952 15.6039 13.2699 15.6039C15.1473 15.6039 16.6691 14.057 16.6691 12.1489C16.6691 10.4215 15.4206 8.99436 13.7917 8.73856Z" fill="white"/>
</svg>
