<svg width="25" height="25" viewBox="0 0 25 25" fill="none" xmlns="http://www.w3.org/2000/svg">
<path d="M12.5 0.000262398C5.60738 0.000262398 0 5.6076 0 12.5001C0 19.3927 5.60738 25 12.5 25C15.7208 25 18.6607 23.7752 20.8791 21.7673C20.9672 21.7447 21.052 21.707 21.1192 21.6363C21.1751 21.5773 21.2083 21.5074 21.2301 21.4345C23.554 19.1634 25 15.9981 25 12.4999C25 5.60734 19.3926 0 12.5 0L12.5 0.000262398ZM19.2527 12.0003C19.2083 9.81705 18.8754 7.79408 18.3196 6.05493C19.1623 5.61087 19.9552 5.06739 20.6858 4.43294C22.6242 6.39939 23.861 9.0581 23.9876 12.0005L19.2527 12.0003ZM17.0508 5.55135C15.7772 6.10089 14.4088 6.41627 13 6.47713V1.04871C14.6277 1.34377 16.0853 3.05872 17.0508 5.55146V5.55135ZM12.0002 1.04861V6.47702C10.5904 6.41612 9.2222 6.1016 7.94901 5.55227C8.91454 3.05909 10.3723 1.34373 12.0002 1.04871V1.04861ZM12.0002 7.4772V12.0007H6.74739C6.79259 10.0054 7.10691 8.12365 7.61772 6.49888C8.99613 7.0842 10.4763 7.4165 12.0002 7.47699V7.4772ZM12.0002 13.0004V17.5239C10.4765 17.5844 8.99618 17.9167 7.61772 18.5022C7.1069 16.8775 6.79261 14.9958 6.74739 13.0004H12.0002ZM12.0002 18.5242V23.9526C10.3723 23.6576 8.91475 21.9422 7.94901 19.4489C9.22199 18.8995 10.5904 18.585 12.0002 18.5241V18.5242ZM13 23.9526V18.5247C14.4111 18.5854 15.7793 18.8987 17.0516 19.4478C16.0861 21.9418 14.6284 23.6578 13 23.9528V23.9526ZM13 17.5128V13.0008H18.2526C18.2074 14.9928 17.8944 16.8714 17.385 18.494C16.007 17.9089 14.5256 17.5729 13 17.5126V17.5128ZM13 12.0008V7.47752C14.5227 7.41684 16.0028 7.08348 17.3819 6.49775C17.8929 8.12269 18.2074 10.0048 18.2526 12.0006L13 12.0008ZM19.9473 3.74808C19.3351 4.26978 18.6768 4.72158 17.9804 5.10012C17.389 3.59047 16.6185 2.34472 15.7201 1.46288C17.2949 1.92284 18.7298 2.7105 19.9473 3.74803V3.74808ZM7.01927 5.10098C6.32305 4.72263 5.66572 4.26939 5.05345 3.74765C6.27076 2.71056 7.70569 1.92289 9.28001 1.46293C8.38144 2.34477 7.61049 3.59095 7.01932 5.10098H7.01927ZM4.31555 4.43219C5.04632 5.06712 5.83731 5.61307 6.67984 6.05712C6.12446 7.79611 5.79172 9.81844 5.74736 12.0009H1.01273C1.13933 9.05778 2.37651 6.39891 4.31555 4.4323V4.43219ZM1.01273 13.001H5.74736C5.79173 15.1834 6.12446 17.2057 6.67984 18.9447C5.83731 19.3888 5.04632 19.935 4.31555 20.5697C2.37651 18.6032 1.13932 15.9441 1.01273 13.0011V13.001ZM5.05345 21.2542C5.66556 20.7325 6.32305 20.2793 7.01927 19.9009C7.61065 21.411 8.38139 22.6571 9.27995 23.5389C7.70564 23.079 6.27071 22.2913 5.05339 21.2542H5.05345ZM17.9814 19.899C18.6777 20.2776 19.3343 20.7321 19.9467 21.2542C18.7294 22.2913 17.2944 23.079 15.7201 23.5389C16.6189 22.6567 17.3898 21.4099 17.9814 19.899ZM20.6924 20.5613C19.9609 19.9252 19.165 19.383 18.3219 18.9385C18.876 17.2009 19.2081 15.1809 19.2525 13.0011H23.9876C23.8609 15.94 22.6269 18.5956 20.6924 20.5612V20.5613Z" fill="#F6F6FF"/>
</svg>
