<svg width="23" height="23" viewBox="0 0 23 23" fill="none" xmlns="http://www.w3.org/2000/svg">
<path d="M3.83329 5.99992H1.91663V18.8333C1.91663 19.8416 2.77913 20.6666 3.83329 20.6666H17.25V18.8333H3.83329V5.99992ZM19.1666 2.33325H7.66663C6.61246 2.33325 5.74996 3.15825 5.74996 4.16659V15.1666C5.74996 16.1749 6.61246 16.9999 7.66663 16.9999H19.1666C20.2208 16.9999 21.0833 16.1749 21.0833 15.1666V4.16659C21.0833 3.15825 20.2208 2.33325 19.1666 2.33325ZM19.1666 15.1666H7.66663V4.16659H19.1666V15.1666ZM9.58329 8.74992H17.25V10.5833H9.58329V8.74992ZM9.58329 11.4999H13.4166V13.3333H9.58329V11.4999ZM9.58329 5.99992H17.25V7.83325H9.58329V5.99992Z" fill="#E6E6E6"/>
</svg>
