<svg width="22" height="10" viewBox="0 0 22 10" fill="none" xmlns="http://www.w3.org/2000/svg">
<path d="M16.951 8.18685e-05H13.8477C13.4771 8.18685e-05 13.1992 0.298296 13.1992 0.642284C13.1992 0.986255 13.5003 1.28449 13.8477 1.28449H16.9508C19.0119 1.28449 20.7025 2.95876 20.7025 5.00004C20.7025 7.04133 19.0119 8.7156 16.9508 8.7156H13.8477C13.4771 8.7156 13.1992 9.01381 13.1992 9.3578C13.1992 9.72481 13.5003 10 13.8477 10H16.9508C19.7298 10 21.9994 7.75233 21.9994 5C21.9995 2.24775 19.7301 0 16.9513 0L16.951 8.18685e-05Z" fill="black"/>
<path d="M8.1519 8.71552H5.04854C2.98744 8.71552 1.29691 7.04124 1.29691 4.99996C1.29691 2.95868 2.98744 1.2844 5.04854 1.2844H8.15173C8.5223 1.2844 8.80017 0.98619 8.80017 0.642202C8.80017 0.298231 8.49906 0 8.15173 0H5.04854C2.26957 0 0 2.24767 0 5C0 7.75234 2.26949 10 5.04854 10H8.15173C8.5223 10 8.80017 9.70179 8.80017 9.3578C8.80033 8.99095 8.52232 8.7156 8.1519 8.7156V8.71552Z" fill="black"/>
<path d="M5.37305 5.00158C5.37305 5.36859 5.67416 5.64378 6.02148 5.64378H15.9796C16.3502 5.64378 16.628 5.34556 16.628 5.00158C16.628 4.63457 16.3269 4.35938 15.9796 4.35938H6.02148C5.65091 4.35938 5.37305 4.63455 5.37305 5.00158Z" fill="black"/>
</svg>
