<svg width="16" height="16" viewBox="0 0 16 16" fill="none" xmlns="http://www.w3.org/2000/svg">
<path d="M12.82 10.1735L11.1267 9.98017C10.72 9.9335 10.32 10.0735 10.0334 10.3602L8.80669 11.5868C6.92003 10.6268 5.37336 9.08684 4.41336 7.1935L5.64669 5.96017C5.93336 5.6735 6.07336 5.2735 6.02669 4.86684L5.83336 3.18684C5.75336 2.5135 5.18669 2.00684 4.50669 2.00684H3.35336C2.60003 2.00684 1.97336 2.6335 2.02003 3.38684C2.37336 9.08017 6.92669 13.6268 12.6134 13.9802C13.3667 14.0268 13.9934 13.4002 13.9934 12.6468V11.4935C14 10.8202 13.4934 10.2535 12.82 10.1735Z" fill="#74ACF8"/>
</svg>
