<svg width="44" height="15" viewBox="0 0 44 15" fill="none" xmlns="http://www.w3.org/2000/svg">
<path d="M5.34462 3.0459V6.7901H2.17548V3.0459H0.670898V11.9837H2.17548V8.36105H5.34462V11.9837H6.8492V3.0459H5.34462Z" fill="#33475B"/>
<path d="M11.6647 9.09479C11.6647 9.45298 11.5335 9.79651 11.3001 10.0498C11.0667 10.3031 10.7501 10.4454 10.42 10.4454C10.0898 10.4454 9.77323 10.3031 9.5398 10.0498C9.30637 9.79651 9.17523 9.45298 9.17523 9.09479V5.2666H7.74805V9.09479C7.74805 9.86294 8.02928 10.5996 8.52988 11.1428C9.03047 11.686 9.70943 11.9911 10.4174 11.9911C11.1253 11.9911 11.8043 11.686 12.3049 11.1428C12.8055 10.5996 13.0867 9.86294 13.0867 9.09479V5.2666H11.6647V9.09479Z" fill="#33475B"/>
<path d="M22.2398 5.66092C22.2398 4.87625 22.7182 4.62749 23.2424 4.62749C23.6648 4.62749 24.2228 4.97623 24.5877 5.39937L25.5225 4.20436C25.0558 3.51967 24.1093 3.04614 23.3345 3.04614C21.7864 3.04614 20.6667 4.02999 20.6667 5.66092C20.6667 8.68684 24.0754 7.72699 24.0754 9.42032C24.0754 9.94264 23.608 10.4042 23.0728 10.4042C22.2287 10.4042 21.9552 9.95623 21.5675 9.48271L20.5303 10.6529C21.1937 11.5368 22.012 11.9855 22.9925 11.9855C24.4631 11.9855 25.6463 10.9897 25.6463 9.43312C25.6463 6.07366 22.2376 7.11749 22.2376 5.66092" fill="#33475B"/>
<path d="M43.3269 10.5565C42.4835 10.5565 42.244 10.1606 42.244 9.55426V6.87069H43.5547V5.51091H42.244V3.7168L40.7969 4.42148V9.88781C40.7969 11.286 41.6859 11.9907 42.9052 11.9907C43.0964 11.9944 43.2876 11.9778 43.4758 11.9411L43.8289 10.5309C43.6697 10.5429 43.4868 10.5549 43.3269 10.5549" fill="#33475B"/>
<path d="M17.0977 5.31174C16.3907 5.31174 15.8976 5.53411 15.4206 6.04203V3.1001H13.9912V8.55283C13.9912 10.5941 15.3513 11.9923 16.8795 11.9923C18.575 11.9923 20.0663 10.5693 20.0663 8.65281C20.0663 6.76031 18.6937 5.31254 17.0977 5.31254V5.31174ZM17.0888 10.4317C16.7681 10.4317 16.4545 10.3285 16.1878 10.1352C15.9211 9.9418 15.7132 9.66697 15.5905 9.34542C15.4677 9.02387 15.4356 8.67005 15.4982 8.3287C15.5608 7.98735 15.7152 7.6738 15.9421 7.4277C16.1689 7.1816 16.4578 7.014 16.7724 6.9461C17.087 6.8782 17.4131 6.91305 17.7095 7.04624C18.0058 7.17943 18.2591 7.40497 18.4373 7.69436C18.6155 7.98374 18.7106 8.32397 18.7106 8.67201C18.7106 9.13871 18.5398 9.5863 18.2356 9.91632C17.9315 10.2463 17.519 10.4317 17.0888 10.4317Z" fill="#33475B"/>
<path d="M32.6171 8.57116C32.6171 6.65146 31.1287 5.23169 29.4303 5.23169C27.9021 5.23169 26.542 6.62987 26.542 8.67114V14.1271H27.9714V11.1811C28.4476 11.6883 28.9415 11.9114 29.6477 11.9114C31.2437 11.9114 32.6163 10.4645 32.6163 8.57116H32.6171ZM31.2636 8.55196C31.2636 8.9 31.1685 9.24022 30.9903 9.52961C30.8121 9.81899 30.5588 10.0445 30.2625 10.1777C29.9661 10.3109 29.64 10.3458 29.3254 10.2779C29.0108 10.21 28.7219 10.0424 28.495 9.79627C28.2682 9.55017 28.1138 9.23661 28.0512 8.89526C27.9886 8.55391 28.0207 8.20009 28.1435 7.87854C28.2662 7.557 28.4741 7.28217 28.7408 7.08881C29.0075 6.89545 29.3211 6.79224 29.6418 6.79224C30.072 6.79224 30.4845 6.97764 30.7886 7.30765C31.0928 7.63766 31.2636 8.08525 31.2636 8.55196Z" fill="#33475B"/>
<path d="M37.2208 5.2065V3.66435C37.4086 3.56916 37.5677 3.41803 37.6794 3.22855C37.7911 3.03907 37.8509 2.81905 37.8518 2.59412V2.55812C37.8511 2.24378 37.7356 1.94255 37.5308 1.72028C37.3259 1.498 37.0483 1.37276 36.7586 1.37191H36.7254C36.4357 1.37276 36.1581 1.498 35.9533 1.72028C35.7484 1.94255 35.633 2.24378 35.6322 2.55812V2.59412C35.6331 2.81905 35.6929 3.03907 35.8046 3.22855C35.9164 3.41803 36.0754 3.56916 36.2632 3.66435V5.2065C35.7232 5.2961 35.2146 5.53892 34.7889 5.91039L30.8862 2.61571C30.914 2.50703 30.9289 2.39494 30.9305 2.28217C30.9308 2.0175 30.8587 1.75868 30.7234 1.53844C30.5882 1.3182 30.3957 1.14644 30.1705 1.04486C29.9452 0.943283 29.6973 0.916461 29.458 0.967785C29.2187 1.01911 28.9988 1.14627 28.8261 1.3332C28.6534 1.52012 28.5357 1.75841 28.4879 2.01793C28.44 2.27745 28.4641 2.54655 28.5572 2.79119C28.6503 3.03583 28.8081 3.24504 29.0108 3.39234C29.2134 3.53964 29.4518 3.61844 29.6957 3.61875C29.9099 3.61789 30.1202 3.55582 30.3053 3.43878L34.1424 6.67986C33.7968 7.24561 33.6164 7.91131 33.625 8.58999C33.6335 9.26867 33.8305 9.92877 34.1903 10.4841L33.0226 11.7511C32.9288 11.7187 32.8312 11.7014 32.7329 11.6999C32.5324 11.6999 32.3364 11.7644 32.1697 11.8852C32.003 12.0061 31.8731 12.1778 31.7964 12.3788C31.7197 12.5798 31.6996 12.8009 31.7387 13.0142C31.7778 13.2276 31.8744 13.4236 32.0161 13.5774C32.1579 13.7312 32.3385 13.8359 32.5351 13.8784C32.7317 13.9208 32.9356 13.899 33.1208 13.8158C33.306 13.7325 33.4643 13.5916 33.5757 13.4107C33.687 13.2298 33.7465 13.0172 33.7465 12.7997C33.7451 12.693 33.7292 12.587 33.6993 12.4853L34.8545 11.2319C35.2316 11.5445 35.6695 11.7594 36.1348 11.8602C36.6 11.9611 37.0804 11.9453 37.5393 11.814C37.9981 11.6828 38.4232 11.4395 38.7821 11.1027C39.141 10.766 39.4243 10.3447 39.6103 9.8711C39.7963 9.39746 39.8802 8.88397 39.8554 8.36982C39.8306 7.85568 39.6979 7.35447 39.4674 6.90446C39.2368 6.45446 38.9146 6.06755 38.5253 5.77328C38.1359 5.479 37.6897 5.28514 37.2208 5.2065ZM36.7424 10.2793C36.4263 10.2793 36.1173 10.1776 35.8545 9.98703C35.5917 9.79649 35.3868 9.52565 35.2658 9.20879C35.1449 8.89192 35.1132 8.54324 35.1749 8.20685C35.2366 7.87047 35.3888 7.56148 35.6123 7.31895C35.8358 7.07643 36.1206 6.91127 36.4306 6.84436C36.7406 6.77745 37.062 6.81179 37.354 6.94304C37.646 7.0743 37.8956 7.29656 38.0712 7.58174C38.2469 7.86691 38.3406 8.20219 38.3406 8.54517C38.3406 9.00508 38.1722 9.44616 37.8725 9.77137C37.5728 10.0966 37.1663 10.2793 36.7424 10.2793Z" fill="#FF7A59"/>
</svg>
