<svg width="16" height="16" viewBox="0 0 16 16" fill="none" xmlns="http://www.w3.org/2000/svg">
<path d="M12.6663 6.90909C12.6663 10.7273 7.99967 14 7.99967 14C7.99967 14 3.33301 10.7273 3.33301 6.90909C3.33301 5.60712 3.82467 4.35847 4.69984 3.43784C5.57501 2.51721 6.762 2 7.99967 2C9.23735 2 10.4243 2.51721 11.2995 3.43784C12.1747 4.35847 12.6663 5.60712 12.6663 6.90909Z" stroke="white" stroke-linecap="round" stroke-linejoin="round"/>
<path d="M8.00033 7.99967C8.73671 7.99967 9.33366 7.40272 9.33366 6.66634C9.33366 5.92996 8.73671 5.33301 8.00033 5.33301C7.26395 5.33301 6.66699 5.92996 6.66699 6.66634C6.66699 7.40272 7.26395 7.99967 8.00033 7.99967Z" stroke="white" stroke-linecap="round" stroke-linejoin="round"/>
</svg>
