<svg width="50" height="40" viewBox="0 0 50 40" fill="none" xmlns="http://www.w3.org/2000/svg">
<g filter="url(#filter0_d_9932_12808)">
<path d="M7.5 4.5C7.5 3.94772 7.94772 3.5 8.5 3.5H41.5C42.0523 3.5 42.5 3.94772 42.5 4.5V27.5C42.5 28.0523 42.0523 28.5 41.5 28.5H8.5C7.94772 28.5 7.5 28.0523 7.5 27.5V4.5Z" fill="white"/>
<path d="M8.05 4.5C8.05 4.25147 8.25147 4.05 8.5 4.05H41.5C41.7485 4.05 41.95 4.25147 41.95 4.5V27.5C41.95 27.7485 41.7485 27.95 41.5 27.95H8.5C8.25147 27.95 8.05 27.7485 8.05 27.5V4.5Z" stroke="#0A0A41" stroke-width="1.1"/>
</g>
<path fill-rule="evenodd" clip-rule="evenodd" d="M8.82284 4.64122C8.61228 4.46256 8.29676 4.48842 8.1181 4.69898C7.93944 4.90954 7.9653 5.22507 8.17586 5.40373L17.548 13.3558L7.73438 23.2244L8.51436 24L18.3893 14.0697L24.6759 19.4037C24.8625 19.5621 25.1362 19.5621 25.3228 19.4037L41.8228 5.40373C42.0334 5.22507 42.0593 4.90954 41.8806 4.69898C41.702 4.48842 41.3864 4.46256 41.1759 4.64122L24.9994 18.3667L8.82284 4.64122Z" fill="#0A0A41"/>
<path fill-rule="evenodd" clip-rule="evenodd" d="M31.0006 14.0529L41.3474 24.0713L42.043 23.3529L31.6962 13.3345L31.0006 14.0529Z" fill="#0A0A41"/>
<defs>
<filter id="filter0_d_9932_12808" x="0.5" y="0.5" width="49" height="39" filterUnits="userSpaceOnUse" color-interpolation-filters="sRGB">
<feFlood flood-opacity="0" result="BackgroundImageFix"/>
<feColorMatrix in="SourceAlpha" type="matrix" values="0 0 0 0 0 0 0 0 0 0 0 0 0 0 0 0 0 0 127 0" result="hardAlpha"/>
<feOffset dy="4"/>
<feGaussianBlur stdDeviation="3.5"/>
<feComposite in2="hardAlpha" operator="out"/>
<feColorMatrix type="matrix" values="0 0 0 0 0 0 0 0 0 0 0 0 0 0 0 0 0 0 0.06 0"/>
<feBlend mode="normal" in2="BackgroundImageFix" result="effect1_dropShadow_9932_12808"/>
<feBlend mode="normal" in="SourceGraphic" in2="effect1_dropShadow_9932_12808" result="shape"/>
</filter>
</defs>
</svg>
