<svg width="81" height="75" viewBox="0 0 81 75" fill="none" xmlns="http://www.w3.org/2000/svg">
<line x1="0.5" y1="36.5" x2="19.5" y2="36.5" stroke="#0A0A41" stroke-linecap="round"/>
<line x1="8.5" y1="44.5" x2="19.5" y2="44.5" stroke="#0A0A41" stroke-linecap="round"/>
<g filter="url(#filter0_d_9932_13502)">
<path d="M25.9902 34.125C25.9902 33.5727 26.4379 33.125 26.9902 33.125H59.9902C60.5425 33.125 60.9902 33.5727 60.9902 34.125V56.125C60.9902 56.6773 60.5425 57.125 59.9902 57.125H26.9902C26.4379 57.125 25.9902 56.6773 25.9902 56.125V34.125Z" fill="white"/>
<path d="M26.5902 34.125C26.5902 33.9041 26.7693 33.725 26.9902 33.725H59.9902C60.2111 33.725 60.3902 33.9041 60.3902 34.125V56.125C60.3902 56.3459 60.2111 56.525 59.9902 56.525H26.9902C26.7693 56.525 26.5902 56.3459 26.5902 56.125V34.125Z" stroke="#0A0B2B" stroke-width="1.2"/>
</g>
<path fill-rule="evenodd" clip-rule="evenodd" d="M60.4128 54.2948C60.257 54.5227 59.9458 54.5813 59.7178 54.4255C56.4809 52.2134 54.08 50.3017 51.6917 48.4L51.6885 48.3975C50.6037 47.5337 49.5214 46.672 48.3629 45.7834C48.359 45.7805 48.3552 45.7776 48.3515 45.7747C47.0387 44.768 45.6277 43.7268 44.0042 42.6092L27.2885 54.421C27.063 54.5803 26.751 54.5267 26.5916 54.3012C26.4323 54.0757 26.4859 53.7637 26.7114 53.6043L37.7754 45.7861L34.1379 42.0102L34.1333 42.0054L34.1333 42.0054L31.6408 39.3479L27.2345 34.9416C27.1646 34.9789 27.0847 35 27 35C26.7238 35 26.5 34.7761 26.5 34.5V34C26.5 33.7977 26.6218 33.6154 26.8086 33.538C26.9954 33.4606 27.2105 33.5034 27.3535 33.6464L32.3535 38.6464L32.3646 38.6579L34.8604 41.3188L38.5618 45.1611L43.7114 41.5916L43.7151 41.589C43.8854 41.471 44.111 41.4702 44.2821 41.5871C45.9013 42.6937 47.3113 43.7251 48.6152 44.7177L53.1448 40.148L53.1464 40.1464L59.6464 33.6464C59.8417 33.4511 60.1582 33.4511 60.3535 33.6464C60.5488 33.8417 60.5488 34.1582 60.3535 34.3535L53.8551 40.8519L53.8535 40.8535L49.4149 45.3315C50.4153 46.1054 51.3628 46.8598 52.3082 47.6126L52.3114 47.6151C54.7002 49.5172 57.0767 51.4093 60.2821 53.5998C60.5101 53.7556 60.5686 54.0668 60.4128 54.2948Z" fill="#0A0B2B"/>
<path d="M27.5 34H27L30.5 37.5L33.5 40.5L36 43L38.5 45.5M48.5 45.5L54.5 39.5L57 37L59.5 34.4583" stroke="#0A0B2B" stroke-linejoin="round"/>
<g filter="url(#filter1_d_9932_13502)">
<path fill-rule="evenodd" clip-rule="evenodd" d="M43.9997 22.0664C39.6316 22.0664 36.1035 25.5898 36.1035 29.9527C36.1035 31.4866 36.5478 32.9127 37.3039 34.1234L36.4276 37.5747L40.0519 36.772C41.2155 37.4433 42.5595 37.8268 43.9997 37.8268C48.3678 37.8268 51.8959 34.2911 51.8959 29.9405C51.8959 25.5898 48.3678 22.0664 43.9997 22.0664Z" fill="#F6F6FF"/>
<path fill-rule="evenodd" clip-rule="evenodd" d="M50.3722 23.6245C48.68 21.9347 46.4361 21 44.0358 21C39.092 21 35.0721 25.0148 35.0721 29.9529C35.0721 31.5349 35.4801 33.0688 36.272 34.4232L35 39.0612L39.752 37.8147C41.0598 38.5341 42.5358 38.9053 44.0358 38.9053C48.9801 38.9053 53 34.8905 53 29.9529C53 27.5677 52.0639 25.3144 50.3722 23.6245ZM44.0358 37.3954C42.6922 37.3954 41.384 37.036 40.2439 36.3529L39.9678 36.1969L37.1478 36.9399L37.9039 34.1952L37.7239 33.9196C36.9801 32.7334 36.5839 31.3671 36.5839 29.9647C36.5839 25.866 39.932 22.5221 44.0358 22.5221C46.0281 22.5221 47.8998 23.3009 49.3042 24.7034C50.7081 26.1054 51.4882 27.9752 51.4882 29.9647C51.4882 34.0515 48.1401 37.3954 44.0358 37.3954ZM48.1278 31.8222C47.8998 31.7144 46.8078 31.1754 46.592 31.0911C46.388 31.0195 46.2321 30.9832 46.0879 31.199C45.9438 31.427 45.5118 31.9301 45.3799 32.0743C45.248 32.218 45.116 32.242 44.8998 32.1341C44.6718 32.0262 43.9519 31.7864 43.1002 31.0195C42.4402 30.432 41.9841 29.6891 41.8522 29.4733C41.7198 29.2458 41.84 29.1256 41.9479 29.0177C42.044 28.9221 42.1759 28.7544 42.2842 28.6225C42.3921 28.4906 42.4279 28.3945 42.5118 28.2508C42.5839 28.1071 42.5481 27.9752 42.4882 27.8555C42.4279 27.7476 41.9841 26.6448 41.7919 26.1892C41.612 25.7582 41.4202 25.818 41.2878 25.8057C41.1559 25.794 41.0118 25.794 40.8558 25.794C40.7122 25.794 40.4601 25.8538 40.2561 26.0696C40.0521 26.2971 39.476 26.8365 39.476 27.9394C39.476 29.0418 40.2802 30.1084 40.388 30.2525C40.4959 30.3962 41.9719 32.6613 44.2158 33.6322C44.7561 33.8598 45.1641 34.0035 45.4882 34.0996C46.0281 34.2673 46.5082 34.2432 46.9039 34.1834C47.3359 34.1236 48.2239 33.644 48.4161 33.1168C48.6079 32.5892 48.6079 32.1459 48.5481 32.0503C48.5 31.99 48.3441 31.9301 48.1278 31.8222Z" fill="#0BB206"/>
<path fill-rule="evenodd" clip-rule="evenodd" d="M50.3722 23.6245C48.68 21.9347 46.4361 21 44.0358 21C39.092 21 35.0721 25.0148 35.0721 29.9529C35.0721 31.5349 35.4801 33.0688 36.272 34.4232L35 39.0612L39.752 37.8147C41.0598 38.5341 42.5358 38.9053 44.0358 38.9053C48.9801 38.9053 53 34.8905 53 29.9529C53 27.5677 52.0639 25.3144 50.3722 23.6245ZM44.0358 37.3954C42.6922 37.3954 41.384 37.036 40.2439 36.3529L39.9678 36.1969L37.1478 36.9399L37.9039 34.1952L37.7239 33.9196C36.9801 32.7334 36.5839 31.3671 36.5839 29.9647C36.5839 25.866 39.932 22.5221 44.0358 22.5221C46.0281 22.5221 47.8998 23.3009 49.3042 24.7034C50.7081 26.1054 51.4882 27.9752 51.4882 29.9647C51.4882 34.0515 48.1401 37.3954 44.0358 37.3954ZM48.1278 31.8222C47.8998 31.7144 46.8078 31.1754 46.592 31.0911C46.388 31.0195 46.2321 30.9832 46.0879 31.199C45.9438 31.427 45.5118 31.9301 45.3799 32.0743C45.248 32.218 45.116 32.242 44.8998 32.1341C44.6718 32.0262 43.9519 31.7864 43.1002 31.0195C42.4402 30.432 41.9841 29.6891 41.8522 29.4733C41.7198 29.2458 41.84 29.1256 41.9479 29.0177C42.044 28.9221 42.1759 28.7544 42.2842 28.6225C42.3921 28.4906 42.4279 28.3945 42.5118 28.2508C42.5839 28.1071 42.5481 27.9752 42.4882 27.8555C42.4279 27.7476 41.9841 26.6448 41.7919 26.1892C41.612 25.7582 41.4202 25.818 41.2878 25.8057C41.1559 25.794 41.0118 25.794 40.8558 25.794C40.7122 25.794 40.4601 25.8538 40.2561 26.0696C40.0521 26.2971 39.476 26.8365 39.476 27.9394C39.476 29.0418 40.2802 30.1084 40.388 30.2525C40.4959 30.3962 41.9719 32.6613 44.2158 33.6322C44.7561 33.8598 45.1641 34.0035 45.4882 34.0996C46.0281 34.2673 46.5082 34.2432 46.9039 34.1834C47.3359 34.1236 48.2239 33.644 48.4161 33.1168C48.6079 32.5892 48.6079 32.1459 48.5481 32.0503C48.5 31.99 48.3441 31.9301 48.1278 31.8222Z" fill="#0BB206"/>
</g>
<defs>
<filter id="filter0_d_9932_13502" x="20.9902" y="32.125" width="45" height="34" filterUnits="userSpaceOnUse" color-interpolation-filters="sRGB">
<feFlood flood-opacity="0" result="BackgroundImageFix"/>
<feColorMatrix in="SourceAlpha" type="matrix" values="0 0 0 0 0 0 0 0 0 0 0 0 0 0 0 0 0 0 127 0" result="hardAlpha"/>
<feOffset dy="4"/>
<feGaussianBlur stdDeviation="2.5"/>
<feComposite in2="hardAlpha" operator="out"/>
<feColorMatrix type="matrix" values="0 0 0 0 0 0 0 0 0 0 0 0 0 0 0.233333 0 0 0 0.09 0"/>
<feBlend mode="normal" in2="BackgroundImageFix" result="effect1_dropShadow_9932_13502"/>
<feBlend mode="normal" in="SourceGraphic" in2="effect1_dropShadow_9932_13502" result="shape"/>
</filter>
<filter id="filter1_d_9932_13502" x="7" y="0" width="74" height="74.0613" filterUnits="userSpaceOnUse" color-interpolation-filters="sRGB">
<feFlood flood-opacity="0" result="BackgroundImageFix"/>
<feColorMatrix in="SourceAlpha" type="matrix" values="0 0 0 0 0 0 0 0 0 0 0 0 0 0 0 0 0 0 127 0" result="hardAlpha"/>
<feOffset dy="7"/>
<feGaussianBlur stdDeviation="14"/>
<feComposite in2="hardAlpha" operator="out"/>
<feColorMatrix type="matrix" values="0 0 0 0 0.0588235 0 0 0 0 0.113725 0 0 0 0 0.172549 0 0 0 0.08 0"/>
<feBlend mode="normal" in2="BackgroundImageFix" result="effect1_dropShadow_9932_13502"/>
<feBlend mode="normal" in="SourceGraphic" in2="effect1_dropShadow_9932_13502" result="shape"/>
</filter>
</defs>
</svg>
