<svg width="21" height="21" viewBox="0 0 21 21" fill="none" xmlns="http://www.w3.org/2000/svg">
<path d="M15.7107 6.90984V4.41084C16.0477 4.25659 16.333 4.01168 16.5334 3.70464C16.7339 3.3976 16.8412 3.04107 16.8428 2.67657V2.61825C16.8414 2.10887 16.6343 1.62074 16.2668 1.26055C15.8993 0.900364 15.4012 0.697407 14.8814 0.696038H14.8219C14.3022 0.697407 13.8041 0.900364 13.4366 1.26055C13.0691 1.62074 12.862 2.10887 12.8606 2.61825V2.67657C12.8622 3.04107 12.9695 3.3976 13.1699 3.70464C13.3704 4.01168 13.6557 4.25659 13.9927 4.41084V6.90984C13.0238 7.05503 12.1113 7.44852 11.3476 8.05046L4.34593 2.71157C4.39577 2.53545 4.42244 2.35381 4.42529 2.17107C4.42581 1.74219 4.29655 1.32278 4.05386 0.965893C3.81116 0.609004 3.46594 0.33066 3.06183 0.16606C2.65772 0.00145937 2.21289 -0.0420048 1.78357 0.0411636C1.35426 0.124332 0.959753 0.330397 0.64994 0.633302C0.340126 0.936206 0.128923 1.32234 0.0430344 1.74289C-0.042854 2.16343 0.000429896 2.59949 0.167416 2.99592C0.334402 3.39236 0.617589 3.73136 0.981165 3.97006C1.34474 4.20876 1.77238 4.33644 2.21 4.33696C2.59439 4.33555 2.97162 4.23497 3.30375 4.04532L10.1877 9.29737C9.56763 10.2141 9.24415 11.2929 9.25949 12.3926C9.27483 13.4924 9.62827 14.5621 10.2736 15.4619L8.17871 17.515C8.01054 17.4626 7.83541 17.4346 7.65894 17.4321C7.29927 17.4321 6.94769 17.5366 6.64863 17.7324C6.34958 17.9283 6.11649 18.2066 5.97885 18.5323C5.84121 18.8579 5.8052 19.2163 5.87537 19.562C5.94554 19.9077 6.11873 20.2253 6.37306 20.4745C6.62738 20.7238 6.95141 20.8935 7.30417 20.9623C7.65693 21.031 8.02257 20.9958 8.35486 20.8609C8.68715 20.726 8.97117 20.4975 9.17099 20.2044C9.37081 19.9114 9.47746 19.5668 9.47746 19.2143C9.47504 19.0413 9.44652 18.8697 9.39282 18.7049L11.4653 16.6738C12.1418 17.1802 12.9274 17.5285 13.7622 17.692C14.597 17.8554 15.4588 17.8298 16.282 17.6171C17.1051 17.4044 17.8678 17.0101 18.5118 16.4645C19.1557 15.9188 19.664 15.2362 19.9977 14.4686C20.3314 13.7011 20.4818 12.869 20.4373 12.0359C20.3929 11.2027 20.1548 10.3905 19.7412 9.66132C19.3276 8.9321 18.7495 8.30513 18.051 7.82828C17.3524 7.35142 16.552 7.03728 15.7107 6.90984ZM14.8524 15.1301C14.2853 15.1301 13.7309 14.9653 13.2594 14.6565C12.7878 14.3477 12.4203 13.9089 12.2033 13.3954C11.9863 12.8819 11.9295 12.3169 12.0401 11.7718C12.1508 11.2267 12.4239 10.726 12.8249 10.333C13.2259 9.93999 13.7368 9.67236 14.293 9.56393C14.8492 9.4555 15.4257 9.51115 15.9496 9.72384C16.4736 9.93653 16.9214 10.2967 17.2364 10.7588C17.5515 11.2209 17.7197 11.7642 17.7197 12.32C17.7197 13.0653 17.4176 13.78 16.8798 14.307C16.3421 14.834 15.6128 15.1301 14.8524 15.1301Z" fill="#FF7B57"/>
</svg>
