<svg width="29" height="15" viewBox="0 0 29 15" fill="none" xmlns="http://www.w3.org/2000/svg">
<path d="M6.52954 9.79752L9.54004 7.47481L6.56729 5.11548L5.90405 4.58936L0.119176 0L0 14.836L5.85815 10.3192L6.52954 9.79752Z" fill="#242035"/>
<path d="M10.6259 7.49712L6.52428 10.6651L6.49023 14.9024L12.3484 10.3848L13.019 9.8699L16.0303 7.54719L13.0568 5.18787L12.3943 4.66175L6.60867 0.0664062L6.57536 4.28061L10.6259 7.49712Z" fill="#4B4877"/>
<path d="M17.1103 7.544L13.0079 10.7119L12.9746 14.9493L18.8328 10.4317L19.5034 9.91678L22.5139 7.59407L19.5412 5.23474L18.8787 4.70788L13.093 0.113281L13.059 4.32674L17.1103 7.544Z" fill="#6564A4"/>
<path d="M23.5927 7.59087L19.4911 10.7588L19.457 14.9962L25.3152 10.4786L25.9866 9.96365L28.9971 7.64094L26.0236 5.28162L25.3611 4.75475L19.5762 0.160156L19.5422 4.37361L23.5927 7.59087Z" fill="#9B9BFF"/>
</svg>
