<svg width="24" height="24" viewBox="0 0 24 24" fill="none" xmlns="http://www.w3.org/2000/svg">
<path d="M13 3V9H19" stroke="white" stroke-width="1.2" stroke-linecap="round" stroke-linejoin="round"/>
<path d="M13 3L19 9V21H5V3H13Z" stroke="white" stroke-width="1.2" stroke-linecap="round" stroke-linejoin="round"/>
<path d="M6.88249 16H7.62649V14.266H8.25049C9.17449 14.266 9.67249 13.834 9.67249 13.024C9.67249 12.226 9.18649 11.818 8.25049 11.818H6.88249V16ZM7.62649 13.576V12.508H8.17249C8.70649 12.508 8.92249 12.658 8.92249 13.036C8.92249 13.414 8.70049 13.576 8.17249 13.576H7.62649ZM10.3923 16H11.5983C13.0143 16 13.7823 15.274 13.7823 13.942C13.7823 12.586 12.9903 11.818 11.6043 11.818H10.3923V16ZM11.1423 15.31V12.508H11.5923C12.5823 12.508 13.0263 12.946 13.0263 13.912C13.0263 14.896 12.5823 15.31 11.5263 15.31H11.1423ZM14.5407 16H15.2907V14.194H17.2407V13.504H15.2907V12.508H17.5047V11.818H14.5407V16Z" fill="white"/>
</svg>
