<svg width="20" height="20" viewBox="0 0 20 20" fill="none" xmlns="http://www.w3.org/2000/svg">
<path d="M9.99935 1.66797C5.39935 1.66797 1.66602 5.4013 1.66602 10.0013C1.66602 14.6013 5.39935 18.3346 9.99935 18.3346C14.5993 18.3346 18.3327 14.6013 18.3327 10.0013C18.3327 5.4013 14.5993 1.66797 9.99935 1.66797ZM5.83268 11.2513C5.14102 11.2513 4.58268 10.693 4.58268 10.0013C4.58268 9.30964 5.14102 8.7513 5.83268 8.7513C6.52435 8.7513 7.08268 9.30964 7.08268 10.0013C7.08268 10.693 6.52435 11.2513 5.83268 11.2513ZM9.99935 11.2513C9.30768 11.2513 8.74935 10.693 8.74935 10.0013C8.74935 9.30964 9.30768 8.7513 9.99935 8.7513C10.691 8.7513 11.2493 9.30964 11.2493 10.0013C11.2493 10.693 10.691 11.2513 9.99935 11.2513ZM14.166 11.2513C13.4743 11.2513 12.916 10.693 12.916 10.0013C12.916 9.30964 13.4743 8.7513 14.166 8.7513C14.8577 8.7513 15.416 9.30964 15.416 10.0013C15.416 10.693 14.8577 11.2513 14.166 11.2513Z" fill="#D6D6D6"/>
</svg>
