<svg width="27" height="26" viewBox="0 0 27 26" fill="none" xmlns="http://www.w3.org/2000/svg">
<path d="M22.6033 6.5343V0.594727H3.56885V9.33831L13.2539 9.33694L16.06 6.5343H22.6033Z" fill="white"/>
<path d="M19.6299 0.594727H22.6038V6.5343H19.6299V0.594727Z" fill="#E6E6E6"/>
<path d="M16.0599 6.5332L13.2539 9.33584H0.594238V23.7604C0.594238 23.8382 0.602425 23.9153 0.617434 23.9917C0.632444 24.0688 0.654958 24.1425 0.684976 24.2148C0.714995 24.2871 0.751836 24.3554 0.794817 24.4202C0.83848 24.485 0.887601 24.545 0.942863 24.6003C0.998124 24.6555 1.05816 24.7047 1.12297 24.7483C1.18847 24.7913 1.25669 24.8281 1.32901 24.8582C1.40133 24.8875 1.47569 24.91 1.5521 24.9257C1.62851 24.9407 1.70629 24.9482 1.78406 24.9482H24.388C24.4658 24.9482 24.5436 24.9407 24.62 24.9257C24.6964 24.91 24.7708 24.8875 24.8431 24.8582C24.9154 24.8281 24.9836 24.7913 25.0491 24.7483C25.1139 24.7047 25.174 24.6555 25.2292 24.6003C25.2845 24.545 25.3336 24.485 25.3773 24.4202C25.4203 24.3554 25.4571 24.2871 25.4871 24.2148C25.5171 24.1425 25.5397 24.0688 25.5547 23.9917C25.5697 23.9153 25.5779 23.8382 25.5779 23.7604V6.5332H16.0599Z" fill="#FEA1C4"/>
<path d="M25.5779 6.5332V23.7604C25.5772 23.8382 25.5697 23.9153 25.554 23.9917C25.539 24.0681 25.5158 24.1425 25.4858 24.2141C25.4557 24.2864 25.4196 24.3547 25.3759 24.4195C25.3323 24.4843 25.2831 24.5443 25.2279 24.5996C25.1726 24.6542 25.1126 24.7033 25.0478 24.747C24.9829 24.7906 24.9147 24.8268 24.8424 24.8568C24.7708 24.8868 24.6964 24.9093 24.62 24.925C24.5429 24.94 24.4658 24.9482 24.388 24.9482H1.78406C1.70629 24.9482 1.6292 24.94 1.5521 24.925C1.47569 24.9093 1.40133 24.8868 1.32969 24.8568C1.25738 24.8268 1.18915 24.7906 1.12434 24.747C1.05953 24.7033 0.999489 24.6542 0.944227 24.5996C0.888966 24.5443 0.839845 24.4843 0.796181 24.4195C0.752518 24.3547 0.716359 24.2864 0.686341 24.2141C0.656322 24.1425 0.633126 24.0681 0.618117 23.9917C0.602425 23.9153 0.594921 23.8382 0.594238 23.7604V21.9784H21.4135C21.4919 21.9777 21.569 21.9702 21.6454 21.9545C21.7218 21.9395 21.7962 21.917 21.8685 21.887C21.9408 21.857 22.0091 21.8201 22.0739 21.7772C22.1387 21.7335 22.1987 21.6844 22.254 21.6291C22.3092 21.5739 22.3584 21.5138 22.402 21.449C22.445 21.3849 22.4819 21.316 22.5119 21.2443C22.5419 21.172 22.5644 21.0983 22.5801 21.0219C22.5951 20.9455 22.6033 20.8677 22.6033 20.79V6.5332H25.5779Z" fill="#FEBED6"/>
<path d="M3.56855 9.93204C3.48941 9.93204 3.41368 9.91704 3.34068 9.88702C3.26768 9.85632 3.20355 9.81334 3.1476 9.75807C3.09234 9.70213 3.04936 9.638 3.01866 9.565C2.98864 9.49268 2.97363 9.41695 2.97363 9.33781V0.594231C2.97363 0.515091 2.98864 0.439362 3.01866 0.366363C3.04936 0.294045 3.09234 0.229233 3.1476 0.173971C3.20355 0.118028 3.26768 0.0750464 3.34068 0.0450278C3.41368 0.0150093 3.48941 0 3.56855 0H22.603C22.6822 0 22.7579 0.0150093 22.8309 0.0450278C22.9039 0.0750464 22.968 0.118028 23.024 0.173971C23.0792 0.229233 23.1222 0.294045 23.1529 0.366363C23.1829 0.439362 23.1979 0.515091 23.1979 0.594231V6.53381C23.1979 6.61295 23.1829 6.68868 23.1529 6.76168C23.1222 6.83399 23.0792 6.89881 23.024 6.95407C22.968 7.01001 22.9039 7.05299 22.8309 7.08301C22.7579 7.11303 22.6822 7.12804 22.603 7.12804H16.306L13.6739 9.75671C13.5579 9.87269 13.4174 9.93068 13.2536 9.93068L3.56855 9.93204ZM4.16346 1.18778V8.74358H13.0073L15.6394 6.1156C15.7554 5.99893 15.8953 5.94026 16.0597 5.94026H22.0081V1.18778H4.16346Z" fill="black"/>
<path d="M24.388 25.5452H1.78406C1.66671 25.5452 1.55073 25.5336 1.43611 25.5111C1.32082 25.4879 1.20961 25.4544 1.10113 25.4094C0.993341 25.3644 0.890323 25.3098 0.792763 25.245C0.695202 25.1795 0.605147 25.1058 0.522596 25.0233C0.439362 24.94 0.36568 24.8507 0.300185 24.7531C0.235373 24.6555 0.180111 24.5532 0.135766 24.4447C0.090738 24.3369 0.056626 24.2257 0.034112 24.1104C0.0109159 23.9958 0 23.8798 0 23.7632V9.33857C0 9.26011 0.0150093 9.18439 0.0450278 9.11139C0.0750464 9.03907 0.118028 8.97426 0.173971 8.91899C0.229915 8.86305 0.294045 8.82007 0.367045 8.79005C0.440045 8.76003 0.515773 8.74502 0.594231 8.74502H13.0076L15.6397 6.11635C15.7556 6.00037 15.8962 5.94238 16.0599 5.94238H25.5778C25.6563 5.94238 25.732 5.95739 25.805 5.98741C25.878 6.01743 25.9422 6.06041 25.9981 6.11635C26.0541 6.17162 26.097 6.23643 26.1271 6.30875C26.1571 6.38175 26.1721 6.45747 26.1721 6.53593V23.7632C26.1721 23.8798 26.1612 23.9958 26.138 24.1104C26.1155 24.2257 26.0813 24.3369 26.0363 24.4447C25.992 24.5532 25.9367 24.6555 25.8719 24.7531C25.8064 24.8507 25.7327 24.94 25.6495 25.0233C25.5669 25.1058 25.4769 25.1795 25.3793 25.245C25.2818 25.3098 25.1787 25.3644 25.0709 25.4094C24.9625 25.4544 24.8513 25.4879 24.736 25.5111C24.6213 25.5336 24.5054 25.5452 24.388 25.5452ZM1.18914 9.9328V23.7632C1.18914 23.8416 1.20415 23.9174 1.23485 23.9904C1.26487 24.0634 1.30785 24.1275 1.3638 24.1827C1.41906 24.2387 1.48387 24.2817 1.55687 24.3117C1.62919 24.3417 1.7056 24.3567 1.78406 24.3567H24.388C24.4665 24.3567 24.5429 24.3417 24.6152 24.3117C24.6882 24.2817 24.753 24.2387 24.8083 24.1827C24.8642 24.1275 24.9072 24.0634 24.9372 23.9904C24.9679 23.9174 24.9829 23.8416 24.9829 23.7632V7.13016H20.6446H16.3062L13.6741 9.75883C13.5581 9.87481 13.4176 9.9328 13.2539 9.9328H1.18914Z" fill="black"/>
<path d="M24.388 25.5452H1.78406C1.66671 25.5452 1.55073 25.5336 1.43611 25.5111C1.32082 25.4879 1.20961 25.4544 1.10113 25.4094C0.993341 25.3644 0.890323 25.3098 0.792763 25.245C0.695202 25.1795 0.605147 25.1058 0.522596 25.0233C0.439362 24.94 0.36568 24.8507 0.300185 24.7531C0.235373 24.6555 0.180111 24.5532 0.135766 24.4447C0.090738 24.3369 0.056626 24.2257 0.034112 24.1104C0.0109159 23.9958 0 23.8798 0 23.7632V9.33857C0 9.26011 0.0150093 9.18439 0.0450278 9.11139C0.0750464 9.03907 0.118028 8.97426 0.173971 8.91899C0.229915 8.86305 0.294045 8.82007 0.367045 8.79005C0.440045 8.76003 0.515773 8.74502 0.594231 8.74502H13.0076L15.6397 6.11635C15.7556 6.00037 15.8962 5.94238 16.0599 5.94238H25.5778C25.6563 5.94238 25.732 5.95739 25.805 5.98741C25.878 6.01743 25.9422 6.06041 25.9981 6.11635C26.0541 6.17162 26.097 6.23643 26.1271 6.30875C26.1571 6.38175 26.1721 6.45747 26.1721 6.53593V23.7632C26.1721 23.8798 26.1612 23.9958 26.138 24.1104C26.1155 24.2257 26.0813 24.3369 26.0363 24.4447C25.992 24.5532 25.9367 24.6555 25.8719 24.7531C25.8064 24.8507 25.7327 24.94 25.6495 25.0233C25.5669 25.1058 25.4769 25.1795 25.3793 25.245C25.2818 25.3098 25.1787 25.3644 25.0709 25.4094C24.9625 25.4544 24.8513 25.4879 24.736 25.5111C24.6213 25.5336 24.5054 25.5452 24.388 25.5452ZM1.18914 9.9328V23.7632C1.18914 23.8416 1.20415 23.9174 1.23485 23.9904C1.26487 24.0634 1.30785 24.1275 1.3638 24.1827C1.41906 24.2387 1.48387 24.2817 1.55687 24.3117C1.62919 24.3417 1.7056 24.3567 1.78406 24.3567H24.388C24.4665 24.3567 24.5429 24.3417 24.6152 24.3117C24.6882 24.2817 24.753 24.2387 24.8083 24.1827C24.8642 24.1275 24.9072 24.0634 24.9372 23.9904C24.9679 23.9174 24.9829 23.8416 24.9829 23.7632V7.13016H20.6446H16.3062L13.6741 9.75883C13.5581 9.87481 13.4176 9.9328 13.2539 9.9328H1.18914Z" stroke="black"/>
<path d="M13.086 4.15819H6.54267C6.46421 4.15819 6.3878 4.14318 6.31548 4.11248C6.24248 4.08246 6.17835 4.03948 6.12241 3.98422C6.06646 3.92827 6.02348 3.86414 5.99346 3.79114C5.96345 3.71883 5.94775 3.64241 5.94775 3.56396C5.94775 3.4855 5.96345 3.40909 5.99346 3.33677C6.02348 3.26377 6.06646 3.19964 6.12241 3.1437C6.17835 3.08844 6.24248 3.04546 6.31548 3.01544C6.3878 2.98474 6.46421 2.96973 6.54267 2.96973H13.086C13.1652 2.96973 13.2409 2.98474 13.3139 3.01544C13.3862 3.04546 13.451 3.08844 13.507 3.1437C13.5622 3.19964 13.6052 3.26377 13.6359 3.33677C13.6659 3.40909 13.6809 3.4855 13.6809 3.56396C13.6809 3.64241 13.6659 3.71883 13.6359 3.79114C13.6052 3.86414 13.5622 3.92827 13.507 3.98422C13.451 4.03948 13.3862 4.08246 13.3139 4.11248C13.2409 4.14318 13.1652 4.15819 13.086 4.15819Z" fill="black"/>
<path d="M10.7064 7.12821H6.54267C6.46421 7.12821 6.3878 7.1132 6.31548 7.08318C6.24248 7.05316 6.17835 7.01018 6.12241 6.95424C6.06646 6.89898 6.02348 6.83416 5.99346 6.76185C5.96345 6.68885 5.94775 6.61312 5.94775 6.53398C5.94775 6.45552 5.96345 6.37979 5.99346 6.30679C6.02348 6.23448 6.06646 6.16966 6.12241 6.1144C6.17835 6.05846 6.24248 6.01548 6.31548 5.98546C6.3878 5.95544 6.46421 5.94043 6.54267 5.94043H10.7064C10.7855 5.94043 10.8612 5.95544 10.9342 5.98546C11.0072 6.01548 11.0714 6.05846 11.1273 6.1144C11.1833 6.16966 11.2262 6.23448 11.2563 6.30679C11.2863 6.37979 11.3013 6.45552 11.3013 6.53398C11.3013 6.61312 11.2863 6.68885 11.2563 6.76185C11.2262 6.83416 11.1833 6.89898 11.1273 6.95424C11.0714 7.01018 11.0072 7.05316 10.9342 7.08318C10.8612 7.1132 10.7855 7.12821 10.7064 7.12821Z" fill="black"/>
</svg>
