<svg width="15" height="15" viewBox="0 0 15 15" fill="none" xmlns="http://www.w3.org/2000/svg">
<path d="M3.66675 5.66667V1H11.6667V5.66667" stroke="black" stroke-width="1.1" stroke-linecap="round" stroke-linejoin="round"/>
<path d="M3.66667 11.6667H2.33333C1.97971 11.6667 1.64057 11.5263 1.39052 11.2762C1.14048 11.0262 1 10.687 1 10.3334V7.00008C1 6.64646 1.14048 6.30732 1.39052 6.05727C1.64057 5.80722 1.97971 5.66675 2.33333 5.66675H13C13.3536 5.66675 13.6928 5.80722 13.9428 6.05727C14.1929 6.30732 14.3333 6.64646 14.3333 7.00008V10.3334C14.3333 10.687 14.1929 11.0262 13.9428 11.2762C13.6928 11.5263 13.3536 11.6667 13 11.6667H11.6667" stroke="black" stroke-width="1.1" stroke-linecap="round" stroke-linejoin="round"/>
<path d="M11.6667 9H3.66675V14.3333H11.6667V9Z" stroke="black" stroke-width="1.1" stroke-linecap="round" stroke-linejoin="round"/>
</svg>
