<svg width="12" height="12" viewBox="0 0 12 12" fill="none" xmlns="http://www.w3.org/2000/svg">
<path d="M5.99364 0C2.68515 0 0 2.688 0 6C0 9.312 2.68515 12 5.99364 12C9.30213 12 11.9873 9.312 11.9873 6C11.9873 2.688 9.30213 0 5.99364 0ZM6.593 10.2H5.39428V9H6.593V10.2ZM7.83369 5.55L7.29426 6.102C6.86272 6.54 6.593 6.9 6.593 7.8H5.39428V7.5C5.39428 6.84 5.66399 6.24 6.09553 5.802L6.83874 5.046C7.06051 4.83 7.19237 4.53 7.19237 4.2C7.19237 3.54 6.65294 3 5.99364 3C5.33434 3 4.79491 3.54 4.79491 4.2H3.59618C3.59618 2.874 4.66905 1.8 5.99364 1.8C7.31823 1.8 8.3911 2.874 8.3911 4.2C8.3911 4.728 8.17533 5.208 7.83369 5.55Z" fill="#EBEBEB"/>
</svg>
