<svg width="20" height="20" viewBox="0 0 20 20" fill="none" xmlns="http://www.w3.org/2000/svg">
<path d="M10 19.5C4.75329 19.5 0.5 15.2467 0.5 10C0.5 4.75329 4.75329 0.5 10 0.5C15.2467 0.5 19.5 4.75329 19.5 10C19.5 15.2467 15.2467 19.5 10 19.5Z" stroke="#0F1D2C"/>
<path d="M4 10C4 6.68629 6.68629 4 10 4V4C13.3137 4 16 6.68629 16 10V10C16 13.3137 13.3137 16 10 16V16C6.68629 16 4 13.3137 4 10V10Z" fill="#0F1D2C"/>
<rect x="5.79688" y="5.79688" width="8.4" height="8.4" rx="4.2" fill="#0F1D2C"/>
</svg>
