<svg width="22" height="18" viewBox="0 0 22 18" fill="none" xmlns="http://www.w3.org/2000/svg">
<path d="M17.0401 3.13981C17.0401 3.32794 16.8984 3.48023 16.7398 3.48023H7.00833C3.48245 3.48023 0.625 6.61793 0.625 10.4901C0.625 14.3631 3.47952 17.5 7.00833 17.5H11.5647C12.0702 17.5 12.4803 17.0553 12.4803 16.4983C12.4803 15.9456 12.0694 15.4971 11.5647 15.4971H7.00833C4.48711 15.4971 2.44901 13.2577 2.44901 10.4901C2.44901 7.72451 4.49015 5.48317 7.00833 5.48317H16.7398C16.9061 5.48317 17.0401 5.62986 17.0401 5.82359V7.89492C17.0401 8.45095 17.3683 8.62557 17.7636 8.29214L21.7979 4.8899C22.065 4.66452 22.0697 4.30315 21.7979 4.07403L17.7636 0.671312C17.3641 0.334628 17.0401 0.508321 17.0401 1.06853V3.13981Z" fill="#A0A0A0"/>
</svg>
