<svg width="19" height="19" viewBox="0 0 19 19" fill="none" xmlns="http://www.w3.org/2000/svg">
<path d="M11.9605 5.7L9.5 8.1605L7.0395 5.7L5.7 7.0395L8.1605 9.5L5.7 11.9605L7.0395 13.3L9.5 10.8395L11.9605 13.3L13.3 11.9605L10.8395 9.5L13.3 7.0395L11.9605 5.7ZM9.5 0C4.2465 0 0 4.2465 0 9.5C0 14.7535 4.2465 19 9.5 19C14.7535 19 19 14.7535 19 9.5C19 4.2465 14.7535 0 9.5 0ZM9.5 17.1C5.3105 17.1 1.9 13.6895 1.9 9.5C1.9 5.3105 5.3105 1.9 9.5 1.9C13.6895 1.9 17.1 5.3105 17.1 9.5C17.1 13.6895 13.6895 17.1 9.5 17.1Z" fill="#6464FF"/>
</svg>
