<svg width="16" height="16" viewBox="0 0 16 16" fill="none" xmlns="http://www.w3.org/2000/svg">
<path d="M1.62056 6.95034L3.60098 7.73532H3.60086C3.37757 8.27418 3.19954 8.82909 3.0683 9.39493L2.99315 9.72128L5.83232 12.4367L6.17373 12.3666V12.3664C6.76572 12.241 7.34627 12.0708 7.91002 11.8574L8.73126 13.7504L8.73115 13.7502C8.74746 13.7884 8.78283 13.816 8.8251 13.824C8.86738 13.8319 8.91097 13.8189 8.9411 13.7894L10.1822 12.6031H10.1823C10.5919 12.2116 10.809 11.6728 10.7798 11.1198L10.7355 10.3577C13.0334 8.73566 15.3585 5.89141 15.992 0.927383C16.0284 0.675141 15.9395 0.421073 15.7515 0.240434C15.5637 0.0599017 15.2984 -0.0263793 15.0343 0.00708525C9.84246 0.617309 6.86516 2.84155 5.16829 5.03143L4.37266 4.99227C3.79543 4.96222 3.2318 5.16677 2.82084 5.55526L1.57971 6.74158C1.5447 6.77004 1.52826 6.81421 1.53672 6.85746C1.54517 6.9006 1.57721 6.93612 1.62068 6.95046L1.62056 6.95034ZM9.58298 4.05876C9.87141 3.78398 10.2621 3.62997 10.6693 3.63043C11.0766 3.63089 11.4669 3.78581 11.7547 4.06115C12.0424 4.3365 12.2041 4.70987 12.2041 5.09904C12.2041 5.4882 12.0424 5.86158 11.7547 6.13692C11.467 6.41227 11.0766 6.56732 10.6693 6.56764C10.2622 6.5681 9.87141 6.41409 9.58298 6.13931C9.2936 5.86373 9.13105 5.48946 9.13105 5.09904C9.13105 4.70862 9.29361 4.33434 9.58298 4.05876V4.05876ZM1.24984 12.6536C0.921169 12.5433 0.56832 12.5164 0.22544 12.5752C0.163516 12.5881 0.0990888 12.5696 0.0547861 12.5263C-0.000589349 12.4736 -0.0155947 12.3934 0.0171538 12.3256C0.380856 11.5782 1.34544 10.0753 3.09201 11.2894C3.11047 11.3051 3.12106 11.3278 3.12106 11.3513C3.12106 11.375 3.11047 11.3976 3.09201 11.4134C2.61779 11.7703 2.34973 12.3217 2.36985 12.8984C2.37247 12.9676 2.43058 13.0231 2.50299 13.0256C3.10366 13.0487 3.68016 12.7981 4.0566 12.35C4.07316 12.3307 4.09793 12.3194 4.124 12.3194C4.1502 12.3194 4.17497 12.3307 4.19153 12.35C4.43399 12.6259 5.10148 13.5266 4.3623 14.3964H4.36218C4.03945 14.7672 3.57703 15.0016 3.07495 15.0492C2.35791 15.1226 1.03307 15.3461 0.491936 15.9369C0.447636 15.987 0.378088 16.0098 0.310923 15.9961C0.243878 15.9824 0.190051 15.9346 0.170875 15.8716C-0.0202594 15.2482 -0.317395 13.8546 1.24994 12.6536L1.24984 12.6536Z" fill="#393939"/>
</svg>
