<svg width="20" height="20" viewBox="0 0 20 20" fill="none" xmlns="http://www.w3.org/2000/svg">
<mask id="path-1-inside-1_8650_11641" fill="white">
<path d="M0 10C0 4.47715 4.47715 0 10 0V0C15.5228 0 20 4.47715 20 10V10C20 15.5228 15.5228 20 10 20V20C4.47715 20 0 15.5228 0 10V10Z"/>
</mask>
<path d="M10 19C5.02944 19 1 14.9706 1 10H-1C-1 16.0751 3.92487 21 10 21V19ZM19 10C19 14.9706 14.9706 19 10 19V21C16.0751 21 21 16.0751 21 10H19ZM10 1C14.9706 1 19 5.02944 19 10H21C21 3.92487 16.0751 -1 10 -1V1ZM10 -1C3.92487 -1 -1 3.92487 -1 10H1C1 5.02944 5.02944 1 10 1V-1Z" fill="#6464FF" mask="url(#path-1-inside-1_8650_11641)"/>
<rect x="3" y="3" width="14" height="14" rx="7" fill="#6464FF"/>
</svg>
