<svg width="15" height="16" viewBox="0 0 15 16" fill="none" xmlns="http://www.w3.org/2000/svg">
<path d="M13.2346 8.73437C13.2668 8.5 13.2828 8.25781 13.2828 8C13.2828 7.75 13.2668 7.5 13.2266 7.26562L14.857 6.03125C15.0016 5.92187 15.0418 5.71094 14.9534 5.55469L13.4113 2.96094C13.3149 2.78906 13.1142 2.73437 12.9375 2.78906L11.0179 3.53906C10.6163 3.24219 10.1906 2.99219 9.71675 2.80469L9.42761 0.820312C9.39548 0.632812 9.23485 0.5 9.04208 0.5H5.95791C5.76515 0.5 5.61255 0.632812 5.58042 0.820312L5.29128 2.80469C4.81741 2.99219 4.3837 3.25 3.99015 3.53906L2.07057 2.78906C1.89387 2.72656 1.69308 2.78906 1.5967 2.96094L0.0626475 5.55469C-0.0337329 5.71875 -0.00160615 5.92187 0.159028 6.03125L1.78946 7.26562C1.7493 7.5 1.71718 7.75781 1.71718 8C1.71718 8.24219 1.73324 8.5 1.7734 8.73437L0.142964 9.96875C-0.00160614 10.0781 -0.0417645 10.2891 0.0465841 10.4453L1.58867 13.0391C1.68505 13.2109 1.88584 13.2656 2.06254 13.2109L3.98212 12.4609C4.3837 12.7578 4.80938 13.0078 5.28325 13.1953L5.57239 15.1797C5.61255 15.3672 5.76515 15.5 5.95791 15.5H9.04208C9.23485 15.5 9.39548 15.3672 9.41957 15.1797L9.70872 13.1953C10.1826 13.0078 10.6163 12.7578 11.0099 12.4609L12.9294 13.2109C13.1061 13.2734 13.3069 13.2109 13.4033 13.0391L14.9454 10.4453C15.0418 10.2734 15.0016 10.0781 14.849 9.96875L13.2346 8.73437ZM7.5 10.8125C5.90972 10.8125 4.60859 9.54688 4.60859 8C4.60859 6.45312 5.90972 5.1875 7.5 5.1875C9.09027 5.1875 10.3914 6.45312 10.3914 8C10.3914 9.54688 9.09027 10.8125 7.5 10.8125Z" fill="#393939"/>
</svg>
