<svg width="23" height="23" viewBox="0 0 23 23" fill="none" xmlns="http://www.w3.org/2000/svg">
<path d="M18.3427 12.4006C18.381 12.1131 18.4002 11.8161 18.4002 11.4998C18.4002 11.1931 18.381 10.8865 18.3331 10.599L20.2785 9.0848C20.451 8.95064 20.4989 8.69189 20.3935 8.50022L18.5535 5.31855C18.4385 5.10772 18.1989 5.04064 17.9881 5.10772L15.6977 6.02772C15.2185 5.66355 14.7106 5.35689 14.1452 5.12689L13.8002 2.69272C13.7619 2.46272 13.5702 2.2998 13.3402 2.2998H9.66019C9.43019 2.2998 9.2481 2.46272 9.20977 2.69272L8.86477 5.12689C8.29935 5.35689 7.78185 5.67314 7.31227 6.02772L5.02185 5.10772C4.81102 5.03105 4.57144 5.10772 4.45644 5.31855L2.62602 8.50022C2.51102 8.70147 2.54935 8.95064 2.74102 9.0848L4.68644 10.599C4.63852 10.8865 4.60019 11.2027 4.60019 11.4998C4.60019 11.7969 4.61935 12.1131 4.66727 12.4006L2.72185 13.9148C2.54935 14.049 2.50144 14.3077 2.60685 14.4994L4.44685 17.6811C4.56185 17.8919 4.80144 17.959 5.01227 17.8919L7.30269 16.9719C7.78185 17.3361 8.28977 17.6427 8.85519 17.8727L9.20019 20.3069C9.2481 20.5369 9.43019 20.6998 9.66019 20.6998H13.3402C13.5702 20.6998 13.7619 20.5369 13.7906 20.3069L14.1356 17.8727C14.701 17.6427 15.2185 17.3361 15.6881 16.9719L17.9785 17.8919C18.1894 17.9686 18.4289 17.8919 18.5439 17.6811L20.3839 14.4994C20.4989 14.2886 20.451 14.049 20.2689 13.9148L18.3427 12.4006ZM11.5002 14.9498C9.60269 14.9498 8.05019 13.3973 8.05019 11.4998C8.05019 9.60231 9.60269 8.0498 11.5002 8.0498C13.3977 8.0498 14.9502 9.60231 14.9502 11.4998C14.9502 13.3973 13.3977 14.9498 11.5002 14.9498Z" fill="#B0B0B0"/>
</svg>
