<svg width="13" height="12" viewBox="0 0 13 12" fill="none" xmlns="http://www.w3.org/2000/svg">
<path fill-rule="evenodd" clip-rule="evenodd" d="M0.834269 6.79025H10.1531L6.08182 10.6467C5.75646 10.9549 5.75646 11.4607 6.08182 11.7689C6.40719 12.0771 6.93278 12.0771 7.25814 11.7689L12.756 6.56107C13.0813 6.25288 13.0813 5.75502 12.756 5.44682L7.26648 0.231138C7.11062 0.0831608 6.899 0 6.67832 0C6.45765 0 6.24603 0.0831608 6.09017 0.231138C5.7648 0.539337 5.7648 1.0372 6.09017 1.3454L10.1531 5.20974H0.834269C0.375421 5.20974 0 5.56535 0 5.99999C0 6.43463 0.375421 6.79025 0.834269 6.79025Z" fill="#000033"/>
</svg>
