<svg width="16" height="16" viewBox="0 0 16 16" fill="none" xmlns="http://www.w3.org/2000/svg">
<path d="M14 8H12.6667C11.9303 8 11.3333 8.59695 11.3333 9.33333V10.6667C11.3333 11.403 11.9303 12 12.6667 12C13.403 12 14 11.403 14 10.6667V8ZM14 8C14 4.68629 11.3137 2 8 2C4.68629 2 2 4.68629 2 8V10.6667C2 11.403 2.59695 12 3.33333 12C4.06971 12 4.66667 11.403 4.66667 10.6667V9.33333C4.66667 8.59695 4.06971 8 3.33333 8H2" stroke="black" stroke-linecap="round" stroke-linejoin="round"/>
<path d="M14.0002 9.33333V12C14.0002 13.3333 13.5557 14 12.6668 14C11.7779 14 10.6668 14 9.3335 14" stroke="black" stroke-linecap="round" stroke-linejoin="round"/>
</svg>
