<svg width="31" height="24" viewBox="0 0 31 24" fill="none" xmlns="http://www.w3.org/2000/svg">
<path d="M17.3305 21.5888C17.3305 22.6433 16.5112 23.4982 15.5007 23.4982C14.4902 23.4982 13.6709 22.6433 13.6709 21.5888C13.6709 20.5344 14.4902 19.6797 15.5007 19.6797C16.5112 19.6797 17.3305 20.5344 17.3305 21.5888Z" fill="#EB7569"/>
<path d="M28.9822 9.29378L31 7.18848C22.4536 -1.72916 8.54767 -1.72983 0 7.18848L2.01775 9.29378C9.45101 1.53638 21.5481 1.53571 28.982 9.29378H28.9822Z" fill="#EB7569"/>
<path d="M26.5777 11.8032C20.4698 5.4302 10.5311 5.4302 4.42285 11.8032L6.44035 13.9087C11.4365 8.69587 19.5644 8.69587 24.5601 13.9087L26.5777 11.8032Z" fill="#EB7569"/>
<path d="M22.1073 16.4653C20.3423 14.6236 17.9957 13.6094 15.4999 13.6094C13.0042 13.6094 10.6573 14.6236 8.89258 16.4653L10.9103 18.5706C12.136 17.2911 13.7663 16.5863 15.5001 16.5863C17.2339 16.5863 18.864 17.2911 20.0899 18.5706L22.1073 16.4653Z" fill="#EB7569"/>
</svg>
