<svg width="16" height="16" viewBox="0 0 16 16" fill="none" xmlns="http://www.w3.org/2000/svg">
<path d="M6.49521 9.16163C6.12749 9.27308 5.73737 9.33301 5.33325 9.33301C3.12411 9.33301 1.33325 7.54215 1.33325 5.33301C1.33325 4.71548 1.47319 4.13063 1.72308 3.60845L4.63308 6.51846L6.5187 4.63284L3.6087 1.72284C4.13088 1.47294 4.71572 1.33301 5.33325 1.33301C7.54239 1.33301 9.33325 3.12387 9.33325 5.33301C9.33325 5.91995 9.20684 6.47736 8.97975 6.9795L13.7238 11.7236C14.2445 12.2443 14.2445 13.0885 13.7238 13.6092L13.2761 14.0569C12.7554 14.5776 11.9112 14.5776 11.3905 14.0569L6.49521 9.16163Z" stroke="#FAFAFA" stroke-linecap="round" stroke-linejoin="round"/>
</svg>
