<svg width="196" height="53" viewBox="0 0 196 53" fill="none" xmlns="http://www.w3.org/2000/svg">
<path d="M43.5096 33.1042C42.2418 33.1042 41.0557 33.673 40.2786 34.5262L29.2766 28.4727C29.2357 28.4321 29.1948 28.4321 29.1539 28.3914C28.5404 28.0664 27.8042 27.8633 27.068 27.8633C26.6999 27.8633 26.3318 27.9039 25.9637 27.9852C25.5956 28.0664 25.2275 28.2289 24.8594 28.4321C23.5507 29.204 22.6509 30.5853 22.6509 32.2104V44.0736C21.4648 44.358 20.4832 45.1299 19.9106 46.1862C19.5425 46.7956 19.3789 47.5269 19.3789 48.2988C19.3789 50.6958 21.3421 52.6459 23.7552 52.6459C26.1682 52.6459 28.1314 50.6958 28.1314 48.2988C28.1314 47.5269 27.9269 46.7956 27.5588 46.1862C26.9862 45.1705 26.0046 44.3986 24.8185 44.0736V32.1291C24.8185 30.9103 25.8001 29.9353 27.0271 29.9353C27.3952 29.9353 27.7633 30.0165 28.0905 30.179L31.4443 32.0073L39.2561 36.3544C39.1743 36.72 39.1334 37.0857 39.1334 37.4513C39.1334 38.2232 39.3379 38.9545 39.706 39.5639C40.4422 40.9046 41.8737 41.7984 43.5505 41.7984C45.9636 41.7984 47.9268 39.8483 47.9268 37.4513C47.8859 35.0543 45.9227 33.1042 43.5096 33.1042ZM25.6774 47.2831C25.841 47.6081 25.9637 47.9738 25.9637 48.3394C25.9637 49.5582 24.9821 50.5333 23.7552 50.5333C22.5282 50.5333 21.5466 49.5582 21.5466 48.3394C21.5466 47.9738 21.6284 47.6081 21.8329 47.2831C22.201 46.6331 22.9372 46.1456 23.7552 46.1456C24.614 46.1456 25.3093 46.6331 25.6774 47.2831ZM43.5096 39.6452C42.6916 39.6452 41.9964 39.1983 41.5874 38.5483C41.4238 38.2232 41.3011 37.8576 41.3011 37.4919C41.3011 37.4513 41.3011 37.4107 41.3011 37.3701C41.342 36.6794 41.7101 36.1106 42.2008 35.745C42.5689 35.5012 43.0188 35.3387 43.4687 35.3387C44.6957 35.3387 45.6773 36.3138 45.6773 37.5326C45.6773 38.6701 44.6957 39.6452 43.5096 39.6452Z" fill="#FAFAFA"/>
<path d="M47.888 15.6767C47.888 13.2796 45.9248 11.3295 43.5117 11.3295C41.8757 11.3295 40.4443 12.2233 39.6672 13.564C39.2991 14.1734 39.0946 14.9047 39.0946 15.6767C39.0946 16.0423 39.1355 16.4079 39.2173 16.7736L31.4463 21.0801L28.0926 22.9083C27.8063 23.0708 27.4382 23.1927 27.0701 23.1927C25.8431 23.1927 24.8615 22.2177 24.8615 20.9988V9.01377C26.0476 8.72938 27.0292 7.95746 27.6018 6.90115C27.9699 6.29174 28.1744 5.56045 28.1744 4.78853C28.1744 2.39152 26.2112 0.441406 23.7981 0.441406C21.3851 0.441406 19.4219 2.39152 19.4219 4.78853C19.4219 5.56045 19.6264 6.29174 19.9536 6.90115C20.5262 7.91683 21.5078 8.68875 22.6938 9.01377V20.8769C22.6938 22.502 23.5936 23.8834 24.9024 24.6553C25.2296 24.8584 25.5977 24.9803 26.0067 25.1022C26.3748 25.1834 26.7429 25.2241 27.111 25.2241C27.8472 25.2241 28.5834 25.0209 29.1969 24.6959C29.2378 24.6553 29.2787 24.6553 29.3196 24.6147L40.2807 18.5612C41.0986 19.455 42.2438 19.9831 43.5117 19.9831C45.9248 20.0644 47.888 18.0737 47.888 15.6767ZM23.7981 6.98241C22.9801 6.98241 22.2439 6.5355 21.8758 5.84484C21.7123 5.51982 21.5896 5.15418 21.5896 4.78853C21.5896 3.56971 22.5711 2.59465 23.7981 2.59465C25.0251 2.59465 26.0067 3.56971 26.0067 4.78853C26.0067 5.15418 25.9249 5.51982 25.7204 5.84484C25.3114 6.5355 24.6161 6.98241 23.7981 6.98241ZM45.6794 15.6767C45.6794 16.8955 44.6978 17.8705 43.4708 17.8705C42.98 17.8705 42.571 17.708 42.2029 17.4643C41.6712 17.0986 41.344 16.4892 41.3031 15.8392C41.3031 15.7985 41.3031 15.7579 41.3031 15.7173C41.3031 15.311 41.3849 14.9454 41.5894 14.661C41.9575 14.0109 42.6937 13.564 43.5117 13.564C44.6978 13.5234 45.6794 14.4985 45.6794 15.6767Z" fill="#FAFAFA"/>
<path d="M2.20295 11.1642C0.117077 12.3424 -0.619114 15.0238 0.566972 17.0958C1.38496 18.5177 2.89825 19.2897 4.41153 19.2897C5.14772 19.2897 5.88391 19.0865 6.5383 18.7209C6.8655 18.5177 7.1518 18.3146 7.4381 18.0708L15.0863 22.6617L18.3583 24.6118C18.6446 24.815 18.9309 25.0587 19.0945 25.3837C19.708 26.4401 19.3399 27.7808 18.2765 28.3495L7.80619 34.3217C6.9473 33.4686 5.80211 32.981 4.61603 33.0217C3.87983 33.0217 3.18454 33.2248 2.48925 33.5905C0.403374 34.7686 -0.332818 37.45 0.853269 39.522C2.03936 41.594 4.73873 42.3253 6.8246 41.1471C7.47899 40.7815 8.01069 40.2533 8.41968 39.6033C9.03318 38.5876 9.23767 37.3688 8.91048 36.1906L19.299 30.2996C20.6895 29.4871 21.5075 28.0245 21.5075 26.5213C21.5075 26.115 21.4666 25.7494 21.3439 25.3837C21.2621 25.0181 21.0985 24.6931 20.9349 24.3681C20.5668 23.718 20.0352 23.1899 19.4217 22.8242C19.3808 22.7836 19.3399 22.7836 19.299 22.743L8.54238 16.2832C8.91048 15.1457 8.82868 13.8862 8.17429 12.7893C6.9882 10.6767 4.32973 9.94539 2.20295 11.1642ZM6.5792 36.2718C6.9882 37.0031 6.9473 37.8157 6.5383 38.4657C6.33381 38.7907 6.08841 39.0345 5.76121 39.2376C4.69783 39.847 3.38904 39.4814 2.77555 38.4251C2.16205 37.3688 2.53015 36.0687 3.59354 35.4593C3.92073 35.2562 4.28883 35.1749 4.65693 35.1749C5.39312 35.1749 6.17021 35.5406 6.5792 36.2718ZM3.30724 13.0331C4.37063 12.4237 5.67941 12.7893 6.29291 13.8456C6.5383 14.2519 6.6201 14.6988 6.5792 15.1457C6.49741 15.7957 6.17021 16.3645 5.59762 16.7301C5.55672 16.7708 5.51582 16.7708 5.47492 16.8114C5.14772 17.0145 4.77962 17.0958 4.41153 17.0958C3.63444 17.0958 2.89825 16.6895 2.48925 15.9988C1.87576 14.9832 2.24385 13.6425 3.30724 13.0331Z" fill="#FAFAFA"/>
<path d="M67.59 24.0455V35.8688C67.59 36.8447 68.2701 37.4828 69.3281 37.4828H73.1823V39.8475H69.177C66.6831 39.8475 65.0961 38.2711 65.0961 35.7938V24.0455H60.7129V21.8685H65.0961V15.375H67.59V21.8309H73.1823V24.0079H67.59V24.0455Z" fill="#FAFAFA"/>
<path d="M87.2404 21.8281V24.3429H84.4442C81.7236 24.3429 79.9099 26.7076 79.9099 30.3484V39.7696H77.416V21.8281H79.4565L79.9099 24.981C80.4389 23.1043 82.2526 21.8281 84.5954 21.8281H87.2404Z" fill="#FAFAFA"/>
<path d="M106.775 31.8157H91.9249C92.3028 35.6067 94.7589 38.0464 98.3864 38.0464C101.145 38.0464 103.525 36.3574 104.319 33.8801L106.321 34.7809C105.188 38.0464 101.976 40.2609 98.3486 40.2609C92.9452 40.2609 89.3555 36.47 89.3555 30.8773C89.3555 25.2847 92.9074 21.5312 98.2352 21.5312C103.336 21.5312 106.737 25.097 106.737 30.4645V31.8157H106.775ZM91.9249 30.0891H104.319C104.205 26.148 101.9 23.6332 98.2352 23.6332C94.6455 23.6332 92.1894 26.148 91.9249 30.0891Z" fill="#FAFAFA"/>
<path d="M128.39 30.8376C128.39 36.4302 125.102 40.2212 120.077 40.2212C117.356 40.2212 114.862 38.7198 113.955 36.5428H113.918L113.464 39.8083H111.424V12.9336H113.918V25.1323H113.955C114.9 22.9553 117.356 21.4915 120.077 21.4915C125.102 21.4915 128.39 25.2449 128.39 30.8376ZM125.82 30.8376C125.82 26.5586 123.402 23.7435 119.812 23.7435C116.298 23.7435 113.955 26.5586 113.955 30.8376C113.955 35.1165 116.298 37.9691 119.812 37.9691C123.364 37.9691 125.82 35.1165 125.82 30.8376Z" fill="#FAFAFA"/>
<path d="M136.966 39.8458C134.435 39.8458 132.848 38.2694 132.848 35.7921V12.9336H135.342V35.8672C135.342 36.8055 135.984 37.4436 136.966 37.4436H140.14V39.8458H136.966Z" fill="#FAFAFA"/>
<path d="M160.013 31.8157H145.163C145.541 35.6067 147.997 38.0464 151.625 38.0464C154.383 38.0464 156.764 36.3574 157.557 33.8801L159.56 34.7809C158.426 38.0464 155.214 40.2609 151.587 40.2609C146.183 40.2609 142.594 36.47 142.594 30.8773C142.594 25.2847 146.146 21.5312 151.473 21.5312C156.575 21.5312 159.975 25.097 159.975 30.4645V31.8157H160.013ZM145.163 30.0891H157.595C157.481 26.148 155.177 23.6332 151.511 23.6332C147.922 23.6332 145.428 26.148 145.163 30.0891Z" fill="#FAFAFA"/>
<path d="M188.014 37.5203V39.8099H186.616C184.84 39.8099 183.744 38.7214 183.63 37.1074C182.308 39.0216 180.003 40.2228 177.093 40.2228C173.277 40.2228 170.783 38.2334 170.783 35.0805C170.783 32.5657 172.861 30.6139 176.149 30.126L182.232 29.1501C183.101 28.9999 183.668 28.3619 183.668 27.4986C183.668 25.209 181.779 23.5199 179.134 23.5199C176.3 23.5199 174.108 25.209 173.806 27.5361L171.577 27.0481C172.144 23.595 175.091 21.418 179.134 21.418C183.479 21.418 186.2 23.8577 186.2 27.6112V36.3942C186.2 37.0699 186.616 37.4827 187.258 37.4827H188.014V37.5203ZM183.63 32.3405V30.8391L176.867 31.8901C174.713 32.1904 173.315 33.4665 173.315 35.043C173.315 36.9197 174.977 38.1959 177.471 38.1959C181.174 38.1959 183.63 35.8688 183.63 32.3405Z" fill="#FAFAFA"/>
<path d="M194.59 21.8281H192.096V39.8071H194.59V21.8281Z" fill="#FAFAFA"/>
<path d="M167.079 38.0462C167.079 39.1347 166.324 39.8478 165.19 39.8478C164.057 39.8478 163.301 39.1347 163.301 38.0462C163.301 36.9577 164.057 36.207 165.19 36.207C166.324 36.207 167.079 36.9577 167.079 38.0462Z" fill="#FAFAFA"/>
<path d="M195.23 15.1126C195.23 16.2011 194.474 16.9143 193.34 16.9143C192.207 16.9143 191.451 16.2011 191.451 15.1126C191.451 14.0241 192.207 13.2734 193.34 13.2734C194.474 13.2734 195.23 14.0241 195.23 15.1126Z" fill="#FAFAFA"/>
</svg>
