<svg width="22" height="18" viewBox="0 0 22 18" fill="none" xmlns="http://www.w3.org/2000/svg">
<path d="M4.95992 3.13981C4.95992 3.32794 5.10157 3.48023 5.26017 3.48023H14.9917C18.5176 3.48023 21.375 6.61793 21.375 10.4901C21.375 14.3631 18.5205 17.5 14.9917 17.5H10.4353C9.92977 17.5 9.51968 17.0553 9.51968 16.4983C9.51968 15.9456 9.93062 15.4971 10.4353 15.4971H14.9917C17.5129 15.4971 19.551 13.2577 19.551 10.4901C19.551 7.72451 17.5098 5.48317 14.9917 5.48317H5.26017C5.09394 5.48317 4.95992 5.62986 4.95992 5.82359V7.89492C4.95992 8.45095 4.63168 8.62557 4.23643 8.29214L0.202131 4.8899C-0.0650387 4.66452 -0.069706 4.30315 0.202131 4.07403L4.23643 0.671312C4.63592 0.334628 4.95992 0.508321 4.95992 1.06853V3.13981Z" fill="#A0A0A0"/>
</svg>
