<svg width="28" height="21" viewBox="0 0 28 21" fill="none" xmlns="http://www.w3.org/2000/svg">
<path d="M27.9636 10.2238C27.0703 7.27079 25.2281 4.67991 22.7118 2.83775C20.1955 0.995601 17.1396 0 14 0C10.8604 0 7.80407 0.995383 5.28819 2.83775C2.77231 4.68012 0.92968 7.27101 0.0364148 10.2238C-0.0121383 10.4047 -0.0121383 10.5953 0.0364148 10.7762C0.92968 13.7292 2.77187 16.3201 5.28819 18.1622C7.80452 20.0044 10.8604 21 14 21C17.1396 21 20.1959 20.0046 22.7118 18.1622C25.2277 16.3199 27.0703 13.729 27.9636 10.7762C28.0121 10.5953 28.0121 10.4047 27.9636 10.2238ZM13.9997 16.2157C12.4545 16.2157 10.9725 15.6135 9.87987 14.5415C8.78723 13.4695 8.17335 12.0157 8.17335 10.4998C8.17335 8.98382 8.78718 7.52996 9.87987 6.45804C10.9726 5.38612 12.4545 4.78388 13.9997 4.78388C15.545 4.78388 17.0269 5.38607 18.1196 6.45804C19.2122 7.53002 19.8261 8.98382 19.8261 10.4998C19.8261 12.0157 19.2123 13.4696 18.1196 14.5415C17.0269 15.6134 15.545 16.2157 13.9997 16.2157Z" fill="#A0A0A0"/>
<path d="M17.8837 10.4981C17.8837 12.6026 16.1447 14.3087 13.9995 14.3087C11.8543 14.3087 10.1152 12.6026 10.1152 10.4981C10.1152 8.39356 11.8543 6.6875 13.9995 6.6875C16.1447 6.6875 17.8837 8.39356 17.8837 10.4981Z" fill="#A0A0A0"/>
</svg>
