<svg width="28" height="29" viewBox="0 0 28 29" fill="none" xmlns="http://www.w3.org/2000/svg">
<path fill-rule="evenodd" clip-rule="evenodd" d="M13.9991 5.35352C8.85378 5.35352 4.66846 9.45513 4.66846 14.4975C4.66846 16.4973 5.32671 18.3518 6.44569 19.8572L5.28275 23.2545L8.87019 22.1312C10.3457 23.0881 12.1065 23.6417 14.0045 23.6417C19.1498 23.6417 23.3351 19.5399 23.3351 14.4977C23.3351 9.45528 19.1498 5.35367 14.0045 5.35367H13.9991V5.35352ZM11.3951 9.99854C11.2141 9.57389 11.077 9.55781 10.8028 9.54688C10.6987 9.54031 10.5944 9.53677 10.4901 9.53626C10.1334 9.53626 9.76045 9.63837 9.53551 9.86412C9.26134 10.1383 8.5811 10.7779 8.5811 12.0896C8.5811 13.4014 9.55749 14.67 9.68908 14.8475C9.82625 15.0247 11.5926 17.7556 14.3353 18.8686C16.48 19.7394 17.1165 19.6587 17.6046 19.5566C18.3176 19.4061 19.2118 18.8898 19.4368 18.2664C19.6617 17.6427 19.6617 17.1105 19.5958 16.9976C19.53 16.8847 19.3488 16.8204 19.0747 16.6858C18.8005 16.5514 17.4674 15.9063 17.2151 15.8203C16.9681 15.729 16.7324 15.7613 16.546 16.0193C16.2826 16.3795 16.0249 16.7452 15.8164 16.9654C15.6518 17.1375 15.3829 17.159 15.1581 17.0675C14.8564 16.9441 14.0117 16.6535 12.9694 15.745C12.163 15.0409 11.6145 14.1648 11.4555 13.9014C11.2963 13.6327 11.4391 13.4766 11.5651 13.3316C11.7022 13.1648 11.8338 13.0466 11.971 12.8907C12.1082 12.7349 12.1849 12.6542 12.2727 12.4713C12.3661 12.294 12.3001 12.1112 12.2343 11.9768C12.1685 11.8423 11.62 10.5306 11.3951 9.99854Z" fill="#26D366"/>
</svg>
