<svg width="24" height="24" viewBox="0 0 24 24" fill="none" xmlns="http://www.w3.org/2000/svg">
<path d="M13 3V9H19" stroke="white" stroke-width="1.2" stroke-linecap="round" stroke-linejoin="round"/>
<path d="M13 3L19 9V21H5V3H13Z" stroke="white" stroke-width="1.2" stroke-linecap="round" stroke-linejoin="round"/>
<path d="M6.08576 15H6.83576L7.67576 13.71L8.53076 15H9.28076L8.11076 13.26L9.27076 11.515H8.52576L7.68076 12.825L6.84076 11.515H6.09076L7.25076 13.26L6.08576 15ZM9.77154 15H11.8865V14.425H10.3965V11.515H9.77154V15ZM13.3838 15.04C14.0988 15.04 14.5938 14.61 14.5938 13.985C14.5938 13.485 14.3488 13.225 13.5988 12.94C13.0788 12.735 12.9088 12.6 12.9088 12.395C12.9088 12.185 13.0988 12.02 13.3488 12.02C13.5838 12.02 13.7888 12.16 13.9088 12.395L14.4288 12.075C14.2088 11.68 13.8388 11.465 13.3688 11.465C12.7188 11.465 12.2838 11.85 12.2838 12.425C12.2838 12.895 12.5438 13.16 13.2738 13.445C13.7888 13.65 13.9688 13.8 13.9688 14.04C13.9688 14.31 13.7438 14.485 13.3938 14.485C12.9888 14.485 12.7138 14.25 12.6688 13.86L12.0488 14.015C12.1488 14.625 12.6888 15.04 13.3838 15.04ZM14.7235 15H15.4735L16.3135 13.71L17.1685 15H17.9185L16.7485 13.26L17.9085 11.515H17.1635L16.3185 12.825L15.4785 11.515H14.7285L15.8885 13.26L14.7235 15Z" fill="white"/>
</svg>
